<svg width="485" height="484" viewBox="0 0 485 484" fill="none" xmlns="http://www.w3.org/2000/svg">
<path d="M287.559 257.508C284.587 260.131 280.851 261.777 277.966 264.497C277.966 264.497 245.751 287.942 245.712 287.768C245.451 287.255 245.277 286.703 245.199 286.141C245.199 286.141 250.068 217.2 250.03 217.017C248.645 215.506 247.968 213.377 248.219 211.334C240.466 215.09 230.679 214.209 223.719 209.127C224.329 210.289 223.681 211.712 222.877 212.748C222.074 213.783 221.077 214.78 220.883 216.078C220.883 216.078 205.889 300.584 205.86 301.078C205.163 303.546 205.289 306.16 205.443 308.725C205.676 312.539 205.976 316.382 207.157 320.021C208.338 323.661 210.496 327.088 213.739 329.111C215.569 330.253 217.66 330.892 219.75 331.453C221.377 331.889 223.042 332.286 224.726 332.238C226.11 332.189 227.465 331.841 228.811 331.483C233.119 330.311 237.368 328.937 241.608 327.562C241.608 327.562 287.491 306.895 287.239 307.041C286.252 311.958 285.449 316.924 284.848 321.909C284.519 324.639 284.248 327.436 285.236 330.485C286.852 338.626 291.605 345.751 294.819 353.398C297.026 358.645 298.507 364.162 299.988 369.66L431.53 387.307C431.53 387.307 443.146 368.005 443.165 368.054C445.517 362.023 447.908 355.537 446.475 349.226C445.711 345.857 443.901 342.818 442.787 339.546C441.2 334.89 440.929 329.576 437.802 325.771L390.186 265.281C390.186 265.281 355.551 253.51 355.58 253.413C355.058 252.087 354.515 250.722 353.547 249.677C353.073 249.164 352.483 248.699 352.26 248.031C352.105 247.557 352.154 247.034 351.989 246.57C351.708 245.756 350.866 245.292 350.043 245.04C348.824 244.653 347.497 244.575 346.239 244.798L287.559 257.508Z" fill="url(#paint0_linear_1001_2)"/>
<path d="M305.942 176.602C298.604 176.437 291.296 180.164 287.114 186.194C286.456 187.143 285.875 188.15 285.091 189.002C284.297 189.873 283.242 190.734 283.252 191.915C283.252 191.915 282.555 196.61 282.603 197.172C280.735 206.59 280.115 216.261 280.774 225.844L272.623 229.358C272.623 229.358 281.616 230.364 281.887 230.587C282.071 238.05 283.223 245.494 285.304 252.657C285.807 254.38 286.378 256.132 287.482 257.546C289.573 260.246 293.551 261.282 296.697 259.956L306.077 256.868L312.543 254.284C312.543 254.284 320.374 277.699 320.655 277.903C321.672 278.309 322.824 277.922 323.85 277.545C325.437 276.954 327.015 276.364 328.602 275.773L335.785 270.807C335.785 270.807 349.831 254.826 349.734 254.835C348.911 254.564 348.011 254.225 347.614 253.461C347.401 253.054 347.372 252.59 347.333 252.135C347.149 250.024 346.733 247.943 346.046 246.075C344.236 247.769 342.387 249.415 340.49 251.012C340.025 251.399 339.551 251.796 338.979 251.989C338.621 252.115 338.234 252.144 337.876 252.27C337.208 252.493 336.676 252.996 336.114 253.441C335.204 254.167 334.178 254.739 332.978 254.903C333.965 249.269 334.052 243.481 333.23 237.828C333.23 237.828 332.049 231.526 332.31 231.439C333.762 231.448 335.224 231.09 336.501 230.403C337.624 229.793 338.612 228.922 339.26 227.828C339.909 226.734 340.189 225.398 339.58 223.675C337.014 220.162 332.591 218.7 328.69 216.774C321.401 213.182 315.244 207.355 311.256 200.279C307.306 193.183 305.516 184.897 305.942 176.602Z" fill="#F2EFFB"/>
<path d="M244.821 212.786C244.637 209.833 245.78 206.968 247.106 204.316C248.422 201.673 249.961 199.079 250.629 196.194C251.016 194.52 251.104 192.777 251.559 191.122C252.623 187.25 255.527 184.21 257.618 180.793C258.238 179.777 258.722 178.296 257.812 177.531C257.076 176.912 255.963 177.25 255.092 177.667C253.136 178.606 251.287 179.787 249.623 181.171C249.623 181.171 249.661 178.489 249.748 178.044C249.787 168.112 253.93 158.616 254.637 148.714C254.656 148.51 254.656 148.288 254.53 148.123C254.404 147.959 254.095 147.939 253.843 148.268C253.078 148.23 252.343 148.617 251.801 149.149C251.258 149.682 250.881 150.359 250.532 151.037C249.022 153.931 247.822 156.98 246.961 160.126C246.961 160.126 247.125 146.226 247.086 146.226C246.554 145.945 245.886 146.052 245.373 146.362C244.86 146.671 244.473 147.146 244.105 147.62C242.459 149.75 241.007 152.111 240.417 154.744C240.417 154.744 240.059 148.259 239.768 148.298C239.584 147.901 239.052 147.765 238.636 147.891C238.219 148.017 237.9 148.356 237.619 148.694C236.419 150.195 235.79 152.053 235.044 153.922C234.87 153.544 234.706 153.157 234.531 152.779C232.624 153.031 231.008 154.406 230.03 156.071C229.053 157.726 228.627 159.652 228.288 161.54C227.465 166.167 227.068 170.881 227.3 175.789C224.939 179.003 224.619 183.223 224.406 187.211C224.096 192.942 223.883 198.934 226.342 204.122C226.342 204.122 225.316 210.027 225.548 210.288C228.036 212.447 231.356 213.463 234.648 213.686C237.919 213.909 241.211 213.415 244.821 212.786Z" fill="#F2EFFB"/>
<path d="M306.504 176.186C305.953 182.768 306.388 189.563 308.973 195.642C311.712 202.05 316.649 207.229 322.002 212.389C325.138 213.279 327.462 215.874 330.346 217.393C331.605 218.061 332.97 218.516 334.247 219.136C337.016 220.472 339.542 222.795 340.172 226.038C339.571 228.37 337.616 230.297 335.283 230.858C334.189 231.12 333.047 231.1 332.04 231.604C332.979 233.394 333.124 235.485 333.241 237.499C333.608 243.587 333.976 249.734 332.999 255.755C332.999 255.755 334.557 254.419 335.051 253.674C338.294 252.929 341.294 251.128 343.463 248.602C344.644 247.227 345.612 245.63 347.025 244.488C348.177 243.558 349.58 242.978 350.994 242.513C358.283 240.093 366.685 240.083 372.445 235.408C369.976 235.05 367.76 233.559 366.124 231.671C364.488 229.784 363.365 227.509 362.397 225.205C359.522 218.342 357.896 210.966 357.625 203.532C357.508 200.356 357.634 197.172 357.276 194.006C356.308 185.42 351.613 177.318 344.663 172.207C335.157 166.07 323.822 162.817 312.003 162.856C308.954 161.607 305.749 160.765 302.478 160.33C299.332 159.913 295.992 159.923 293.146 161.336C291.849 161.985 290.697 162.895 289.652 163.902C284.657 168.713 282.014 175.421 279.701 181.955C279.178 183.436 278.655 184.936 278.568 186.504C278.374 189.999 280.33 193.213 282.208 196.165C282.208 196.165 284.289 190.27 284.724 189.931C286.912 187.153 288.345 183.746 291.084 181.51C292.546 180.319 294.298 179.535 296.021 178.77C298.654 177.618 301.393 176.428 306.504 176.186Z" fill="url(#paint1_linear_1001_2)"/>
<path d="M312.668 254.109C317.324 251.931 321.738 249.25 325.794 246.162C324.758 253.354 321.312 260.169 316.133 265.27L312.668 254.109Z" fill="#36275B"/>
<path d="M311.257 276.741C310.618 278.087 310.221 279.539 310.096 281.02C310.086 281.175 310.086 281.358 310.212 281.446C310.376 281.571 310.609 281.426 310.773 281.3C313.029 279.519 316.126 279.461 318.953 278.977C319.321 278.919 319.708 278.832 319.959 278.551C320.105 278.387 320.172 278.183 320.201 277.97C320.318 277.099 319.698 276.257 318.914 275.851C318.13 275.454 317.22 275.405 316.339 275.405C314.655 275.405 312.971 275.55 311.257 276.741Z" fill="#36275B"/>
<path d="M376.537 310.379C377.331 320.853 379.722 331.191 383.613 340.948C384.107 342.197 384.659 343.465 385.646 344.365C387.698 346.224 391.028 345.982 393.148 347.753C394.842 349.176 395.549 351.713 397.572 352.603C398.859 353.174 400.35 352.903 401.724 352.622C402.296 352.506 402.876 352.39 403.37 352.071C403.999 351.664 404.386 350.986 404.812 350.377C405.606 349.244 406.603 348.266 407.755 347.492L376.537 310.379Z" fill="#36275B"/>
<path d="M298.622 215.651C299.756 215.651 300.675 213.957 300.675 211.866C300.675 209.776 299.756 208.082 298.622 208.082C297.489 208.082 296.57 209.776 296.57 211.866C296.57 213.957 297.489 215.651 298.622 215.651Z" fill="#36275B"/>
<path d="M284.8 208.856C285.934 208.856 286.852 207.161 286.852 205.071C286.852 202.981 285.934 201.286 284.8 201.286C283.667 201.286 282.748 202.981 282.748 205.071C282.748 207.161 283.667 208.856 284.8 208.856Z" fill="#36275B"/>
<path d="M280.773 223.656C280.521 223.656 280.308 223.462 280.289 223.201C279.533 212.311 280.579 201.45 283.396 190.928C283.464 190.666 283.725 190.512 283.986 190.589C284.248 190.657 284.403 190.928 284.325 191.179C281.537 201.605 280.511 212.35 281.257 223.143C281.276 223.414 281.073 223.636 280.811 223.656C280.792 223.656 280.782 223.656 280.773 223.656Z" fill="#36275B"/>
<path d="M294.217 231.457C294.208 231.457 294.198 231.457 294.179 231.457L271.121 229.86C270.889 229.841 270.695 229.667 270.676 229.434C270.656 229.202 270.792 228.979 271.024 228.921C275.38 227.644 280.307 226.182 284.131 223.162C288.671 219.561 291.604 213.54 291.972 207.054C291.991 206.793 292.194 206.59 292.485 206.599C292.756 206.619 292.959 206.841 292.94 207.112C292.552 213.859 289.484 220.142 284.731 223.917C281.508 226.472 277.578 227.924 273.841 229.086L294.246 230.499C294.518 230.518 294.711 230.751 294.692 231.012C294.682 231.264 294.469 231.457 294.217 231.457Z" fill="#36275B"/>
<path d="M320.703 278.812C320.664 278.812 320.616 278.802 320.577 278.793C320.238 278.705 319.532 278.512 312.62 254.941C306.657 257.952 300.269 259.926 293.618 260.807C290.269 260.73 287.075 258.648 285.603 255.619C283.416 247.846 281.964 239.86 281.247 231.825C281.228 231.564 281.422 231.322 281.683 231.302C281.925 231.283 282.186 231.477 282.206 231.738C282.912 239.724 284.355 247.642 286.494 255.28C287.781 257.903 290.637 259.771 293.56 259.839C300.22 258.958 306.686 256.925 312.698 253.818C312.824 253.75 312.978 253.75 313.114 253.799C313.249 253.857 313.346 253.973 313.385 254.109C315.834 262.482 319.919 275.889 320.897 277.786C326.647 276.431 332.242 273.381 337.537 268.706C342.744 264.118 346.887 258.639 350.256 253.886C350.411 253.663 350.711 253.615 350.934 253.77C351.156 253.925 351.205 254.225 351.05 254.447C347.643 259.249 343.461 264.786 338.176 269.442C332.668 274.301 326.821 277.447 320.81 278.802C320.781 278.812 320.742 278.812 320.703 278.812Z" fill="#36275B"/>
<path d="M347.691 253.954C347.469 253.954 347.265 253.799 347.217 253.566L345.533 245.551C345.475 245.29 345.649 245.029 345.91 244.98C346.172 244.922 346.433 245.096 346.481 245.358L348.166 253.373C348.224 253.634 348.049 253.896 347.788 253.944C347.759 253.954 347.73 253.954 347.691 253.954Z" fill="#36275B"/>
<path d="M345.716 291.357C345.687 291.357 345.658 291.357 345.628 291.348C345.483 291.319 345.367 291.232 345.299 291.106C343.015 286.905 339.685 283.294 335.677 280.68C333.161 279.035 330.944 278.289 328.95 278.425C328.689 278.444 328.456 278.241 328.437 277.97C328.417 277.699 328.621 277.476 328.892 277.457C331.118 277.312 333.519 278.096 336.22 279.867C340.043 282.365 343.267 285.724 345.599 289.644C347.003 284.62 352.763 262.927 355.115 254.06C355.396 253.189 354.863 252.289 354.621 251.94C354.37 251.582 354.069 251.243 353.75 250.895C353.46 250.576 353.169 250.256 352.918 249.908C352.366 249.162 351.95 248.31 351.727 247.43L351.64 247.091C351.504 246.539 351.378 246.026 351.04 245.745C350.72 245.494 350.256 245.465 349.723 245.435C349.326 245.416 348.92 245.397 348.513 245.271C348.261 245.193 348.116 244.922 348.194 244.671C348.271 244.419 348.542 244.274 348.794 244.351C349.084 244.438 349.423 244.458 349.772 244.477C350.381 244.506 351.078 244.545 351.64 245C352.24 245.484 352.424 246.229 352.579 246.878L352.656 247.197C352.85 247.962 353.208 248.698 353.692 249.346C353.934 249.666 354.205 249.966 354.466 250.256C354.786 250.614 355.125 250.982 355.415 251.398C356.093 252.376 356.325 253.451 356.034 254.341C346.325 291.019 346.2 291.125 346.035 291.251C345.938 291.319 345.832 291.357 345.716 291.357Z" fill="#36275B"/>
<path d="M322.32 284.224C320.675 284.224 319.339 284.021 318.129 283.604C316.096 282.898 314.538 281.504 313.86 279.79C313.763 279.539 313.88 279.258 314.131 279.161C314.383 279.064 314.664 279.181 314.76 279.432C315.331 280.865 316.706 282.085 318.448 282.685C319.862 283.178 321.469 283.343 323.685 283.207C327.277 283.004 330.79 282.239 334.13 280.913C334.382 280.816 334.662 280.933 334.759 281.184C334.856 281.436 334.74 281.717 334.488 281.813C331.062 283.169 327.441 283.962 323.753 284.166C323.24 284.214 322.775 284.224 322.32 284.224Z" fill="#36275B"/>
<path d="M308.205 278.531C308.128 278.531 308.05 278.511 307.983 278.482C307.741 278.357 307.654 278.066 307.77 277.834C308.041 277.311 308.525 276.982 309.018 276.721C311.584 275.327 314.594 274.707 317.488 274.959C317.759 274.978 317.953 275.22 317.924 275.482C317.895 275.753 317.643 275.937 317.401 275.917C314.681 275.675 311.874 276.256 309.473 277.563C309.125 277.756 308.776 277.969 308.631 278.269C308.554 278.434 308.38 278.531 308.205 278.531Z" fill="#36275B"/>
<path d="M308.236 278.135C308.139 278.135 308.032 278.106 307.945 278.038C307.732 277.883 307.684 277.574 307.839 277.361C310.162 274.195 312.35 270.856 314.334 267.419C314.47 267.187 314.77 267.11 314.992 267.245C315.225 267.381 315.302 267.671 315.167 267.903C313.163 271.369 310.956 274.747 308.613 277.941C308.536 278.067 308.391 278.135 308.236 278.135Z" fill="#36275B"/>
<path d="M305.903 205.274C305.748 205.274 305.602 205.206 305.506 205.07C304.344 203.405 302.524 202.254 300.511 201.895C298.497 201.547 296.387 202.012 294.722 203.173C294.509 203.328 294.199 203.27 294.045 203.057C293.89 202.834 293.948 202.534 294.161 202.379C296.029 201.073 298.401 200.55 300.666 200.947C302.931 201.353 304.983 202.65 306.28 204.528C306.435 204.751 306.377 205.051 306.164 205.206C306.096 205.245 305.999 205.274 305.903 205.274Z" fill="#36275B"/>
<path d="M289.371 201.062C289.196 201.062 289.032 200.965 288.945 200.81C288.277 199.562 287.396 198.623 286.409 198.1C285.286 197.5 283.94 197.461 282.982 198.003C282.75 198.129 282.459 198.051 282.324 197.819C282.198 197.587 282.275 197.287 282.508 197.161C283.776 196.454 285.441 196.493 286.864 197.258C288.045 197.887 289.032 198.932 289.797 200.365C289.922 200.597 289.835 200.897 289.603 201.023C289.526 201.043 289.448 201.062 289.371 201.062Z" fill="#36275B"/>
<path d="M309.88 240.615C309.793 240.615 309.696 240.586 309.619 240.538C309.396 240.392 309.328 240.092 309.473 239.87C310.374 238.466 311.39 236.879 311.661 235.117C311.845 233.897 311.516 232.339 310.354 231.797C309.241 231.284 307.818 231.951 306.85 232.494C306.143 232.89 305.447 233.316 304.75 233.742C303.375 234.584 301.942 235.456 300.432 236.114C298.525 236.937 295.679 237.73 292.959 236.801C292.708 236.714 292.572 236.443 292.659 236.191C292.746 235.94 293.017 235.804 293.269 235.891C295.699 236.714 298.293 235.988 300.045 235.223C301.497 234.594 302.891 233.742 304.246 232.919C304.953 232.484 305.66 232.058 306.386 231.651C307.547 231.003 309.26 230.219 310.771 230.916C312.387 231.671 312.861 233.694 312.629 235.262C312.339 237.227 311.206 238.989 310.306 240.402C310.199 240.538 310.045 240.615 309.88 240.615Z" fill="#36275B"/>
<path d="M333.529 231.67C332.968 231.67 332.416 231.602 331.874 231.467C331.613 231.399 331.458 231.138 331.526 230.876C331.593 230.615 331.855 230.46 332.116 230.528C333.684 230.935 335.436 230.635 336.782 229.734C338.127 228.834 339.066 227.334 339.299 225.727C339.337 225.465 339.579 225.272 339.85 225.32C340.112 225.359 340.296 225.601 340.257 225.872C339.986 227.75 338.882 229.492 337.314 230.538C336.211 231.273 334.875 231.67 333.529 231.67Z" fill="#36275B"/>
<path d="M343.306 231.874H343.296C343.025 231.864 342.822 231.642 342.822 231.38C342.918 227.992 340.818 224.362 337.197 221.691C335.097 220.132 332.687 218.941 330.354 217.79C329.134 217.189 327.866 216.56 326.656 215.892C319.599 211.982 313.714 206.009 310.093 199.078C307.073 193.319 305.583 186.755 305.786 180.522C304.092 187.481 305.302 195.061 309.213 201.13C309.464 201.517 309.726 201.905 309.997 202.292C311.303 204.218 312.659 206.212 312.765 208.584C312.775 208.855 312.572 209.078 312.3 209.087C312.029 209.107 311.807 208.894 311.797 208.623C311.7 206.512 310.423 204.644 309.193 202.824C308.922 202.427 308.661 202.031 308.399 201.643C303.53 194.103 302.708 184.306 306.25 176.059C306.347 175.836 306.599 175.72 306.831 175.788C307.064 175.856 307.209 176.088 307.17 176.33C305.941 183.561 307.315 191.683 310.945 198.613C314.488 205.37 320.228 211.197 327.121 215.031C328.311 215.689 329.57 216.309 330.78 216.909C333.151 218.08 335.6 219.29 337.778 220.907C341.65 223.772 343.896 227.692 343.79 231.409C343.78 231.671 343.567 231.874 343.306 231.874Z" fill="#36275B"/>
<path d="M280.859 192.215C280.627 192.215 280.424 192.05 280.385 191.818C280.337 191.557 280.511 191.305 280.772 191.257C283.154 190.821 284.741 188.633 286.27 186.513C286.542 186.136 286.813 185.758 287.093 185.4C291.788 179.166 299.242 175.556 306.589 176.001C306.811 176.011 306.995 176.185 307.034 176.408C307.073 176.63 306.957 176.843 306.744 176.93C301.516 179.137 297.083 183.009 294.276 187.849C294.14 188.082 293.84 188.159 293.618 188.024C293.385 187.888 293.308 187.598 293.443 187.365C295.999 182.961 299.852 179.321 304.42 176.959C298.119 177.269 291.924 180.599 287.868 185.981C287.597 186.339 287.326 186.707 287.064 187.085C285.419 189.359 283.715 191.712 280.946 192.215C280.917 192.215 280.888 192.215 280.859 192.215Z" fill="#36275B"/>
<path d="M282.292 196.426C282.176 196.426 282.05 196.387 281.963 196.291C279.678 194.151 278.342 191.131 278.304 187.995C278.275 185.73 278.904 183.532 279.601 181.5C280.733 178.15 282.137 174.84 283.763 171.674C284.828 169.603 286.328 166.931 288.4 164.656C290.51 162.352 292.959 160.755 295.486 160.029C299.029 159.013 302.736 159.661 305.563 160.339C310.422 161.51 315.078 163.369 319.386 165.857C319.618 165.992 319.695 166.283 319.56 166.515C319.424 166.747 319.124 166.825 318.902 166.689C314.662 164.24 310.103 162.42 305.33 161.268C302.62 160.62 299.087 159.991 295.747 160.939C293.385 161.617 291.091 163.117 289.107 165.295C287.103 167.483 285.651 170.087 284.615 172.1C283.008 175.227 281.624 178.489 280.511 181.79C279.853 183.745 279.243 185.836 279.272 187.956C279.31 190.783 280.559 193.629 282.621 195.555C282.815 195.739 282.824 196.049 282.64 196.242C282.553 196.378 282.427 196.426 282.292 196.426Z" fill="#36275B"/>
<path d="M284.762 182.293C284.685 182.293 284.607 182.273 284.539 182.244C284.297 182.118 284.21 181.828 284.326 181.596C288.895 172.671 298.672 166.843 308.72 167.056C308.991 167.066 309.194 167.288 309.194 167.55C309.185 167.821 308.962 168.044 308.701 168.024C299.04 167.802 289.592 173.435 285.198 182.041C285.11 182.196 284.936 182.293 284.762 182.293Z" fill="#36275B"/>
<path d="M331.776 213.202C331.66 213.202 331.534 213.153 331.447 213.066C330.188 211.866 328.707 210.995 327.149 210.065C326.191 209.494 325.203 208.913 324.274 208.245C319.289 204.654 316.656 199.117 315.339 195.11C313.674 190.066 313.094 184.694 312.522 179.506C312.493 179.244 312.687 178.973 312.948 178.944C313.219 178.915 313.452 179.08 313.481 179.341L313.49 179.399C314.052 184.539 314.623 189.863 316.259 194.81C317.537 198.682 320.063 204.025 324.845 207.461C325.736 208.1 326.704 208.671 327.643 209.233C329.182 210.143 330.779 211.091 332.115 212.359C332.308 212.543 332.318 212.853 332.134 213.047C332.037 213.153 331.902 213.202 331.776 213.202Z" fill="#36275B"/>
<path d="M345.349 223.471C345.339 223.471 345.339 223.471 345.33 223.471C345.059 223.462 344.855 223.239 344.865 222.968C344.962 220.635 344.526 218.273 343.616 216.124C342.077 212.494 339.222 209.532 336.463 206.667L336.153 206.348C333.307 203.376 330.577 200.433 328.399 197.074C325.912 193.241 324.489 189.417 324.16 185.71C324.14 185.448 324.334 185.206 324.595 185.187C324.876 185.158 325.099 185.361 325.118 185.623C325.428 189.166 326.802 192.844 329.203 196.542C331.332 199.833 334.033 202.737 336.84 205.68L337.15 205.999C339.967 208.932 342.881 211.952 344.497 215.757C345.465 218.041 345.92 220.548 345.823 223.026C345.823 223.268 345.61 223.471 345.349 223.471Z" fill="#36275B"/>
<path d="M349.008 220.606C348.97 220.606 348.931 220.606 348.892 220.597C348.631 220.529 348.476 220.268 348.534 220.016C349.599 215.66 349.163 211.014 347.324 206.919C346.511 205.109 345.407 203.395 344.342 201.74C343.994 201.188 343.636 200.637 343.297 200.085C340.916 196.242 338.951 192.128 337.46 187.859C337.373 187.607 337.508 187.327 337.76 187.239C338.012 187.152 338.292 187.288 338.38 187.54C339.851 191.741 341.777 195.787 344.12 199.572C344.459 200.124 344.807 200.666 345.165 201.217C346.249 202.911 347.372 204.654 348.214 206.522C350.15 210.801 350.596 215.679 349.483 220.239C349.424 220.461 349.231 220.606 349.008 220.606Z" fill="#36275B"/>
<path d="M332.803 255.899C332.658 255.899 332.522 255.831 332.435 255.725C332.338 255.609 332.309 255.463 332.329 255.328C333.897 247.187 333.645 239.211 331.583 231.622C331.516 231.36 331.661 231.099 331.922 231.031C332.184 230.963 332.445 231.118 332.513 231.37C334.555 238.891 334.855 246.771 333.403 254.815C333.994 254.583 334.516 254.04 335.058 253.479C335.872 252.656 336.811 251.746 338.059 251.737C338.234 251.737 338.398 251.766 338.563 251.785C338.776 251.814 338.979 251.843 339.143 251.814C339.521 251.756 339.84 251.417 340.199 251.011C341.96 249.007 343.77 247.061 345.59 245.222C346.21 244.603 346.975 243.818 347.846 243.247C348.969 242.502 350.266 242.076 351.398 241.737C353.576 241.098 355.861 240.614 358.058 240.15C362.772 239.153 367.641 238.117 371.63 235.503C369.151 234.864 366.809 233.258 364.931 230.896C362.898 228.33 361.717 225.301 360.836 222.677C358.445 215.533 357.226 208.002 357.226 200.297C356.945 198.71 356.761 197.006 356.577 195.351C356.267 192.476 355.948 189.494 355.057 186.726C352.657 179.253 346.51 174.113 341.786 171.122C333.965 166.175 324.565 163.455 315.311 163.455C315.282 163.455 315.244 163.455 315.214 163.455C314.943 163.455 314.73 163.242 314.73 162.971C314.73 162.671 315.011 162.487 315.311 162.487C324.749 162.487 334.323 165.265 342.309 170.309C347.168 173.387 353.489 178.682 355.987 186.435C356.906 189.301 357.235 192.331 357.545 195.254C357.719 196.89 357.903 198.584 358.184 200.22C358.194 207.906 359.384 215.33 361.746 222.377C362.608 224.923 363.75 227.856 365.686 230.305C367.661 232.793 370.284 234.429 372.898 234.777C373.091 234.806 373.256 234.942 373.304 235.135C373.353 235.329 373.285 235.523 373.13 235.649C368.822 238.872 363.46 240.014 358.271 241.118C356.083 241.582 353.828 242.057 351.679 242.686C350.624 243.005 349.404 243.402 348.388 244.08C347.652 244.564 347.033 245.174 346.287 245.929C344.477 247.749 342.677 249.685 340.934 251.679C340.557 252.105 340.053 252.676 339.308 252.792C338.998 252.85 338.698 252.801 338.437 252.772C338.301 252.753 338.175 252.734 338.04 252.734C338.03 252.734 338.03 252.734 338.021 252.734C337.178 252.734 336.481 253.44 335.755 254.186C334.923 255.009 334.061 255.889 332.803 255.899Z" fill="#36275B"/>
<path d="M245.501 288.666C245.346 288.666 245.201 288.599 245.104 288.463C244.949 288.241 244.997 287.94 245.22 287.786C258.917 278.115 272.527 268.193 285.653 258.281C285.866 258.126 286.166 258.165 286.331 258.378C286.496 258.591 286.447 258.891 286.234 259.055C273.098 268.977 259.488 278.909 245.781 288.579C245.694 288.637 245.598 288.666 245.501 288.666Z" fill="#36275B"/>
<path d="M224.455 332.352C218.134 332.352 212.461 329.836 209.277 325.615C206.721 322.247 205.85 317.958 205.414 315.035C204.621 309.692 204.659 304.271 205.521 298.937C205.531 298.898 205.54 298.86 205.55 298.831C205.831 297.669 220.409 217.112 220.554 216.299C220.573 215.641 220.815 214.895 221.232 214.286C221.386 214.063 221.57 213.85 221.745 213.647C221.88 213.492 222.006 213.337 222.132 213.172C223.013 211.962 223.08 210.22 223.129 208.816C223.138 208.632 223.245 208.468 223.419 208.39C223.584 208.313 223.787 208.342 223.923 208.458C230.331 213.811 240.195 214.857 247.9 211.004C248.055 210.927 248.239 210.936 248.374 211.033C248.519 211.13 248.607 211.285 248.597 211.459C248.529 213.463 249.12 215.389 250.213 216.754C250.262 216.812 250.291 216.889 250.31 216.957C250.33 217.044 250.349 217.17 245.732 286.915C246.148 289.064 246.642 291.726 245.703 294.078C245.548 294.475 245.344 294.872 245.141 295.268C244.667 296.188 244.222 297.059 244.386 297.94C244.405 298.027 244.425 298.114 244.444 298.211C244.522 298.521 244.609 298.908 244.502 299.315C244.386 299.75 244.067 300.041 243.815 300.273L243.679 300.399C242.576 301.454 242.247 303.216 242.895 304.59C243.012 304.832 242.905 305.123 242.663 305.239C242.421 305.355 242.131 305.248 242.014 305.006C241.192 303.264 241.598 301.038 243.002 299.702L243.157 299.557C243.341 299.382 243.525 299.218 243.563 299.053C243.612 298.889 243.554 298.666 243.505 298.434C243.476 298.327 243.457 298.221 243.437 298.114C243.224 296.914 243.767 295.859 244.289 294.833C244.473 294.465 244.667 294.097 244.812 293.729C245.654 291.619 245.17 289.083 244.773 287.05C244.764 287.011 244.764 286.973 244.764 286.924C244.812 286.247 249.129 220.994 249.342 217.228C248.306 215.863 247.706 214.121 247.629 212.224C240.001 215.708 230.553 214.74 224.048 209.823C223.971 211.149 223.758 212.601 222.906 213.763C222.771 213.947 222.625 214.121 222.48 214.295C222.325 214.479 222.161 214.663 222.025 214.866C221.716 215.321 221.532 215.873 221.512 216.425C216.072 246.52 207.021 296.449 206.47 299.111H206.479C205.627 304.358 205.598 309.672 206.373 314.919C206.789 317.736 207.621 321.859 210.041 325.054C213.042 329.032 218.424 331.404 224.445 331.404C230.137 331.404 235.732 329.439 240.456 327.512L284.616 307.349C284.858 307.243 285.149 307.349 285.255 307.591C285.362 307.833 285.255 308.123 285.013 308.23L240.834 328.403C236.023 330.349 230.311 332.352 224.455 332.352Z" fill="#36275B"/>
<path d="M299.533 369.707C299.31 369.707 299.116 369.552 299.058 369.329C297.267 361.527 294.625 353.919 291.198 346.698C290.714 345.681 290.211 344.655 289.707 343.639C287.2 338.537 284.606 333.262 284.112 327.521C283.764 323.524 284.49 319.4 285.08 316.08C286.861 305.809 288.865 295.529 290.801 285.588C290.85 285.326 291.111 285.152 291.372 285.2C291.634 285.249 291.808 285.51 291.759 285.772C289.823 295.713 287.82 305.983 286.039 316.244C285.467 319.506 284.751 323.562 285.09 327.434C285.564 332.991 288.12 338.189 290.588 343.213C291.092 344.239 291.595 345.265 292.079 346.281C295.535 353.561 298.206 361.237 300.017 369.107C300.075 369.368 299.91 369.629 299.649 369.687C299.61 369.707 299.571 369.707 299.533 369.707Z" fill="#36275B"/>
<path d="M431.443 387.393C431.375 387.393 431.308 387.383 431.24 387.345C430.998 387.229 430.891 386.948 431.007 386.706C432.769 382.931 435.092 379.397 437.338 375.98C438.751 373.822 440.223 371.595 441.53 369.33C445.663 362.177 447.221 355.972 446.302 350.367C445.828 347.444 444.627 344.637 443.466 341.916C442.565 339.797 441.636 337.609 441.026 335.344C440.823 334.598 440.658 333.834 440.484 333.079C439.981 330.823 439.468 328.49 438.074 326.709L438.122 326.67C436.874 325.431 430.311 317.455 389.722 265.861C379.181 261.824 368.3 258.107 357.391 254.787C357.139 254.709 356.994 254.438 357.072 254.187C357.149 253.935 357.42 253.79 357.672 253.867C368.649 257.207 379.587 260.953 390.187 265.009C390.264 265.038 390.342 265.096 390.39 265.164C406.507 285.656 437.232 324.589 438.703 326.012C438.742 326.041 438.781 326.08 438.819 326.119C440.339 328.074 440.881 330.513 441.404 332.875C441.568 333.621 441.733 334.376 441.927 335.102C442.517 337.299 443.437 339.458 444.327 341.549C445.508 344.317 446.728 347.182 447.221 350.222C448.18 356.049 446.583 362.467 442.333 369.824C441.017 372.108 439.536 374.354 438.113 376.522C435.886 379.91 433.582 383.415 431.85 387.132C431.801 387.287 431.627 387.393 431.443 387.393Z" fill="#36275B"/>
<path d="M376.294 308.588C376.091 308.588 375.907 308.463 375.839 308.259C372.219 297.476 372.712 285.298 377.204 274.834C378.22 272.463 379.933 269.162 383.021 267.836C383.263 267.729 383.554 267.845 383.66 268.087C383.767 268.329 383.651 268.62 383.409 268.726C380.669 269.907 379.13 272.811 378.094 275.221C373.7 285.463 373.206 297.389 376.758 307.95C376.846 308.201 376.71 308.472 376.458 308.559C376.4 308.579 376.352 308.588 376.294 308.588Z" fill="#36275B"/>
<path d="M409.583 350.135C409.448 350.135 409.312 350.077 409.216 349.97C399.265 338.674 389.372 327.145 379.808 315.703C379.634 315.5 379.663 315.19 379.866 315.025C380.069 314.851 380.379 314.88 380.543 315.083C390.107 326.525 399.991 338.044 409.932 349.331C410.106 349.535 410.087 349.835 409.893 350.019C409.816 350.096 409.7 350.135 409.583 350.135Z" fill="#36275B"/>
<path d="M407.825 354.345C407.573 354.345 407.36 354.151 407.341 353.9C407.186 351.993 409.054 350.657 410.855 350.057C414.746 348.75 418.957 348.886 421.793 349.089C424.804 349.311 428.54 349.902 430.805 352.506C430.98 352.709 430.96 353.009 430.757 353.193C430.554 353.367 430.254 353.348 430.07 353.145C428.037 350.802 424.542 350.27 421.716 350.057C417.292 349.728 414.03 350.008 411.165 350.967C409.78 351.431 408.193 352.467 408.309 353.822C408.328 354.093 408.135 354.326 407.864 354.345C407.854 354.345 407.835 354.345 407.825 354.345Z" fill="#36275B"/>
<path d="M388.802 380.064C388.695 380.064 388.589 380.026 388.501 379.958C388.288 379.793 388.259 379.484 388.424 379.28L404.241 359.281C404.29 358.914 404.512 358.642 404.696 358.42C404.803 358.284 404.899 358.168 404.948 358.052C404.996 357.936 405.006 357.771 405.016 357.587C405.016 357.5 405.025 357.403 405.035 357.316C405.151 356.193 405.954 355.119 407.135 354.519C408.181 353.977 409.352 353.822 410.378 353.725C412.469 353.502 415.209 353.328 417.9 353.967C420.649 354.606 422.924 356.048 424.298 358.023C424.453 358.246 424.395 358.546 424.182 358.701C423.969 358.855 423.659 358.797 423.504 358.584C422.265 356.813 420.194 355.506 417.677 354.916C415.131 354.306 412.498 354.48 410.485 354.693C409.546 354.79 408.481 354.925 407.59 355.39C406.7 355.855 406.09 356.629 406.013 357.432C406.003 357.51 406.003 357.578 405.993 357.655C405.984 357.897 405.964 358.158 405.858 358.43C405.751 358.681 405.596 358.875 405.461 359.049C405.325 359.214 405.199 359.368 405.209 359.465C405.209 359.581 405.18 359.698 405.103 359.785L389.189 379.9C389.092 379.997 388.947 380.064 388.802 380.064Z" fill="#36275B"/>
<path d="M244.676 211.962C244.637 211.962 244.598 211.962 244.56 211.952C244.298 211.885 244.143 211.623 244.201 211.362C245.063 207.887 246.302 204.508 247.899 201.304L248.19 200.733C248.664 199.785 249.158 198.807 249.477 197.8C249.748 196.919 249.893 196.029 250.048 195.07C250.106 194.732 250.164 194.383 250.222 194.044C251.123 189.156 253.378 184.626 256.737 180.947L256.921 180.744C257.269 180.357 257.599 179.999 257.802 179.582C257.986 179.205 258.092 178.653 257.841 178.247C257.589 177.84 257.037 177.685 256.592 177.724C256.021 177.763 255.44 178.043 254.956 178.305C251.239 180.289 248.18 183.474 246.331 187.259C246.273 187.375 246.176 187.462 246.06 187.501C240.688 189.495 236.874 192.263 234.705 195.738C234.56 195.961 234.27 196.038 234.037 195.893C233.815 195.748 233.737 195.458 233.883 195.225C236.138 191.605 240.058 188.73 245.537 186.668C247.483 182.777 250.648 179.505 254.491 177.463C255.062 177.153 255.759 176.824 256.514 176.766C257.395 176.688 258.247 177.085 258.654 177.753C259.041 178.372 259.041 179.224 258.654 180.018C258.392 180.56 257.995 180.996 257.608 181.412L257.434 181.606C254.191 185.158 252.023 189.514 251.152 194.228C251.094 194.567 251.036 194.896 250.977 195.235C250.823 196.184 250.668 197.152 250.368 198.1C250.019 199.184 249.516 200.201 249.022 201.179L248.741 201.75C247.183 204.886 245.963 208.206 245.121 211.614C245.092 211.817 244.898 211.962 244.676 211.962Z" fill="#36275B"/>
<path d="M227.708 206.106C227.562 206.106 227.417 206.038 227.32 205.912C224.223 201.827 223.787 196.436 223.768 192.196C223.739 188.421 223.991 184.616 224.523 180.88C224.765 179.137 225.133 177.298 226.623 175.682C226.623 170.009 227.369 164.346 228.84 158.848C229.198 157.503 229.653 155.954 230.563 154.637C231.58 153.156 233.022 152.237 234.503 152.111C234.774 152.082 235.006 152.285 235.026 152.556C235.045 152.818 234.851 153.06 234.58 153.079C233.399 153.176 232.199 153.969 231.357 155.199C230.534 156.399 230.108 157.851 229.769 159.11C228.298 164.588 227.572 170.232 227.591 175.885C227.591 176.011 227.543 176.137 227.456 176.224C226.052 177.666 225.723 179.312 225.481 181.025C224.959 184.713 224.697 188.479 224.736 192.205C224.765 196.3 225.162 201.489 228.095 205.341C228.259 205.554 228.211 205.854 227.998 206.019C227.911 206.077 227.814 206.106 227.708 206.106Z" fill="#36275B"/>
<path d="M232.915 172.904C232.905 172.904 232.886 172.904 232.876 172.904C232.605 172.884 232.412 172.652 232.431 172.381C232.867 166.679 233.66 160.871 234.793 155.121C235.17 153.195 235.616 151.162 236.584 149.352C237.31 147.987 238.249 147.242 239.294 147.184C239.536 147.174 239.875 147.203 240.156 147.397C240.659 147.755 240.678 148.394 240.688 148.742C240.698 149.739 240.707 150.727 240.727 151.704C240.736 151.975 240.524 152.188 240.252 152.198C239.962 152.179 239.768 151.995 239.759 151.724C239.739 150.736 239.73 149.749 239.72 148.762C239.72 148.636 239.71 148.268 239.604 148.191C239.585 148.181 239.497 148.142 239.352 148.152C238.433 148.2 237.765 149.217 237.445 149.817C236.545 151.511 236.109 153.466 235.751 155.315C234.628 161.026 233.844 166.796 233.409 172.458C233.38 172.71 233.167 172.904 232.915 172.904Z" fill="#36275B"/>
<path d="M238.801 171.538C238.791 171.538 238.791 171.538 238.781 171.538C238.51 171.529 238.307 171.296 238.317 171.035C238.597 164.414 238.927 156.912 241.889 150.388C242.653 148.723 243.921 146.38 246.235 145.373C246.864 145.093 247.435 145.17 247.755 145.577C247.997 145.867 247.977 146.235 247.968 146.467L247.096 160.697C247.077 160.968 246.854 161.161 246.583 161.152C246.312 161.132 246.109 160.91 246.128 160.639L247 146.419C247 146.351 247.009 146.216 246.99 146.167C246.971 146.167 246.816 146.177 246.622 146.264C245.102 146.932 243.873 148.374 242.77 150.794C239.885 157.144 239.565 164.549 239.275 171.074C239.275 171.335 239.062 171.538 238.801 171.538Z" fill="#36275B"/>
<path d="M249.556 179.118C249.546 179.118 249.527 179.118 249.517 179.118C249.246 179.098 249.052 178.866 249.072 178.595C249.827 168.789 251.608 159.051 254.347 149.642C254.541 148.964 254.531 148.529 254.328 148.374C254.241 148.306 254.105 148.267 253.921 148.267C253.06 148.277 252.315 149.052 251.579 150.697C248.714 157.154 245.713 164.849 245.2 172.99C245.18 173.252 244.977 173.455 244.687 173.445C244.416 173.426 244.212 173.203 244.232 172.932C244.754 164.646 247.794 156.844 250.688 150.31C251.259 149.022 252.218 147.319 253.912 147.299C254.318 147.299 254.657 147.406 254.918 147.609C255.741 148.248 255.402 149.458 255.277 149.913C252.557 159.264 250.785 168.934 250.04 178.672C250.02 178.924 249.807 179.118 249.556 179.118Z" fill="#36275B"/>
<path d="M246.187 176.078C246.109 176.078 246.032 176.059 245.954 176.02C242.16 173.929 237.542 173.252 233.312 174.152C232.257 174.375 230.95 174.752 230.147 175.701C229.973 175.904 229.673 175.933 229.469 175.759C229.266 175.585 229.237 175.285 229.411 175.081C230.408 173.91 231.909 173.465 233.119 173.203C237.581 172.255 242.431 172.971 246.438 175.168C246.671 175.294 246.758 175.594 246.632 175.827C246.526 175.991 246.361 176.078 246.187 176.078Z" fill="#36275B"/>
<path d="M225.559 210.056C225.53 210.056 225.5 210.056 225.471 210.046C225.21 209.998 225.036 209.746 225.084 209.485C225.442 207.539 225.694 205.574 225.82 203.648C225.839 203.386 226.062 203.183 226.333 203.202C226.604 203.222 226.798 203.454 226.778 203.715C226.643 205.681 226.391 207.684 226.023 209.669C225.994 209.891 225.791 210.056 225.559 210.056Z" fill="#36275B"/>
<path d="M102.982 172.682C106.777 177.144 110.581 181.597 114.375 186.06C115.276 187.124 116.186 188.189 117.25 189.089C118.054 189.777 118.973 190.387 119.516 191.306C119.661 191.548 119.796 191.829 120.048 191.955C120.396 192.119 120.803 191.935 121.122 191.722C123.291 190.241 124.046 187.453 124.646 184.908C119.835 179.39 115.247 173.689 110.91 167.822C113.62 164.725 116.437 161.869 119.467 159.275C119.893 161.492 119.951 163.767 120 166.032C120.067 168.926 120.125 171.811 120.193 174.705C120.212 175.683 120.242 176.67 120.571 177.59C120.842 178.345 121.306 179.013 121.771 179.671C122.739 181.055 123.717 182.439 124.685 183.833C124.781 183.978 124.888 184.124 125.033 184.211C125.236 184.337 125.488 184.327 125.73 184.317C127.869 184.24 130.018 184.501 132.07 185.101C133.358 185.479 134.762 186.137 135.149 187.415C135.594 188.857 134.539 190.319 133.426 191.335C133.097 191.635 132.738 191.945 132.545 192.342C132.158 193.126 132.438 194.065 132.719 194.897C141.325 195.73 150.133 194.733 158.4 192.051C157.055 186.292 155.612 180.223 155.719 174.056C155.786 169.865 156.571 165.712 157.655 161.666C158.197 159.623 158.826 157.455 158.206 155.432C161.633 159.207 165.621 162.615 169.242 166.39C171.391 168.626 173.404 170.978 175.408 173.33C178.273 176.68 181.138 180.039 184.004 183.388C185.727 185.159 187.208 186.95 188.66 188.77C189.299 188.964 189.754 189.07 190.218 189.177C188.698 184.337 190.025 179.119 191.36 174.221C191.699 173.166 191.699 172.082 191.583 171.123C191.467 170.165 191.254 169.168 191.583 168.248C192.077 166.874 193.877 166.157 195.174 166.806C195.552 166.545 164.924 142.964 164.924 142.964L158.962 138.599L156.861 136.498L146.774 135.143C145.758 134.998 144.809 135.588 143.899 136.062C141.538 137.301 138.827 137.873 136.165 137.689C134.248 137.553 132.158 136.885 131.248 135.201C130.754 134.823 115.934 143.255 115.934 143.255C113.969 145.994 112.12 148.811 110.232 151.87C109.332 152.857 108.432 153.845 107.58 154.996C105.092 157.678 102.595 160.359 100.485 163.35C99.991 164.047 99.5166 164.783 99.294 165.606C98.9455 166.922 99.323 168.345 100.01 169.526C100.746 170.707 101.946 171.462 102.982 172.682Z" fill="url(#paint2_linear_1001_2)"/>
<path d="M111.782 149.934C113.243 147.93 114.628 145.868 115.925 143.768C115.925 143.768 129.806 136.179 130.009 136.121C130.329 135.792 130.774 135.598 131.239 135.598C131.519 135.598 131.906 135.598 132.148 135.259C133.32 130.961 133.339 126.363 132.313 122.027C131.277 121.591 130.522 120.613 130.222 119.529C129.922 118.445 130.029 117.274 130.396 116.209C130.619 115.57 130.948 114.931 131.81 114.534C133.32 114.97 134.956 114.796 136.446 114.292C137.937 113.789 139.292 112.976 140.618 112.114C142.254 111.049 143.89 109.869 145.071 108.097C147.027 108.242 148.905 109.249 150.115 110.798C150.453 111.224 150.744 111.717 150.899 112.405C151.586 111.417 151.789 110.14 151.634 108.949C151.47 107.758 150.976 106.626 150.366 105.59C149.611 104.312 148.624 103.102 147.278 102.473C145.933 101.844 144.181 101.921 142.932 103.335C140.599 101.253 136.824 101.447 134.239 103.189C131.645 104.932 130.096 107.884 129.293 110.904C128.76 112.889 128.499 114.951 127.899 116.916C127.299 118.89 126.311 120.826 124.656 122.046C123.766 122.704 122.73 123.12 121.849 123.788C120.968 124.456 120.232 125.482 120.378 126.576C120.465 127.273 120.9 127.893 121.065 128.57C121.471 130.235 120.213 131.92 118.674 132.675C117.135 133.43 115.373 133.507 113.679 133.759C111.395 134.098 109.158 134.765 107.068 135.743C105.974 136.256 104.88 136.885 104.202 137.882C103.254 139.267 103.292 141.203 104.144 142.645C104.996 144.087 106.564 145.046 108.432 145.22C108.916 145.394 109.41 145.588 109.817 145.907C110.349 146.323 110.698 146.953 110.901 147.601C111.075 148.24 111.143 148.918 111.782 149.934Z" fill="#F2EFFB"/>
<path d="M147.51 129.771C148.487 130.768 150.123 130.71 151.459 130.274C152.785 129.838 154.024 129.083 155.408 128.9C155.951 128.822 156.531 128.841 157.035 129.074C157.538 129.306 157.945 129.78 158.003 130.322C158.051 130.816 157.819 131.281 157.654 131.745C157.499 132.21 157.422 132.781 157.741 133.159C157.925 133.381 158.225 133.498 158.419 133.71C158.864 134.204 158.661 134.988 158.332 135.569C157.896 136.334 157.286 137.002 156.599 137.573C154.876 136.595 152.892 136.237 150.946 135.898C149.794 135.695 148.632 135.492 147.461 135.511C146.29 135.53 145.099 135.772 144.112 136.411C143.967 136.034 143.831 135.656 143.686 135.269C143.638 135.153 143.599 135.017 143.647 134.901C143.696 134.785 143.812 134.727 143.928 134.669C145.496 133.904 146.658 132.336 147.51 129.771Z" fill="#F2EFFB"/>
<path d="M150.396 126.876C150.348 126.876 150.299 126.866 150.261 126.856L145.198 125.337C144.946 125.259 144.801 124.988 144.869 124.736C144.946 124.485 145.217 124.34 145.469 124.407L148.499 125.317C146.06 122.771 144.472 119.461 144.066 115.957C144.036 115.695 144.22 115.453 144.491 115.424C144.762 115.395 144.995 115.589 145.024 115.85C145.488 119.819 147.55 123.526 150.687 126.024C150.871 126.169 150.919 126.421 150.812 126.624C150.745 126.779 150.57 126.876 150.396 126.876Z" fill="#F2EFFB"/>
<path d="M145.847 113.885C145.702 113.885 145.567 113.827 145.47 113.701C145.305 113.498 145.334 113.188 145.537 113.024C146.089 112.578 146.641 112.317 147.193 112.259C147.919 112.162 148.625 112.433 149.042 112.956C149.206 113.169 149.167 113.469 148.964 113.634C148.751 113.798 148.451 113.759 148.287 113.556C148.083 113.304 147.706 113.169 147.319 113.227C146.951 113.266 146.564 113.45 146.157 113.779C146.06 113.847 145.954 113.885 145.847 113.885Z" fill="#F2EFFB"/>
<path d="M141.734 114.05C141.608 114.05 141.492 114.002 141.395 113.914C141.095 113.624 140.591 113.498 139.846 113.527C139.41 113.547 138.946 113.605 138.491 113.711C138.23 113.769 137.968 113.605 137.91 113.343C137.852 113.082 138.017 112.821 138.278 112.763C138.801 112.646 139.314 112.579 139.807 112.559C140.843 112.521 141.579 112.734 142.072 113.218C142.266 113.401 142.266 113.711 142.082 113.905C141.985 114.002 141.86 114.05 141.734 114.05Z" fill="#F2EFFB"/>
<path d="M146.93 117.408C146.437 117.408 146.117 116.886 146.117 116.073C146.117 115.259 146.437 114.737 146.93 114.737C147.424 114.737 147.743 115.259 147.743 116.073C147.743 116.886 147.424 117.408 146.93 117.408Z" fill="#F2EFFB"/>
<path d="M140.057 117.408C139.564 117.408 139.244 116.886 139.244 116.073C139.244 115.259 139.564 114.737 140.057 114.737C140.551 114.737 140.87 115.259 140.87 116.073C140.87 116.886 140.551 117.408 140.057 117.408Z" fill="#F2EFFB"/>
<path d="M139.409 128.028C139.274 128.028 139.138 127.97 139.041 127.864C138.209 126.886 138.151 125.366 138.925 124.33C139.206 123.943 139.545 123.73 139.913 123.672C140.716 123.566 141.258 124.272 141.51 124.611C141.984 125.231 142.526 125.831 143.223 126.073C143.475 126.16 143.61 126.441 143.523 126.692C143.436 126.944 143.155 127.08 142.904 126.992C141.965 126.673 141.306 125.937 140.745 125.202C140.532 124.921 140.261 124.601 140.038 124.631C139.942 124.64 139.825 124.737 139.7 124.902C139.196 125.579 139.235 126.596 139.777 127.234C139.951 127.438 139.932 127.747 139.729 127.922C139.632 127.989 139.525 128.028 139.409 128.028Z" fill="#F2EFFB"/>
<path d="M149.408 123.12C149.369 123.12 149.33 123.12 149.291 123.11C149.03 123.052 148.865 122.791 148.933 122.53C149.688 119.345 150.037 116.063 149.969 112.772C149.959 112.501 150.172 112.288 150.443 112.279C150.714 112.298 150.927 112.482 150.937 112.753C151.005 116.131 150.647 119.5 149.882 122.762C149.824 122.975 149.63 123.12 149.408 123.12Z" fill="#F2EFFB"/>
<path d="M143.397 134.9C142.932 134.9 142.487 134.793 142.109 134.677C139.418 133.903 136.911 132.335 135.052 130.283C134.869 130.079 134.888 129.779 135.091 129.595C135.285 129.421 135.595 129.431 135.778 129.634C137.521 131.56 139.873 133.022 142.39 133.748C142.893 133.903 143.474 134.029 143.948 133.835C144.374 133.661 144.694 133.206 144.955 132.799C146.136 130.999 147.046 129.063 147.665 127.03C147.743 126.778 148.014 126.633 148.266 126.711C148.517 126.788 148.663 127.059 148.585 127.311C147.937 129.421 146.988 131.444 145.759 133.322C145.42 133.855 144.994 134.445 144.307 134.726C144.006 134.852 143.697 134.9 143.397 134.9Z" fill="#F2EFFB"/>
<path d="M137.93 138.327C135.665 138.327 133.796 137.931 132.17 137.127C131.928 137.011 131.831 136.721 131.947 136.479C132.064 136.237 132.354 136.14 132.596 136.256C134.648 137.272 137.165 137.572 140.514 137.195C141.473 137.079 142.547 136.904 143.234 136.246C143.428 136.062 143.728 136.062 143.922 136.256C144.106 136.45 144.106 136.75 143.912 136.943C143.012 137.814 141.744 138.027 140.63 138.163C139.672 138.279 138.772 138.327 137.93 138.327Z" fill="#F2EFFB"/>
<path d="M195.476 166.913C195.369 166.913 195.272 166.884 195.185 166.816L164.858 143.691C162.806 141.522 160.502 139.761 157.956 138.396C157.724 138.27 157.627 137.979 157.753 137.737C157.879 137.505 158.169 137.408 158.411 137.534C161.054 138.947 163.445 140.777 165.506 142.965L195.776 166.042C195.989 166.206 196.027 166.506 195.863 166.719C195.766 166.845 195.621 166.913 195.476 166.913Z" fill="#F2EFFB"/>
<path d="M188.972 189.331C188.836 189.331 188.71 189.273 188.614 189.176L186.329 186.649L152.914 149.362C152.74 149.159 152.749 148.859 152.953 148.675C153.146 148.5 153.456 148.51 153.64 148.713L189.34 188.527C189.524 188.721 189.504 189.031 189.311 189.215C189.204 189.292 189.088 189.331 188.972 189.331Z" fill="#F2EFFB"/>
<path d="M137.193 196.262C135.799 196.262 134.415 196.214 133.031 196.117C132.76 196.098 132.566 195.866 132.585 195.604C132.605 195.333 132.847 195.149 133.098 195.159C141.462 195.74 150.038 194.52 157.947 191.645C156.05 184.027 154.249 175.267 156.234 166.922C156.437 166.071 156.679 165.228 156.921 164.377C157.337 162.934 157.763 161.443 157.976 159.943C158.237 158.065 158.247 155.403 156.756 153.351C156.601 153.138 156.65 152.828 156.863 152.673C157.076 152.519 157.385 152.567 157.54 152.78C159.215 155.084 159.225 158.017 158.934 160.069C158.712 161.627 158.276 163.157 157.85 164.628C157.608 165.461 157.376 166.293 157.173 167.126C155.207 175.412 157.076 184.211 158.992 191.81C159.05 192.052 158.925 192.294 158.692 192.381C151.849 194.946 144.492 196.262 137.193 196.262Z" fill="#F2EFFB"/>
<path d="M120.504 192.623C119.642 192.623 112.499 184.753 99.266 169.226C99.2273 169.187 99.2079 169.139 99.1885 169.091C98.54 167.455 98.7336 165.528 99.7113 164.067C102.412 160.785 105.113 157.455 107.804 154.125C108.733 152.983 109.788 151.686 110.456 150.234C110.572 149.992 110.853 149.885 111.095 150.002C111.337 150.118 111.443 150.398 111.327 150.64C110.601 152.199 109.507 153.544 108.539 154.725C105.848 158.055 103.148 161.385 100.476 164.628C99.7306 165.751 99.5564 167.338 100.05 168.645C107.446 177.319 118.703 190.251 120.475 191.577C122.721 190.251 124.211 187.686 124.26 185.082C119.526 179.342 110.795 168.781 110.156 168.016C109.401 167.503 108.414 167.377 107.562 167.697C107.31 167.793 107.029 167.658 106.942 167.416C106.845 167.164 106.981 166.884 107.223 166.796C108.385 166.361 109.74 166.545 110.756 167.271C110.785 167.29 110.805 167.309 110.834 167.338C110.969 167.484 122.75 181.752 125.112 184.608C125.179 184.695 125.218 184.801 125.218 184.908C125.237 187.986 123.437 191.054 120.736 192.536C120.678 192.584 120.591 192.613 120.504 192.623Z" fill="#F2EFFB"/>
<path d="M112.218 166.796C112.102 166.796 111.986 166.757 111.889 166.67C111.695 166.486 111.676 166.186 111.86 165.983L121.25 155.703C121.434 155.5 121.734 155.49 121.937 155.674C122.131 155.858 122.15 156.158 121.966 156.361L112.576 166.641C112.48 166.748 112.354 166.796 112.218 166.796Z" fill="#F2EFFB"/>
<path d="M120.03 177.231C119.768 177.231 119.556 177.018 119.546 176.757C119.439 171.278 119.333 165.799 119.226 160.32L119.207 159.536C119.207 159.265 119.41 159.052 119.681 159.042C119.943 159.052 120.165 159.246 120.175 159.517L120.194 160.301C120.291 165.78 120.398 171.259 120.514 176.737C120.524 177.008 120.311 177.221 120.04 177.231C120.04 177.231 120.04 177.231 120.03 177.231Z" fill="#F2EFFB"/>
<path d="M125.372 194.694C123.697 194.694 121.868 193.794 121.403 192.11C121.336 191.848 121.481 191.587 121.742 191.519C121.994 191.452 122.265 191.597 122.333 191.858C122.71 193.213 124.365 193.872 125.759 193.717C126.088 193.678 127.192 193.504 127.56 192.691L127.598 192.594C127.666 192.429 127.744 192.226 127.928 192.052C128.141 191.829 128.431 191.771 128.644 191.723C128.702 191.713 128.76 191.694 128.818 191.674C129.041 191.606 129.234 191.432 129.36 191.19C129.476 190.948 129.505 190.687 129.418 190.474C129.331 190.222 129.457 189.941 129.709 189.854L132.332 188.896C132.729 188.751 132.952 188.615 132.971 188.48C132.99 188.364 132.864 188.199 132.69 188.131C132.468 188.035 132.187 188.025 131.887 188.025H131.761C129.418 187.976 127.095 187.367 125.043 186.253C124.811 186.128 124.724 185.837 124.849 185.595C124.975 185.363 125.266 185.266 125.508 185.402C127.434 186.437 129.602 187.008 131.79 187.057H131.916C132.284 187.067 132.69 187.076 133.097 187.25C133.6 187.473 134.055 188.034 133.939 188.664C133.803 189.409 133.01 189.699 132.68 189.816L130.454 190.629C130.473 190.968 130.406 191.316 130.251 191.635C130.019 192.11 129.602 192.468 129.138 192.613C129.06 192.632 128.983 192.652 128.896 192.671C128.789 192.691 128.663 192.72 128.634 192.758C128.596 192.797 128.557 192.894 128.528 192.962L128.47 193.097C128.083 193.959 127.115 194.549 125.895 194.685C125.711 194.685 125.537 194.694 125.372 194.694Z" fill="#F2EFFB"/>
<path d="M193.038 190.541C192.476 190.541 191.905 190.454 191.392 190.173C190.734 189.815 190.192 189.147 189.814 188.257C189.291 186.998 189.214 185.604 189.204 184.404C189.175 180.89 189.708 177.396 190.782 174.017C190.86 173.766 191.131 173.621 191.392 173.708C191.644 173.785 191.789 174.066 191.702 174.317C190.656 177.599 190.134 180.987 190.163 184.394C190.172 185.556 190.24 186.776 190.695 187.879C190.889 188.353 191.256 188.992 191.837 189.312C192.495 189.66 193.338 189.573 194.151 189.457C194.412 189.418 194.664 189.602 194.703 189.864C194.741 190.125 194.557 190.377 194.296 190.415C193.899 190.483 193.473 190.541 193.038 190.541Z" fill="#F2EFFB"/>
<path d="M199.803 188.789C198.815 188.789 197.838 188.615 196.918 188.276C194.401 187.328 192.523 185.072 192.136 182.546C191.962 181.442 192.078 180.319 192.185 179.245L192.223 178.819C192.543 175.692 192.611 172.517 192.427 169.391C192.398 169.013 192.349 168.307 192.833 167.832C193.317 167.348 194.092 167.397 194.595 167.687C195.05 167.948 195.35 168.384 195.592 168.81C196.27 169.991 196.725 171.307 196.928 172.672C198.467 169.429 198.873 165.732 199.261 162.15C199.396 160.94 199.522 159.74 199.696 158.539C199.793 157.852 199.967 157.087 200.597 156.662C200.829 156.497 201.129 156.42 201.4 156.449C201.807 156.507 202.329 156.787 202.513 157.862C202.658 158.694 202.775 159.537 202.852 160.379C202.939 159.769 203.017 159.169 203.104 158.559C203.2 157.833 203.297 157.136 203.636 156.497C203.752 156.255 204.014 155.955 204.343 155.858C204.556 155.79 204.778 155.819 204.972 155.926C205.214 156.061 205.33 156.303 205.388 156.429C206.308 158.394 206.647 160.514 206.695 162.537C207.024 161.395 207.353 160.243 207.692 159.101C208.118 157.717 208.854 157.581 209.26 157.63C209.918 157.707 210.383 158.317 210.47 159.236C210.577 160.292 210.422 161.356 210.257 162.353C210.083 163.409 209.88 164.454 209.667 165.48C209.996 164.764 210.306 164.038 210.615 163.331L210.693 163.167C210.78 162.973 210.886 162.75 211.128 162.595C211.603 162.315 212.164 162.557 212.426 162.944C212.638 163.273 212.648 163.621 212.658 163.912C212.745 166.845 212.309 169.817 211.922 172.43C211.516 175.189 211.041 178.325 209.754 181.162C209.221 182.343 208.554 183.446 207.769 184.463C206.724 185.808 205.582 186.844 204.381 187.55C202.958 188.364 201.361 188.789 199.803 188.789ZM193.772 168.423C193.666 168.423 193.579 168.452 193.52 168.51C193.366 168.665 193.375 169.013 193.404 169.323C193.588 172.508 193.52 175.741 193.201 178.906L193.162 179.342C193.056 180.358 192.949 181.413 193.104 182.401C193.433 184.559 195.108 186.553 197.267 187.376C199.357 188.16 201.836 187.918 203.888 186.708C204.991 186.06 206.037 185.101 207.005 183.853C207.74 182.904 208.37 181.859 208.873 180.745C210.112 178.025 210.567 174.966 210.964 172.266C211.351 169.691 211.787 166.767 211.69 163.922C211.68 163.747 211.68 163.563 211.612 163.457C211.603 163.467 211.593 163.486 211.593 163.505L211.506 163.699C210.693 165.567 209.86 167.503 208.718 169.381C208.592 169.584 208.331 169.671 208.118 169.575C207.895 169.478 207.779 169.236 207.837 169.004C208.408 166.835 208.902 164.541 209.299 162.179C209.463 161.211 209.599 160.253 209.512 159.314C209.473 158.917 209.318 158.598 209.163 158.578C208.97 158.559 208.776 158.888 208.621 159.372C208.089 161.143 207.586 162.925 207.092 164.686L206.405 167.087C206.337 167.329 206.095 167.484 205.843 167.426C205.591 167.377 205.427 167.145 205.456 166.893C205.824 163.96 206.046 160.175 204.527 156.884C204.517 156.904 204.507 156.923 204.498 156.942C204.236 157.446 204.159 158.026 204.072 158.646C203.713 161.318 203.346 164.018 202.775 166.642C202.716 166.893 202.474 167.058 202.223 167.019C201.971 166.98 201.787 166.738 201.826 166.487C202.155 163.66 202.068 160.824 201.565 158.036C201.487 157.601 201.352 157.426 201.284 157.417C201.264 157.417 201.216 157.426 201.158 157.465C200.839 157.688 200.722 158.201 200.664 158.685C200.49 159.875 200.364 161.066 200.238 162.266C199.842 165.935 199.425 169.72 197.809 173.118C197.693 173.36 197.402 173.466 197.16 173.35C197.102 173.321 197.054 173.282 197.005 173.234C197.054 173.747 197.073 174.26 197.044 174.773C198.031 175.141 199.048 175.702 200.006 176.428C201.197 177.328 201.826 178.238 201.942 179.226C201.971 179.487 201.777 179.729 201.516 179.758C201.245 179.787 201.013 179.593 200.984 179.332C200.906 178.625 200.393 177.929 199.435 177.193C198.448 176.447 197.402 175.886 196.405 175.567C196.192 175.499 196.057 175.296 196.066 175.063C196.221 173.069 195.766 171.027 194.779 169.304C194.576 168.945 194.382 168.674 194.13 168.529C194.004 168.452 193.879 168.423 193.772 168.423Z" fill="#F2EFFB"/>
<path d="M208.302 172.797C208.176 172.797 208.06 172.749 207.963 172.662C206.056 170.774 203.142 169.942 200.538 170.552C200.277 170.61 200.016 170.455 199.957 170.193C199.899 169.932 200.054 169.671 200.316 169.613C203.239 168.925 206.511 169.855 208.65 171.975C208.844 172.158 208.844 172.468 208.65 172.662C208.553 172.749 208.427 172.797 208.302 172.797Z" fill="#F2EFFB"/>
<path d="M446.96 393.423C446.912 393.423 446.873 393.423 446.824 393.414L153.501 352.4C152.969 352.322 152.601 351.838 152.678 351.306C152.756 350.773 153.24 350.406 153.772 350.483L447.095 391.497C447.628 391.575 447.996 392.059 447.918 392.591C447.851 393.075 447.434 393.423 446.96 393.423Z" fill="url(#paint3_linear_1001_2)"/>
<path d="M166.424 387.094C166.375 387.094 166.317 387.094 166.269 387.084L74.4539 372.196C74.1345 372.148 73.8538 371.935 73.7279 371.635L37.97 290.613C37.8248 290.294 37.8732 289.916 38.0862 289.636C38.2991 289.355 38.6476 289.21 38.9961 289.258L130.801 302.384C131.13 302.433 131.421 302.646 131.556 302.955L155.166 357.444C155.359 357.289 155.621 357.221 155.882 357.25L251.327 369.796C251.801 369.854 252.159 370.26 252.169 370.735C252.179 371.209 251.84 371.625 251.375 371.712L167.179 386.745C166.995 386.958 166.724 387.094 166.424 387.094ZM75.2864 370.367L164.943 384.906L129.988 304.223L40.4481 291.417L75.2864 370.367ZM155.921 359.215L167.004 384.809L244.87 370.909L155.921 359.215Z" fill="url(#paint4_linear_1001_2)"/>
<path d="M166.423 380.056C165.959 380.056 165.543 379.717 165.465 379.233C165.388 378.701 165.746 378.207 166.269 378.13L193.963 373.832L161.583 369.031C161.051 368.953 160.693 368.459 160.77 367.927C160.848 367.395 161.341 367.036 161.874 367.114L200.565 372.854C201.039 372.922 201.388 373.328 201.388 373.812C201.388 374.287 201.039 374.703 200.565 374.771L166.569 380.046C166.52 380.056 166.472 380.056 166.423 380.056Z" fill="url(#paint5_linear_1001_2)"/>
<path d="M97.7723 345.237C94.1713 345.237 91.2383 341.22 91.2383 336.283C91.2383 331.346 94.1713 327.329 97.7723 327.329C101.373 327.329 104.306 331.346 104.306 336.283C104.306 341.22 101.373 345.237 97.7723 345.237ZM97.7723 329.265C95.2845 329.265 93.1743 332.479 93.1743 336.283C93.1743 340.087 95.2845 343.301 97.7723 343.301C100.26 343.301 102.37 340.087 102.37 336.283C102.37 332.479 100.27 329.265 97.7723 329.265Z" fill="url(#paint6_linear_1001_2)"/>
<path d="M113.688 272.753C113.543 272.753 113.408 272.724 113.272 272.656C112.837 272.443 112.614 271.95 112.769 271.485L132.923 209.368L49.7036 220.268C49.4132 220.307 49.1228 220.21 48.9195 220.016C48.7066 219.823 48.6001 219.532 48.6194 219.252L56.073 103.856C56.1021 103.372 56.4796 102.995 56.9636 102.956L207.826 90.5851C208.107 90.5657 208.388 90.6625 208.591 90.8658C208.794 91.0691 208.891 91.3498 208.872 91.6305L203.335 154.047C203.287 154.58 202.832 154.967 202.289 154.928C201.757 154.88 201.36 154.415 201.409 153.883L206.839 92.6082L57.9413 104.815L50.6135 218.197L134.181 207.248C134.51 207.21 134.839 207.336 135.052 207.587C135.265 207.839 135.333 208.187 135.226 208.507L116.863 265.115L156.106 204.77C156.251 204.548 156.493 204.383 156.755 204.344L196.288 197.714L197.604 191.741C197.721 191.218 198.234 190.889 198.756 191.005C199.279 191.122 199.608 191.635 199.492 192.157L198.03 198.769C197.943 199.156 197.633 199.446 197.246 199.514L157.481 206.184L114.482 272.317C114.318 272.598 114.008 272.753 113.688 272.753Z" fill="url(#paint7_linear_1001_2)"/>
<path d="M57.0409 203.657C56.5666 203.657 56.1503 203.308 56.0826 202.824C56.0051 202.292 56.373 201.808 56.9054 201.73L106.903 194.664C107.425 194.586 107.919 194.954 107.996 195.487C108.074 196.019 107.706 196.503 107.174 196.58L57.1764 203.647C57.128 203.657 57.0893 203.657 57.0409 203.657Z" fill="url(#paint8_linear_1001_2)"/>
<path d="M163.724 115.405C163.23 115.405 162.804 115.027 162.756 114.524C162.708 113.992 163.104 113.517 163.637 113.479L200.479 110.216C200.556 110.197 200.634 110.187 200.711 110.187H200.837C201.36 110.187 201.786 110.594 201.805 111.117C201.824 111.639 201.437 112.075 200.924 112.123L163.811 115.405C163.782 115.405 163.753 115.405 163.724 115.405Z" fill="url(#paint9_linear_1001_2)"/>
<path d="M58.308 176.137C57.824 176.137 57.4077 175.769 57.3496 175.275C57.2916 174.743 57.6691 174.269 58.2015 174.201L87.9578 170.755L90.9683 132.393L64.1837 133.971C63.6513 134 63.1964 133.593 63.1576 133.061C63.1286 132.528 63.5352 132.073 64.0676 132.035L91.9653 130.389C92.246 130.36 92.5171 130.476 92.7107 130.68C92.9043 130.883 93.0108 131.154 92.9817 131.435L89.826 171.713C89.7873 172.178 89.4292 172.546 88.9742 172.604L58.4241 176.137C58.3854 176.137 58.3467 176.137 58.308 176.137Z" fill="url(#paint10_linear_1001_2)"/>
<path d="M61.2103 164.017C60.7263 164.017 60.3101 163.649 60.252 163.156C60.1939 162.623 60.5714 162.149 61.1038 162.081L86.2234 159.177C86.7461 159.109 87.2301 159.497 87.2979 160.029C87.356 160.561 86.9785 161.036 86.4461 161.103L61.3265 164.007C61.2877 164.017 61.249 164.017 61.2103 164.017Z" fill="url(#paint11_linear_1001_2)"/>
<path d="M72.9546 157.957C72.6932 157.957 72.4319 157.851 72.2383 157.638L63.2649 147.716L58.5604 151.665C58.1539 152.004 57.544 151.956 57.1955 151.549C56.8567 151.143 56.9051 150.533 57.3117 150.184L62.7325 145.635C63.1294 145.296 63.7199 145.344 64.0683 145.731L73.6709 156.341C74.0291 156.738 74 157.347 73.6031 157.706C73.4192 157.87 73.1869 157.957 72.9546 157.957Z" fill="url(#paint12_linear_1001_2)"/>
<path d="M84.8233 156.815C84.5426 156.815 84.2618 156.689 84.0779 156.457L75.7628 146.273L69.6934 151.772C69.2965 152.13 68.6867 152.101 68.3285 151.704C67.9704 151.307 67.9994 150.697 68.3963 150.339L75.2207 144.154C75.4143 143.979 75.6757 143.882 75.9467 143.902C76.2081 143.921 76.4597 144.047 76.6243 144.25L85.588 155.227C85.9268 155.644 85.8687 156.254 85.4525 156.592C85.2589 156.747 85.0459 156.815 84.8233 156.815Z" fill="url(#paint13_linear_1001_2)"/>
<path d="M82.9439 145.838C80.5433 145.838 78.5879 143.883 78.5879 141.482C78.5879 139.081 80.5433 137.126 82.9439 137.126C85.3445 137.126 87.2999 139.081 87.2999 141.482C87.2999 143.883 85.3445 145.838 82.9439 145.838ZM82.9439 139.062C81.6081 139.062 80.5239 140.146 80.5239 141.482C80.5239 142.818 81.6081 143.902 82.9439 143.902C84.2797 143.902 85.3639 142.818 85.3639 141.482C85.3639 140.146 84.2797 139.062 82.9439 139.062Z" fill="url(#paint14_linear_1001_2)"/>
<path d="M211.428 157.735C211.215 157.735 211.002 157.667 210.827 157.531L206.326 153.998C205.91 153.669 205.832 153.059 206.162 152.643C206.491 152.227 207.101 152.149 207.517 152.478L210.208 154.589L208.785 141.83C208.736 141.385 208.998 140.969 209.414 140.814C209.83 140.659 210.305 140.814 210.547 141.191L215.474 148.684L219.326 123.884C219.404 123.39 219.839 123.032 220.343 123.07C220.846 123.1 221.233 123.506 221.253 124.009L221.921 146.999L224.97 141.162C225.173 140.775 225.609 140.572 226.044 140.669C226.47 140.766 226.78 141.143 226.799 141.579L226.925 145.054L246.276 129.537C246.663 129.227 247.214 129.256 247.563 129.604C247.911 129.953 247.95 130.505 247.65 130.892L233.75 148.781C233.42 149.206 232.811 149.274 232.394 148.955C231.968 148.626 231.901 148.016 232.22 147.6L241.068 136.216L226.635 147.793C226.354 148.026 225.957 148.074 225.628 147.919C225.299 147.764 225.076 147.435 225.067 147.077L225.009 145.344L221.94 151.23C221.737 151.617 221.291 151.82 220.866 151.723C220.44 151.626 220.13 151.249 220.11 150.804L219.646 134.628L217.023 151.491C216.964 151.888 216.664 152.207 216.268 152.285C215.88 152.372 215.474 152.207 215.251 151.868L211.156 145.654L212.386 156.699C212.425 157.086 212.231 157.464 211.892 157.647C211.757 157.696 211.592 157.735 211.428 157.735Z" fill="url(#paint15_linear_1001_2)"/>
<path d="M205.811 214.906C205.715 214.906 205.618 214.886 205.521 214.857C205.056 214.712 204.776 214.238 204.863 213.754L208.628 194.191L206.015 195.401C205.666 195.556 205.26 195.507 204.969 195.246C204.679 194.994 204.572 194.597 204.679 194.229L205.705 190.89L203.198 192.477C202.743 192.768 202.152 192.632 201.862 192.177C201.572 191.722 201.707 191.132 202.162 190.841L206.886 187.85C207.225 187.628 207.67 187.657 207.989 187.899C208.309 188.141 208.444 188.567 208.328 188.954L207.167 192.729L209.529 191.645C209.858 191.49 210.245 191.538 210.535 191.761C210.826 191.984 210.961 192.351 210.893 192.71L208.299 206.194L212.055 197.976C212.229 197.608 212.616 197.385 213.013 197.414C213.42 197.453 213.759 197.733 213.865 198.13L215.056 202.661L216.905 198.876C217.069 198.537 217.408 198.353 217.795 198.334C218.173 198.343 218.512 198.566 218.666 198.905L221.59 205.419C221.812 205.903 221.59 206.484 221.106 206.697C220.622 206.92 220.041 206.697 219.828 206.213L217.747 201.586L215.666 205.845C215.491 206.204 215.104 206.426 214.698 206.387C214.291 206.349 213.962 206.058 213.856 205.671L212.684 201.238L206.692 214.335C206.528 214.693 206.179 214.906 205.811 214.906Z" fill="url(#paint16_linear_1001_2)"/>
<defs>
<linearGradient id="paint0_linear_1001_2" x1="326.115" y1="209.127" x2="326.115" y2="387.307" gradientUnits="userSpaceOnUse">
<stop stop-color="#D1AFFF"/>
<stop offset="1" stop-color="#906CFF"/>
</linearGradient>
<linearGradient id="paint1_linear_1001_2" x1="325.5" y1="160.091" x2="325.5" y2="255.755" gradientUnits="userSpaceOnUse">
<stop stop-color="#D1AFFF"/>
<stop offset="1" stop-color="#906CFF"/>
</linearGradient>
<linearGradient id="paint2_linear_1001_2" x1="147.17" y1="135.12" x2="147.17" y2="195.183" gradientUnits="userSpaceOnUse">
<stop stop-color="#D1AFFF"/>
<stop offset="1" stop-color="#906CFF"/>
</linearGradient>
<linearGradient id="paint3_linear_1001_2" x1="300.298" y1="350.473" x2="300.298" y2="393.423" gradientUnits="userSpaceOnUse">
<stop stop-color="#D1AFFF"/>
<stop offset="1" stop-color="#906CFF"/>
</linearGradient>
<linearGradient id="paint4_linear_1001_2" x1="145.028" y1="289.249" x2="145.028" y2="387.094" gradientUnits="userSpaceOnUse">
<stop stop-color="#D1AFFF"/>
<stop offset="1" stop-color="#906CFF"/>
</linearGradient>
<linearGradient id="paint5_linear_1001_2" x1="181.074" y1="367.103" x2="181.074" y2="380.056" gradientUnits="userSpaceOnUse">
<stop stop-color="#D1AFFF"/>
<stop offset="1" stop-color="#906CFF"/>
</linearGradient>
<linearGradient id="paint6_linear_1001_2" x1="97.7723" y1="327.329" x2="97.7723" y2="345.237" gradientUnits="userSpaceOnUse">
<stop stop-color="#D1AFFF"/>
<stop offset="1" stop-color="#906CFF"/>
</linearGradient>
<linearGradient id="paint7_linear_1001_2" x1="128.746" y1="90.5826" x2="128.746" y2="272.753" gradientUnits="userSpaceOnUse">
<stop stop-color="#D1AFFF"/>
<stop offset="1" stop-color="#906CFF"/>
</linearGradient>
<linearGradient id="paint8_linear_1001_2" x1="82.0395" y1="194.654" x2="82.0395" y2="203.657" gradientUnits="userSpaceOnUse">
<stop stop-color="#D1AFFF"/>
<stop offset="1" stop-color="#906CFF"/>
</linearGradient>
<linearGradient id="paint9_linear_1001_2" x1="182.279" y1="110.187" x2="182.279" y2="115.405" gradientUnits="userSpaceOnUse">
<stop stop-color="#D1AFFF"/>
<stop offset="1" stop-color="#906CFF"/>
</linearGradient>
<linearGradient id="paint10_linear_1001_2" x1="75.1651" y1="130.385" x2="75.1651" y2="176.137" gradientUnits="userSpaceOnUse">
<stop stop-color="#D1AFFF"/>
<stop offset="1" stop-color="#906CFF"/>
</linearGradient>
<linearGradient id="paint11_linear_1001_2" x1="73.7749" y1="159.169" x2="73.7749" y2="164.017" gradientUnits="userSpaceOnUse">
<stop stop-color="#D1AFFF"/>
<stop offset="1" stop-color="#906CFF"/>
</linearGradient>
<linearGradient id="paint12_linear_1001_2" x1="65.446" y1="145.408" x2="65.446" y2="157.957" gradientUnits="userSpaceOnUse">
<stop stop-color="#D1AFFF"/>
<stop offset="1" stop-color="#906CFF"/>
</linearGradient>
<linearGradient id="paint13_linear_1001_2" x1="76.9431" y1="143.899" x2="76.9431" y2="156.815" gradientUnits="userSpaceOnUse">
<stop stop-color="#D1AFFF"/>
<stop offset="1" stop-color="#906CFF"/>
</linearGradient>
<linearGradient id="paint14_linear_1001_2" x1="82.9439" y1="137.126" x2="82.9439" y2="145.838" gradientUnits="userSpaceOnUse">
<stop stop-color="#D1AFFF"/>
<stop offset="1" stop-color="#906CFF"/>
</linearGradient>
<linearGradient id="paint15_linear_1001_2" x1="226.905" y1="123.068" x2="226.905" y2="157.735" gradientUnits="userSpaceOnUse">
<stop stop-color="#D1AFFF"/>
<stop offset="1" stop-color="#906CFF"/>
</linearGradient>
<linearGradient id="paint16_linear_1001_2" x1="211.693" y1="187.699" x2="211.693" y2="214.906" gradientUnits="userSpaceOnUse">
<stop stop-color="#D1AFFF"/>
<stop offset="1" stop-color="#906CFF"/>
</linearGradient>
</defs>
</svg>
