<svg width="485" height="484" viewBox="0 0 485 484" fill="none" xmlns="http://www.w3.org/2000/svg">
<path d="M55.8789 353.562V340.029L430.495 340.01L430.592 144.474H446.951V353.562H55.8789Z" fill="url(#paint0_linear_1001_364)"/>
<path d="M82.7212 157.677C88.3025 157.677 92.8271 153.152 92.8271 147.571C92.8271 141.99 88.3025 137.465 82.7212 137.465C77.1398 137.465 72.6152 141.99 72.6152 147.571C72.6152 153.152 77.1398 157.677 82.7212 157.677Z" fill="#F2EFFB"/>
<path d="M122.893 322.005C161.289 322.005 192.415 290.879 192.415 252.483C192.415 214.087 161.289 182.961 122.893 182.961C84.4971 182.961 53.3711 214.087 53.3711 252.483C53.3711 290.879 84.4971 322.005 122.893 322.005Z" fill="url(#paint1_linear_1001_364)"/>
<path d="M213.335 204.625L216.375 214.451H226.21L218.253 220.53L221.292 230.365L213.335 224.286L205.388 230.365L208.428 220.53L200.471 214.451H210.306L213.335 204.625Z" fill="url(#paint2_linear_1001_364)"/>
<path d="M243.314 204.625L246.353 214.451H256.179L248.231 220.53L251.261 230.365L243.314 224.286L235.357 230.365L238.396 220.53L230.439 214.451H240.274L243.314 204.625Z" fill="url(#paint3_linear_1001_364)"/>
<path d="M273.32 204.625L276.359 214.451H286.184L278.237 220.53L281.267 230.365L273.32 224.286L265.363 230.365L268.402 220.53L260.445 214.451H270.28L273.32 204.625Z" fill="url(#paint4_linear_1001_364)"/>
<path d="M303.812 204.625L306.851 214.451H316.677L308.729 220.53L311.759 230.365L303.812 224.286L295.855 230.365L298.894 220.53L290.938 214.451H300.772L303.812 204.625Z" fill="url(#paint5_linear_1001_364)"/>
<path d="M346.202 182.961L353.529 206.687H377.265L358.06 221.362L365.397 245.087L346.202 230.422L326.997 245.087L334.334 221.362L315.129 206.687H338.864L346.202 182.961Z" fill="#F2EFFB"/>
<path d="M350.837 211.382L364.399 238.312C364.399 238.312 362.143 239.348 362.056 239.435C359.772 241.206 357.574 243.239 356.393 245.872C355.212 248.505 355.28 251.874 357.468 254.342C361.892 260.615 368.89 264.496 375.695 268.059C378.928 269.753 382.2 271.437 385.704 272.453C389.209 273.47 393.013 273.77 396.498 272.695C398.908 271.95 401.067 270.585 403.186 269.22C404.348 268.475 405.51 267.72 406.478 266.742C408.414 264.806 409.449 262.096 409.769 259.376C410.088 256.656 409.749 253.897 409.236 251.215C406.991 239.416 401.444 228.264 393.39 219.359C392.393 218.255 391.222 217.123 389.741 217.035C387.911 216.929 386.44 218.439 385.24 219.901C384.243 219.668 383.217 219.436 382.191 219.552C380.274 219.775 378.609 221.362 378.26 223.298C377.157 222.979 375.976 222.65 374.863 222.979C374.146 223.192 373.537 223.657 372.975 224.141C372.085 224.905 371.233 225.815 370.962 226.957C370.962 226.957 356.664 207.433 356.703 207.53C355.493 206.823 353.944 206.445 352.696 207.094C352.299 207.297 351.95 207.607 351.669 207.946C350.973 208.827 350.595 209.969 350.837 211.382Z" fill="url(#paint6_linear_1001_364)"/>
<path d="M73.0332 300.738C73.0332 300.738 95.0552 291.765 95.2101 291.581C96.2168 290.903 97.0106 289.925 97.4655 288.803C97.543 288.619 97.6107 288.435 97.7172 288.27C98.0366 287.796 98.6562 287.622 99.2273 287.554C99.963 287.467 100.718 287.496 101.454 287.641C101.454 287.641 128.558 290.516 128.809 290.458C133.02 289.083 137.579 288.928 141.955 289.596C146.34 290.264 150.56 291.745 154.597 293.575L169.949 303.671C169.949 303.671 166.648 306.991 166.348 307.127C163.028 309.305 159.698 311.493 156.204 313.39C141.355 321.444 123.621 324.038 107.087 320.563C107.087 320.563 96.6718 316.788 96.4782 316.575C87.5726 313.467 79.4898 308.027 73.0332 300.738Z" fill="url(#paint7_linear_1001_364)"/>
<path d="M151.779 227.994C154.277 224.431 155.37 219.998 155.293 215.652C155.215 211.305 154.005 207.027 152.205 203.068C151.334 201.151 150.298 199.254 148.73 197.85C147.162 196.446 144.974 195.585 142.922 196.05C141.673 196.33 140.541 197.076 139.272 197.24C138.208 197.376 137.143 197.085 136.117 196.747C134.132 196.088 132.206 195.227 130.173 194.743C128.14 194.249 125.933 194.152 124.017 194.985C122.42 195.682 121.161 196.96 119.738 197.966C114.24 201.848 106.922 201.403 100.369 202.922C99.0327 203.232 97.571 203.755 97.0096 205.004C96.816 205.439 96.7579 205.923 96.545 206.349C96.1868 207.094 95.4414 207.559 94.7735 208.053C93.2925 209.147 92.0341 210.541 91.0854 212.118C90.6208 212.893 90.2336 213.803 90.4659 214.664C90.766 215.758 91.947 216.368 92.4987 217.355C93.2538 218.701 92.702 220.356 92.5665 221.895C92.4019 223.715 92.8859 225.593 93.912 227.113C93.912 227.113 99.6716 267.091 99.8265 267.149C99.933 268.466 101.162 269.482 102.459 269.714C103.273 269.86 104.134 269.753 104.889 269.414L118.199 240.316L133.193 223.909L148.023 225.806L151.779 227.994Z" fill="url(#paint8_linear_1001_364)"/>
<path d="M141.257 208.691C145.759 209.708 149.553 213.367 150.724 218.371C151.992 230.636 151.586 243.065 149.524 255.223L157.549 262.696L148.827 259.976C148.827 259.976 148.343 262.144 148.159 262.735C147.056 267.797 145.633 272.831 143.213 277.409C141.858 279.975 139.97 282.55 137.192 283.382C135.556 283.876 133.784 283.701 132.158 283.198C130.532 282.695 129.022 281.882 127.521 281.069L127.599 294.727C127.599 294.727 124.075 295.85 123.795 295.84C119.274 296.45 114.628 297.05 110.204 295.956C108.616 295.569 107.097 294.969 105.577 294.369C103.96 293.73 102.266 293.033 101.24 291.629L101.337 268.833L103.922 269.007C103.922 269.007 104.096 262.405 104.183 262.367C104.56 259.937 104.938 257.498 105.664 255.155C106.39 252.813 107.484 250.538 109.052 248.534C107.416 247.527 106.467 245.707 105.838 243.897C105.064 241.661 104.657 239.299 104.648 236.937C104.638 235.021 104.899 233.056 105.77 231.352C106.642 229.648 108.2 228.216 110.088 227.838C110.514 227.751 110.978 227.722 111.366 227.916C112.043 228.245 112.285 229.068 112.498 229.784C112.798 230.771 113.195 231.739 113.679 232.659C114.008 233.288 114.395 233.908 114.986 234.304C115.567 234.701 116.389 234.827 116.98 234.44C117.406 234.159 117.638 233.666 117.832 233.191C118.364 231.865 118.761 230.471 118.993 229.058C119.226 227.635 119.468 225.951 120.745 225.283C120.745 225.283 127.047 222.514 127.386 222.321C130.145 220.733 132.797 218.933 135.12 216.764C137.434 214.596 139.428 212.031 141.257 208.691Z" fill="#F2EFFB"/>
<path d="M133.63 240.819C134.416 240.819 135.053 239.346 135.053 237.528C135.053 235.71 134.416 234.237 133.63 234.237C132.844 234.237 132.207 235.71 132.207 237.528C132.207 239.346 132.844 240.819 133.63 240.819Z" fill="#36275B"/>
<path d="M146.86 240.577C147.646 240.577 148.283 239.103 148.283 237.285C148.283 235.468 147.646 233.994 146.86 233.994C146.075 233.994 145.438 235.468 145.438 237.285C145.438 239.103 146.075 240.577 146.86 240.577Z" fill="#36275B"/>
<path d="M430.496 340.494H39.4235C39.1524 340.494 38.9395 340.281 38.9395 340.01V146.487C38.9395 137.64 46.1414 130.438 54.9889 130.438H414.92C423.768 130.438 430.97 137.64 430.97 146.487V340.01C430.979 340.281 430.767 340.494 430.496 340.494ZM39.9075 339.526H430.012V146.487C430.012 138.172 423.245 131.406 414.93 131.406H54.9889C46.6738 131.406 39.9075 138.172 39.9075 146.487V339.526Z" fill="#F2EFFB"/>
<path d="M58.1641 158.161C52.3271 158.161 47.5742 153.408 47.5742 147.571C47.5742 141.734 52.3271 136.981 58.1641 136.981C64.0012 136.981 68.7541 141.734 68.7541 147.571C68.7541 153.408 64.0012 158.161 58.1641 158.161ZM58.1641 137.949C52.8595 137.949 48.5422 142.266 48.5422 147.571C48.5422 152.876 52.8595 157.193 58.1641 157.193C63.4688 157.193 67.7861 152.876 67.7861 147.571C67.7861 142.266 63.4688 137.949 58.1641 137.949Z" fill="#F2EFFB"/>
<path d="M122.894 322.489C84.2906 322.489 52.8887 291.087 52.8887 252.483C52.8887 213.879 84.2906 182.478 122.894 182.478C161.498 182.478 192.9 213.879 192.9 252.483C192.891 291.077 161.489 322.489 122.894 322.489ZM122.894 183.446C84.8327 183.446 53.8567 214.412 53.8567 252.483C53.8567 290.545 84.823 321.521 122.894 321.521C160.966 321.521 191.932 290.555 191.932 252.483C191.923 214.412 160.956 183.446 122.894 183.446Z" fill="#36275B"/>
<path d="M420.823 157.319C420.698 157.319 420.572 157.271 420.475 157.164L404.261 140.079C404.077 139.885 404.087 139.576 404.28 139.392C404.474 139.208 404.784 139.217 404.968 139.411L421.182 156.496C421.366 156.69 421.356 157 421.162 157.183C421.065 157.271 420.94 157.319 420.823 157.319Z" fill="#36275B"/>
<path d="M404.609 157.319C404.493 157.319 404.367 157.271 404.28 157.183C404.087 157 404.077 156.69 404.261 156.496L420.475 139.411C420.659 139.217 420.969 139.208 421.162 139.392C421.356 139.576 421.366 139.885 421.182 140.079L404.968 157.164C404.861 157.261 404.735 157.319 404.609 157.319Z" fill="#36275B"/>
<path d="M107.291 158.161C101.454 158.161 96.7012 153.408 96.7012 147.571C96.7012 141.734 101.454 136.981 107.291 136.981C113.128 136.981 117.881 141.734 117.881 147.571C117.881 153.408 113.128 158.161 107.291 158.161ZM107.291 137.949C101.986 137.949 97.6692 142.266 97.6692 147.571C97.6692 152.876 101.986 157.193 107.291 157.193C112.596 157.193 116.913 152.876 116.913 147.571C116.913 142.266 112.596 137.949 107.291 137.949Z" fill="#F2EFFB"/>
<path d="M430.293 163.389H39.5113C39.2403 163.389 39.0273 163.176 39.0273 162.905C39.0273 162.634 39.2403 162.421 39.5113 162.421H430.303C430.574 162.421 430.787 162.634 430.787 162.905C430.787 163.176 430.564 163.389 430.293 163.389Z" fill="#F2EFFB"/>
<path d="M149.63 255.755C149.601 255.755 149.572 255.755 149.542 255.746C149.281 255.697 149.107 255.446 149.146 255.184C151.324 242.852 151.721 230.287 150.317 217.839C148.691 213.463 145.429 210.308 141.324 209.137C138.536 215.187 132.932 220.394 125.488 223.84C118.634 227.006 110.919 228.487 104.105 229.794C103.843 229.842 103.592 229.668 103.533 229.406C103.485 229.145 103.659 228.893 103.921 228.835C111.006 227.48 118.334 226.077 125.081 222.96C132.467 219.543 137.975 214.354 140.608 208.362C140.705 208.149 140.937 208.033 141.169 208.091C145.796 209.262 149.465 212.708 151.246 217.558C151.256 217.597 151.266 217.636 151.275 217.674C152.698 230.239 152.301 242.91 150.104 255.359C150.065 255.591 149.862 255.755 149.63 255.755Z" fill="#36275B"/>
<path d="M158.662 263.867C158.604 263.867 158.545 263.858 158.497 263.838L134.888 255.029C134.636 254.933 134.51 254.662 134.607 254.41C134.704 254.158 134.984 254.032 135.226 254.129L155.554 261.709C152.379 259.279 148.924 256.249 146.233 252.571C142.612 247.615 140.85 242.049 141.276 236.899C141.296 236.637 141.528 236.425 141.799 236.454C142.06 236.473 142.264 236.705 142.244 236.976C141.838 241.894 143.532 247.227 147.017 252C150.453 256.694 155.196 260.344 158.942 262.986C159.146 263.122 159.204 263.393 159.088 263.606C159.01 263.771 158.846 263.867 158.662 263.867Z" fill="#36275B"/>
<path d="M134.926 284.233C134.181 284.233 133.406 284.136 132.622 283.943C130.754 283.468 129.041 282.491 127.772 281.697C122.303 278.289 117.579 273.604 114.133 268.154C113.988 267.932 114.056 267.632 114.279 267.487C114.501 267.341 114.801 267.409 114.946 267.632C118.325 272.956 122.932 277.534 128.286 280.864C129.573 281.668 131.131 282.549 132.864 282.994C134.607 283.43 136.301 283.323 137.646 282.694C139.059 282.026 140.124 280.777 140.889 279.77C145.119 274.195 146.832 267.157 148.352 259.839C148.41 259.578 148.662 259.404 148.923 259.462C149.185 259.52 149.349 259.772 149.301 260.033C147.762 267.467 146.01 274.621 141.663 280.351C140.831 281.455 139.669 282.81 138.062 283.565C137.123 284.01 136.059 284.233 134.926 284.233Z" fill="#36275B"/>
<path d="M137.801 232.019C137.705 232.019 137.608 231.99 137.521 231.932C135.469 230.47 132.652 230.18 130.338 231.196C130.096 231.303 129.806 231.196 129.699 230.945C129.593 230.703 129.699 230.412 129.951 230.306C132.565 229.154 135.759 229.483 138.082 231.138C138.305 231.293 138.353 231.593 138.198 231.816C138.101 231.951 137.956 232.019 137.801 232.019Z" fill="#36275B"/>
<path d="M143.542 231.797C143.387 231.797 143.242 231.729 143.145 231.594C142.99 231.371 143.038 231.071 143.261 230.916C145.158 229.571 147.685 229.251 149.853 230.093C150.105 230.19 150.231 230.471 150.134 230.723C150.037 230.974 149.756 231.1 149.505 231.003C147.665 230.287 145.429 230.568 143.822 231.71C143.735 231.768 143.639 231.797 143.542 231.797Z" fill="#36275B"/>
<path d="M130.27 263.49C128.867 263.49 127.502 262.957 126.602 261.941C125.992 261.254 125.556 260.334 125.275 259.143C124.898 257.556 124.975 256.201 125.488 255.107C125.692 254.681 126.098 254.168 126.66 253.964C126.989 253.848 127.328 253.858 127.637 254.003C127.734 254.052 127.812 254.129 127.86 254.216C129.06 256.568 131.238 258.272 133.755 260.092C134.123 260.353 134.307 260.721 134.287 261.128C134.239 261.892 133.436 262.541 132.971 262.802C132.119 263.257 131.18 263.49 130.27 263.49ZM127.086 254.845C127.057 254.845 127.018 254.855 126.979 254.865C126.756 254.942 126.495 255.213 126.36 255.513C125.943 256.404 125.895 257.546 126.214 258.911C126.456 259.947 126.824 260.731 127.328 261.292C128.499 262.618 130.774 262.909 132.497 261.95C132.913 261.718 133.3 261.302 133.319 261.07C133.319 261.041 133.329 260.983 133.184 260.876C130.628 259.017 128.402 257.285 127.086 254.845Z" fill="#36275B"/>
<path d="M116.098 235.233C115.536 235.233 114.975 235.049 114.549 234.682C114.142 234.323 113.9 233.868 113.707 233.462C113.436 232.871 113.213 232.252 113 231.652C112.555 230.403 112.139 229.212 111.268 228.361C111.074 228.177 111.074 227.867 111.258 227.673C111.442 227.48 111.752 227.48 111.945 227.664C112.971 228.67 113.455 230.016 113.91 231.323C114.113 231.903 114.326 232.494 114.578 233.046C114.723 233.355 114.907 233.704 115.178 233.946C115.701 234.401 116.611 234.372 117.124 233.868C117.501 233.501 117.685 232.939 117.811 232.436C117.995 231.7 118.121 230.906 118.237 230.151C118.489 228.486 118.75 226.763 119.718 225.311C119.863 225.089 120.163 225.031 120.386 225.176C120.609 225.321 120.667 225.621 120.522 225.844C119.679 227.122 119.437 228.661 119.195 230.297C119.079 231.081 118.953 231.894 118.76 232.678C118.605 233.278 118.363 234.033 117.811 234.575C117.347 235.011 116.717 235.233 116.098 235.233Z" fill="#36275B"/>
<path d="M111.403 249.86C110.145 249.86 108.964 249.182 108.18 248.447C106.786 247.14 106.05 245.33 105.615 244.081C104.821 241.796 104.366 239.405 104.259 236.985C104.182 235.108 104.337 233.617 104.763 232.3C105.305 230.626 106.302 229.241 107.58 228.409C107.802 228.264 108.102 228.332 108.248 228.554C108.393 228.777 108.325 229.077 108.102 229.222C107.009 229.929 106.147 231.129 105.682 232.6C105.295 233.81 105.15 235.195 105.218 236.947C105.315 239.27 105.76 241.564 106.525 243.771C106.921 244.923 107.599 246.588 108.838 247.75C109.622 248.485 110.871 249.153 112.061 248.805C112.846 248.572 113.484 247.943 114.075 247.324C114.259 247.13 114.559 247.12 114.762 247.304C114.956 247.488 114.965 247.788 114.782 247.992C114.133 248.689 113.349 249.444 112.333 249.744C112.023 249.811 111.713 249.86 111.403 249.86Z" fill="#36275B"/>
<path d="M112.652 242.019C112.43 242.019 112.226 241.864 112.178 241.632C111.859 240.073 111.53 238.466 110.9 237.005C110.223 235.407 109.255 234.168 108.103 233.423C107.88 233.278 107.812 232.978 107.958 232.755C108.103 232.532 108.403 232.465 108.626 232.61C109.942 233.462 111.036 234.856 111.791 236.627C112.449 238.186 112.788 239.841 113.127 241.438C113.185 241.699 113.011 241.961 112.749 242.009C112.72 242.009 112.681 242.019 112.652 242.019Z" fill="#36275B"/>
<path d="M110.794 244.846C110.668 244.846 110.552 244.798 110.455 244.711C109.565 243.84 109.09 242.475 109.071 240.771C109.061 239.89 109.168 239.193 109.41 238.593C109.729 237.79 110.3 237.16 110.988 236.851C111.23 236.744 111.52 236.851 111.626 237.093C111.733 237.335 111.626 237.625 111.384 237.731C110.929 237.935 110.542 238.38 110.31 238.941C110.116 239.425 110.029 240.006 110.039 240.761C110.049 241.768 110.242 243.152 111.133 244.023C111.326 244.207 111.326 244.517 111.142 244.711C111.046 244.798 110.92 244.846 110.794 244.846Z" fill="#36275B"/>
<path d="M117.754 296.769C114.143 296.769 110.513 296.227 107.076 295.172C104.405 294.349 102.449 293.381 100.92 292.103C100.833 292.026 100.765 291.919 100.755 291.803C100.707 291.484 100.707 275.56 100.707 268.736C100.707 268.6 100.765 268.465 100.872 268.368C100.978 268.281 101.114 268.232 101.249 268.252L103.621 268.552C103.456 265.29 103.611 262.008 104.076 258.775C104.521 255.648 105.499 251.205 108.838 248.669C109.051 248.505 109.351 248.543 109.516 248.756C109.68 248.969 109.632 249.269 109.429 249.434C107.106 251.205 105.712 254.216 105.044 258.91C104.56 262.269 104.424 265.686 104.627 269.074C104.637 269.22 104.579 269.355 104.473 269.462C104.366 269.558 104.221 269.607 104.076 269.588L101.675 269.278C101.675 275.502 101.685 289.625 101.714 291.493C103.117 292.616 104.928 293.497 107.367 294.242C111.781 295.598 116.544 296.082 121.142 295.627C123.591 295.385 125.468 294.91 127.017 294.146V281.407C127.017 281.136 127.23 280.923 127.501 280.923C127.772 280.923 127.985 281.136 127.985 281.407V294.446C127.985 294.63 127.888 294.794 127.724 294.872C126.011 295.782 123.949 296.324 121.229 296.595C120.077 296.711 118.915 296.769 117.754 296.769Z" fill="#36275B"/>
<path d="M73.4597 300.95C73.2661 300.95 73.0919 300.834 73.0144 300.65C72.9176 300.399 73.0338 300.118 73.2855 300.021L95.0074 291.203C95.0848 290.951 95.2494 290.699 95.4817 290.477C95.6076 290.361 95.7528 290.254 95.898 290.148C95.9851 290.08 96.0722 290.022 96.1593 289.944C96.5175 289.644 96.7788 289.199 96.866 288.734C96.924 288.415 96.9724 288.105 97.2144 287.863C97.4371 287.631 97.7275 287.553 97.9792 287.505C98.6858 287.379 99.4118 287.35 100.128 287.427C100.389 287.457 100.583 287.699 100.554 287.96C100.525 288.221 100.283 288.405 100.022 288.386C99.4021 288.318 98.7729 288.337 98.1631 288.454C97.9792 288.492 97.9308 288.512 97.9211 288.531C97.892 288.56 97.863 288.715 97.8436 288.812L97.8243 288.918C97.6888 289.605 97.3209 290.235 96.7885 290.68C96.6917 290.767 96.5852 290.845 96.4788 290.922C96.3626 290.999 96.2561 291.087 96.1496 291.174C96.0141 291.299 95.927 291.445 95.927 291.551C95.9173 291.745 95.8012 291.909 95.6269 291.987L73.6533 300.902C73.5856 300.941 73.5178 300.95 73.4597 300.95Z" fill="#36275B"/>
<path d="M169.667 303.826C169.58 303.826 169.492 303.797 169.405 303.748L154.885 294.562C147.17 289.945 137.384 288.609 128.711 290.981C128.449 291.048 128.188 290.903 128.12 290.642C128.052 290.38 128.198 290.119 128.459 290.051C137.384 287.602 147.461 288.977 155.398 293.739L169.928 302.926C170.151 303.071 170.218 303.371 170.083 303.594C169.986 303.739 169.822 303.826 169.667 303.826Z" fill="#36275B"/>
<path d="M372.057 253.19C371.883 253.19 371.718 253.093 371.631 252.928C354.178 219.261 350.964 213.066 350.48 211.749L350.393 211.778C349.715 210.036 350.403 207.858 351.971 206.832C353.539 205.806 355.804 206.029 357.14 207.345L380.169 239.454C380.324 239.667 380.275 239.976 380.053 240.131C379.84 240.286 379.53 240.238 379.375 240.025L356.395 207.974C355.427 207.026 353.694 206.851 352.494 207.635C351.293 208.42 350.761 210.084 351.284 211.42C351.284 211.43 351.284 211.43 351.293 211.44C351.758 212.466 365.329 238.679 372.483 252.473C372.609 252.715 372.512 253.006 372.28 253.122C372.212 253.17 372.134 253.19 372.057 253.19Z" fill="#36275B"/>
<path d="M386.966 235.176C386.821 235.176 386.675 235.108 386.579 234.982L377.954 223.753C376.995 223.163 375.785 222.95 374.682 223.182C372.765 223.782 371.429 225.631 371.555 227.558C371.575 227.829 371.371 228.051 371.1 228.071C370.81 228.08 370.607 227.887 370.587 227.616C370.442 225.244 372.059 222.989 374.44 222.243C375.872 221.934 377.354 222.205 378.554 222.979C378.602 223.008 378.641 223.047 378.67 223.095L387.353 234.392C387.517 234.605 387.479 234.905 387.266 235.069C387.169 235.147 387.072 235.176 386.966 235.176Z" fill="#36275B"/>
<path d="M392.851 230.684C392.706 230.684 392.561 230.616 392.464 230.49L384.555 220.162C383.277 219.513 381.806 219.465 380.703 220.045C379.512 220.675 378.825 222.146 379.173 223.317C379.251 223.569 379.105 223.84 378.844 223.917C378.592 223.995 378.321 223.85 378.244 223.588C377.76 221.962 378.641 220.026 380.248 219.184C381.661 218.439 383.519 218.497 385.107 219.348C385.165 219.377 385.223 219.426 385.262 219.484L393.238 229.9C393.403 230.113 393.364 230.413 393.151 230.577C393.054 230.645 392.957 230.684 392.851 230.684Z" fill="#36275B"/>
<path d="M391.397 273.857C387.999 273.857 384.66 272.705 381.795 271.553C376.335 269.336 371.088 266.548 366.21 263.248C363.141 261.176 360.953 259.385 359.105 257.469C356.801 255.068 355.552 252.783 355.291 250.48C355.01 248.021 355.91 245.281 357.759 242.978C359.443 240.877 361.65 239.319 363.79 237.954C364.012 237.808 364.312 237.876 364.458 238.099C364.603 238.322 364.535 238.622 364.312 238.767C362.241 240.093 360.111 241.593 358.514 243.587C356.83 245.698 356.007 248.176 356.259 250.383C356.501 252.464 357.653 254.565 359.811 256.81C361.602 258.688 363.751 260.431 366.752 262.463C371.572 265.726 376.761 268.484 382.162 270.672C385.27 271.93 388.929 273.179 392.568 272.86C394.979 272.647 397.244 271.766 398.957 271.021C404.204 268.726 407.505 265.774 408.773 262.241C409.605 259.927 409.537 257.41 409.383 255.474C409.082 251.68 408.221 247.721 406.75 243.374C403.613 234.072 398.434 225.341 391.765 218.119C390.952 217.451 389.819 217.229 388.706 217.548C387.38 217.926 386.315 218.884 385.918 220.036C385.831 220.288 385.56 220.423 385.308 220.336C385.057 220.249 384.921 219.978 385.008 219.717C385.502 218.265 386.818 217.084 388.445 216.609C389.868 216.203 391.32 216.493 392.433 217.403C399.238 224.76 404.494 233.617 407.669 243.045C409.16 247.469 410.041 251.506 410.351 255.378C410.515 257.41 410.583 260.053 409.692 262.541C408.337 266.326 404.852 269.472 399.354 271.872C397.583 272.647 395.211 273.566 392.665 273.789C392.23 273.837 391.813 273.857 391.397 273.857Z" fill="#36275B"/>
<path d="M378.561 250.392C378.406 250.392 378.26 250.325 378.164 250.189C378.009 249.966 378.067 249.666 378.28 249.512L398.821 235.069C399.043 234.914 399.344 234.972 399.498 235.185C399.653 235.408 399.595 235.708 399.382 235.863L378.841 250.305C378.754 250.363 378.657 250.392 378.561 250.392Z" fill="#36275B"/>
<path d="M204.669 263.654C204.156 263.654 203.643 263.451 203.265 263.054C202.53 262.28 202.559 261.051 203.333 260.315C207.786 256.075 213.275 252.997 219.218 251.409C221.212 250.877 224.145 250.335 226.604 251.845C227.32 252.28 227.882 252.823 228.375 253.307C228.733 253.655 229.072 253.984 229.401 254.197C230.302 254.788 231.657 254.875 232.964 254.913C238.104 255.068 243.283 254.729 248.365 253.916L248.51 253.897C249.865 253.674 251.394 253.432 252.982 253.839C253.805 254.052 254.511 254.4 255.141 254.72C255.354 254.826 255.576 254.933 255.789 255.039C258.548 256.307 262.004 256.143 265.053 255.998C289.717 254.865 314.76 253.974 339.482 253.355C340.538 253.297 341.438 254.168 341.467 255.243C341.496 256.307 340.654 257.198 339.579 257.227C314.885 257.846 289.872 258.737 265.237 259.87C261.752 260.034 257.803 260.218 254.192 258.563C253.931 258.447 253.669 258.311 253.418 258.185C252.924 257.934 252.459 257.701 252.043 257.595C251.23 257.391 250.223 257.556 249.149 257.73L249.003 257.75C243.679 258.601 238.249 258.96 232.867 258.795C231.086 258.747 229.034 258.592 227.291 257.44C226.652 257.024 226.149 256.53 225.694 256.085C225.316 255.717 224.949 255.359 224.61 255.155C223.71 254.604 222.316 254.604 220.244 255.155C214.93 256.578 210.012 259.337 206.024 263.122C205.627 263.48 205.153 263.654 204.669 263.654Z" fill="url(#paint9_linear_1001_364)"/>
<path d="M212.897 286.393C212.51 286.393 212.113 286.383 211.726 286.364C211.116 286.335 210.545 286.006 210.206 285.493C209.867 284.98 209.79 284.331 210.003 283.76C210.012 283.731 210.022 283.712 210.032 283.683C207.486 284.38 204.901 284.941 202.307 285.367C201.252 285.532 200.255 284.825 200.081 283.77C199.907 282.715 200.623 281.718 201.678 281.543C205.608 280.895 209.509 279.917 213.275 278.63C214.214 277.671 215.288 276.849 216.459 276.19C217.166 275.794 218.028 275.881 218.647 276.394C219.267 276.907 219.499 277.749 219.238 278.514C218.57 280.459 216.769 281.437 215.482 281.95C215.356 282.095 215.24 282.24 215.124 282.395C217.592 282.153 220.08 281.543 222.664 280.905C225.53 280.208 228.482 279.482 231.531 279.249C231.928 279.22 232.77 279.152 233.593 279.598C234.203 279.927 234.551 280.382 234.784 280.692C234.822 280.75 234.861 280.798 234.909 280.846C235.084 281.04 235.684 281.156 237.6 280.624C244.764 278.649 252.624 278.736 259.739 280.856C260.765 281.166 261.346 282.24 261.036 283.266C260.726 284.293 259.652 284.873 258.625 284.564C252.198 282.637 245.093 282.569 238.627 284.351C237.126 284.767 234 285.628 232.025 283.431C231.938 283.334 231.851 283.218 231.763 283.112C229.063 283.325 226.401 283.973 223.584 284.66C220.138 285.522 216.585 286.393 212.897 286.393Z" fill="url(#paint10_linear_1001_364)"/>
<path d="M279.545 285.492C278.519 285.492 277.658 284.679 277.609 283.643C277.561 282.578 278.394 281.668 279.458 281.63C288.432 281.242 297.24 279.703 305.749 277.041C308.886 275.251 312.322 273.992 315.904 273.324C316.872 273.14 317.82 273.721 318.111 274.67C318.401 275.618 317.927 276.625 317.017 277.012C313.832 278.367 310.599 279.568 307.317 280.613C307.221 280.671 307.133 280.729 307.037 280.778C308.731 280.71 310.425 280.497 312.099 280.149C312.932 279.974 313.755 279.771 314.587 279.558C317.627 278.803 320.773 278.009 324.073 278.677C324.761 278.813 325.4 279.006 326.019 279.19C326.484 279.326 326.958 279.471 327.432 279.577C328.884 279.897 330.453 279.887 332.108 279.878C348.235 279.761 364.526 280.129 380.566 281.01C381.631 281.068 382.454 281.978 382.395 283.053C382.337 284.117 381.418 284.94 380.353 284.882C364.381 284.001 348.177 283.624 332.185 283.75C330.336 283.759 328.478 283.779 326.59 283.362C326.029 283.237 325.467 283.072 324.916 282.907C324.354 282.743 323.831 282.588 323.318 282.481C320.869 281.997 318.275 282.646 315.526 283.324C314.645 283.546 313.764 283.759 312.893 283.943C309.06 284.747 305.139 284.892 301.258 284.379C300.503 284.282 299.883 283.75 299.66 283.024C299.631 282.927 299.612 282.84 299.593 282.743C293.059 284.282 286.389 285.202 279.623 285.502C279.604 285.492 279.574 285.492 279.545 285.492Z" fill="url(#paint11_linear_1001_364)"/>
<path d="M257.224 313.768C254.262 313.768 251.184 313.39 248.503 311.822C247.941 311.493 247.583 310.912 247.544 310.263C247.505 309.615 247.796 308.995 248.309 308.608C248.822 308.221 249.277 307.776 249.693 307.292L209.192 312.558C208.137 312.703 207.159 311.948 207.024 310.883C206.888 309.818 207.634 308.85 208.698 308.715L252.907 302.965C253.565 302.887 254.214 303.129 254.63 303.633C255.056 304.136 255.201 304.814 255.007 305.443C254.572 306.895 253.856 308.26 252.917 309.45C255.162 310.012 257.708 309.934 260.157 309.789C269.876 309.199 279.614 307.795 289.1 305.636C290.775 305.259 292.866 304.784 294.918 305.569C295.799 305.907 296.506 306.43 297.125 306.885C297.416 307.098 297.706 307.311 298.016 307.495C299.642 308.463 301.82 308.434 304.104 308.318C312.42 307.892 320.793 306.866 328.972 305.268L329.127 305.239C330.579 304.959 332.07 304.668 333.687 304.765C335.042 304.843 336.271 305.191 337.462 305.53C337.771 305.617 338.072 305.704 338.381 305.782C344.247 307.33 350.53 306.798 356.609 306.285C357.693 306.188 358.613 306.991 358.7 308.056C358.787 309.121 358.003 310.06 356.928 310.147C350.82 310.66 343.899 311.241 337.384 309.528C337.055 309.441 336.726 309.353 336.397 309.257C335.361 308.966 334.374 308.685 333.435 308.627C332.302 308.55 331.121 308.792 329.853 309.044L329.698 309.073C321.345 310.699 312.787 311.754 304.288 312.19C301.501 312.335 298.567 312.345 296.022 310.834C295.576 310.573 295.199 310.292 294.821 310.021C294.357 309.683 293.911 309.353 293.505 309.199C292.556 308.831 291.23 309.131 289.943 309.431C280.243 311.638 270.302 313.061 260.38 313.671C259.373 313.709 258.308 313.768 257.224 313.768Z" fill="url(#paint12_linear_1001_364)"/>
<defs>
<linearGradient id="paint0_linear_1001_364" x1="251.415" y1="144.474" x2="251.415" y2="353.562" gradientUnits="userSpaceOnUse">
<stop stop-color="#D1AFFF"/>
<stop offset="1" stop-color="#906CFF"/>
</linearGradient>
<linearGradient id="paint1_linear_1001_364" x1="122.893" y1="182.961" x2="122.893" y2="322.005" gradientUnits="userSpaceOnUse">
<stop stop-color="#D1AFFF"/>
<stop offset="1" stop-color="#906CFF"/>
</linearGradient>
<linearGradient id="paint2_linear_1001_364" x1="213.34" y1="204.625" x2="213.34" y2="230.365" gradientUnits="userSpaceOnUse">
<stop stop-color="#D1AFFF"/>
<stop offset="1" stop-color="#906CFF"/>
</linearGradient>
<linearGradient id="paint3_linear_1001_364" x1="243.309" y1="204.625" x2="243.309" y2="230.365" gradientUnits="userSpaceOnUse">
<stop stop-color="#D1AFFF"/>
<stop offset="1" stop-color="#906CFF"/>
</linearGradient>
<linearGradient id="paint4_linear_1001_364" x1="273.315" y1="204.625" x2="273.315" y2="230.365" gradientUnits="userSpaceOnUse">
<stop stop-color="#D1AFFF"/>
<stop offset="1" stop-color="#906CFF"/>
</linearGradient>
<linearGradient id="paint5_linear_1001_364" x1="303.807" y1="204.625" x2="303.807" y2="230.365" gradientUnits="userSpaceOnUse">
<stop stop-color="#D1AFFF"/>
<stop offset="1" stop-color="#906CFF"/>
</linearGradient>
<linearGradient id="paint6_linear_1001_364" x1="380.328" y1="206.76" x2="380.328" y2="273.371" gradientUnits="userSpaceOnUse">
<stop stop-color="#D1AFFF"/>
<stop offset="1" stop-color="#906CFF"/>
</linearGradient>
<linearGradient id="paint7_linear_1001_364" x1="121.491" y1="287.505" x2="121.491" y2="322.07" gradientUnits="userSpaceOnUse">
<stop stop-color="#D1AFFF"/>
<stop offset="1" stop-color="#906CFF"/>
</linearGradient>
<linearGradient id="paint8_linear_1001_364" x1="122.847" y1="194.365" x2="122.847" y2="269.778" gradientUnits="userSpaceOnUse">
<stop stop-color="#D1AFFF"/>
<stop offset="1" stop-color="#906CFF"/>
</linearGradient>
<linearGradient id="paint9_linear_1001_364" x1="272.1" y1="250.861" x2="272.1" y2="263.654" gradientUnits="userSpaceOnUse">
<stop stop-color="#D1AFFF"/>
<stop offset="1" stop-color="#906CFF"/>
</linearGradient>
<linearGradient id="paint10_linear_1001_364" x1="230.587" y1="275.942" x2="230.587" y2="286.393" gradientUnits="userSpaceOnUse">
<stop stop-color="#D1AFFF"/>
<stop offset="1" stop-color="#906CFF"/>
</linearGradient>
<linearGradient id="paint11_linear_1001_364" x1="330.003" y1="273.29" x2="330.003" y2="285.502" gradientUnits="userSpaceOnUse">
<stop stop-color="#D1AFFF"/>
<stop offset="1" stop-color="#906CFF"/>
</linearGradient>
<linearGradient id="paint12_linear_1001_364" x1="282.857" y1="302.95" x2="282.857" y2="313.768" gradientUnits="userSpaceOnUse">
<stop stop-color="#D1AFFF"/>
<stop offset="1" stop-color="#906CFF"/>
</linearGradient>
</defs>
</svg>
