<svg width="485" height="484" viewBox="0 0 485 484" fill="none" xmlns="http://www.w3.org/2000/svg">
<path d="M378.06 152.799H149.07L107.959 294.204H336.552L378.06 152.799Z" fill="url(#paint0_linear_1001_285)"/>
<path d="M241.137 293.787C241.592 294.9 242.269 295.917 243.112 296.769C243.112 296.769 261.697 326.447 261.949 326.951C262.23 328.083 262.036 329.313 261.436 330.31C260.836 331.307 259.829 332.042 258.706 332.323L188.371 332.546L191.924 324.792C191.924 324.792 221.438 324.889 221.302 324.57C219.899 320.775 218.941 316.826 218.466 312.808C218.321 311.589 218.215 310.35 218.408 309.13C218.699 307.339 219.608 305.723 220.615 304.222C222.067 302.064 223.771 300.031 225.939 298.598C230.14 295.801 235.493 295.559 241.137 293.787Z" fill="url(#paint1_linear_1001_285)"/>
<path d="M197.025 294.378L218.031 324.637C218.031 324.637 223.384 324.734 223.461 324.918C220.47 320.61 219.648 314.88 221.313 309.914C222.716 305.713 225.785 302.16 229.521 299.769C233.258 297.378 237.633 296.11 242.047 295.655L241.098 294.31L197.025 294.378Z" fill="#36275B"/>
<path d="M155.022 158.762H368.921L338.729 264.022H123.252L155.022 158.762Z" fill="#F2EFFB"/>
<path d="M129.893 339.767H284.657L271.221 385.621H116.061L129.893 339.767Z" fill="url(#paint2_linear_1001_285)"/>
<path d="M428.967 333.283H58.0289C57.7579 333.283 57.5449 333.07 57.5449 332.799C57.5449 332.528 57.7579 332.315 58.0289 332.315H428.967C429.238 332.315 429.451 332.528 429.451 332.799C429.451 333.07 429.238 333.283 428.967 333.283Z" fill="#36275B"/>
<path d="M336.551 294.688H107.958C107.803 294.688 107.658 294.621 107.571 294.495C107.484 294.379 107.455 294.214 107.493 294.069L148.604 152.663C148.662 152.46 148.856 152.315 149.069 152.315H378.059C378.214 152.315 378.359 152.383 378.446 152.508C378.533 152.634 378.562 152.789 378.524 152.934L337.016 294.34C336.958 294.543 336.764 294.688 336.551 294.688ZM108.607 293.72H336.193L377.42 153.283H149.437L108.607 293.72Z" fill="#36275B"/>
<path d="M338.73 264.507H123.253C123.098 264.507 122.953 264.429 122.866 264.313C122.779 264.197 122.75 264.032 122.788 263.887L154.558 158.627C154.616 158.423 154.81 158.278 155.023 158.278H368.922C369.077 158.278 369.212 158.346 369.309 158.472C369.406 158.598 369.425 158.753 369.386 158.898L339.194 264.158C339.136 264.361 338.943 264.507 338.73 264.507ZM123.902 263.539H338.362L368.273 159.246H155.381L123.902 263.539Z" fill="#36275B"/>
<path d="M257.767 332.827H188.584C188.419 332.827 188.264 332.74 188.177 332.604C188.09 332.469 188.071 332.294 188.138 332.139L191.517 324.589C191.594 324.415 191.768 324.299 191.962 324.299H249.558C249.829 324.299 250.042 324.512 250.042 324.783C250.042 325.054 249.829 325.267 249.558 325.267H192.272L189.329 331.849H257.767C259.19 331.849 260.438 331.104 261.126 329.865C261.813 328.616 261.764 327.154 261 325.954L241.011 294.668C240.865 294.445 240.933 294.145 241.156 294C241.378 293.855 241.678 293.923 241.824 294.145L261.813 325.441C262.771 326.941 262.829 328.771 261.968 330.339C261.116 331.897 259.548 332.827 257.767 332.827Z" fill="#36275B"/>
<path d="M271.222 386.105H116.062C115.907 386.105 115.761 386.028 115.674 385.912C115.587 385.795 115.558 385.631 115.597 385.486L129.43 339.632C129.488 339.428 129.681 339.283 129.894 339.283H284.658C284.813 339.283 284.958 339.351 285.045 339.477C285.132 339.603 285.161 339.757 285.123 339.903L271.687 385.757C271.629 385.96 271.435 386.105 271.222 386.105ZM116.71 385.137H270.854L284.01 340.251H130.252L116.71 385.137Z" fill="#36275B"/>
<path d="M220.556 349.303H131.355C131.084 349.303 130.871 349.09 130.871 348.819C130.871 348.548 131.084 348.335 131.355 348.335H220.556C220.827 348.335 221.04 348.548 221.04 348.819C221.04 349.09 220.827 349.303 220.556 349.303Z" fill="#36275B"/>
<path d="M219.79 360.076H128.992C128.721 360.076 128.508 359.863 128.508 359.592C128.508 359.321 128.721 359.108 128.992 359.108H219.79C220.061 359.108 220.274 359.321 220.274 359.592C220.274 359.863 220.061 360.076 219.79 360.076Z" fill="#36275B"/>
<path d="M216.392 368.478H126.533C126.262 368.478 126.049 368.265 126.049 367.994C126.049 367.723 126.262 367.51 126.533 367.51H216.392C216.663 367.51 216.876 367.723 216.876 367.994C216.876 368.265 216.663 368.478 216.392 368.478Z" fill="#36275B"/>
<path d="M214.787 377.173H123.418C123.147 377.173 122.934 376.96 122.934 376.689C122.934 376.418 123.147 376.205 123.418 376.205H214.787C215.058 376.205 215.271 376.418 215.271 376.689C215.271 376.96 215.058 377.173 214.787 377.173Z" fill="#36275B"/>
<path d="M128.432 384.354C128.384 384.354 128.335 384.344 128.296 384.335C128.045 384.257 127.89 383.986 127.967 383.735L139.864 343.766C139.941 343.514 140.213 343.369 140.464 343.437C140.716 343.514 140.871 343.785 140.793 344.037L128.897 384.006C128.829 384.219 128.645 384.354 128.432 384.354Z" fill="#36275B"/>
<path d="M140.619 383.976C140.581 383.976 140.532 383.976 140.494 383.956C140.232 383.889 140.077 383.627 140.155 383.366L150.638 343.968C150.706 343.707 150.977 343.552 151.229 343.63C151.49 343.697 151.645 343.959 151.567 344.22L141.084 383.618C141.026 383.831 140.832 383.976 140.619 383.976Z" fill="#36275B"/>
<path d="M152.613 376.696C152.575 376.696 152.536 376.696 152.487 376.677C152.226 376.609 152.071 376.348 152.139 376.086L160.551 343.591C160.619 343.329 160.88 343.174 161.141 343.242C161.403 343.31 161.558 343.571 161.49 343.833L153.078 376.328C153.03 376.551 152.826 376.696 152.613 376.696Z" fill="#36275B"/>
<path d="M164.517 376.61C164.479 376.61 164.449 376.61 164.411 376.6C164.149 376.542 163.985 376.281 164.043 376.02L171.322 344.085C171.38 343.824 171.642 343.659 171.903 343.717C172.164 343.776 172.329 344.037 172.271 344.298L164.992 376.233C164.933 376.455 164.74 376.61 164.517 376.61Z" fill="#36275B"/>
<path d="M174.82 376.891C174.781 376.891 174.752 376.891 174.713 376.881C174.452 376.823 174.288 376.561 174.346 376.3L181.722 343.891C181.78 343.63 182.041 343.466 182.303 343.524C182.564 343.582 182.729 343.843 182.67 344.104L175.294 376.513C175.236 376.736 175.043 376.891 174.82 376.891Z" fill="#36275B"/>
<path d="M186.347 384.257C186.318 384.257 186.28 384.257 186.241 384.248C185.979 384.19 185.815 383.938 185.873 383.677L194.382 344.095C194.44 343.834 194.701 343.669 194.953 343.727C195.214 343.785 195.379 344.037 195.321 344.298L186.812 383.88C186.773 384.103 186.57 384.257 186.347 384.257Z" fill="#36275B"/>
<path d="M199.008 383.503C198.979 383.503 198.95 383.503 198.921 383.493C198.659 383.445 198.485 383.193 198.533 382.932L205.339 344.947C205.387 344.686 205.629 344.512 205.9 344.56C206.161 344.609 206.336 344.86 206.287 345.122L199.482 383.106C199.443 383.338 199.24 383.503 199.008 383.503Z" fill="#36275B"/>
<path d="M209.966 382.65C209.946 382.65 209.917 382.65 209.898 382.65C209.636 382.612 209.452 382.37 209.482 382.108L214.68 344.317C214.718 344.056 214.951 343.872 215.222 343.901C215.483 343.94 215.667 344.182 215.638 344.443L210.44 382.234C210.411 382.476 210.208 382.65 209.966 382.65Z" fill="#36275B"/>
<path d="M235.523 382.04C235.474 382.04 235.435 382.03 235.387 382.021C235.126 381.943 234.98 381.682 235.058 381.42L245.483 344.569C245.561 344.307 245.822 344.162 246.083 344.23C246.345 344.307 246.49 344.569 246.422 344.83L235.997 381.682C235.929 381.904 235.736 382.04 235.523 382.04Z" fill="#36275B"/>
<path d="M249.953 383.135C249.914 383.135 249.876 383.135 249.837 383.125C249.576 383.057 249.421 382.796 249.489 382.535L259.062 344.095C259.13 343.834 259.382 343.679 259.653 343.747C259.914 343.814 260.069 344.076 260.001 344.337L250.428 382.777C250.369 382.989 250.166 383.135 249.953 383.135Z" fill="#36275B"/>
<path d="M264.504 381.924C264.465 381.924 264.436 381.924 264.397 381.914C264.136 381.856 263.971 381.595 264.029 381.334L272.151 345.566C272.209 345.305 272.47 345.14 272.732 345.198C272.993 345.256 273.157 345.518 273.099 345.779L264.978 381.547C264.92 381.769 264.726 381.924 264.504 381.924Z" fill="#36275B"/>
<path d="M275.287 351.849H241.339C241.068 351.849 240.855 351.636 240.855 351.365C240.855 351.094 241.068 350.881 241.339 350.881H275.287C275.558 350.881 275.771 351.094 275.771 351.365C275.771 351.636 275.558 351.849 275.287 351.849Z" fill="#36275B"/>
<path d="M272.867 360.707H236.248C235.977 360.707 235.764 360.494 235.764 360.223C235.764 359.951 235.977 359.739 236.248 359.739H272.867C273.138 359.739 273.351 359.951 273.351 360.223C273.351 360.494 273.138 360.707 272.867 360.707Z" fill="#36275B"/>
<path d="M269.595 371.373H234.427C234.156 371.373 233.943 371.16 233.943 370.889C233.943 370.618 234.156 370.405 234.427 370.405H269.595C269.866 370.405 270.079 370.618 270.079 370.889C270.079 371.16 269.866 371.373 269.595 371.373Z" fill="#36275B"/>
<path d="M161.614 228.371C161.15 228.371 160.685 228.149 160.404 227.732L148.991 210.715C148.566 210.076 148.701 209.224 149.311 208.76L170.839 192.11C171.478 191.616 172.388 191.732 172.872 192.371C173.366 193.01 173.25 193.92 172.611 194.404L152.157 210.221L162.814 226.116C163.26 226.784 163.086 227.684 162.418 228.129C162.176 228.294 161.895 228.371 161.614 228.371Z" fill="#36275B"/>
<path d="M178.459 229.126C178.343 229.126 178.226 229.117 178.11 229.088C177.336 228.894 176.862 228.11 177.045 227.326L186.338 189.816C186.532 189.042 187.316 188.567 188.1 188.751C188.874 188.945 189.349 189.729 189.165 190.513L179.872 228.023C179.707 228.681 179.107 229.126 178.459 229.126Z" fill="#36275B"/>
<path d="M206.451 209.533H183.829C183.026 209.533 182.377 208.885 182.377 208.081C182.377 207.278 183.026 206.629 183.829 206.629H206.451C207.255 206.629 207.903 207.278 207.903 208.081C207.903 208.885 207.255 209.533 206.451 209.533Z" fill="#36275B"/>
<path d="M201.968 228.681C201.852 228.681 201.726 228.661 201.61 228.632C200.836 228.429 200.361 227.645 200.565 226.861L209.974 190.242C210.177 189.467 210.971 189.003 211.745 189.196C212.519 189.399 212.994 190.183 212.791 190.968L203.382 227.587C203.207 228.245 202.617 228.681 201.968 228.681Z" fill="#36275B"/>
<path d="M240.834 191.955H217.311C216.508 191.955 215.859 191.306 215.859 190.503C215.859 189.699 216.508 189.051 217.311 189.051H240.834C241.637 189.051 242.286 189.699 242.286 190.503C242.286 191.306 241.637 191.955 240.834 191.955Z" fill="#36275B"/>
<path d="M219.558 228.573C219.442 228.573 219.326 228.563 219.21 228.534C218.435 228.34 217.961 227.556 218.155 226.772L227.109 190.821C227.302 190.046 228.086 189.572 228.87 189.766C229.645 189.959 230.119 190.743 229.925 191.527L220.971 227.479C220.807 228.128 220.207 228.573 219.558 228.573Z" fill="#36275B"/>
<path d="M263.564 228.68C263.448 228.68 263.322 228.661 263.206 228.632C262.432 228.438 261.957 227.644 262.151 226.87L269.779 196.639L256.198 213.899C255.859 214.334 255.297 214.538 254.755 214.422C254.213 214.305 253.787 213.899 253.652 213.357L249.16 195.826L241.571 227.219C241.387 228.003 240.603 228.477 239.819 228.293C239.035 228.109 238.561 227.315 238.745 226.541L247.708 189.476C247.863 188.828 248.444 188.373 249.112 188.363H249.122C249.78 188.363 250.361 188.808 250.525 189.457L255.733 209.795L271.715 189.486C272.141 188.944 272.876 188.779 273.496 189.079C274.106 189.379 274.435 190.076 274.261 190.735L264.968 227.577C264.803 228.245 264.213 228.68 263.564 228.68Z" fill="#36275B"/>
<path d="M296.602 227.897H274.202C273.757 227.897 273.341 227.694 273.06 227.345C272.789 226.997 272.682 226.542 272.789 226.106L281.636 189.603C281.83 188.829 282.604 188.345 283.388 188.538C284.163 188.732 284.647 189.516 284.453 190.29L276.041 225.003H296.592C297.395 225.003 298.044 225.651 298.044 226.455C298.044 227.258 297.405 227.897 296.602 227.897Z" fill="#36275B"/>
<path d="M313.621 230.588C313.195 230.588 312.779 230.404 312.489 230.046C311.985 229.426 312.082 228.506 312.702 228.003L333.736 211.024L322.72 194.549C322.275 193.881 322.449 192.981 323.117 192.536C323.785 192.09 324.685 192.264 325.131 192.932L336.882 210.511C337.298 211.14 337.173 211.973 336.592 212.447L314.531 230.258C314.26 230.481 313.941 230.588 313.621 230.588Z" fill="#36275B"/>
<path d="M184.436 116.121H148.136C146.868 116.121 145.842 115.095 145.842 113.827C145.842 112.559 146.868 111.523 148.136 111.523H184.436C185.704 111.523 186.74 112.559 186.74 113.827C186.74 115.095 185.704 116.121 184.436 116.121ZM148.136 112.491C147.4 112.491 146.81 113.092 146.81 113.827C146.81 114.563 147.4 115.153 148.136 115.153H184.436C185.172 115.153 185.772 114.563 185.772 113.827C185.772 113.092 185.172 112.491 184.436 112.491H148.136Z" fill="url(#paint3_linear_1001_285)"/>
<path d="M182.395 123.478H111.489C110.221 123.478 109.186 122.442 109.186 121.174C109.186 119.906 110.221 118.87 111.489 118.87H182.395C183.663 118.87 184.699 119.906 184.699 121.174C184.699 122.442 183.663 123.478 182.395 123.478ZM111.489 119.838C110.754 119.838 110.154 120.438 110.154 121.174C110.154 121.909 110.754 122.51 111.489 122.51H182.395C183.131 122.51 183.731 121.909 183.731 121.174C183.731 120.438 183.131 119.838 182.395 119.838H111.489Z" fill="url(#paint4_linear_1001_285)"/>
<path d="M180.693 130.737H125.759C124.491 130.737 123.465 129.702 123.465 128.433C123.465 127.165 124.491 126.13 125.759 126.13H180.693C181.961 126.13 182.997 127.165 182.997 128.433C182.997 129.702 181.961 130.737 180.693 130.737ZM125.759 127.098C125.023 127.098 124.433 127.698 124.433 128.433C124.433 129.169 125.023 129.769 125.759 129.769H180.693C181.429 129.769 182.029 129.169 182.029 128.433C182.029 127.698 181.429 127.098 180.693 127.098H125.759Z" fill="url(#paint5_linear_1001_285)"/>
<path d="M178.522 138.24H117.538C116.27 138.24 115.234 137.204 115.234 135.936C115.234 134.668 116.27 133.632 117.538 133.632H178.522C179.79 133.632 180.826 134.668 180.826 135.936C180.826 137.204 179.79 138.24 178.522 138.24ZM117.538 134.6C116.803 134.6 116.202 135.2 116.202 135.936C116.202 136.672 116.803 137.272 117.538 137.272H178.522C179.258 137.272 179.858 136.672 179.858 135.936C179.858 135.2 179.258 134.6 178.522 134.6H117.538Z" fill="url(#paint6_linear_1001_285)"/>
<path d="M177.418 145.5H133.616C132.348 145.5 131.322 144.464 131.322 143.196C131.322 141.928 132.348 140.892 133.616 140.892H177.418C178.687 140.892 179.722 141.928 179.722 143.196C179.722 144.464 178.687 145.5 177.418 145.5ZM133.616 141.86C132.881 141.86 132.29 142.46 132.29 143.196C132.29 143.932 132.881 144.532 133.616 144.532H177.418C178.154 144.532 178.754 143.932 178.754 143.196C178.754 142.46 178.154 141.86 177.418 141.86H133.616Z" fill="url(#paint7_linear_1001_285)"/>
<path d="M143.434 153.486H109.796C108.528 153.486 107.492 152.45 107.492 151.182C107.492 149.914 108.528 148.879 109.796 148.879H143.434C144.702 148.879 145.738 149.914 145.738 151.182C145.738 152.45 144.702 153.486 143.434 153.486ZM109.796 149.847C109.06 149.847 108.46 150.447 108.46 151.182C108.46 151.918 109.06 152.518 109.796 152.518H143.434C144.17 152.518 144.77 151.918 144.77 151.182C144.77 150.447 144.17 149.847 143.434 149.847H109.796Z" fill="url(#paint8_linear_1001_285)"/>
<path d="M142.06 160.746H125.759C124.491 160.746 123.465 159.71 123.465 158.442C123.465 157.174 124.491 156.139 125.759 156.139H142.06C143.328 156.139 144.354 157.174 144.354 158.442C144.354 159.71 143.328 160.746 142.06 160.746ZM125.759 157.107C125.023 157.107 124.433 157.707 124.433 158.442C124.433 159.178 125.023 159.778 125.759 159.778H142.06C142.796 159.778 143.386 159.178 143.386 158.442C143.386 157.707 142.796 157.107 142.06 157.107H125.759Z" fill="url(#paint9_linear_1001_285)"/>
<path d="M133.841 175.507H94.0558C92.7877 175.507 91.752 174.472 91.752 173.203C91.752 171.935 92.7877 170.9 94.0558 170.9H133.841C135.109 170.9 136.135 171.935 136.135 173.203C136.135 174.472 135.109 175.507 133.841 175.507ZM94.0558 171.868C93.3201 171.868 92.72 172.468 92.72 173.203C92.72 173.939 93.3201 174.539 94.0558 174.539H133.841C134.576 174.539 135.167 173.939 135.167 173.203C135.167 172.468 134.576 171.868 133.841 171.868H94.0558Z" fill="url(#paint10_linear_1001_285)"/>
<path d="M138.255 180.619H38.474C38.3191 180.619 38.1836 180.551 38.0868 180.425C37.9997 180.309 37.961 180.145 38.0094 180L60.9897 98.2423C61.0478 98.0293 61.2414 97.8938 61.4543 97.8938H194.671C194.825 97.8938 194.961 97.9616 195.058 98.0874C195.154 98.2132 195.184 98.3584 195.145 98.5036L181.409 150.079C181.341 150.34 181.08 150.495 180.818 150.417C180.557 150.35 180.402 150.079 180.48 149.827L194.051 98.8618H61.8222L39.1129 179.651H138.255C138.527 179.651 138.739 179.864 138.739 180.135C138.739 180.406 138.527 180.619 138.255 180.619Z" fill="url(#paint11_linear_1001_285)"/>
<path d="M191.407 108.764H59.0817C58.8106 108.764 58.5977 108.551 58.5977 108.28C58.5977 108.009 58.8106 107.796 59.0817 107.796H191.407C191.678 107.796 191.891 108.009 191.891 108.28C191.891 108.551 191.678 108.764 191.407 108.764Z" fill="url(#paint12_linear_1001_285)"/>
<path d="M65.2687 106.646C64.8912 106.646 64.5137 106.559 64.1652 106.384C62.7422 105.649 62.326 103.606 63.2359 101.825C64.1458 100.044 66.0528 99.1922 67.4758 99.9182C68.8987 100.654 69.315 102.696 68.405 104.478C67.7178 105.823 66.4594 106.646 65.2687 106.646ZM64.0974 102.27C63.4295 103.577 63.6522 105.039 64.6008 105.523C65.5494 106.007 66.8659 105.349 67.5435 104.042C68.2114 102.735 67.9888 101.273 67.0402 100.789C66.0915 100.296 64.775 100.964 64.0974 102.27Z" fill="url(#paint13_linear_1001_285)"/>
<path d="M72.7707 106.646C72.3932 106.646 72.0156 106.559 71.6672 106.384C70.2442 105.649 69.828 103.606 70.7379 101.825C71.6478 100.044 73.5548 99.1922 74.9777 99.9182C76.4007 100.654 76.8169 102.696 75.907 104.478C75.2197 105.823 73.9613 106.646 72.7707 106.646ZM73.8645 100.625C73.0417 100.625 72.1221 101.254 71.5994 102.27C70.9315 103.577 71.1541 105.039 72.1028 105.523C73.0514 106.007 74.3679 105.349 75.0455 104.042C75.7134 102.735 75.4908 101.273 74.5421 100.789C74.3292 100.673 74.0968 100.625 73.8645 100.625Z" fill="url(#paint14_linear_1001_285)"/>
<path d="M142.466 116.122H62.1222C60.8541 116.122 59.8184 115.096 59.8184 113.828C59.8184 112.56 60.8541 111.524 62.1222 111.524H142.466C143.734 111.524 144.77 112.56 144.77 113.828C144.77 115.096 143.734 116.122 142.466 116.122ZM62.1222 112.492C61.3865 112.492 60.7864 113.092 60.7864 113.828C60.7864 114.564 61.3865 115.154 62.1222 115.154H142.466C143.202 115.154 143.802 114.564 143.802 113.828C143.802 113.092 143.202 112.492 142.466 112.492H62.1222Z" fill="url(#paint15_linear_1001_285)"/>
<path d="M105.295 123.478H60.7668C59.4987 123.478 58.4727 122.443 58.4727 121.175C58.4727 119.906 59.4987 118.871 60.7668 118.871H105.295C106.563 118.871 107.589 119.906 107.589 121.175C107.589 122.443 106.563 123.478 105.295 123.478ZM60.7668 119.839C60.0311 119.839 59.4407 120.439 59.4407 121.175C59.4407 121.91 60.0311 122.51 60.7668 122.51H105.295C106.031 122.51 106.621 121.91 106.621 121.175C106.621 120.439 106.031 119.839 105.295 119.839H60.7668Z" fill="url(#paint16_linear_1001_285)"/>
<path d="M118.847 130.738H58.5988C57.3307 130.738 56.2949 129.703 56.2949 128.434C56.2949 127.166 57.321 126.131 58.5891 126.131H118.847C120.115 126.131 121.141 127.166 121.141 128.434C121.141 129.703 120.115 130.738 118.847 130.738ZM58.5891 127.099C57.8534 127.099 57.2629 127.699 57.2629 128.434C57.2629 129.17 57.8631 129.77 58.5988 129.77H118.847C119.583 129.77 120.173 129.17 120.173 128.434C120.173 127.699 119.583 127.099 118.847 127.099H58.5891Z" fill="url(#paint17_linear_1001_285)"/>
<path d="M110.145 138.241H55.9367C54.6686 138.241 53.6328 137.205 53.6328 135.937C53.6328 134.669 54.6686 133.633 55.9367 133.633H110.145C111.413 133.633 112.439 134.669 112.439 135.937C112.439 137.205 111.413 138.241 110.145 138.241ZM55.9367 134.601C55.201 134.601 54.6008 135.201 54.6008 135.937C54.6008 136.673 55.201 137.273 55.9367 137.273H110.145C110.88 137.273 111.471 136.673 111.471 135.937C111.471 135.201 110.88 134.601 110.145 134.601H55.9367Z" fill="url(#paint18_linear_1001_285)"/>
<path d="M126.592 145.501H54.4758C53.2077 145.501 52.1816 144.465 52.1816 143.197C52.1816 141.929 53.2077 140.893 54.4758 140.893H126.592C127.86 140.893 128.896 141.929 128.896 143.197C128.896 144.465 127.86 145.501 126.592 145.501ZM54.4758 141.861C53.7401 141.861 53.1496 142.461 53.1496 143.197C53.1496 143.933 53.7401 144.533 54.4758 144.533H126.592C127.327 144.533 127.928 143.933 127.928 143.197C127.928 142.461 127.327 141.861 126.592 141.861H54.4758Z" fill="url(#paint19_linear_1001_285)"/>
<path d="M103.368 153.486H52.548C51.2799 153.486 50.2441 152.45 50.2441 151.182C50.2441 149.914 51.2799 148.878 52.548 148.878H103.368C104.636 148.878 105.662 149.914 105.662 151.182C105.662 152.45 104.636 153.486 103.368 153.486ZM52.548 149.846C51.8123 149.846 51.2121 150.446 51.2121 151.182C51.2121 151.918 51.8123 152.518 52.548 152.518H103.368C104.104 152.518 104.694 151.918 104.694 151.182C104.694 150.446 104.104 149.846 103.368 149.846H52.548Z" fill="url(#paint20_linear_1001_285)"/>
<path d="M118.845 160.746H50.8527C49.5846 160.746 48.5488 159.71 48.5488 158.442C48.5488 157.174 49.5749 156.138 50.843 156.138H118.845C120.113 156.138 121.139 157.174 121.139 158.442C121.139 159.71 120.113 160.746 118.845 160.746ZM50.843 157.106C50.1073 157.106 49.5168 157.706 49.5168 158.442C49.5168 159.178 50.117 159.778 50.8527 159.778H118.845C119.581 159.778 120.171 159.178 120.171 158.442C120.171 157.706 119.581 157.106 118.845 157.106H50.843Z" fill="url(#paint21_linear_1001_285)"/>
<path d="M135.313 168.732H49.1613C47.8932 168.732 46.8574 167.696 46.8574 166.428C46.8574 165.16 47.8932 164.124 49.1613 164.124H135.313C136.581 164.124 137.617 165.16 137.617 166.428C137.617 167.696 136.581 168.732 135.313 168.732ZM49.1613 165.092C48.4256 165.092 47.8254 165.693 47.8254 166.428C47.8254 167.164 48.4256 167.764 49.1613 167.764H135.313C136.049 167.764 136.649 167.164 136.649 166.428C136.649 165.693 136.049 165.092 135.313 165.092H49.1613Z" fill="url(#paint22_linear_1001_285)"/>
<path d="M85.6939 175.508H46.9738C45.7058 175.508 44.6797 174.472 44.6797 173.204C44.6797 171.936 45.7058 170.901 46.9738 170.901H85.6939C86.9619 170.901 87.988 171.936 87.988 173.204C87.988 174.472 86.9619 175.508 85.6939 175.508ZM46.9738 171.869C46.2382 171.869 45.6477 172.469 45.6477 173.204C45.6477 173.94 46.2382 174.54 46.9738 174.54H85.6939C86.4295 174.54 87.02 173.94 87.02 173.204C87.02 172.469 86.4295 171.869 85.6939 171.869H46.9738Z" fill="url(#paint23_linear_1001_285)"/>
<path d="M379.087 164.955C378.283 164.955 377.635 164.307 377.635 163.513C377.635 162.71 378.283 162.061 379.087 162.051L431.078 161.868L445.511 109.934L384.565 110.283L373.792 149.206C373.579 149.98 372.775 150.435 372.001 150.222C371.226 150.01 370.771 149.206 370.994 148.432L382.058 108.453C382.233 107.824 382.804 107.388 383.452 107.388L447.418 107.021H447.427C447.882 107.021 448.308 107.234 448.579 107.592C448.86 107.95 448.947 108.424 448.821 108.86L433.575 163.707C433.401 164.336 432.83 164.772 432.181 164.772L379.087 164.955Z" fill="url(#paint24_linear_1001_285)"/>
<path d="M392.939 149.622C392.464 149.622 392 149.389 391.729 148.963L383.733 136.776C383.326 136.147 383.452 135.315 384.043 134.85L399.376 122.585C400.005 122.082 400.915 122.189 401.418 122.808C401.922 123.437 401.815 124.347 401.196 124.851L386.898 136.292L394.168 147.376C394.613 148.044 394.42 148.944 393.752 149.389C393.49 149.544 393.21 149.622 392.939 149.622Z" fill="url(#paint25_linear_1001_285)"/>
<path d="M398.417 151.2C398.127 151.2 397.827 151.113 397.566 150.929C396.917 150.455 396.772 149.555 397.237 148.906L416.113 122.78C416.587 122.131 417.487 121.986 418.136 122.451C418.784 122.925 418.929 123.825 418.465 124.474L399.589 150.6C399.308 150.987 398.863 151.2 398.417 151.2Z" fill="url(#paint26_linear_1001_285)"/>
<path d="M416.268 149.989C415.852 149.989 415.435 149.805 415.145 149.456C414.632 148.837 414.729 147.927 415.348 147.414L430.033 135.333L422.144 123.872C421.689 123.214 421.853 122.304 422.511 121.849C423.17 121.394 424.08 121.559 424.535 122.217L433.179 134.772C433.605 135.391 433.489 136.234 432.908 136.718L417.187 149.66C416.916 149.882 416.597 149.989 416.268 149.989Z" fill="url(#paint27_linear_1001_285)"/>
<path d="M337.643 312.21H301.343C300.075 312.21 299.039 311.184 299.039 309.916C299.039 308.648 300.075 307.612 301.343 307.612H337.643C338.253 307.641 338.834 307.845 339.269 308.271C339.705 308.706 339.947 309.287 339.947 309.907C339.947 311.175 338.911 312.21 337.643 312.21ZM337.662 308.58H337.653H301.353C300.617 308.58 300.017 309.181 300.017 309.916C300.017 310.652 300.617 311.242 301.353 311.242H337.653C338.388 311.242 338.988 310.642 338.988 309.907C338.988 309.548 338.853 309.21 338.592 308.958C338.34 308.716 338.011 308.58 337.662 308.58Z" fill="url(#paint28_linear_1001_285)"/>
<path d="M374.311 304.853H303.405C302.137 304.853 301.102 303.817 301.102 302.549C301.102 301.281 302.137 300.245 303.405 300.245H374.311C375.579 300.255 376.615 301.291 376.615 302.549C376.615 303.817 375.579 304.853 374.311 304.853ZM374.311 301.213H303.405C302.67 301.213 302.07 301.813 302.07 302.549C302.07 303.285 302.67 303.885 303.405 303.885H374.311C375.047 303.885 375.647 303.285 375.647 302.549C375.647 301.823 375.047 301.223 374.311 301.213Z" fill="url(#paint29_linear_1001_285)"/>
<path d="M391.746 252.823H354.72C353.452 252.823 352.416 251.787 352.416 250.519C352.416 249.251 353.452 248.215 354.72 248.215H391.746C393.014 248.225 394.05 249.261 394.05 250.519C394.05 251.787 393.014 252.823 391.746 252.823ZM391.736 249.183H354.71C353.974 249.183 353.374 249.783 353.374 250.519C353.374 251.255 353.974 251.855 354.71 251.855H391.736C392.472 251.855 393.072 251.255 393.072 250.519C393.082 249.793 392.482 249.193 391.736 249.183Z" fill="url(#paint30_linear_1001_285)"/>
<path d="M334.981 320.438H298.681C297.413 320.438 296.377 319.412 296.377 318.144C296.377 316.876 297.413 315.84 298.681 315.84H334.981C335.591 315.84 336.171 316.072 336.607 316.498C337.043 316.934 337.285 317.515 337.285 318.134C337.285 319.402 336.249 320.438 334.981 320.438ZM335 316.808H334.99H298.69C297.955 316.808 297.355 317.408 297.355 318.144C297.355 318.88 297.955 319.47 298.69 319.47H334.99C335.726 319.47 336.326 318.87 336.326 318.134C336.326 317.776 336.191 317.437 335.929 317.186C335.678 316.944 335.349 316.808 335 316.808Z" fill="url(#paint31_linear_1001_285)"/>
<path d="M424.346 325.84H291.12C290.966 325.84 290.83 325.772 290.733 325.646C290.646 325.53 290.607 325.375 290.656 325.23L298.584 295.919C298.652 295.657 298.923 295.512 299.174 295.58C299.436 295.648 299.581 295.919 299.513 296.17L291.75 324.872H423.978L446.678 244.082H353.595C353.324 244.082 353.111 243.869 353.111 243.598C353.111 243.327 353.324 243.114 353.595 243.114H447.317C447.472 243.114 447.607 243.182 447.704 243.308C447.801 243.434 447.82 243.589 447.782 243.734L424.811 325.491C424.753 325.694 424.559 325.84 424.346 325.84Z" fill="url(#paint32_linear_1001_285)"/>
<path d="M423.677 312.21H343.333C342.065 312.21 341.029 311.184 341.029 309.916C341.029 308.647 342.065 307.612 343.333 307.612H423.677C424.258 307.641 424.868 307.844 425.303 308.27C425.739 308.706 425.981 309.286 425.981 309.906C425.981 311.174 424.945 312.21 423.677 312.21ZM423.697 308.58H423.687H343.343C342.607 308.58 342.007 309.18 342.007 309.916C342.007 310.651 342.607 311.242 343.343 311.242H423.687C424.423 311.242 425.023 310.642 425.023 309.906C425.023 309.548 424.887 309.209 424.626 308.957C424.374 308.715 424.045 308.58 423.697 308.58Z" fill="url(#paint33_linear_1001_285)"/>
<path d="M421.017 320.439H340.673C339.405 320.439 338.369 319.413 338.369 318.145C338.369 316.876 339.405 315.841 340.673 315.841H421.017C421.598 315.841 422.208 316.073 422.643 316.499C423.079 316.935 423.321 317.515 423.321 318.135C423.321 319.403 422.285 320.439 421.017 320.439ZM421.036 316.809H421.027H340.683C339.947 316.809 339.347 317.409 339.347 318.145C339.347 318.88 339.947 319.471 340.683 319.471H421.027C421.762 319.471 422.363 318.871 422.363 318.135C422.363 317.777 422.227 317.438 421.966 317.186C421.714 316.944 421.385 316.809 421.036 316.809Z" fill="url(#paint34_linear_1001_285)"/>
<path d="M425.015 304.854H380.487C379.219 304.854 378.184 303.818 378.184 302.55C378.184 301.282 379.219 300.246 380.487 300.246H425.015C426.284 300.256 427.319 301.291 427.319 302.55C427.319 303.818 426.284 304.854 425.015 304.854ZM425.006 301.214H380.478C379.742 301.214 379.142 301.814 379.142 302.55C379.142 303.285 379.742 303.886 380.478 303.886H425.006C425.741 303.886 426.342 303.285 426.342 302.55C426.351 301.824 425.751 301.224 425.006 301.214Z" fill="url(#paint35_linear_1001_285)"/>
<path d="M427.193 297.593H342.493C341.225 297.593 340.189 296.558 340.189 295.29C340.189 294.022 341.225 292.986 342.493 292.986H427.193C428.461 292.996 429.497 294.031 429.497 295.29C429.497 296.558 428.461 297.593 427.193 297.593ZM427.184 293.954H342.484C341.748 293.954 341.148 294.554 341.148 295.29C341.148 296.025 341.748 296.625 342.484 296.625H427.184C427.919 296.625 428.519 296.025 428.519 295.29C428.529 294.564 427.929 293.964 427.184 293.954Z" fill="url(#paint36_linear_1001_285)"/>
<path d="M429.853 290.091H344.427C343.159 290.091 342.123 289.055 342.123 287.787C342.123 286.519 343.159 285.483 344.427 285.483H429.853C431.121 285.493 432.157 286.529 432.157 287.787C432.157 289.055 431.121 290.091 429.853 290.091ZM429.843 286.451H344.417C343.682 286.451 343.081 287.052 343.081 287.787C343.081 288.523 343.682 289.123 344.417 289.123H429.843C430.579 289.123 431.179 288.523 431.179 287.787C431.189 287.061 430.589 286.461 429.843 286.451Z" fill="url(#paint37_linear_1001_285)"/>
<path d="M431.306 282.831H346.364C345.096 282.831 344.061 281.795 344.061 280.527C344.061 279.259 345.096 278.223 346.364 278.223H431.306C432.574 278.233 433.61 279.269 433.61 280.527C433.61 281.795 432.574 282.831 431.306 282.831ZM431.297 279.191H346.355C345.619 279.191 345.019 279.792 345.019 280.527C345.019 281.263 345.619 281.863 346.355 281.863H431.297C432.032 281.863 432.633 281.263 432.633 280.527C432.642 279.801 432.042 279.201 431.297 279.191Z" fill="url(#paint38_linear_1001_285)"/>
<path d="M433.242 274.845H348.784C347.516 274.845 346.48 273.809 346.48 272.541C346.48 271.273 347.516 270.237 348.784 270.237H433.242C434.51 270.247 435.546 271.282 435.546 272.541C435.546 273.809 434.51 274.845 433.242 274.845ZM433.233 271.205H348.775C348.039 271.205 347.439 271.805 347.439 272.541C347.439 273.276 348.039 273.877 348.775 273.877H433.233C433.968 273.877 434.568 273.276 434.568 272.541C434.578 271.815 433.978 271.215 433.233 271.205Z" fill="url(#paint39_linear_1001_285)"/>
<path d="M434.936 267.585H351.204C349.936 267.585 348.9 266.549 348.9 265.281C348.9 264.013 349.936 262.977 351.204 262.977H434.936C436.204 262.987 437.24 264.023 437.24 265.281C437.24 266.549 436.204 267.585 434.936 267.585ZM434.927 263.945H351.195C350.459 263.945 349.859 264.545 349.859 265.281C349.859 266.017 350.459 266.617 351.195 266.617H434.927C435.662 266.617 436.262 266.017 436.262 265.281C436.272 264.555 435.672 263.955 434.927 263.945Z" fill="url(#paint40_linear_1001_285)"/>
<path d="M436.63 259.6H353.382C352.114 259.6 351.078 258.564 351.078 257.296C351.078 256.028 352.114 254.992 353.382 254.992H436.63C437.898 255.002 438.934 256.038 438.934 257.296C438.934 258.564 437.898 259.6 436.63 259.6ZM436.62 255.96H353.372C352.637 255.96 352.036 256.56 352.036 257.296C352.036 258.032 352.637 258.632 353.372 258.632H436.62C437.356 258.632 437.956 258.032 437.956 257.296C437.966 256.57 437.366 255.97 436.62 255.96Z" fill="url(#paint41_linear_1001_285)"/>
<path d="M438.809 252.824H400.089C398.821 252.824 397.785 251.788 397.785 250.52C397.785 249.252 398.821 248.216 400.089 248.216H438.809C440.077 248.226 441.113 249.261 441.113 250.52C441.113 251.788 440.077 252.824 438.809 252.824ZM438.799 249.184H400.079C399.344 249.184 398.743 249.784 398.743 250.52C398.743 251.256 399.344 251.856 400.079 251.856H438.799C439.535 251.856 440.135 251.256 440.135 250.52C440.145 249.794 439.545 249.194 438.799 249.184Z" fill="url(#paint42_linear_1001_285)"/>
<defs>
<linearGradient id="paint0_linear_1001_285" x1="243.01" y1="152.799" x2="243.01" y2="294.204" gradientUnits="userSpaceOnUse">
<stop stop-color="#D1AFFF"/>
<stop offset="1" stop-color="#906CFF"/>
</linearGradient>
<linearGradient id="paint1_linear_1001_285" x1="225.223" y1="293.787" x2="225.223" y2="332.546" gradientUnits="userSpaceOnUse">
<stop stop-color="#D1AFFF"/>
<stop offset="1" stop-color="#906CFF"/>
</linearGradient>
<linearGradient id="paint2_linear_1001_285" x1="200.359" y1="339.767" x2="200.359" y2="385.621" gradientUnits="userSpaceOnUse">
<stop stop-color="#D1AFFF"/>
<stop offset="1" stop-color="#906CFF"/>
</linearGradient>
<linearGradient id="paint3_linear_1001_285" x1="166.291" y1="111.523" x2="166.291" y2="116.121" gradientUnits="userSpaceOnUse">
<stop stop-color="#D1AFFF"/>
<stop offset="1" stop-color="#906CFF"/>
</linearGradient>
<linearGradient id="paint4_linear_1001_285" x1="146.942" y1="118.87" x2="146.942" y2="123.478" gradientUnits="userSpaceOnUse">
<stop stop-color="#D1AFFF"/>
<stop offset="1" stop-color="#906CFF"/>
</linearGradient>
<linearGradient id="paint5_linear_1001_285" x1="153.231" y1="126.13" x2="153.231" y2="130.737" gradientUnits="userSpaceOnUse">
<stop stop-color="#D1AFFF"/>
<stop offset="1" stop-color="#906CFF"/>
</linearGradient>
<linearGradient id="paint6_linear_1001_285" x1="148.03" y1="133.632" x2="148.03" y2="138.24" gradientUnits="userSpaceOnUse">
<stop stop-color="#D1AFFF"/>
<stop offset="1" stop-color="#906CFF"/>
</linearGradient>
<linearGradient id="paint7_linear_1001_285" x1="155.522" y1="140.892" x2="155.522" y2="145.5" gradientUnits="userSpaceOnUse">
<stop stop-color="#D1AFFF"/>
<stop offset="1" stop-color="#906CFF"/>
</linearGradient>
<linearGradient id="paint8_linear_1001_285" x1="126.615" y1="148.879" x2="126.615" y2="153.486" gradientUnits="userSpaceOnUse">
<stop stop-color="#D1AFFF"/>
<stop offset="1" stop-color="#906CFF"/>
</linearGradient>
<linearGradient id="paint9_linear_1001_285" x1="133.91" y1="156.139" x2="133.91" y2="160.746" gradientUnits="userSpaceOnUse">
<stop stop-color="#D1AFFF"/>
<stop offset="1" stop-color="#906CFF"/>
</linearGradient>
<linearGradient id="paint10_linear_1001_285" x1="113.943" y1="170.9" x2="113.943" y2="175.507" gradientUnits="userSpaceOnUse">
<stop stop-color="#D1AFFF"/>
<stop offset="1" stop-color="#906CFF"/>
</linearGradient>
<linearGradient id="paint11_linear_1001_285" x1="116.575" y1="97.8938" x2="116.575" y2="180.619" gradientUnits="userSpaceOnUse">
<stop stop-color="#D1AFFF"/>
<stop offset="1" stop-color="#906CFF"/>
</linearGradient>
<linearGradient id="paint12_linear_1001_285" x1="125.244" y1="107.796" x2="125.244" y2="108.764" gradientUnits="userSpaceOnUse">
<stop stop-color="#D1AFFF"/>
<stop offset="1" stop-color="#906CFF"/>
</linearGradient>
<linearGradient id="paint13_linear_1001_285" x1="65.8205" y1="99.6592" x2="65.8205" y2="106.646" gradientUnits="userSpaceOnUse">
<stop stop-color="#D1AFFF"/>
<stop offset="1" stop-color="#906CFF"/>
</linearGradient>
<linearGradient id="paint14_linear_1001_285" x1="73.3224" y1="99.6592" x2="73.3224" y2="106.646" gradientUnits="userSpaceOnUse">
<stop stop-color="#D1AFFF"/>
<stop offset="1" stop-color="#906CFF"/>
</linearGradient>
<linearGradient id="paint15_linear_1001_285" x1="102.294" y1="111.524" x2="102.294" y2="116.122" gradientUnits="userSpaceOnUse">
<stop stop-color="#D1AFFF"/>
<stop offset="1" stop-color="#906CFF"/>
</linearGradient>
<linearGradient id="paint16_linear_1001_285" x1="83.0308" y1="118.871" x2="83.0308" y2="123.478" gradientUnits="userSpaceOnUse">
<stop stop-color="#D1AFFF"/>
<stop offset="1" stop-color="#906CFF"/>
</linearGradient>
<linearGradient id="paint17_linear_1001_285" x1="88.7181" y1="126.131" x2="88.7181" y2="130.738" gradientUnits="userSpaceOnUse">
<stop stop-color="#D1AFFF"/>
<stop offset="1" stop-color="#906CFF"/>
</linearGradient>
<linearGradient id="paint18_linear_1001_285" x1="83.0358" y1="133.633" x2="83.0358" y2="138.241" gradientUnits="userSpaceOnUse">
<stop stop-color="#D1AFFF"/>
<stop offset="1" stop-color="#906CFF"/>
</linearGradient>
<linearGradient id="paint19_linear_1001_285" x1="90.5386" y1="140.893" x2="90.5386" y2="145.501" gradientUnits="userSpaceOnUse">
<stop stop-color="#D1AFFF"/>
<stop offset="1" stop-color="#906CFF"/>
</linearGradient>
<linearGradient id="paint20_linear_1001_285" x1="77.9531" y1="148.878" x2="77.9531" y2="153.486" gradientUnits="userSpaceOnUse">
<stop stop-color="#D1AFFF"/>
<stop offset="1" stop-color="#906CFF"/>
</linearGradient>
<linearGradient id="paint21_linear_1001_285" x1="84.844" y1="156.138" x2="84.844" y2="160.746" gradientUnits="userSpaceOnUse">
<stop stop-color="#D1AFFF"/>
<stop offset="1" stop-color="#906CFF"/>
</linearGradient>
<linearGradient id="paint22_linear_1001_285" x1="92.2373" y1="164.124" x2="92.2373" y2="168.732" gradientUnits="userSpaceOnUse">
<stop stop-color="#D1AFFF"/>
<stop offset="1" stop-color="#906CFF"/>
</linearGradient>
<linearGradient id="paint23_linear_1001_285" x1="66.3338" y1="170.901" x2="66.3338" y2="175.508" gradientUnits="userSpaceOnUse">
<stop stop-color="#D1AFFF"/>
<stop offset="1" stop-color="#906CFF"/>
</linearGradient>
<linearGradient id="paint24_linear_1001_285" x1="409.908" y1="107.021" x2="409.908" y2="164.955" gradientUnits="userSpaceOnUse">
<stop stop-color="#D1AFFF"/>
<stop offset="1" stop-color="#906CFF"/>
</linearGradient>
<linearGradient id="paint25_linear_1001_285" x1="392.617" y1="122.267" x2="392.617" y2="149.622" gradientUnits="userSpaceOnUse">
<stop stop-color="#D1AFFF"/>
<stop offset="1" stop-color="#906CFF"/>
</linearGradient>
<linearGradient id="paint26_linear_1001_285" x1="407.851" y1="122.179" x2="407.851" y2="151.2" gradientUnits="userSpaceOnUse">
<stop stop-color="#D1AFFF"/>
<stop offset="1" stop-color="#906CFF"/>
</linearGradient>
<linearGradient id="paint27_linear_1001_285" x1="424.125" y1="121.592" x2="424.125" y2="149.989" gradientUnits="userSpaceOnUse">
<stop stop-color="#D1AFFF"/>
<stop offset="1" stop-color="#906CFF"/>
</linearGradient>
<linearGradient id="paint28_linear_1001_285" x1="319.493" y1="307.612" x2="319.493" y2="312.21" gradientUnits="userSpaceOnUse">
<stop stop-color="#D1AFFF"/>
<stop offset="1" stop-color="#906CFF"/>
</linearGradient>
<linearGradient id="paint29_linear_1001_285" x1="338.858" y1="300.245" x2="338.858" y2="304.853" gradientUnits="userSpaceOnUse">
<stop stop-color="#D1AFFF"/>
<stop offset="1" stop-color="#906CFF"/>
</linearGradient>
<linearGradient id="paint30_linear_1001_285" x1="373.233" y1="248.215" x2="373.233" y2="252.823" gradientUnits="userSpaceOnUse">
<stop stop-color="#D1AFFF"/>
<stop offset="1" stop-color="#906CFF"/>
</linearGradient>
<linearGradient id="paint31_linear_1001_285" x1="316.831" y1="315.84" x2="316.831" y2="320.438" gradientUnits="userSpaceOnUse">
<stop stop-color="#D1AFFF"/>
<stop offset="1" stop-color="#906CFF"/>
</linearGradient>
<linearGradient id="paint32_linear_1001_285" x1="369.218" y1="243.114" x2="369.218" y2="325.84" gradientUnits="userSpaceOnUse">
<stop stop-color="#D1AFFF"/>
<stop offset="1" stop-color="#906CFF"/>
</linearGradient>
<linearGradient id="paint33_linear_1001_285" x1="383.505" y1="307.612" x2="383.505" y2="312.21" gradientUnits="userSpaceOnUse">
<stop stop-color="#D1AFFF"/>
<stop offset="1" stop-color="#906CFF"/>
</linearGradient>
<linearGradient id="paint34_linear_1001_285" x1="380.845" y1="315.841" x2="380.845" y2="320.439" gradientUnits="userSpaceOnUse">
<stop stop-color="#D1AFFF"/>
<stop offset="1" stop-color="#906CFF"/>
</linearGradient>
<linearGradient id="paint35_linear_1001_285" x1="402.751" y1="300.246" x2="402.751" y2="304.854" gradientUnits="userSpaceOnUse">
<stop stop-color="#D1AFFF"/>
<stop offset="1" stop-color="#906CFF"/>
</linearGradient>
<linearGradient id="paint36_linear_1001_285" x1="384.843" y1="292.986" x2="384.843" y2="297.593" gradientUnits="userSpaceOnUse">
<stop stop-color="#D1AFFF"/>
<stop offset="1" stop-color="#906CFF"/>
</linearGradient>
<linearGradient id="paint37_linear_1001_285" x1="387.14" y1="285.483" x2="387.14" y2="290.091" gradientUnits="userSpaceOnUse">
<stop stop-color="#D1AFFF"/>
<stop offset="1" stop-color="#906CFF"/>
</linearGradient>
<linearGradient id="paint38_linear_1001_285" x1="388.835" y1="278.223" x2="388.835" y2="282.831" gradientUnits="userSpaceOnUse">
<stop stop-color="#D1AFFF"/>
<stop offset="1" stop-color="#906CFF"/>
</linearGradient>
<linearGradient id="paint39_linear_1001_285" x1="391.013" y1="270.237" x2="391.013" y2="274.845" gradientUnits="userSpaceOnUse">
<stop stop-color="#D1AFFF"/>
<stop offset="1" stop-color="#906CFF"/>
</linearGradient>
<linearGradient id="paint40_linear_1001_285" x1="393.07" y1="262.977" x2="393.07" y2="267.585" gradientUnits="userSpaceOnUse">
<stop stop-color="#D1AFFF"/>
<stop offset="1" stop-color="#906CFF"/>
</linearGradient>
<linearGradient id="paint41_linear_1001_285" x1="395.006" y1="254.992" x2="395.006" y2="259.6" gradientUnits="userSpaceOnUse">
<stop stop-color="#D1AFFF"/>
<stop offset="1" stop-color="#906CFF"/>
</linearGradient>
<linearGradient id="paint42_linear_1001_285" x1="419.449" y1="248.216" x2="419.449" y2="252.824" gradientUnits="userSpaceOnUse">
<stop stop-color="#D1AFFF"/>
<stop offset="1" stop-color="#906CFF"/>
</linearGradient>
</defs>
</svg>
