<svg width="485" height="484" viewBox="0 0 485 484" fill="none" xmlns="http://www.w3.org/2000/svg">
<path d="M338.48 128.201C337.231 126.662 337.105 124.425 337.763 122.557C338.422 120.689 339.748 119.13 341.2 117.785C342.042 117.001 343.262 116.217 344.268 116.778C345.372 117.388 345.256 119.014 345.895 120.098C346.582 121.26 348.063 121.657 349.408 121.802C350.754 121.947 352.187 121.957 353.319 122.693C353.687 122.935 354.016 123.245 354.413 123.428C355.071 123.728 355.942 123.68 356.378 124.261C356.765 124.784 356.572 125.519 356.726 126.158C357.201 128.114 360.521 128.055 361.16 129.972C361.654 131.453 360.124 132.924 360.24 134.483C360.308 135.412 360.957 136.235 361.005 137.164C361.063 138.355 360.144 139.342 359.34 140.223C357.269 142.469 355.517 144.995 354.132 147.706C353.774 148.403 353.406 149.158 352.709 149.506C351.828 149.952 350.657 149.535 350.154 148.693C349.854 148.2 349.767 147.619 349.641 147.057C348.886 143.505 346.93 140.214 346.785 136.709C346.969 133.902 345.236 131.076 342.652 129.962C341.364 129.43 339.564 129.537 338.48 128.201Z" fill="url(#paint0_linear_1001_409)"/>
<path d="M333.738 218.641C332.344 219.909 330.514 220.683 328.22 221.032C317.301 220.983 306.827 216.927 296.024 215.262C275.725 212.126 254.972 217.576 236.521 225.92C239.019 228.166 240.781 231.089 242.426 234.013C243.714 236.297 244.943 238.611 246.685 240.595C260.45 237.497 274.68 234.41 288.532 237.052C297.08 238.678 305.046 242.425 313.235 245.358C321.425 248.291 330.253 250.449 339.517 248.968C344.666 260.817 352.323 271.571 361.839 280.312C377.927 295.093 398.613 303.699 416.366 315.567C416.628 308.607 419.338 301.763 423.926 296.526C418.777 293.98 413.017 292.78 408.003 289.973C399.61 285.288 394.189 276.682 386.6 270.777C382.641 267.699 378.13 265.386 374.258 262.201C366.476 255.812 361.684 245.929 361.471 235.871C361.374 231.109 362.236 226.288 361.277 221.748C352.275 222.28 343.176 221.196 333.738 218.641Z" fill="url(#paint1_linear_1001_409)"/>
<path d="M364.178 180.599C369.58 177.298 376.52 178.053 382.57 179.912C383.577 175.101 385.426 170.474 388.02 166.311C374.923 160.581 360.48 156.699 346.377 159.022C345.002 159.245 343.618 159.535 342.369 160.174C341.159 160.794 340.143 161.723 339.078 162.565C332.989 167.444 325.052 169.961 317.414 169.322C318.45 174.607 319.147 179.96 319.573 185.449C319.65 185.855 319.718 186.262 319.795 186.659C321.199 185.545 322.951 184.984 324.684 184.539C328.866 183.454 333.192 182.912 337.645 183.048C340.046 188.72 339.775 195.196 338.507 201.227C337.287 207.006 335.187 212.601 332.457 217.789C340.414 221.487 349.339 222.765 358.109 222.523C359.164 222.494 360.238 222.436 361.371 221.981C362.658 218.874 363.007 215.476 363.336 212.136C364.372 201.672 365.417 191.082 364.178 180.599Z" fill="url(#paint2_linear_1001_409)"/>
<path d="M317.058 169.447C313.999 169.118 310.921 168.789 307.949 167.966C306.168 167.472 304.435 166.804 302.644 166.311C300.689 165.769 298.675 165.44 296.691 164.985C294.348 164.443 292.054 163.726 289.779 162.942C282.878 160.58 276.16 157.667 269.422 154.356C269.713 157.27 268.919 160.193 269.035 163.116C269.045 163.339 269.064 163.591 269.732 163.929C273.953 166.437 278.551 168.189 283.071 170.105C288.782 172.525 294.397 175.216 300.302 177.143C306.197 179.069 312.469 180.221 318.626 179.447C318.761 176.213 318.248 172.932 317.058 169.447Z" fill="#36275B"/>
<path d="M385.543 170.793C384.585 173.107 383.781 175.478 383.152 177.889C382.968 178.566 382.803 179.273 383.016 180.144C390.092 183.406 397.12 187.356 401.892 193.512C404.593 196.997 406.471 201.082 407.729 205.312C407.865 205.787 408.03 206.3 408.455 206.561C408.736 206.735 409.075 206.755 409.404 206.764C412.724 206.929 416.045 207.084 419.374 207.248C418.406 205.593 418.145 203.638 417.545 201.818C416.935 199.998 415.986 198.323 414.999 196.687C410.604 189.398 405.28 182.487 398.282 177.637C396.685 176.534 395.01 175.537 393.345 174.549C391.07 173.204 388.805 171.858 386.53 170.503C386.327 170.387 386.114 170.261 385.882 170.28C385.649 170.3 385.398 170.513 385.543 170.793Z" fill="#36275B"/>
<path d="M236.104 225.679C234.439 226.724 232.406 227.073 230.441 227.005C228.476 226.937 226.55 226.473 224.643 226.008C221.235 225.166 217.818 224.266 214.556 222.949C212.223 222.001 209.977 220.849 207.606 219.997C206.299 219.532 204.963 219.155 203.608 218.874C202.166 218.574 200.568 218.409 199.281 219.135C199.097 219.232 198.971 219.571 199.175 219.58C199.175 219.58 216.695 235.117 216.628 235.233C219.532 236.356 222.774 236.608 225.814 235.949C224.865 237.266 223.917 238.582 222.987 240.238C224.362 241.06 225.494 242.222 226.724 243.248C227.953 244.274 229.376 245.194 230.973 245.339C232.551 245.484 234.11 244.865 235.455 244.023C236.472 243.393 237.42 242.619 238.117 241.632C239.589 239.55 239.869 236.598 241.921 235.088C242.105 234.952 242.318 234.817 242.405 234.604C242.57 234.236 242.318 233.839 242.086 233.51C240.16 230.848 238.166 228.225 236.104 225.679Z" fill="#36275B"/>
<path d="M423.488 296.575C424.205 297.872 425.85 298.395 427.331 298.327C428.812 298.26 430.235 297.737 431.697 297.485C434.398 297.001 437.263 297.446 439.693 298.724C439.993 298.879 440.303 299.063 440.467 299.363C440.583 299.566 440.612 299.808 440.651 300.041C441.077 303.08 441.503 306.11 441.929 309.15C441.987 309.556 441.987 310.079 441.619 310.263C441.416 310.36 441.183 310.311 440.961 310.263C440.119 310.069 439.276 309.866 438.444 309.672C440.196 310.35 441.077 312.266 441.706 314.038C444.959 323.166 445.985 333.078 444.678 342.681C444.659 342.817 444.639 342.962 444.552 343.068C444.426 343.213 444.213 343.242 444.02 343.252C442.481 343.272 441.096 342.197 440.283 340.89C439.47 339.583 439.112 338.044 438.725 336.554C435.54 324.328 429.122 312.634 419.084 304.968C419.752 301.628 421.533 298.54 423.488 296.575Z" fill="#36275B"/>
<path d="M342.891 128.714C341.546 128.608 340.229 128.124 339.3 127.456C339.019 127.339 338.69 127.446 338.448 127.63C338.206 127.824 338.051 128.085 337.897 128.346C336.057 131.56 335.08 135.258 335.109 138.965L332.166 140.911C332.166 140.911 334.828 141.279 334.964 141.385C334.509 144.047 334.499 146.777 334.944 149.439C335.08 150.252 335.273 151.085 335.757 151.752C336.677 153.011 338.419 153.359 339.968 153.243C340.384 153.214 340.83 153.156 341.197 153.35C341.623 153.572 341.827 154.056 342.001 154.502C342.475 155.77 342.891 157.067 343.24 158.374C343.279 158.499 343.308 158.635 343.405 158.732C343.55 158.867 343.763 158.858 343.966 158.848C347.102 158.635 350.248 158.422 353.346 157.977C352.988 157.599 352.872 157.067 352.775 156.563C352.378 154.405 352.262 152.188 352.407 149.846C352 149.323 351.284 149.178 350.79 148.732C350.297 148.287 350.103 147.6 350.045 146.942C349.987 146.283 350.035 145.615 349.929 144.957C349.755 143.863 349.164 142.886 348.38 141.763C349.561 141.463 350.258 140.243 350.626 139.081C350.916 138.191 351.081 137.213 350.819 136.313C350.558 135.413 349.755 134.619 348.816 134.619C348.467 134.619 348.08 134.716 347.78 134.532C347.48 134.328 347.422 133.912 347.402 133.554C347.364 132.693 347.393 131.821 347.16 130.999C346.928 130.166 346.396 129.372 345.583 129.082C344.808 128.801 343.966 128.801 342.891 128.714Z" fill="#F2EFFB"/>
<path d="M269.586 154.171C267.573 153.504 265.879 151.916 265.066 149.951C264.959 149.699 264.853 149.409 264.611 149.283C264.262 149.089 263.797 149.302 263.439 149.128C262.878 148.857 263.052 148.025 263.313 147.463C264.543 144.792 265.772 142.12 267.011 139.439C266.237 139.622 265.279 139.748 264.756 139.148C264.553 138.925 264.456 138.625 264.33 138.354C263.71 136.999 262.307 136.031 260.816 135.954C260.535 135.934 260.245 135.954 259.984 136.08C259.529 136.302 259.296 136.806 259.141 137.29C258.299 139.971 258.899 142.865 259.364 145.643C259.5 146.418 259.538 147.386 258.87 147.802C258.58 147.986 258.231 148.005 257.922 148.141C257.196 148.46 256.867 149.312 256.808 150.106C256.75 150.89 256.905 151.693 256.799 152.477C256.712 153.165 256.431 153.813 256.373 154.51C256.295 155.372 256.566 156.214 256.779 157.046C257.902 161.49 257.418 166.33 259.267 170.531C259.538 171.15 259.867 171.76 260.361 172.215C261.581 173.357 263.468 173.328 265.133 173.222C265.23 173.212 265.337 173.202 265.414 173.144C265.569 173.009 265.491 172.757 265.404 172.573C263.943 169.514 263.149 166.126 263.1 162.729C263.1 162.429 263.101 162.119 263.246 161.857C263.604 161.228 264.504 161.257 265.211 161.402C266.45 161.654 267.66 161.993 268.85 162.419L269.586 154.171Z" fill="#F2EFFB"/>
<path d="M411.515 207.277C411.96 208.796 412.328 210.665 411.186 211.768C410.402 212.523 409.192 212.601 408.272 213.172C406.762 214.12 406.404 216.134 405.475 217.663C405.397 217.799 405.291 217.944 405.146 217.983C405 218.021 404.855 217.963 404.72 217.905C401.128 216.318 397.547 214.74 393.955 213.152C392.455 212.494 390.839 211.817 389.222 212.107C387.751 212.378 386.541 213.414 385.485 214.479C379.677 220.345 376.115 228.379 375.66 236.626C375.534 238.959 375.66 241.37 376.561 243.519C377.219 245.087 378.274 246.471 379.416 247.729C381.836 250.391 384.721 252.637 387.828 254.225C393.53 259.636 400.857 262.937 408.408 266.102C411.321 267.264 414.419 267.941 417.555 268.096C418.485 268.144 419.453 268.135 420.275 267.709C421.06 267.312 421.611 266.605 422.153 265.908C424.109 263.392 426.064 260.865 428 258.184C431.001 251.824 434.06 245.213 434.176 238.185C434.186 237.623 434.176 237.043 433.944 236.53C433.711 236.007 433.285 235.6 432.859 235.223C429.249 231.961 425.203 229.192 420.837 227.13C419.511 225.688 417.594 224.962 415.803 224.139C413.015 222.861 410.392 221.255 408.05 219.26C408.175 218.225 408.475 217.208 408.921 216.26C409.018 216.047 409.182 215.814 409.414 215.824C409.55 215.834 409.666 215.931 409.763 216.018C411.215 217.363 412.386 219.144 414.225 219.861C415.135 220.219 416.21 220.316 416.897 221.013C417.652 221.777 417.662 222.968 417.768 224.033C417.788 224.207 417.807 224.391 417.894 224.536C417.991 224.701 418.146 224.807 418.31 224.904C418.93 225.301 419.578 225.64 420.256 225.911C420.421 225.978 420.614 226.036 420.769 225.94C420.914 225.843 420.934 225.64 420.943 225.465C420.982 223.887 420.827 222.3 420.498 220.761C420.208 219.415 419.782 217.954 420.314 216.627C420.527 215.94 420.711 215.224 420.663 214.508C420.614 213.782 420.343 213.104 420.091 212.417C419.501 210.771 419.065 209.077 418.639 207.383L411.515 207.277Z" fill="#F2EFFB"/>
<path d="M338.23 141.801C338.22 141.801 338.21 141.801 338.201 141.801L331.057 141.433C330.815 141.423 330.612 141.23 330.602 140.988C330.592 140.746 330.747 140.523 330.989 140.475C334.648 139.739 337.736 136.835 338.685 133.234C338.753 132.973 339.014 132.827 339.275 132.886C339.537 132.953 339.692 133.215 339.624 133.476C338.811 136.574 336.546 139.216 333.661 140.591L338.259 140.823C338.53 140.833 338.733 141.065 338.714 141.336C338.704 141.607 338.482 141.801 338.23 141.801Z" fill="#36275B"/>
<path d="M338.868 131.781C338.723 131.781 338.577 131.714 338.481 131.588C338.287 131.326 337.88 131.239 337.58 131.384C337.338 131.501 337.048 131.404 336.932 131.162C336.816 130.92 336.912 130.629 337.154 130.513C337.871 130.165 338.771 130.378 339.255 131.007C339.42 131.22 339.371 131.52 339.158 131.685C339.071 131.752 338.974 131.781 338.868 131.781Z" fill="#36275B"/>
<path d="M343.011 132.924C342.865 132.924 342.72 132.856 342.623 132.731C342.255 132.237 341.529 132.034 340.958 132.266C340.716 132.363 340.426 132.247 340.329 132.005C340.223 131.753 340.349 131.472 340.591 131.375C341.568 130.979 342.778 131.308 343.398 132.159C343.553 132.372 343.514 132.682 343.291 132.837C343.214 132.895 343.107 132.924 343.011 132.924Z" fill="#36275B"/>
<path d="M336.708 143.93C336.059 143.93 335.401 143.794 334.811 143.514C334.569 143.397 334.462 143.117 334.578 142.875C334.695 142.633 334.975 142.526 335.217 142.642C335.943 142.981 336.795 143.059 337.57 142.855C337.821 142.788 338.092 142.942 338.16 143.204C338.228 143.465 338.073 143.727 337.812 143.794C337.453 143.891 337.085 143.93 336.708 143.93Z" fill="#36275B"/>
<path d="M339.661 142.923C339.535 142.923 339.409 142.875 339.313 142.778C339.129 142.584 339.129 142.275 339.322 142.091C339.603 141.82 339.884 141.549 340.155 141.278C340.435 141.007 340.716 140.726 340.997 140.455C341.2 140.261 341.413 140.058 341.713 139.952C342.207 139.777 342.768 139.932 343.097 140.329C343.272 140.532 343.243 140.842 343.039 141.007C342.836 141.181 342.526 141.152 342.362 140.949C342.284 140.861 342.149 140.823 342.042 140.861C341.945 140.9 341.82 141.007 341.703 141.123C341.394 141.413 341.123 141.694 340.842 141.965C340.561 142.236 340.281 142.517 340 142.788C339.903 142.885 339.787 142.923 339.661 142.923Z" fill="#36275B"/>
<path d="M340.909 136.312C340.851 136.312 340.793 136.302 340.735 136.283C340.6 136.244 340.29 136.089 340.251 135.576C340.232 135.353 340.27 135.092 340.348 134.831C340.57 134.105 341.016 133.698 341.48 133.843C341.635 133.892 341.771 134.008 341.858 134.163C342.061 134.54 341.935 135.082 341.868 135.295C341.664 135.924 341.296 136.312 340.909 136.312Z" fill="#36275B"/>
<path d="M336.989 135.121C336.931 135.121 336.873 135.111 336.815 135.092C336.68 135.053 336.37 134.898 336.331 134.385C336.312 134.163 336.35 133.901 336.428 133.64C336.651 132.914 337.096 132.507 337.56 132.653C337.715 132.701 337.851 132.817 337.938 132.972C338.141 133.349 338.015 133.892 337.948 134.105C337.754 134.734 337.386 135.121 336.989 135.121Z" fill="#36275B"/>
<path d="M338.23 146.428C338.007 146.428 337.814 146.273 337.756 146.05C337.698 145.789 337.862 145.527 338.124 145.469C339.13 145.237 340.021 144.589 340.553 143.698C340.689 143.466 340.989 142.972 341.531 143.001C341.957 143.02 342.218 143.349 342.334 143.495L342.857 144.153C343.022 144.366 342.983 144.666 342.78 144.831C342.576 144.995 342.267 144.956 342.102 144.753L341.579 144.095C341.55 144.056 341.531 144.037 341.512 144.017C341.463 144.075 341.415 144.163 341.395 144.201C340.718 145.324 339.614 146.128 338.346 146.418C338.298 146.428 338.269 146.428 338.23 146.428Z" fill="#36275B"/>
<path d="M340.919 152.923C340.696 152.923 340.493 152.769 340.445 152.536C340.387 152.275 340.561 152.013 340.813 151.965C342.255 151.655 343.639 151.055 344.81 150.213C345.023 150.058 345.333 150.107 345.488 150.329C345.643 150.552 345.595 150.852 345.372 151.007C344.094 151.917 342.584 152.585 341.006 152.914C340.987 152.923 340.948 152.923 340.919 152.923Z" fill="#36275B"/>
<path d="M348.314 142.13C348.053 142.13 347.791 142.081 347.559 141.975C347.317 141.868 347.201 141.578 347.317 141.336C347.423 141.094 347.714 140.978 347.956 141.094C348.275 141.239 348.73 141.162 349.088 140.9C349.418 140.658 349.679 140.291 349.921 139.729C350.434 138.51 350.511 137.135 350.153 135.857C350.018 135.499 349.718 135.218 349.35 135.121C348.943 135.015 348.479 135.092 348.111 135.18C347.985 135.209 347.733 135.276 347.462 135.16C347.143 135.034 347.017 134.725 346.959 134.579C346.668 133.786 346.756 132.982 346.833 132.208C346.852 132.014 346.872 131.821 346.891 131.627C346.93 131.162 346.93 130.02 346.233 129.585C345.855 129.352 345.342 129.343 344.8 129.343H344.578C342.564 129.313 340.531 128.694 338.857 127.61C338.634 127.465 338.566 127.165 338.711 126.942C338.857 126.719 339.157 126.652 339.379 126.797C340.909 127.784 342.758 128.345 344.597 128.375H344.82C345.449 128.375 346.155 128.384 346.756 128.771C347.569 129.284 347.966 130.32 347.859 131.704C347.84 131.908 347.82 132.111 347.801 132.314C347.724 133.011 347.656 133.669 347.869 134.25C347.878 134.25 347.878 134.25 347.888 134.25C348.372 134.144 349.001 134.047 349.601 134.202C350.279 134.376 350.811 134.879 351.073 135.576C351.508 137.106 351.412 138.703 350.811 140.126C350.502 140.862 350.134 141.355 349.66 141.704C349.263 141.975 348.779 142.13 348.314 142.13Z" fill="#36275B"/>
<path d="M351.761 149.816C351.354 149.729 350.928 149.642 350.531 149.448C350.018 149.187 349.66 148.761 349.534 148.287C349.447 147.929 349.496 147.6 349.534 147.309L349.554 147.164C349.66 146.39 349.602 145.605 349.379 144.831C349.302 144.57 349.457 144.308 349.718 144.231C349.97 144.153 350.241 144.308 350.318 144.57C350.57 145.48 350.638 146.39 350.512 147.29L350.493 147.445C350.464 147.667 350.434 147.88 350.473 148.045C350.522 148.248 350.715 148.451 350.967 148.587C351.248 148.722 351.577 148.79 351.925 148.868L351.761 149.816Z" fill="#36275B"/>
<path d="M343.059 159.022C343.02 159.022 342.982 159.022 342.943 159.012C342.691 158.954 342.527 158.722 342.527 158.441C342.478 156.863 341.994 155.247 341.152 153.892C341.007 153.669 341.084 153.369 341.307 153.224C341.53 153.088 341.83 153.156 341.975 153.379C342.875 154.831 343.398 156.496 343.485 158.209C343.582 158.364 343.601 158.586 343.514 158.741C343.437 158.916 343.253 159.022 343.059 159.022ZM343.504 158.412V158.422C343.504 158.412 343.504 158.412 343.504 158.412Z" fill="#36275B"/>
<path d="M319.643 186.735C319.565 186.735 319.488 186.716 319.411 186.677C319.265 186.599 319.169 186.454 319.159 186.299C319.043 185.128 318.946 183.966 318.849 182.795C318.462 178.091 318.104 173.638 316.439 169.485C316.371 169.321 316.4 169.137 316.507 169.001C316.613 168.866 316.787 168.798 316.962 168.827C324.618 169.959 333.146 167.201 339.235 161.635L339.613 161.286C340.474 160.483 341.355 159.65 342.488 159.157C343.407 158.76 344.375 158.614 345.295 158.508C348.025 158.179 350.803 157.995 353.494 157.83C353.804 157.811 353.988 158.014 354.007 158.285C354.026 158.556 353.823 158.779 353.552 158.798C350.88 158.973 348.112 159.147 345.411 159.476C344.559 159.573 343.669 159.699 342.875 160.047C341.897 160.473 341.113 161.218 340.271 161.993L339.884 162.351C333.795 167.927 325.354 170.773 317.62 169.901C319.091 173.986 319.449 178.429 319.807 182.727C319.885 183.657 319.962 184.586 320.049 185.515C323.399 183.947 327.184 183.628 330.852 183.327C334.802 182.998 338.887 182.66 342.275 180.714C344.685 179.33 346.631 177.171 347.754 174.625C347.86 174.383 348.141 174.267 348.392 174.373C348.634 174.48 348.751 174.77 348.634 175.012C347.434 177.742 345.343 180.065 342.749 181.546C339.177 183.599 334.986 183.947 330.93 184.286C327.126 184.605 323.186 184.934 319.856 186.686C319.798 186.715 319.72 186.735 319.643 186.735Z" fill="#36275B"/>
<path d="M347.22 171.257C347.036 171.257 346.862 171.15 346.785 170.976C346.407 170.144 346.155 169.263 345.913 168.411C345.555 167.143 345.216 165.942 344.481 164.955C343.871 164.132 343.019 163.522 342.274 163.029C342.051 162.884 341.993 162.583 342.138 162.361C342.283 162.138 342.584 162.07 342.806 162.225C343.629 162.767 344.558 163.435 345.265 164.384C346.107 165.516 346.485 166.862 346.852 168.159C347.085 168.972 347.327 169.824 347.675 170.579C347.791 170.821 347.685 171.112 347.433 171.218C347.356 171.247 347.288 171.257 347.22 171.257Z" fill="#36275B"/>
<path d="M355.217 223.006C346.814 223.006 338.828 221.399 331.888 218.272C331.752 218.214 331.655 218.098 331.617 217.963C331.578 217.827 331.607 217.672 331.684 217.556C337.56 209.067 339.825 197.664 338.073 185.476C338.035 185.215 338.218 184.963 338.48 184.925C338.741 184.886 338.993 185.07 339.032 185.331C340.784 197.538 338.577 208.98 332.817 217.624C340.958 221.167 350.502 222.619 360.492 221.835C361.509 221.786 362.06 220.963 362.293 219.153C364.132 204.846 366.223 188.632 362.409 173.686C360.763 167.201 358.285 162.361 354.858 158.886C354.674 158.692 354.674 158.392 354.858 158.198C355.052 158.014 355.352 158.014 355.546 158.198C359.098 161.799 361.654 166.784 363.348 173.444C367.21 188.564 365.109 204.885 363.251 219.279C363.144 220.121 362.815 222.686 360.55 222.803C358.75 222.938 356.978 223.006 355.217 223.006Z" fill="#36275B"/>
<path d="M382.438 180.628C382.38 180.628 382.312 180.618 382.254 180.589C380.095 179.728 377.24 178.692 374.258 178.363C372.177 178.13 369.118 178.169 366.321 179.631C366.088 179.757 365.788 179.66 365.672 179.428C365.546 179.195 365.643 178.895 365.875 178.779C368.896 177.201 372.167 177.162 374.374 177.414C377.24 177.734 379.979 178.663 382.118 179.505C383.512 174.578 384.945 170.183 387.684 166.524C378.382 162.216 368.044 159.574 357.725 158.887C357.454 158.867 357.26 158.635 357.27 158.374C357.289 158.112 357.493 157.909 357.783 157.919C368.421 158.625 379.089 161.384 388.633 165.905C388.769 165.972 388.865 166.088 388.894 166.234C388.923 166.379 388.894 166.524 388.798 166.64C385.826 170.386 384.364 175.033 382.893 180.279C382.854 180.415 382.767 180.521 382.641 180.579C382.583 180.618 382.515 180.628 382.438 180.628Z" fill="#36275B"/>
<path d="M316.11 180.114C310.515 180.114 304.63 179.02 298.134 176.794C292.2 174.751 286.538 172.022 280.778 169.176L279.907 168.798C276.161 167.172 272.627 165.633 269.094 164.278C269.056 164.268 269.027 164.248 268.998 164.229C268.736 164.055 268.339 163.784 269.123 153.93C269.133 153.765 269.24 153.61 269.385 153.533C269.53 153.455 269.714 153.465 269.859 153.552C280.149 159.902 292.413 164.287 309.615 167.782C311.57 168.179 313.332 168.508 315.152 168.546C315.423 168.556 315.636 168.769 315.626 169.04C315.616 169.311 315.384 169.524 315.132 169.514C313.225 169.476 311.425 169.137 309.421 168.73C292.481 165.294 280.284 160.977 270.024 154.791C269.733 158.595 269.53 162.554 269.646 163.464C273.121 164.8 276.606 166.32 280.284 167.917L281.175 168.304C286.925 171.15 292.559 173.861 298.434 175.894C305.094 178.188 311.115 179.262 316.797 179.156C317.059 179.136 317.281 179.369 317.291 179.63C317.291 179.901 317.078 180.114 316.817 180.124C316.594 180.114 316.352 180.114 316.11 180.114Z" fill="#36275B"/>
<path d="M267.457 153.475C267.418 153.475 267.389 153.475 267.35 153.466C266.595 153.301 265.898 152.759 265.395 151.936C265.104 151.462 264.901 150.949 264.698 150.455C264.63 150.271 264.553 150.087 264.475 149.913C264.369 149.671 264.485 149.381 264.727 149.274C264.969 149.168 265.259 149.284 265.366 149.526C265.443 149.71 265.521 149.903 265.598 150.097C265.792 150.571 265.966 151.026 266.218 151.423C266.431 151.772 266.885 152.362 267.553 152.517C267.815 152.575 267.979 152.836 267.921 153.098C267.883 153.32 267.679 153.475 267.457 153.475Z" fill="#36275B"/>
<path d="M262.552 151.907C262.417 151.907 262.291 151.897 262.175 151.878C261.091 151.762 259.561 151.365 258.496 150.165C258.322 149.961 258.342 149.661 258.535 149.477C258.738 149.303 259.038 149.313 259.222 149.516C259.89 150.271 260.974 150.765 262.281 150.9C262.465 150.92 262.659 150.939 262.814 150.881C262.891 150.852 262.959 150.794 262.969 150.755C263.007 150.494 263.259 150.31 263.52 150.358C263.782 150.397 263.966 150.649 263.927 150.91C263.859 151.316 263.549 151.665 263.123 151.8C262.93 151.878 262.736 151.907 262.552 151.907Z" fill="#36275B"/>
<path d="M267.594 162.119C267.497 162.119 267.4 162.09 267.323 162.032C266.674 161.587 265.784 161.393 264.68 161.461C264.129 161.5 263.577 161.587 263.006 161.674C262.56 161.742 262.115 161.819 261.67 161.858C260.315 162.003 259.279 161.868 258.408 161.432C257.236 160.851 256.481 159.69 256.549 158.548C256.559 158.412 256.578 158.276 256.598 158.141C256.627 157.967 256.646 157.802 256.636 157.657C256.617 157.396 256.472 157.125 256.317 156.844C256.23 156.689 256.152 156.534 256.084 156.379C255.794 155.74 255.707 155.014 255.852 154.317C255.92 153.959 256.046 153.64 256.162 153.32C256.317 152.904 256.462 152.517 256.462 152.139C256.462 151.859 256.385 151.559 256.307 151.239L256.239 150.958C256.036 150.068 256.065 149.342 256.336 148.751C256.685 147.996 257.624 147.387 258.524 147.716C258.776 147.812 258.901 148.083 258.805 148.335C258.708 148.587 258.437 148.713 258.185 148.616C257.827 148.48 257.382 148.79 257.217 149.148C257.033 149.535 257.023 150.058 257.178 150.736L257.246 151.007C257.333 151.365 257.43 151.742 257.43 152.139C257.42 152.691 257.246 153.185 257.072 153.649C256.965 153.94 256.859 154.221 256.801 154.501C256.704 154.995 256.762 155.527 256.965 155.973C257.023 156.108 257.101 156.234 257.169 156.37C257.362 156.718 257.575 157.105 257.604 157.57C257.624 157.822 257.595 158.073 257.556 158.286C257.537 158.393 257.527 158.499 257.517 158.606C257.478 159.351 258.021 160.154 258.834 160.561C259.54 160.909 260.402 161.016 261.573 160.89C262.009 160.842 262.435 160.774 262.86 160.706C263.432 160.619 264.022 160.522 264.632 160.484C265.948 160.416 267.052 160.658 267.875 161.229C268.097 161.384 268.155 161.684 268.001 161.897C267.904 162.052 267.749 162.119 267.594 162.119Z" fill="#36275B"/>
<path d="M259.578 148.857C259.539 148.857 259.51 148.857 259.481 148.847C259.22 148.789 259.055 148.537 259.104 148.276C259.5 146.408 259.094 144.52 258.668 142.516C258.484 141.636 258.29 140.735 258.165 139.835C258.048 139.032 257.981 137.977 258.426 137.067C258.9 136.06 259.926 135.382 261.04 135.334C261.911 135.286 262.85 135.644 263.653 136.331C264.369 136.941 264.882 137.715 265.299 138.402C265.434 138.635 265.366 138.925 265.144 139.07C264.921 139.206 264.621 139.138 264.476 138.916C264.098 138.296 263.634 137.589 263.024 137.076C262.404 136.554 261.717 136.283 261.078 136.312C260.333 136.341 259.617 136.815 259.297 137.502C258.968 138.18 259.026 139.012 259.123 139.729C259.239 140.59 259.423 141.481 259.607 142.342C260.033 144.356 260.478 146.427 260.043 148.499C260.004 148.702 259.8 148.857 259.578 148.857Z" fill="#36275B"/>
<path d="M262.813 149.728C262.784 149.728 262.745 149.728 262.716 149.719C262.454 149.67 262.28 149.409 262.338 149.147C263.055 145.576 264.903 142.439 266.82 139.438C265.852 139.739 264.894 139.981 263.887 140.077C262.696 140.184 260.973 140.097 259.473 139.109C259.25 138.964 259.192 138.664 259.337 138.441C259.483 138.219 259.783 138.151 260.005 138.306C260.993 138.954 262.348 139.245 263.8 139.119C265.145 139.003 266.472 138.567 267.817 138.093C268.011 138.025 268.233 138.083 268.359 138.248C268.485 138.412 268.495 138.635 268.388 138.809C266.259 142.1 264.061 145.498 263.287 149.351C263.238 149.573 263.035 149.728 262.813 149.728Z" fill="#36275B"/>
<path d="M263.924 173.889C262.162 173.889 260.352 173.299 259.161 171.799C258.397 170.85 258.038 169.679 257.787 168.662C257.216 166.416 256.983 164.074 257.099 161.712C257.109 161.441 257.341 161.228 257.603 161.247C257.874 161.257 258.077 161.489 258.067 161.751C257.961 164.025 258.184 166.271 258.735 168.42C258.958 169.34 259.277 170.376 259.936 171.189C261.233 172.825 263.556 173.144 265.395 172.757C263.779 169.727 262.791 166.349 262.511 162.932C262.491 162.661 262.685 162.428 262.956 162.409C263.237 162.399 263.459 162.583 263.479 162.854C263.759 166.329 264.824 169.785 266.547 172.825C266.615 172.95 266.625 173.105 266.576 173.241C266.528 173.376 266.412 173.483 266.266 173.522C265.531 173.764 264.737 173.889 263.924 173.889Z" fill="#36275B"/>
<path d="M409.678 216.366C409.426 216.366 409.213 216.172 409.194 215.921C409.049 213.994 409.881 212.02 411.372 210.761C411.517 210.645 411.633 210.558 411.672 210.471C411.701 210.393 411.701 210.258 411.691 210.18C411.662 209.58 411.546 208.999 411.343 208.457C411.246 208.206 411.382 207.925 411.624 207.838C411.875 207.741 412.156 207.877 412.243 208.119C412.485 208.757 412.621 209.435 412.65 210.132C412.659 210.355 412.659 210.606 412.553 210.848C412.417 211.158 412.166 211.352 411.972 211.507C410.733 212.552 410.027 214.217 410.152 215.843C410.172 216.114 409.968 216.347 409.707 216.366C409.707 216.366 409.688 216.366 409.678 216.366Z" fill="#36275B"/>
<path d="M416.007 220.935C415.872 220.935 415.726 220.926 415.571 220.906C414.381 220.751 413.316 220.054 411.012 217.954C410.944 217.896 410.896 217.818 410.877 217.741C410.673 217.083 410.596 216.395 410.625 215.698C410.664 214.876 411.099 214.324 411.729 214.343C412.135 214.363 412.396 214.634 412.58 214.827C412.648 214.895 412.745 214.992 412.784 215.011C412.774 215.002 412.851 214.943 412.9 214.905C413.045 214.798 413.248 214.653 413.519 214.614C413.907 214.576 414.323 214.779 414.603 215.185C414.642 215.244 414.691 215.311 414.729 215.379C414.807 215.505 414.884 215.621 414.952 215.669C415.078 215.757 415.3 215.757 415.552 215.757C415.833 215.747 416.162 215.747 416.481 215.873C417.391 216.212 417.604 217.315 417.691 217.78C417.779 218.235 417.885 218.748 417.808 219.28C417.72 219.948 417.362 220.5 416.849 220.751C416.617 220.877 416.336 220.935 416.007 220.935ZM411.767 217.334C414.052 219.416 414.865 219.832 415.707 219.948C416.026 219.996 416.259 219.977 416.433 219.89C416.704 219.754 416.83 219.425 416.869 219.154C416.917 218.786 416.84 218.37 416.752 217.964C416.665 217.48 416.51 216.908 416.143 216.773C415.997 216.715 415.794 216.715 415.571 216.725C415.223 216.725 414.787 216.734 414.41 216.473C414.178 216.318 414.032 216.086 413.916 215.911C413.887 215.863 413.848 215.815 413.819 215.766C413.742 215.66 413.655 215.602 413.635 215.602C413.626 215.611 413.539 215.669 413.49 215.708C413.326 215.824 413.113 215.989 412.803 215.999C412.387 216.028 412.077 215.718 411.893 215.515C411.825 215.447 411.729 215.34 411.68 215.321C411.69 215.34 411.603 215.524 411.593 215.757C411.564 216.289 411.622 216.821 411.767 217.334Z" fill="#36275B"/>
<path d="M420.277 217.517C420.239 217.517 420.2 217.517 420.161 217.508C419.9 217.44 419.745 217.178 419.803 216.917C420.122 215.61 420.374 214.362 419.89 213.364C419.832 213.248 419.764 213.132 419.696 213.016C419.6 212.851 419.513 212.697 419.435 212.522C419.29 212.184 419.212 211.845 419.145 211.516L418.564 208.747C418.506 208.486 418.68 208.224 418.941 208.176C419.203 208.118 419.464 208.292 419.513 208.554L420.093 211.322C420.161 211.612 420.219 211.893 420.326 212.135C420.384 212.271 420.461 212.396 420.539 212.532C420.616 212.668 420.694 212.803 420.761 212.939C421.391 214.226 421.119 215.659 420.752 217.149C420.694 217.372 420.5 217.517 420.277 217.517Z" fill="#36275B"/>
<path d="M405.91 217.808C405.833 217.808 405.756 217.788 405.688 217.75C405.446 217.624 405.359 217.333 405.475 217.101C405.678 216.704 405.804 216.269 405.939 215.804C406.036 215.465 406.133 215.126 406.259 214.797C406.685 213.703 407.459 212.968 408.321 212.822C408.582 212.774 408.834 212.958 408.882 213.219C408.921 213.481 408.747 213.732 408.485 213.781C407.701 213.907 407.275 214.865 407.159 215.155C407.043 215.455 406.956 215.765 406.869 216.075C406.733 216.569 406.588 217.072 406.336 217.546C406.259 217.711 406.085 217.808 405.91 217.808Z" fill="#36275B"/>
<path d="M408.099 218.97C408.061 218.97 408.032 218.97 407.993 218.961C407.731 218.903 407.567 218.641 407.625 218.38L408.148 216.076C408.206 215.815 408.467 215.65 408.728 215.708C408.99 215.766 409.154 216.028 409.096 216.289L408.574 218.593C408.516 218.825 408.322 218.97 408.099 218.97Z" fill="#36275B"/>
<path d="M420.8 225.813C420.568 225.813 420.364 225.649 420.326 225.407C420.171 224.487 420.122 223.558 420.084 222.658C420.055 222.058 420.026 221.457 419.967 220.867C419.784 219.125 419.329 217.837 418.574 216.927C417.935 216.162 417.044 215.64 416.066 215.446C415.805 215.398 415.631 215.136 415.689 214.875C415.737 214.614 415.989 214.439 416.26 214.498C417.451 214.73 418.545 215.378 419.329 216.308C420.209 217.372 420.742 218.824 420.945 220.77C421.013 221.38 421.042 222 421.071 222.619C421.11 223.49 421.158 224.39 421.303 225.252C421.352 225.513 421.168 225.765 420.906 225.813C420.848 225.813 420.829 225.813 420.8 225.813Z" fill="#36275B"/>
<path d="M417.672 224.361H417.663C417.392 224.352 417.188 224.129 417.188 223.868C417.208 223.113 417.188 222.357 417.13 221.612C417.111 221.341 417.314 221.109 417.575 221.089C417.837 221.07 418.069 221.273 418.098 221.535C418.156 222.309 418.176 223.103 418.156 223.887C418.147 224.158 417.934 224.361 417.672 224.361Z" fill="#36275B"/>
<path d="M416.724 268.444C415.417 268.444 414.111 268.212 412.92 267.96C401.081 265.347 390.859 257.757 381.421 250.207C379.64 248.784 377.627 247.167 376.407 244.96C375.197 242.763 374.761 239.975 375.091 236.432C375.7 229.869 378.459 223.026 383.067 216.637C384.635 214.478 387.897 209.987 391.798 211.758C404.15 217.353 416.918 223.142 428.524 230.779C430.867 232.318 433.49 234.187 435.019 236.926C435.058 237.003 435.087 237.091 435.077 237.178C434.7 248.281 429.386 257.554 424.991 263.381C423.607 265.221 422.029 267.031 419.861 267.883C418.854 268.289 417.779 268.444 416.724 268.444ZM389.978 212.319C387.752 212.319 385.729 214.623 383.851 217.208C379.34 223.461 376.649 230.14 376.049 236.519C375.739 239.859 376.136 242.463 377.249 244.486C378.372 246.529 380.308 248.077 382.021 249.442C391.382 256.925 401.488 264.437 413.123 267.002C415.137 267.447 417.47 267.786 419.512 266.982C421.448 266.218 422.919 264.514 424.217 262.791C428.505 257.099 433.693 248.058 434.1 237.265C432.667 234.777 430.296 233.093 427.982 231.563C416.443 223.965 403.705 218.195 391.392 212.62C390.917 212.416 390.453 212.319 389.978 212.319Z" fill="#36275B"/>
<path d="M402.872 244.041C402.708 244.041 402.543 243.953 402.456 243.799C399.852 239.375 397.703 234.622 395.622 230.024C393.608 225.571 391.527 220.963 389.039 216.685C388.904 216.453 388.981 216.162 389.214 216.027C389.446 215.891 389.736 215.969 389.872 216.201C392.379 220.528 394.47 225.155 396.493 229.627C398.516 234.099 400.607 238.717 403.104 243.024L431.738 237.661C431.999 237.613 432.251 237.787 432.299 238.049C432.348 238.31 432.173 238.562 431.912 238.61L402.94 244.031C402.93 244.041 402.901 244.041 402.872 244.041Z" fill="#36275B"/>
<path d="M408.07 240.856C408.003 240.856 407.925 240.836 407.867 240.807C405.786 239.82 403.792 238.619 401.943 237.245C401.74 237.09 401.682 236.8 401.827 236.587L403.889 233.489C404.024 233.276 404.305 233.218 404.518 233.334L410.723 236.683C410.848 236.751 410.936 236.867 410.965 237.003C410.994 237.138 410.965 237.284 410.878 237.4L408.458 240.662C408.361 240.788 408.216 240.856 408.07 240.856ZM402.882 236.742C404.469 237.884 406.163 238.9 407.915 239.762L409.764 237.274L404.44 234.399L402.882 236.742Z" fill="#36275B"/>
<path d="M405.166 248.524C405.079 248.524 404.982 248.494 404.905 248.446L395.815 242.648C395.602 242.512 395.525 242.232 395.65 242.009L398.09 237.517C398.216 237.285 398.516 237.198 398.748 237.324C398.98 237.45 399.067 237.75 398.942 237.982L396.715 242.077L405.088 247.42L408.757 243.529C408.941 243.335 409.251 243.325 409.444 243.509C409.638 243.693 409.648 244.003 409.464 244.197L405.524 248.378C405.427 248.475 405.292 248.524 405.166 248.524Z" fill="#36275B"/>
<path d="M332.101 249.307C326.613 249.307 321.172 248.543 315.907 247.032C311.88 245.881 307.94 244.264 304.126 242.715C299.683 240.905 295.095 239.027 290.38 237.885C275.977 234.371 261.147 237.469 245.959 241.234C245.727 241.292 245.494 241.176 245.397 240.953C242.687 234.536 239.531 229.705 235.756 226.191C235.64 226.085 235.582 225.92 235.611 225.756C235.64 225.591 235.746 225.456 235.892 225.398C249.85 219.27 264.651 215.563 279.887 214.372C286.625 213.849 292.084 213.956 297.069 214.701C300.912 215.282 304.716 216.298 308.395 217.286C310.311 217.799 312.296 218.331 314.261 218.796C319.062 219.928 325.354 221.051 331.511 219.725C331.772 219.667 332.033 219.832 332.082 220.093C332.14 220.354 331.975 220.616 331.714 220.664C325.374 222.029 318.936 220.887 314.038 219.735C312.064 219.27 310.069 218.738 308.143 218.225C304.494 217.247 300.709 216.231 296.924 215.66C292.007 214.914 286.615 214.817 279.955 215.33C265.067 216.492 250.596 220.074 236.937 225.988C240.509 229.473 243.519 234.129 246.114 240.189C261.282 236.433 276.112 233.413 290.603 236.936C295.385 238.098 300.012 239.985 304.484 241.815C308.269 243.364 312.189 244.961 316.168 246.103C321.811 247.72 327.648 248.465 333.534 248.32H333.543C333.805 248.32 334.018 248.533 334.027 248.794C334.037 249.065 333.824 249.288 333.553 249.288C333.079 249.307 332.595 249.307 332.101 249.307Z" fill="#36275B"/>
<path d="M416.482 316.379C416.395 316.379 416.298 316.35 416.22 316.302C410.006 312.304 403.656 308.606 397.509 305.034C392.214 301.956 386.735 298.771 381.479 295.461C367.501 286.662 358.014 278.772 350.735 269.876C341.462 258.551 336.234 245.502 336.021 233.122C336.021 232.85 336.225 232.638 336.496 232.628C336.767 232.647 336.98 232.841 336.989 233.102C337.202 245.26 342.352 258.106 351.49 269.257C358.702 278.066 368.111 285.887 382.001 294.628C387.238 297.929 392.708 301.104 398.003 304.182C403.907 307.619 410.006 311.162 415.998 314.985C416.027 308.18 418.456 301.675 422.88 296.506C420.567 295.18 418.001 294.251 415.514 293.36C413.413 292.605 411.235 291.821 409.193 290.795C403.849 288.094 399.542 283.777 395.379 279.615C393.521 277.756 391.604 275.83 389.62 274.078C387.025 271.783 384.141 269.615 381.343 267.524C374.306 262.249 367.036 256.799 363.58 248.677C360.551 241.562 360.977 233.441 361.354 226.278C361.364 226.007 361.596 225.803 361.867 225.823C362.138 225.832 362.341 226.065 362.322 226.336C361.954 233.393 361.528 241.398 364.471 248.309C367.83 256.199 374.993 261.571 381.924 266.76C384.731 268.86 387.635 271.038 390.259 273.361C392.262 275.133 394.198 277.069 396.067 278.937C400.171 283.051 404.42 287.31 409.628 289.943C411.613 290.95 413.762 291.715 415.843 292.47C418.553 293.447 421.36 294.454 423.887 295.993C424.013 296.071 424.09 296.196 424.109 296.332C424.129 296.477 424.09 296.622 423.993 296.729C419.289 302.004 416.791 308.8 416.985 315.886C416.985 316.06 416.898 316.234 416.743 316.321C416.646 316.36 416.559 316.379 416.482 316.379Z" fill="#36275B"/>
<path d="M444.118 344.181C442.298 344.181 440.739 343.193 439.704 341.354C438.92 339.951 438.532 338.382 438.174 336.872L438.029 336.291C435.144 324.675 428.688 313.863 419.84 305.838C419.647 305.654 419.627 305.354 419.811 305.151C419.995 304.957 420.295 304.938 420.498 305.122C429.491 313.272 436.054 324.259 438.978 336.059L439.123 336.64C439.471 338.092 439.839 339.583 440.565 340.88C441.194 341.993 442.288 343.261 444.244 343.213C444.795 336.291 444.563 329.302 443.556 322.439C442.985 318.548 441.765 313.03 437.787 310.02C437.603 309.884 437.545 309.633 437.642 309.42C437.739 309.216 437.971 309.1 438.194 309.158L438.571 309.255C439.51 309.497 440.478 309.739 441.427 309.942C441.34 306.545 440.856 303.031 439.984 299.498C437.613 298.501 434.951 297.426 432.289 297.688C431.514 297.765 430.759 297.959 429.966 298.152C429.491 298.268 429.017 298.385 428.543 298.481C426.878 298.81 425.532 298.714 424.438 298.172C424.196 298.055 424.099 297.765 424.216 297.523C424.332 297.281 424.622 297.184 424.864 297.3C425.764 297.746 426.897 297.823 428.349 297.533C428.814 297.446 429.269 297.329 429.733 297.213C430.527 297.02 431.35 296.807 432.192 296.72C435.183 296.429 438.048 297.63 440.584 298.694C440.73 298.752 440.827 298.878 440.865 299.023C441.843 302.924 442.366 306.787 442.404 310.523C442.404 310.668 442.346 310.804 442.23 310.901C442.114 310.998 441.969 311.027 441.833 311.007C441.165 310.881 440.497 310.727 439.829 310.562C442.927 313.882 443.973 318.742 444.495 322.284C445.541 329.361 445.763 336.562 445.153 343.697C445.134 343.929 444.96 344.113 444.728 344.142C444.524 344.161 444.321 344.181 444.118 344.181Z" fill="#36275B"/>
<path d="M230.267 246.036C230.19 246.036 230.113 246.016 230.045 245.978C227.451 244.613 225.118 242.774 222.688 240.199C222.63 240.141 222.591 240.073 222.572 239.995C222.504 239.734 222.456 239.569 224.934 236.646C222.185 237.082 219.31 236.762 216.725 235.717C216.657 235.688 216.599 235.649 216.551 235.601C216.057 235.146 204.412 225.088 198.285 219.813C198.169 219.716 198.111 219.561 198.12 219.416C198.13 219.261 198.207 219.125 198.343 219.038C199.785 218.099 201.711 217.799 203.773 218.196C205.467 218.515 207.055 219.241 208.575 219.938L208.807 220.045C214.189 222.484 220.617 225.156 227.518 226.376C229.803 226.782 232.445 227.063 234.682 226.027C234.924 225.911 235.214 226.017 235.32 226.259C235.437 226.501 235.33 226.792 235.088 226.898C232.61 228.05 229.783 227.76 227.344 227.324C220.336 226.076 213.831 223.384 208.4 220.916L208.168 220.81C206.697 220.142 205.167 219.445 203.58 219.145C202.031 218.845 200.589 218.99 199.437 219.532C212.902 231.138 216.241 234.013 217.083 234.826C219.929 235.978 223.124 236.191 226.095 235.426C226.299 235.378 226.512 235.455 226.628 235.639C226.744 235.823 226.725 236.046 226.589 236.21C225.379 237.614 224.072 239.192 223.637 239.811C225.863 242.135 228.022 243.819 230.374 245.077C234.207 244.826 237.76 242.154 239.038 238.524L239.173 238.117C239.512 237.101 239.899 235.949 240.945 235.388C241.177 235.262 241.477 235.349 241.603 235.581C241.729 235.814 241.641 236.114 241.409 236.24C240.703 236.617 240.393 237.537 240.093 238.427L239.947 238.853C238.525 242.88 234.556 245.842 230.287 246.055C230.287 246.036 230.277 246.036 230.267 246.036Z" fill="#36275B"/>
<path d="M415.001 207.741C412.639 207.741 410.355 207.547 408.089 207.15C407.905 207.121 407.751 206.976 407.702 206.792C406.24 201.09 403.046 195.641 398.467 191.043C394.489 187.045 389.523 183.647 383.289 180.656C383.047 180.54 382.95 180.249 383.067 180.007C383.183 179.765 383.473 179.669 383.715 179.785C390.056 182.824 395.108 186.29 399.164 190.365C403.791 195.011 407.034 200.5 408.573 206.25C411.787 206.782 415.049 206.908 418.524 206.627C413.578 191.72 402.185 178.913 387.945 172.292C387.703 172.176 387.597 171.895 387.713 171.653C387.829 171.411 388.11 171.305 388.352 171.421C403.017 178.236 414.71 191.507 419.638 206.918C419.686 207.053 419.657 207.208 419.58 207.334C419.502 207.46 419.367 207.537 419.221 207.547C417.769 207.673 416.366 207.741 415.001 207.741Z" fill="#36275B"/>
<path d="M445.521 368.373H341.2C340.667 368.373 340.232 367.937 340.232 367.405V343.485H273.866C273.333 343.485 272.898 343.05 272.898 342.517V313.845H214.353C213.821 313.845 213.385 313.41 213.385 312.877V285.163H159.826C159.293 285.163 158.858 284.728 158.858 284.195V250.993H38.845C38.3126 250.993 37.877 250.557 37.877 250.025C37.877 249.492 38.3126 249.057 38.845 249.057H159.826C160.358 249.057 160.794 249.492 160.794 250.025V283.227H214.353C214.885 283.227 215.321 283.663 215.321 284.195V311.909H273.866C274.398 311.909 274.834 312.345 274.834 312.877V341.549H341.2C341.732 341.549 342.168 341.985 342.168 342.517V366.437H445.521C446.054 366.437 446.489 366.872 446.489 367.405C446.489 367.937 446.054 368.373 445.521 368.373Z" fill="#F2EFFB"/>
<path d="M118.006 207.162C111.888 207.162 105.771 204.103 101.773 199.97C101.405 199.582 101.415 198.973 101.792 198.605C102.179 198.237 102.789 198.247 103.157 198.624C108.404 204.045 117.571 207.472 124.937 203.532C127.444 202.186 129.777 199.97 132.071 196.746C136.476 190.541 139.467 182.681 140.977 173.388C142.284 165.296 142.351 157.174 142.255 148.879C126.941 148.317 110.611 148.472 90.941 149.353C90.4086 149.363 89.9536 148.966 89.9343 148.433C89.9149 147.901 90.3215 147.446 90.8539 147.427C110.969 146.526 127.618 146.391 143.242 146.991C143.755 147.01 144.162 147.427 144.171 147.949C144.278 156.652 144.258 165.17 142.884 173.708C141.335 183.301 138.228 191.432 133.649 197.879C131.181 201.344 128.635 203.755 125.857 205.245C123.359 206.571 120.688 207.162 118.006 207.162Z" fill="#F2EFFB"/>
<path d="M104.881 197.647C99.6051 197.647 94.8425 195.904 91.2996 192.633C91.0673 192.42 90.8447 192.207 90.622 191.984C89.9831 191.364 89.3733 190.774 88.6763 190.358C88.0955 190.019 87.447 189.777 86.75 189.525C85.8788 189.206 84.9786 188.877 84.1461 188.315C82.0262 186.844 81.2711 184.463 80.5355 182.159C80.0999 180.794 79.6836 179.497 79.0157 178.403C78.4155 177.416 77.5831 176.554 76.7022 175.654C75.4147 174.328 74.0886 172.953 73.4497 171.095C72.956 169.652 72.9754 168.161 72.9947 166.729C73.0141 165.538 73.0335 164.415 72.7527 163.37C72.5979 162.77 72.3462 162.179 72.0848 161.56C71.7363 160.737 71.3685 159.885 71.2136 158.936C71.0103 157.717 71.3201 156.381 72.0364 155.461C72.5785 154.755 73.3045 154.338 74.1273 154.261C74.1563 154.261 74.195 154.261 74.2241 154.261C83.846 154.338 93.4679 154.687 103.632 155.335C104.164 155.374 104.561 155.819 104.532 156.352C103.835 169.371 104.397 179.865 106.342 190.406C106.691 192.332 107.117 194.365 108.104 196.098C108.269 196.379 108.269 196.727 108.123 197.018C107.969 197.308 107.688 197.502 107.359 197.54C106.517 197.598 105.684 197.647 104.881 197.647ZM74.2628 156.178C74.0014 156.216 73.7691 156.362 73.5658 156.623C73.1883 157.117 73.0044 157.91 73.1206 158.607C73.2367 159.324 73.5465 160.04 73.8659 160.795C74.1467 161.453 74.4371 162.141 74.621 162.876C74.9598 164.164 74.9404 165.48 74.921 166.748C74.9017 168.074 74.8823 169.333 75.2695 170.456C75.7729 171.908 76.8958 173.069 78.0864 174.299C79.006 175.247 79.945 176.215 80.6613 177.387C81.455 178.684 81.9197 180.145 82.3747 181.568C83.0426 183.659 83.6718 185.624 85.2496 186.718C85.8691 187.144 86.6145 187.415 87.4083 187.705C88.1536 187.976 88.928 188.257 89.6637 188.693C90.5543 189.225 91.2706 189.922 91.9675 190.59C92.1805 190.793 92.3935 190.997 92.6064 191.2C95.9847 194.317 100.621 195.895 105.762 195.682C105.074 194.036 104.716 192.294 104.435 190.726C102.509 180.3 101.928 169.914 102.548 157.184C92.7903 156.584 83.5362 156.255 74.2628 156.178Z" fill="#F2EFFB"/>
<path d="M101.234 193.078C101.185 193.078 101.127 193.078 101.079 193.068C98.2813 192.604 95.7064 191.181 93.8188 189.061C93.509 188.722 93.2186 188.354 92.9186 187.986C92.2603 187.164 91.6505 186.389 90.8567 185.925C90.3824 185.644 89.821 185.46 89.2208 185.266C88.369 184.986 87.4881 184.705 86.704 184.105C84.8067 182.653 84.5453 180.388 84.2937 178.2C84.1194 176.699 83.9549 175.286 83.3063 174.183C82.7933 173.331 81.9705 172.653 81.0896 171.937C79.9667 171.017 78.8051 170.069 78.1662 168.636C77.6048 167.387 77.5951 166.061 77.5854 164.793C77.5854 164.445 77.5758 164.096 77.5661 163.757C77.5274 162.828 77.295 161.173 76.2206 160.563C75.7559 160.302 75.5913 159.711 75.8527 159.246C76.1141 158.782 76.7045 158.617 77.1692 158.879C78.5921 159.682 79.3956 161.337 79.5021 163.68C79.5214 164.048 79.5214 164.416 79.5214 164.783C79.5311 165.906 79.5408 166.971 79.9377 167.852C80.3926 168.868 81.3316 169.633 82.3189 170.446C83.2869 171.24 84.284 172.053 84.9713 173.195C85.8425 174.657 86.0361 176.341 86.22 177.977C86.4426 179.933 86.6362 181.617 87.8753 182.566C88.398 182.962 89.0853 183.185 89.8113 183.427C90.4792 183.65 91.1762 183.872 91.8344 184.26C92.9379 184.908 93.7026 185.857 94.4383 186.786C94.7094 187.125 94.9804 187.464 95.2611 187.783C96.8583 189.574 99.0363 190.784 101.398 191.171C101.921 191.258 102.279 191.762 102.192 192.284C102.115 192.749 101.698 193.078 101.234 193.078Z" fill="#F2EFFB"/>
<path d="M100.4 186.999C99.2189 186.999 98.0379 186.283 97.157 185.014C96.8763 184.618 96.6537 184.201 96.431 183.804C96.1213 183.253 95.8309 182.74 95.463 182.323C94.921 181.723 94.1563 181.288 93.3335 180.833C92.1235 180.145 90.8747 179.439 90.1487 178.093C89.6647 177.193 89.5582 176.244 89.4518 175.334C89.3646 174.618 89.2872 173.95 89.0355 173.389C88.6386 172.498 87.7771 171.84 86.8769 171.133C85.996 170.456 85.0958 169.759 84.4472 168.762C83.6244 167.494 83.4211 166.042 83.2372 164.648C83.1888 164.309 83.1501 163.97 83.092 163.641C82.9274 162.634 82.4531 160.863 81.185 160.369C80.6914 160.176 80.4397 159.614 80.643 159.111C80.8462 158.607 81.398 158.375 81.9014 158.569C83.5179 159.208 84.5924 160.853 85.0086 163.331C85.0667 163.68 85.1151 164.038 85.1635 164.396C85.3281 165.635 85.4926 166.816 86.0831 167.726C86.5478 168.442 87.2834 169.013 88.0675 169.623C89.1226 170.436 90.2165 171.279 90.8166 172.614C91.1942 173.447 91.291 174.299 91.3878 175.121C91.4749 175.896 91.562 176.622 91.8718 177.193C92.3267 178.045 93.2851 178.587 94.3015 179.168C95.2114 179.69 96.16 180.223 96.9151 181.055C97.4378 181.636 97.7863 182.275 98.1347 182.885C98.338 183.243 98.5316 183.601 98.7639 183.94C99.1705 184.53 99.8868 185.189 100.555 185.082C101.077 184.995 101.581 185.363 101.658 185.895C101.736 186.428 101.378 186.921 100.845 186.999C100.681 186.979 100.535 186.999 100.4 186.999Z" fill="#F2EFFB"/>
<path d="M90.2176 154.116C89.6948 154.116 89.2592 153.69 89.2496 153.167C89.2205 151.676 89.2012 150.186 89.1818 148.685C89.1721 148.153 89.598 147.708 90.1401 147.708H90.1498C90.6822 147.708 91.1081 148.133 91.1178 148.666C91.1372 150.157 91.1565 151.647 91.1856 153.128C91.1952 153.661 90.7693 154.106 90.2369 154.116C90.2272 154.116 90.2272 154.116 90.2176 154.116Z" fill="#F2EFFB"/>
<path d="M125.925 190.319C125.673 190.319 125.422 190.222 125.238 190.028C124.947 189.738 124.88 189.292 125.064 188.925C126.893 185.217 128.577 181.384 130.068 177.502C129.265 176.321 125.915 172.74 122.827 169.652C122.595 169.419 122.498 169.09 122.566 168.771C122.634 168.451 122.857 168.19 123.166 168.064L133.776 163.96C134.637 162.188 135.45 160.359 136.234 158.597C137.115 156.613 137.948 154.735 138.838 152.944C139.012 152.605 139.351 152.392 139.748 152.412C140.135 152.431 140.464 152.673 140.6 153.031C141.065 154.222 141.626 155.354 142.294 156.38C142.584 156.826 142.459 157.426 142.004 157.716C141.558 158.007 140.958 157.881 140.668 157.426C140.31 156.864 139.971 156.284 139.661 155.674C139.109 156.864 138.557 158.094 137.996 159.381C137.154 161.278 136.283 163.234 135.344 165.151C135.237 165.363 135.053 165.538 134.821 165.625L125.238 169.332C127.522 171.646 131.588 175.886 132.033 177.086C132.111 177.309 132.111 177.551 132.033 177.764C130.813 180.987 129.458 184.181 127.997 187.298C129.013 186.814 130.029 186.33 131.046 185.846L136.486 183.262C136.97 183.029 137.551 183.242 137.773 183.726C138.006 184.21 137.793 184.791 137.309 185.014L131.869 187.598C130.029 188.47 128.181 189.351 126.341 190.222C126.206 190.289 126.061 190.319 125.925 190.319Z" fill="#F2EFFB"/>
<path d="M112.287 216.367C111.91 216.367 111.542 216.144 111.387 215.767C110.129 212.708 109.451 209.494 109.364 206.222C109.345 205.69 109.77 205.245 110.303 205.225C110.845 205.196 111.281 205.632 111.3 206.164C111.387 209.204 112.016 212.195 113.188 215.031C113.391 215.525 113.158 216.096 112.665 216.289C112.539 216.348 112.413 216.367 112.287 216.367Z" fill="#F2EFFB"/>
<path d="M121.617 215.865C121.491 215.865 121.375 215.845 121.249 215.797C120.755 215.594 120.513 215.032 120.717 214.539C121.752 212.003 122.43 209.321 122.73 206.553C122.788 206.02 123.272 205.643 123.795 205.691C124.327 205.749 124.714 206.224 124.656 206.756C124.337 209.699 123.611 212.564 122.507 215.265C122.362 215.642 121.994 215.865 121.617 215.865Z" fill="#F2EFFB"/>
<path d="M107.342 228.284C107.322 228.284 107.313 228.284 107.303 228.284C106.771 228.264 106.354 227.809 106.374 227.277C106.538 223.55 106.713 219.833 106.887 216.106C106.906 215.603 107.322 215.196 107.826 215.187C113.798 214.993 119.335 215.051 124.688 215.109C125.192 215.119 125.608 215.496 125.647 216L126.537 226.909C126.576 227.442 126.189 227.906 125.647 227.955C125.114 228.003 124.65 227.606 124.601 227.064L123.778 217.036C118.987 216.987 114.04 216.948 108.774 217.094C108.61 220.52 108.455 223.937 108.3 227.364C108.29 227.877 107.855 228.284 107.342 228.284Z" fill="#F2EFFB"/>
<path d="M100.062 248.099C99.5398 248.099 99.1042 247.682 99.0945 247.15L98.6686 228.245C98.6589 227.984 98.7654 227.732 98.9396 227.548C99.1235 227.364 99.3752 227.258 99.6269 227.258H132.616C133.149 227.258 133.584 227.693 133.584 228.226C133.584 228.758 133.149 229.194 132.616 229.194H100.614L101.021 247.111C101.03 247.644 100.614 248.089 100.072 248.099C100.072 248.099 100.072 248.099 100.062 248.099Z" fill="#F2EFFB"/>
<path d="M101.398 146.594C101.34 146.594 101.282 146.584 101.214 146.574C100.692 146.478 100.343 145.974 100.44 145.442C101.795 138.221 107.458 132.529 113.924 131.909C117.719 131.541 121.755 132.887 124.998 135.588C127.786 137.911 129.993 141.25 131.397 145.248C131.571 145.752 131.309 146.303 130.806 146.478C130.303 146.652 129.751 146.391 129.577 145.887C128.289 142.218 126.276 139.169 123.759 137.078C120.913 134.707 117.399 133.526 114.118 133.845C108.591 134.368 103.528 139.518 102.357 145.81C102.26 146.274 101.853 146.594 101.398 146.594Z" fill="#F2EFFB"/>
<path d="M141.522 145.926C140.999 145.926 140.563 145.5 140.554 144.977C140.476 140.011 137.843 135.249 133.681 132.538C132.064 131.493 130.525 130.941 129.102 130.922C127.486 130.874 125.946 131.609 125.191 132.742C124.891 133.187 124.291 133.303 123.846 133.003C123.401 132.703 123.284 132.103 123.585 131.658C124.717 129.973 126.827 128.976 129.141 128.986C130.932 129.015 132.819 129.664 134.746 130.912C139.431 133.971 142.402 139.344 142.49 144.939C142.499 145.471 142.073 145.916 141.541 145.926C141.531 145.926 141.531 145.926 141.522 145.926Z" fill="#F2EFFB"/>
<path d="M91.2939 146.962C90.926 146.962 90.5776 146.749 90.413 146.391C89.2514 143.845 89.9387 141.047 90.7131 139.16C92.0199 135.946 94.2076 133.449 96.8502 132.122C99.9575 130.574 103.733 130.806 106.249 132.703C106.675 133.023 106.763 133.632 106.443 134.058C106.124 134.484 105.514 134.571 105.088 134.252C103.142 132.79 100.19 132.635 97.7214 133.865C95.495 134.968 93.6461 137.117 92.5136 139.895C91.8844 141.444 91.3036 143.68 92.1748 145.597C92.3974 146.081 92.1844 146.662 91.6908 146.875C91.5649 146.933 91.4294 146.962 91.2939 146.962Z" fill="#F2EFFB"/>
<path d="M107.912 146.38C107.466 146.38 107.069 146.07 106.963 145.615C106.673 144.27 106.508 142.895 106.479 141.511C106.469 141.192 106.614 140.901 106.876 140.708C107.128 140.524 107.457 140.466 107.757 140.572L112.626 142.189L116.498 138.249C116.73 138.017 117.069 137.91 117.388 137.978C117.708 138.046 117.979 138.278 118.095 138.588L119.915 143.525L124.89 143.999C125.423 144.047 125.81 144.522 125.762 145.054C125.713 145.586 125.239 145.964 124.706 145.925L119.121 145.393C118.753 145.354 118.434 145.112 118.308 144.764L116.808 140.688L113.584 143.97C113.323 144.231 112.936 144.328 112.587 144.212L108.502 142.857C108.58 143.65 108.696 144.434 108.87 145.199C108.986 145.722 108.657 146.235 108.134 146.351C108.047 146.38 107.979 146.38 107.912 146.38Z" fill="#F2EFFB"/>
<path d="M145.857 249.492C143.505 249.492 140.979 249.037 138.501 248.156C130.699 245.359 125.965 239.338 127.727 234.44C128.598 232.02 130.902 230.316 134.232 229.648C137.387 229.019 141.124 229.387 144.754 230.684C148.384 231.981 151.511 234.072 153.543 236.569C155.692 239.202 156.399 241.98 155.528 244.4C154.657 246.82 152.353 248.524 149.023 249.192C148.026 249.386 146.951 249.492 145.857 249.492ZM137.407 231.284C136.429 231.284 135.49 231.371 134.609 231.545C131.976 232.078 130.176 233.336 129.547 235.088C128.201 238.834 132.606 243.975 139.159 246.327C142.469 247.508 145.838 247.856 148.655 247.295C151.288 246.762 153.088 245.504 153.718 243.752C154.347 242 153.756 239.88 152.053 237.799C150.233 235.572 147.416 233.704 144.105 232.513C141.84 231.7 139.536 231.284 137.407 231.284Z" fill="#F2EFFB"/>
<path d="M79.0658 249.715C77.2944 249.715 75.4745 249.444 73.6644 248.902C66.1237 246.647 61.3417 240.287 63.0067 234.731C63.8295 231.982 66.0656 229.852 69.289 228.739C72.406 227.664 76.1037 227.664 79.7047 228.748C83.3057 229.823 86.3936 231.856 88.407 234.46C90.4979 237.16 91.1852 240.171 90.3624 242.92C89.5396 245.669 87.3035 247.799 84.08 248.912C82.5216 249.454 80.8276 249.715 79.0658 249.715ZM74.3032 229.871C72.7544 229.871 71.2734 230.104 69.9182 230.568C67.2949 231.468 65.4944 233.143 64.8556 235.282C63.5004 239.822 67.7015 245.098 74.2161 247.044C77.4299 248.002 80.7017 248.012 83.4412 247.073C86.0645 246.172 87.8649 244.498 88.5038 242.358C89.1427 240.219 88.5619 237.838 86.8679 235.641C85.0965 233.346 82.357 231.556 79.1432 230.597C77.5267 230.123 75.8811 229.871 74.3032 229.871Z" fill="#F2EFFB"/>
<path d="M47.4709 249.357C47.3838 249.357 47.2967 249.347 47.2096 249.318C46.3674 249.086 45.8834 248.185 46.077 247.217C46.1254 246.946 46.2222 246.704 46.3093 246.491C46.3674 246.346 46.4158 246.211 46.4352 246.124C46.4932 245.833 46.3384 245.436 46.1835 245.02C45.9802 244.478 45.7479 243.858 45.806 243.142C45.835 242.619 46.0189 242.184 46.1835 241.787C46.2996 241.497 46.4061 241.245 46.4158 241.032C46.4448 240.587 46.077 240.074 45.7092 239.57C45.4768 239.261 45.4478 238.844 45.6414 238.515C46.0673 237.76 45.8737 236.753 45.622 236.047L45.5543 235.843C45.1961 234.817 44.7508 233.54 45.3026 232.301C45.4381 232 45.6124 231.739 45.7672 231.516C45.8834 231.342 46.0964 231.023 46.0964 230.916C46.077 230.868 45.9608 230.732 45.8737 230.636C45.6995 230.432 45.4768 230.181 45.3316 229.832C45.109 229.309 45.109 228.738 45.3413 228.196C45.7285 227.267 46.7256 226.599 47.5193 226.289L47.6355 226.251C48.3324 225.989 49.2036 225.66 49.2811 225.215C49.3004 225.128 49.3004 225.031 49.3004 224.944C49.3101 224.634 49.3198 224.198 49.5715 223.772C50.0748 222.872 51.1396 222.785 51.6043 222.746C58.8159 222.146 66.2017 221.527 73.4617 222.379C74.0328 222.456 74.8072 222.553 75.4655 223.046C76.598 223.898 76.8594 225.437 76.2302 227.615C76.085 228.128 75.5429 228.419 75.0299 228.274C74.5168 228.129 74.2168 227.586 74.3716 227.073C74.633 226.163 74.8363 224.992 74.3039 224.595C74.0619 224.411 73.6166 224.353 73.2294 224.305C66.1727 223.482 58.8836 224.082 51.8366 224.673C51.3623 224.711 51.2461 224.76 51.2171 224.789C51.2558 224.77 51.2461 224.915 51.2461 225.012C51.2364 225.195 51.2268 225.379 51.1977 225.563C50.9267 227.093 49.4263 227.664 48.3228 228.07L48.226 228.109C47.7323 228.303 47.258 228.671 47.1418 228.961C47.1128 229.038 47.1224 229.058 47.1321 229.087C47.1612 229.155 47.2676 229.271 47.3548 229.377C47.5677 229.629 47.8581 229.958 47.984 230.442C48.2163 231.362 47.742 232.078 47.3935 232.601C47.287 232.765 47.1708 232.93 47.0934 233.104C46.8514 233.646 47.1321 234.45 47.4032 235.224L47.4709 235.427C47.9162 236.715 47.9549 237.896 47.6064 238.893C48.0033 239.473 48.4196 240.258 48.3615 241.158C48.3324 241.69 48.1485 242.135 47.984 242.542C47.8678 242.832 47.7613 243.084 47.7516 243.297C47.7323 243.597 47.8678 243.965 48.013 244.362C48.2453 244.981 48.5067 245.678 48.3518 246.491C48.3034 246.772 48.2066 247.014 48.1195 247.227C48.0614 247.363 48.013 247.489 47.9936 247.585C48.3518 247.808 48.5357 248.244 48.4196 248.669C48.284 249.076 47.8968 249.357 47.4709 249.357Z" fill="#F2EFFB"/>
<path d="M65.3876 229.475C65.3779 229.475 65.3683 229.475 65.3683 229.475L50.9644 229.117C50.432 229.107 50.0061 228.662 50.0158 228.129C50.0255 227.597 50.4901 227.161 51.0031 227.181L65.407 227.539C65.9394 227.548 66.3653 227.994 66.3556 228.526C66.346 229.058 65.9103 229.475 65.3876 229.475Z" fill="#F2EFFB"/>
<path d="M61.0421 235.389C61.0227 235.389 61.0033 235.389 60.9937 235.389C56.7829 235.166 52.514 234.692 48.3322 233.995C47.8095 233.908 47.4513 233.405 47.5385 232.882C47.6256 232.359 48.1193 232.001 48.6517 232.088C52.7657 232.776 56.9571 233.24 61.1001 233.463C61.6325 233.492 62.0488 233.947 62.0197 234.479C61.981 234.992 61.5551 235.389 61.0421 235.389Z" fill="#F2EFFB"/>
<path d="M61.3818 240.432C61.3527 240.432 61.3237 240.432 61.2946 240.432C57.1903 240.074 53.115 239.6 49.185 239.019C48.6526 238.942 48.2944 238.448 48.3718 237.915C48.4493 237.383 48.9526 237.025 49.4754 237.102C53.3667 237.673 57.4033 238.148 61.4689 238.496C62.0013 238.545 62.3982 239.009 62.3498 239.542C62.3014 240.055 61.8754 240.432 61.3818 240.432Z" fill="#F2EFFB"/>
<path d="M61.5736 245.562C61.5446 245.562 61.5155 245.562 61.4865 245.562L49.5704 244.498C49.038 244.449 48.6411 243.975 48.6895 243.442C48.7379 242.91 49.2026 242.523 49.7447 242.562L61.6607 243.626C62.1931 243.675 62.59 244.149 62.5416 244.681C62.4932 245.185 62.0673 245.562 61.5736 245.562Z" fill="#F2EFFB"/>
<path d="M82.5142 246.511C80.3942 246.511 78.0904 246.182 75.5349 245.514C73.444 244.962 70.7626 244.1 68.5846 242.319C66.2808 240.432 64.9933 237.779 65.1289 235.224C65.1579 234.691 65.6225 234.265 66.1453 234.304C66.6777 234.333 67.0939 234.788 67.0649 235.321C66.9681 237.266 67.9942 239.328 69.8237 240.819C71.7113 242.368 74.141 243.142 76.0382 243.645C79.0681 244.439 81.6817 244.72 84.0242 244.517C84.5566 244.468 85.031 244.865 85.0697 245.397C85.1181 245.93 84.7212 246.404 84.1888 246.443C83.637 246.491 83.0853 246.511 82.5142 246.511Z" fill="#F2EFFB"/>
<path d="M78.3888 241.796C78.1274 241.796 77.8661 241.69 77.6822 241.496L75.8333 239.541L71.1772 239.667C70.7997 239.696 70.4996 239.492 70.3157 239.192C70.1318 238.892 70.1318 238.515 70.3157 238.215L71.274 236.579L70.5577 232.774C70.4899 232.436 70.6158 232.087 70.8771 231.855C71.1385 231.632 71.5063 231.564 71.8354 231.681L74.9427 232.803L77.1691 231.545C77.4498 231.39 77.779 231.38 78.0694 231.516C78.3501 231.652 78.5534 231.923 78.6018 232.232L78.8631 233.907L83.5289 236.424C83.9064 236.627 84.1 237.053 84.0129 237.479C83.9258 237.895 83.5676 238.215 83.1417 238.244L80.3829 238.466L79.2697 241.196C79.1438 241.496 78.8728 241.719 78.5534 241.786C78.505 241.796 78.4469 241.796 78.3888 241.796ZM76.2398 237.585C76.5012 237.585 76.7626 237.692 76.9465 237.885L78.0597 239.066L78.8244 237.179C78.9599 236.84 79.2794 236.608 79.6472 236.579L79.7343 236.569L77.5176 235.369C77.2562 235.223 77.0723 234.962 77.0239 234.672L76.8981 233.897L75.4945 234.681C75.2525 234.817 74.9524 234.846 74.691 234.749L72.7647 234.052L73.239 236.55C73.2778 236.782 73.239 237.014 73.1229 237.218L72.8615 237.663L76.2108 237.576C76.2205 237.585 76.2302 237.585 76.2398 237.585Z" fill="#F2EFFB"/>
<path d="M148.53 246.588C144.058 246.588 139.818 244.652 136.488 242.861C134.852 241.98 133.149 240.993 131.842 239.473C130.322 237.702 129.712 235.495 130.225 233.578C130.361 233.065 130.893 232.755 131.406 232.891C131.919 233.026 132.229 233.559 132.094 234.072C131.755 235.349 132.219 236.937 133.304 238.205C134.397 239.473 135.927 240.354 137.398 241.148C140.98 243.074 145.694 245.194 150.36 244.507C150.892 244.42 151.376 244.797 151.454 245.32C151.531 245.852 151.163 246.336 150.64 246.414C149.943 246.54 149.237 246.588 148.53 246.588Z" fill="#F2EFFB"/>
<path d="M143.516 243.065C143.177 243.065 142.868 242.891 142.693 242.6L140.544 239.115L137.292 239.89C136.982 239.967 136.653 239.88 136.411 239.658C136.169 239.435 136.062 239.115 136.111 238.796L136.517 236.163C136.14 235.273 135.762 234.324 135.336 233.182C135.201 232.823 135.298 232.427 135.559 232.156C135.83 231.885 136.227 231.807 136.585 231.933L139.073 232.882L142.79 231.681C143.293 231.517 143.826 231.788 144 232.281L144.668 234.15L149.14 236.802C149.45 236.986 149.634 237.325 149.614 237.683C149.595 238.041 149.382 238.36 149.063 238.515L145.878 240.016L144.358 242.591C144.174 242.881 143.865 243.065 143.516 243.065ZM140.999 237.044C141.328 237.044 141.648 237.218 141.822 237.509L143.497 240.229L144.358 238.777C144.455 238.612 144.6 238.477 144.774 238.389L146.575 237.538L143.371 235.64C143.177 235.524 143.032 235.35 142.955 235.137L142.49 233.821L139.344 234.837C139.131 234.905 138.908 234.895 138.705 234.818L137.921 234.517C138.076 234.905 138.24 235.282 138.395 235.64C138.473 235.805 138.492 235.989 138.463 236.173L138.24 237.654L140.767 237.054C140.854 237.054 140.922 237.044 140.999 237.044Z" fill="#F2EFFB"/>
<defs>
<linearGradient id="paint0_linear_1001_409" x1="349.315" y1="116.588" x2="349.315" y2="149.687" gradientUnits="userSpaceOnUse">
<stop stop-color="#D1AFFF"/>
<stop offset="1" stop-color="#906CFF"/>
</linearGradient>
<linearGradient id="paint1_linear_1001_409" x1="330.224" y1="214.365" x2="330.224" y2="315.567" gradientUnits="userSpaceOnUse">
<stop stop-color="#D1AFFF"/>
<stop offset="1" stop-color="#906CFF"/>
</linearGradient>
<linearGradient id="paint2_linear_1001_409" x1="352.717" y1="158.338" x2="352.717" y2="222.551" gradientUnits="userSpaceOnUse">
<stop stop-color="#D1AFFF"/>
<stop offset="1" stop-color="#906CFF"/>
</linearGradient>
</defs>
</svg>
