<svg width="524" height="490" viewBox="0 0 524 490" fill="none" xmlns="http://www.w3.org/2000/svg">
<path fill-rule="evenodd" clip-rule="evenodd" d="M37.4491 234.537C37.4491 234.537 15.2198 215.548 46.406 149.983C77.5921 84.4186 140.75 98.7893 181.12 73.0003C240.769 34.8959 216.32 5.07634 290.697 0.269718C384.343 -5.78219 389.647 92.0171 436.499 92.0171C439.581 92.0171 512.539 62.7016 523.218 142.954C528.596 183.37 436.499 245.002 436.499 245.002C436.499 245.002 398.17 279.745 396.065 296.902C387.237 368.852 405.646 451.26 199.344 489.197C172.662 494.104 128.359 476.356 103.916 443.572C84.7677 417.887 7.95441 436.11 0.784109 351.669C-2.82987 309.108 37.4491 234.537 37.4491 234.537Z" fill="url(#paint0_linear_890_14179)"/>
<defs>
<linearGradient id="paint0_linear_890_14179" x1="262" y1="0" x2="262" y2="490.004" gradientUnits="userSpaceOnUse">
<stop stop-color="#D1AFFF"/>
<stop offset="1" stop-color="#906CFF"/>
</linearGradient>
</defs>
</svg>
