<svg width="72" height="72" viewBox="0 0 72 72" fill="none" xmlns="http://www.w3.org/2000/svg">
<path d="M54 15.6374V40.6912L53.7188 40.8712L45.3274 11.2499H49.6136C49.836 12.3298 50.37 13.3209 51.1496 14.1007C51.9292 14.8805 52.9201 15.4147 54 15.6374ZM44.6895 8.99991H50.625C50.9234 8.99991 51.2095 9.11843 51.4205 9.32941C51.6315 9.54039 51.75 9.82654 51.75 10.1249C51.7509 11.0197 52.1068 11.8777 52.7395 12.5104C53.3722 13.1431 54.2302 13.499 55.125 13.4999C55.4234 13.4999 55.7095 13.6184 55.9205 13.8294C56.1315 14.0404 56.25 14.3265 56.25 14.6249V39.2433L60.75 36.3487V10.1249C60.7494 8.63325 60.1566 7.20285 59.1018 6.14809C58.0471 5.09333 56.6167 4.5005 55.125 4.49991H43.3013C43.4899 4.89467 43.6442 5.30494 43.7625 5.72616L44.6895 8.99991ZM12.9938 37.4737L18.7166 41.1524L12.5179 19.2532C12.4776 19.111 12.4657 18.9622 12.4829 18.8154C12.5001 18.6686 12.546 18.5267 12.6181 18.3976C12.6902 18.2686 12.787 18.155 12.903 18.0634C13.019 17.9718 13.1519 17.904 13.2941 17.8638C14.1551 17.6193 14.8838 17.0432 15.3204 16.262C15.7571 15.4807 15.8658 14.5582 15.6229 13.6968C15.5826 13.5546 15.5707 13.4058 15.5879 13.259C15.6051 13.1122 15.651 12.9703 15.7231 12.8413C15.7952 12.7122 15.892 12.5987 16.008 12.5071C16.124 12.4155 16.2569 12.3476 16.3991 12.3074L31.554 8.01891C31.6962 7.9786 31.8449 7.9667 31.9917 7.9839C32.1385 8.0011 32.2805 8.04706 32.4095 8.11915C32.5386 8.19124 32.6521 8.28804 32.7437 8.40403C32.8353 8.52003 32.9032 8.65293 32.9434 8.79516C33.0638 9.22174 33.2671 9.62041 33.5417 9.96837C33.8162 10.3163 34.1567 10.6067 34.5436 10.823C34.9305 11.0393 35.3563 11.1772 35.7965 11.2288C36.2367 11.2805 36.6828 11.2448 37.1092 11.1239C37.2514 11.0836 37.4002 11.0717 37.547 11.0889C37.6938 11.1061 37.8358 11.1521 37.9648 11.2241C38.0938 11.2962 38.2074 11.393 38.299 11.509C38.3906 11.625 38.4584 11.7579 38.4986 11.9002L47.7776 44.6827L51.7275 42.1424L41.6025 6.3449C41.1953 4.91067 40.2358 3.69654 38.9345 2.9689C37.6332 2.24127 36.0964 2.05956 34.6613 2.46366L10.845 9.20241C9.41077 9.60961 8.19663 10.5691 7.469 11.8704C6.74137 13.1717 6.55966 14.7085 6.96375 16.1437L12.9938 37.4737ZM31.9387 38.3062C33.3737 37.9 34.5886 36.9407 35.3164 35.639C36.0442 34.3374 36.2253 32.8 35.82 31.3649C35.6199 30.6538 35.2815 29.9891 34.8242 29.4089C34.3668 28.8288 33.7995 28.3446 33.1547 27.984C32.5099 27.6235 31.8003 27.3937 31.0666 27.3078C30.3328 27.222 29.5894 27.2817 28.8787 27.4837C27.4612 27.9046 26.2664 28.867 25.5532 30.1624C24.84 31.4578 24.6657 32.982 25.068 34.405C25.4704 35.8279 26.417 37.0352 27.7029 37.7653C28.9888 38.4955 30.5106 38.6898 31.9387 38.3062ZM17.2913 17.3587C17.8257 16.395 18.0681 15.2965 17.9887 14.1974L31.1962 10.4624C31.7008 11.4431 32.4835 12.2532 33.4462 12.7912C34.41 13.3256 35.5084 13.5679 36.6075 13.4887L45.7987 45.9562L40.6237 49.2862L38.6775 48.0374C37.8755 47.533 36.9474 47.2653 36 47.2653C35.0526 47.2653 34.1245 47.533 33.3225 48.0374L31.3762 49.2862L21.5775 42.9862L14.9625 19.6199C15.9414 19.1077 16.7505 18.3221 17.2913 17.3587ZM22.8375 35.0437C23.2608 36.544 24.1195 37.885 25.3052 38.8971C26.4908 39.9092 27.95 40.5469 29.4981 40.7295C31.0463 40.9121 32.6138 40.6313 34.0024 39.9228C35.3909 39.2143 36.5381 38.1098 37.2988 36.7491C38.0594 35.3884 38.3994 33.8327 38.2756 32.2787C38.1519 30.7247 37.57 29.2424 36.6035 28.0193C35.6371 26.7961 34.3296 25.8871 32.8464 25.4073C31.3632 24.9275 29.771 24.8983 28.2712 25.3237C27.2753 25.6036 26.3445 26.0774 25.532 26.7178C24.7196 27.3582 24.0415 28.1527 23.5367 29.0557C23.0319 29.9587 22.7103 30.9525 22.5903 31.98C22.4703 33.0075 22.5543 34.0486 22.8375 35.0437ZM69.4879 33.4113L42.705 50.6238L68.7229 67.3469C69.3902 66.4049 69.749 65.2793 69.75 64.1249V35.0819C69.7472 34.515 69.6589 33.9518 69.4879 33.4113ZM8.06625 28.2824L4.8375 30.3524C4.37499 30.6507 3.95816 31.0145 3.6 31.4324L10.1475 35.6399L8.06625 28.2824ZM67.1625 30.3524L63 27.6749V34.9087L68.4 31.4324C68.0415 31.0149 67.6247 30.6512 67.1625 30.3524ZM34.5341 49.9308L4.98825 68.9287C5.85714 69.4616 6.8557 69.7457 7.875 69.7499H64.125C65.1463 69.7451 66.1465 69.4595 67.0163 68.9242L37.4625 49.9285C37.0236 49.6535 36.516 49.5078 35.998 49.5082C35.48 49.5086 34.9726 49.655 34.5341 49.9308ZM2.51325 33.4068C2.34146 33.9487 2.2527 34.5134 2.25 35.0819V64.1249C2.25121 65.2808 2.61129 66.4078 3.2805 67.3503L29.295 50.6249L2.51325 33.4068Z" fill="white"/>
</svg>
