<svg width="157" height="164" viewBox="0 0 157 164" fill="none" xmlns="http://www.w3.org/2000/svg">
<path d="M156.08 38.0035L53.495 0L2.88867 124.868L111.315 164L156.08 38.0035Z" fill="url(#paint0_linear_1572_4830)"/>
<path d="M110.102 161.916L4.41992 121.109L4.85187 120.019L109.391 160.384L152.85 38.5075L153.97 38.8951L110.102 161.916Z" fill="#36275B"/>
<path d="M150.581 39.3606L55.9722 4.61475C55.9722 4.61475 38.6446 76.8209 0.140625 111.295L108.502 157.444L150.581 39.3606Z" fill="#F2EFFB"/>
<path d="M84.0249 102.944C71.5859 104.536 59.4783 98.1108 55.4749 86.0334C50.9377 72.3455 62.7149 59.8017 75.6117 57.3417C87.867 55.0028 100.343 62.7303 104.161 74.251C108.698 87.9393 96.9223 100.483 84.0249 102.944C82.0524 103.32 82.4317 109.101 84.0249 108.797C99.7983 105.787 108.518 92.1206 107.491 76.8254C106.417 60.8088 91.3751 49.47 75.6117 51.489C59.7191 53.5249 51.1658 68.8771 52.1439 83.459C53.2194 99.4756 68.2618 110.815 84.0249 108.797C85.973 108.548 85.7131 102.728 84.0249 102.944Z" fill="#7F66FF"/>
<path d="M64.3574 72.0997L69.2874 96.5594L126.816 65.3392L117.344 57.3269L71.8405 90.4575L74.5519 70.1689L64.3574 72.0997Z" fill="#00D400"/>
<path d="M55.1777 128.814L56.1317 126.67L102.012 146.563L101.059 148.706L55.1777 128.814Z" fill="#36275B"/>
<path d="M96.326 139.464C96.0557 138.706 97.4362 137.224 98.4543 136.463L100.513 134.92L97.9795 135.423C91.5921 136.686 87.6114 136.127 86.7017 133.848C87.9862 133.598 89.4888 133.204 91.2228 132.666C96.2926 131.097 99.3526 128.992 99.8404 126.742C100.062 125.721 99.7281 124.762 98.9021 124.039C97.517 122.829 95.1074 122.561 92.7649 123.358C89.2039 124.567 85.2199 129.3 85.3205 132.888C82.8402 133.229 82.1895 132.755 82.0256 132.535C81.714 132.114 82.145 131.231 82.4027 130.868L83.3003 129.608L81.7831 129.96C78.1007 130.816 77.6554 130.264 77.6538 130.263C77.6191 130.151 77.8193 129.748 78.0932 129.452L79.3365 128.111L77.535 128.483C74.5172 129.106 73.4339 129.058 73.0692 128.984C73.2944 128.681 73.9058 128.165 74.5244 127.774L76.5407 126.494L74.1525 126.698C71.8246 126.896 69.8589 126.822 68.284 126.485C68.2885 126.48 68.2937 126.478 68.2989 126.475C72.0897 124.094 76.1444 118.947 75.9014 115.368C75.8024 113.901 75.0057 112.787 73.5978 112.144C71.4702 111.171 68.5997 112.101 66.1083 114.568C63.9187 116.736 62.0991 120.145 62.68 123.061C62.1374 123.835 61.7875 124.633 61.8161 125.383C61.8398 125.977 62.1091 126.817 63.2667 127.448C64.1783 127.944 65.3788 127.883 66.7898 127.277C68.1645 127.747 69.9771 128.021 72.3851 127.967C71.9272 128.457 71.6675 128.978 71.8681 129.463C72.154 130.151 73.0922 130.481 76.5118 129.873C76.4326 130.188 76.4381 130.529 76.627 130.849C77.0989 131.646 78.4204 131.81 80.8566 131.353C80.6775 131.931 80.6285 132.627 81.065 133.221C81.7108 134.097 83.1585 134.374 85.5152 134.048C86.1753 136.083 88.6301 138.065 96.2429 136.914C95.5069 137.755 94.852 138.851 95.2064 139.85C95.6575 141.118 97.4236 141.718 100.743 141.718C101.003 141.718 101.274 141.714 101.552 141.707L101.521 140.536C97.1039 140.65 96.4263 139.745 96.326 139.464ZM63.8395 126.424C63.1106 126.028 63.0117 125.615 63.0016 125.34C62.9919 125.084 63.062 124.803 63.1957 124.504C63.5838 125.218 64.2079 125.947 65.2068 126.552C64.6554 126.655 64.1887 126.615 63.8395 126.424ZM66.7256 126.015C65.4823 125.505 64.6142 124.753 64.1482 123.766C64.0789 123.619 64.019 123.468 63.9687 123.313C65.0818 121.948 66.9284 120.49 68.2726 119.621L67.6223 118.641C67.2688 118.87 65.3093 120.165 63.7626 121.768C63.8291 119.58 65.2201 117.106 66.9482 115.395C68.6173 113.742 71.1106 112.297 73.0994 113.207C74.1187 113.672 74.648 114.405 74.7181 115.446C74.9265 118.526 71.1648 123.287 67.6619 125.488C67.3591 125.679 67.0466 125.855 66.7256 126.015ZM93.1505 124.465C93.956 124.191 94.717 124.075 95.4021 124.075C96.596 124.075 97.5579 124.43 98.1158 124.916C98.4634 125.22 98.8437 125.742 98.6805 126.497C98.5367 127.16 97.5501 129.481 90.8674 131.55C89.075 132.105 87.6442 132.467 86.4999 132.691C86.5297 129.696 90.12 125.496 93.1505 124.465Z" fill="#36275B"/>
<path d="M102.009 133.429C101.542 132.955 100.831 132.892 100.419 133.286C100.007 133.682 100.051 134.385 100.519 134.86C100.986 135.335 101.699 135.397 102.11 135.003C102.521 134.609 102.477 133.903 102.009 133.429Z" fill="#36275B"/>
<path d="M78.1036 0.912231L92.7721 6.61411C96.5019 0.928247 105.219 -0.817456 113.102 2.80624C120.186 6.06286 124.326 12.6164 123.64 18.6101L134.073 22.665L124.447 44.4164L69.7168 27.5151L78.1036 0.912231Z" fill="url(#paint1_linear_1572_4830)"/>
<path d="M80.4112 11.1113C80.4112 11.9915 81.2904 12.7071 82.3756 12.7071C83.4602 12.7071 84.3393 11.9915 84.3393 11.1113C84.3393 10.2301 83.4602 9.51422 82.3756 9.51422C81.2904 9.51422 80.4112 10.2301 80.4112 11.1113ZM76.4844 22.5119C76.4844 23.393 77.3629 24.1077 78.4481 24.1077C79.532 24.1077 80.4112 23.3934 80.4112 22.5119C80.4112 21.6304 79.532 20.9161 78.4481 20.9161C77.3629 20.9161 76.4844 21.6304 76.4844 22.5119ZM123.493 25.7044C123.493 26.5846 124.372 27.3002 125.457 27.3002C126.542 27.3002 127.42 26.5846 127.42 25.7044C127.42 24.8232 126.541 24.1073 125.457 24.1073C124.372 24.1077 123.493 24.8232 123.493 25.7044ZM119.566 37.105C119.566 37.9865 120.445 38.7008 121.53 38.7008C122.614 38.7008 123.493 37.9865 123.493 37.105C123.493 36.2238 122.614 35.5092 121.53 35.5092C120.445 35.5092 119.566 36.2238 119.566 37.105Z" fill="#36275B"/>
<path d="M123.856 42.2835L73.3359 26.0911L79.0775 4.64453L130.832 22.9565L123.856 42.2835ZM74.7684 25.3181L123.126 40.8203L129.317 23.664L79.8941 6.17627L74.7684 25.3181Z" fill="#F2EFFB"/>
<defs>
<linearGradient id="paint0_linear_1572_4830" x1="79.4846" y1="0" x2="79.4846" y2="164" gradientUnits="userSpaceOnUse">
<stop stop-color="#D1AFFF"/>
<stop offset="1" stop-color="#906CFF"/>
</linearGradient>
<linearGradient id="paint1_linear_1572_4830" x1="101.895" y1="0.912231" x2="101.895" y2="44.4164" gradientUnits="userSpaceOnUse">
<stop stop-color="#D1AFFF"/>
<stop offset="1" stop-color="#906CFF"/>
</linearGradient>
</defs>
</svg>
