<svg width="109" height="143" viewBox="0 0 109 143" fill="none" xmlns="http://www.w3.org/2000/svg">
<path d="M41.608 126.602L43.3589 30.5361H37.7425C37.6889 36.4993 37.0675 113.654 36.9631 126.622C-5.13008 127.318 -2.86009 138.41 40.1442 138.41C83.9184 138.41 85.286 126.931 41.608 126.602Z" fill="url(#paint0_linear_1572_4165)"/>
<path d="M37.7076 111C56.8545 111 72.3761 95.3585 72.3761 76.0636C72.3761 56.7687 56.8545 41.127 37.7076 41.127C18.5607 41.127 3.03906 56.7687 3.03906 76.0636C3.03906 95.3585 18.5607 111 37.7076 111Z" fill="url(#paint1_linear_1572_4165)"/>
<path d="M37.7059 101.222C51.4941 101.222 62.6716 89.9584 62.6716 76.0636C62.6716 62.1688 51.4941 50.9048 37.7059 50.9048C23.9178 50.9048 12.7402 62.1688 12.7402 76.0636C12.7402 89.9584 23.9178 101.222 37.7059 101.222Z" fill="#F2EFFB"/>
<path d="M37.7066 91.301C46.0575 91.301 52.8273 84.4789 52.8273 76.0634C52.8273 67.6479 46.0575 60.8258 37.7066 60.8258C29.3557 60.8258 22.5859 67.6479 22.5859 76.0634C22.5859 84.4789 29.3557 91.301 37.7066 91.301Z" fill="url(#paint2_linear_1572_4165)"/>
<path d="M37.7072 81.7599C40.8291 81.7599 43.3598 79.2096 43.3598 76.0636C43.3598 72.9177 40.8291 70.3674 37.7072 70.3674C34.5854 70.3674 32.0547 72.9177 32.0547 76.0636C32.0547 79.2096 34.5854 81.7599 37.7072 81.7599Z" fill="#F2EFFB"/>
<path d="M37.9739 5.04964L37.707 34.5578C37.707 34.5578 52.9541 32.109 63.0033 35.8631C73.0526 39.6172 82.9695 50.4122 102.775 41.5657L94.7014 29.471L101.435 13.2489C101.435 13.2489 82.0521 20.4365 74.8213 13.863C67.5904 7.28943 56.0283 1.11217 37.9739 5.04964Z" fill="url(#paint3_linear_1572_4165)"/>
<path d="M-14.2707 125.838C-14.4136 125.837 -14.5529 125.793 -14.6704 125.711C-14.7878 125.629 -14.8779 125.513 -14.9286 125.378C-14.9793 125.244 -14.9883 125.097 -14.9545 124.957C-14.9206 124.817 -14.8455 124.691 -14.739 124.595L36.4607 78.8836C36.5299 78.8208 36.6107 78.7725 36.6985 78.7413C36.7863 78.7102 36.8793 78.6969 36.9723 78.7022C37.0652 78.7075 37.1562 78.7312 37.24 78.7721C37.3238 78.813 37.3987 78.8702 37.4604 78.9404C37.5221 79.0106 37.5695 79.0924 37.5997 79.1811C37.6299 79.2699 37.6423 79.3638 37.6364 79.4574C37.6304 79.551 37.6061 79.6425 37.5648 79.7266C37.5236 79.8107 37.4663 79.8857 37.3961 79.9474L-13.8035 125.658C-13.9323 125.774 -14.0984 125.838 -14.2707 125.838Z" fill="url(#paint4_linear_1572_4165)"/>
<path d="M62.6728 103.349C66.026 114.109 65.8641 113.793 66.2066 114.215C66.5555 114.646 66.6466 114.63 71.6072 117.162C72.2586 111.381 72.467 111.616 71.5649 110.883C68.4297 108.335 65.3913 105.665 62.6728 103.349ZM74.919 69.1974C85.5654 72.6744 85.2153 72.6241 85.7558 72.5877C86.3059 72.5504 86.3462 72.4669 91.2673 69.8575C86.9682 65.9744 87.2791 65.9394 86.1634 66.2558C82.2861 67.3556 78.367 68.3057 74.919 69.1974ZM0.495846 88.0627C-8.67721 94.5239 -8.35732 94.3727 -8.88455 94.4969C-9.42165 94.6234 -9.48428 94.5552 -14.9473 93.5093C-11.9622 88.5297 -12.2697 88.5874 -11.1108 88.5616C-7.08396 88.4714 -3.0602 88.2256 0.495846 88.0627ZM11.3304 48.4123C0.790915 44.6186 1.09868 44.794 0.692746 44.4324C0.279481 44.0646 0.298382 43.9739 -2.01957 38.8803C3.73736 38.4482 3.51254 38.2293 4.20479 39.1663C6.61019 42.4221 9.13914 45.5852 11.3304 48.4123Z" fill="url(#paint5_linear_1572_4165)"/>
<defs>
<linearGradient id="paint0_linear_1572_4165" x1="40.1444" y1="30.5361" x2="40.1444" y2="138.41" gradientUnits="userSpaceOnUse">
<stop stop-color="#D1AFFF"/>
<stop offset="1" stop-color="#906CFF"/>
</linearGradient>
<linearGradient id="paint1_linear_1572_4165" x1="37.7076" y1="41.127" x2="37.7076" y2="111" gradientUnits="userSpaceOnUse">
<stop stop-color="#D1AFFF"/>
<stop offset="1" stop-color="#906CFF"/>
</linearGradient>
<linearGradient id="paint2_linear_1572_4165" x1="37.7066" y1="60.8258" x2="37.7066" y2="91.301" gradientUnits="userSpaceOnUse">
<stop stop-color="#D1AFFF"/>
<stop offset="1" stop-color="#906CFF"/>
</linearGradient>
<linearGradient id="paint3_linear_1572_4165" x1="70.241" y1="3.81592" x2="70.241" y2="44.963" gradientUnits="userSpaceOnUse">
<stop stop-color="#D1AFFF"/>
<stop offset="1" stop-color="#906CFF"/>
</linearGradient>
<linearGradient id="paint4_linear_1572_4165" x1="11.3316" y1="78.701" x2="11.3316" y2="125.838" gradientUnits="userSpaceOnUse">
<stop stop-color="#D1AFFF"/>
<stop offset="1" stop-color="#906CFF"/>
</linearGradient>
<linearGradient id="paint5_linear_1572_4165" x1="38.16" y1="38.5096" x2="38.16" y2="117.162" gradientUnits="userSpaceOnUse">
<stop stop-color="#D1AFFF"/>
<stop offset="1" stop-color="#906CFF"/>
</linearGradient>
</defs>
</svg>
