<svg width="114" height="144" viewBox="0 0 114 144" fill="none" xmlns="http://www.w3.org/2000/svg">
<path d="M0.964654 26.3501L42.7952 26.4427C42.7952 26.4427 45.3355 10.4824 32.2342 14.6496C32.2342 14.6496 31.0273 7.72228 23.9451 6.77385C20.8042 6.35331 17.6186 7.26105 15.3379 9.68901C14.0524 11.0577 12.9907 12.9208 12.8854 15.3788C12.8857 15.3785 0.419239 9.53963 0.964654 26.3501Z" fill="#F2EFFB"/>
<path d="M42.916 26.5764L0.826445 26.4833L0.8222 26.354C0.636244 20.6275 1.93199 16.8799 4.67322 15.2151C7.78778 13.3231 11.8287 14.7948 12.7534 15.1755C12.8876 13.0827 13.7205 11.2078 15.2311 9.60001C17.4201 7.2695 20.6032 6.19124 23.964 6.64123C30.477 7.51283 32.1056 13.4416 32.3405 14.4747C35.7155 13.4317 38.3551 13.6405 40.1897 15.0957C42.2848 16.7575 42.9185 19.765 43.081 21.9954C43.2559 24.3985 42.9372 26.4415 42.9341 26.4621L42.916 26.5764ZM1.10099 26.2161L42.6703 26.3082C42.8044 25.3169 43.6284 18.172 40.0075 15.3005C38.2263 13.8879 35.626 13.7117 32.2782 14.7761L32.1206 14.8264L32.0934 14.6711C32.0812 14.6029 30.8186 7.82924 23.9241 6.90624C20.6598 6.46857 17.5679 7.51524 15.4428 9.77749C13.9294 11.3885 13.1163 13.2746 13.0257 15.3837L13.0169 15.5896L12.8216 15.4983C12.776 15.4769 8.21035 13.3836 4.82521 15.4408C2.19437 17.0397 0.941642 20.6645 1.10099 26.2161Z" fill="#36275B"/>
<path d="M103.361 38.7958L145.192 38.8884C145.192 38.8884 147.732 22.9282 134.631 27.0953C134.631 27.0953 133.424 20.168 126.342 19.2196C123.201 18.7991 120.015 19.7068 117.734 22.1347C116.449 23.5034 115.387 25.3663 115.282 27.8245C115.282 27.8242 102.815 21.9854 103.361 38.7958Z" fill="#F2EFFB"/>
<path d="M145.313 39.0222L103.223 38.9291L103.219 38.7998C103.033 33.0733 104.329 29.3257 107.07 27.6609C110.184 25.7689 114.226 27.2406 115.15 27.6213C115.285 25.5287 116.117 23.6538 117.628 22.0458C119.817 19.7156 122.999 18.6373 126.361 19.0868C132.873 19.9589 134.502 25.8869 134.738 26.9207C138.112 25.8778 140.752 26.0866 142.587 27.5418C144.682 29.2036 145.316 32.2111 145.478 34.4415C145.653 36.8446 145.334 38.8876 145.331 38.9082L145.313 39.0222ZM103.497 38.6622L145.067 38.7543C145.201 37.763 146.025 30.6181 142.404 27.7466C140.623 26.334 138.022 26.1573 134.675 27.2221L134.517 27.2725L134.49 27.1172C134.478 27.049 133.215 20.2753 126.321 19.352C123.055 18.9141 119.964 19.9616 117.839 22.2238C116.325 23.8351 115.512 25.7212 115.422 27.8301L115.413 28.0359L115.218 27.9446C115.172 27.9232 110.607 25.8302 107.221 27.8871C104.591 29.4855 103.338 33.1103 103.497 38.6622Z" fill="#36275B"/>
<path d="M5.86132 66.5167L33.9908 66.5788C33.9908 66.5788 35.699 55.8463 26.8891 58.6485C26.8891 58.6485 26.0776 53.9901 21.3149 53.3522C19.2029 53.0693 17.0606 53.6799 15.5268 55.3125C14.6621 56.2328 13.9483 57.4856 13.8775 59.1386C13.8775 59.1389 5.49422 55.2124 5.86132 66.5167Z" fill="#F2EFFB"/>
<path d="M34.1115 66.7132L5.72303 66.6506L5.71878 66.5213C5.5934 62.654 6.47195 60.1208 8.3301 58.9922C10.4099 57.7298 13.0183 58.6384 13.7469 58.936C13.8505 57.5443 14.4129 56.2966 15.4202 55.2242C16.9028 53.6459 19.0578 52.9154 21.3337 53.2203C25.6506 53.7985 26.7984 57.6559 26.9942 58.4748C29.2563 57.7855 31.0301 57.9335 32.2681 58.9159C34.9753 61.0634 34.1653 66.3743 34.1296 66.5995L34.1115 66.7132ZM5.99786 66.3832L33.8655 66.4447C33.9683 65.6559 34.4608 61.0031 32.0858 59.1199C30.9013 58.1803 29.1677 58.0652 26.9328 58.7751L26.7751 58.8255L26.748 58.6702C26.74 58.6247 25.8952 54.1013 21.2935 53.485C19.1139 53.193 17.0497 53.8917 15.6314 55.4017C14.6209 56.4773 14.078 57.7362 14.0175 59.1443L14.0087 59.3501L13.8134 59.2589C13.7831 59.2444 10.7351 57.8479 8.48124 59.2182C6.73404 60.2801 5.89851 62.6904 5.99786 66.3832Z" fill="#36275B"/>
<path d="M143.91 74.8805L115.522 74.8179L115.517 74.6886C115.392 70.8212 116.271 68.2883 118.129 67.1598C120.208 65.8968 122.817 66.8056 123.546 67.1033C123.649 65.7121 124.212 64.4641 125.219 63.3915C126.701 61.8132 128.855 61.0818 131.133 61.3875C135.45 61.9658 136.598 65.8232 136.793 66.6423C139.055 65.953 140.829 66.101 142.067 67.0829C144.775 69.2306 143.965 74.5413 143.929 74.7665L143.91 74.8805ZM115.797 74.5507L143.665 74.6123C143.767 73.8234 144.26 69.1707 141.885 67.2874C140.7 66.3479 138.966 66.2322 136.732 66.9429L136.574 66.9933L136.547 66.838C136.539 66.7925 135.694 62.2688 131.093 61.6526C128.912 61.3605 126.849 62.0595 125.431 63.5692C124.42 64.6451 123.877 65.9043 123.817 67.3118L123.808 67.5177L123.613 67.4264C123.582 67.4119 120.535 66.0154 118.281 67.3857C116.533 68.4479 115.698 70.8579 115.797 74.5507ZM73.0142 138.497H89.4754V138.765H73.0142V138.497ZM62.8242 141.215H84.7722V141.483H62.8242V141.215ZM107.183 99.9527C106.198 96.9259 104.609 94.1087 102.87 91.4174C101.079 88.6473 96.4568 91.1829 98.2567 93.9676C99.7981 96.3525 101.246 98.8035 102.094 101.495C102.992 104.345 103.048 107.245 102.695 110.187C101.944 116.434 99.3834 122.395 97.4265 128.359C96.405 131.472 101.561 132.803 102.578 129.702C104.739 123.116 107.367 116.643 108.088 109.728C108.431 106.444 108.214 103.118 107.183 99.9527ZM117.828 143.389H117.809C117.297 143.389 116.791 143.292 116.319 143.104C115.848 142.917 115.42 142.643 115.061 142.299C114.7 141.956 114.415 141.549 114.221 141.101C114.028 140.653 113.93 140.174 113.934 139.69C113.935 139.206 114.037 138.727 114.235 138.281C114.433 137.835 114.723 137.431 115.087 137.091C115.447 136.752 115.875 136.483 116.345 136.3C116.815 136.117 117.318 136.024 117.827 136.025H117.845C118.357 136.026 118.863 136.123 119.335 136.31C119.807 136.497 120.234 136.771 120.594 137.116C121.325 137.815 121.726 138.741 121.721 139.725C121.72 140.209 121.617 140.687 121.419 141.133C121.221 141.579 120.932 141.984 120.567 142.324C120.207 142.663 119.78 142.931 119.31 143.114C118.84 143.297 118.336 143.391 117.828 143.389ZM117.826 136.292C117.355 136.291 116.888 136.378 116.452 136.548C116.016 136.717 115.62 136.967 115.286 137.281C114.948 137.596 114.68 137.971 114.496 138.385C114.313 138.798 114.218 139.242 114.217 139.691C114.213 140.139 114.304 140.584 114.483 141C114.662 141.415 114.927 141.792 115.262 142.11C115.595 142.43 115.991 142.684 116.429 142.857C116.866 143.031 117.335 143.121 117.81 143.122H117.828C118.785 143.122 119.687 142.771 120.368 142.133C120.706 141.818 120.974 141.443 121.158 141.03C121.341 140.616 121.436 140.172 121.437 139.723C121.441 139.275 121.35 138.83 121.171 138.415C120.992 137.999 120.727 137.622 120.392 137.304C120.059 136.984 119.663 136.73 119.225 136.557C118.788 136.383 118.318 136.293 117.844 136.292H117.826Z" fill="#36275B"/>
<path d="M117.848 141.436H117.839C117.322 141.433 116.828 141.237 116.465 140.89C116.101 140.543 115.898 140.074 115.9 139.585C115.9 139.343 115.952 139.104 116.051 138.881C116.15 138.658 116.295 138.455 116.477 138.285C116.657 138.116 116.871 137.981 117.106 137.89C117.341 137.798 117.593 137.752 117.848 137.752H117.857C118.931 137.757 119.8 138.587 119.795 139.603C119.791 140.616 118.918 141.436 117.848 141.436ZM117.848 138.02C117.406 138.02 116.99 138.181 116.676 138.476C116.52 138.621 116.397 138.794 116.312 138.984C116.227 139.175 116.183 139.38 116.183 139.586C116.181 139.793 116.223 139.998 116.306 140.19C116.389 140.381 116.511 140.556 116.665 140.702C116.819 140.849 117.001 140.967 117.203 141.047C117.405 141.127 117.621 141.168 117.84 141.168H117.848C118.288 141.168 118.709 141.003 119.021 140.709C119.333 140.416 119.51 140.018 119.512 139.602C119.514 139.184 119.34 138.783 119.03 138.487C118.719 138.19 118.297 138.022 117.855 138.02L117.848 138.02ZM103.832 139.63C103.822 141.59 105.494 143.186 107.566 143.195C109.638 143.205 111.326 141.624 111.336 139.664C111.346 137.704 109.674 136.108 107.602 136.098C105.53 136.089 103.842 137.671 103.832 139.63Z" fill="#36275B"/>
<path d="M107.583 143.33H107.565C105.418 143.32 103.679 141.66 103.689 139.63C103.691 139.146 103.793 138.667 103.991 138.221C104.189 137.775 104.479 137.371 104.843 137.031C105.206 136.69 105.636 136.421 106.11 136.238C106.583 136.055 107.09 135.962 107.601 135.965C108.113 135.966 108.619 136.063 109.091 136.25C109.562 136.437 109.99 136.711 110.349 137.055C111.081 137.754 111.481 138.681 111.476 139.664C111.475 140.148 111.373 140.627 111.175 141.073C110.977 141.519 110.687 141.923 110.323 142.263C109.963 142.602 109.535 142.871 109.065 143.054C108.595 143.237 108.091 143.331 107.583 143.33ZM103.972 139.631C103.963 141.514 105.575 143.052 107.565 143.062H107.583C108.054 143.063 108.521 142.976 108.957 142.806C109.393 142.637 109.789 142.388 110.124 142.073C110.461 141.758 110.73 141.383 110.914 140.969C111.097 140.556 111.192 140.112 111.193 139.663C111.196 139.215 111.106 138.77 110.927 138.355C110.747 137.939 110.483 137.562 110.148 137.244C109.815 136.924 109.418 136.67 108.981 136.497C108.544 136.323 108.074 136.233 107.6 136.233C106.623 136.223 105.727 136.579 105.042 137.221C104.704 137.536 104.435 137.911 104.252 138.324C104.068 138.738 103.973 139.182 103.972 139.631Z" fill="#36275B"/>
<path d="M107.602 141.376H107.593C107.337 141.376 107.083 141.327 106.848 141.234C106.612 141.14 106.398 141.003 106.218 140.83C106.038 140.659 105.895 140.455 105.798 140.231C105.701 140.007 105.652 139.767 105.654 139.525C105.655 139.283 105.706 139.044 105.805 138.821C105.904 138.598 106.049 138.395 106.231 138.226C106.411 138.056 106.625 137.921 106.86 137.83C107.095 137.739 107.347 137.692 107.602 137.692H107.611C107.867 137.693 108.12 137.741 108.356 137.835C108.592 137.928 108.806 138.065 108.985 138.238C109.166 138.409 109.309 138.613 109.406 138.837C109.502 139.061 109.551 139.301 109.549 139.543C109.546 140.03 109.34 140.496 108.975 140.839C108.61 141.183 108.116 141.376 107.602 141.376ZM107.601 137.96C107.16 137.96 106.744 138.121 106.43 138.416C106.274 138.561 106.151 138.734 106.066 138.924C105.981 139.115 105.938 139.319 105.937 139.526V139.527C105.935 139.733 105.977 139.938 106.06 140.13C106.143 140.321 106.265 140.495 106.419 140.642C106.572 140.789 106.755 140.906 106.957 140.986C107.158 141.066 107.375 141.108 107.593 141.108C108.038 141.104 108.457 140.948 108.773 140.652C108.929 140.507 109.052 140.334 109.137 140.144C109.222 139.953 109.265 139.748 109.266 139.542C109.268 139.335 109.226 139.13 109.143 138.938C109.06 138.747 108.938 138.573 108.784 138.426C108.631 138.279 108.448 138.162 108.246 138.082C108.045 138.002 107.828 137.96 107.61 137.96H107.601ZM114.074 139.691C114.064 141.65 115.736 143.247 117.808 143.256C119.88 143.265 121.568 141.684 121.578 139.724C121.587 137.765 119.916 136.168 117.843 136.159C115.771 136.15 114.083 137.731 114.074 139.691Z" fill="#36275B"/>
<path d="M117.828 143.389H117.809C117.297 143.389 116.791 143.292 116.319 143.104C115.848 142.917 115.42 142.643 115.061 142.299C114.7 141.956 114.414 141.549 114.221 141.101C114.027 140.653 113.93 140.174 113.934 139.69C113.935 139.206 114.037 138.727 114.235 138.281C114.433 137.835 114.723 137.431 115.087 137.091C115.447 136.752 115.875 136.483 116.345 136.3C116.815 136.117 117.318 136.024 117.826 136.025H117.845C118.357 136.026 118.863 136.123 119.335 136.31C119.806 136.497 120.234 136.771 120.593 137.116C121.325 137.815 121.725 138.741 121.72 139.725C121.719 140.209 121.617 140.687 121.419 141.133C121.221 141.579 120.932 141.984 120.567 142.324C120.207 142.663 119.78 142.931 119.31 143.114C118.84 143.297 118.336 143.391 117.828 143.389ZM117.826 136.292C117.355 136.291 116.888 136.378 116.452 136.548C116.016 136.717 115.62 136.966 115.286 137.281C114.948 137.596 114.68 137.971 114.496 138.385C114.312 138.798 114.217 139.242 114.216 139.691C114.213 140.139 114.303 140.584 114.483 141C114.662 141.415 114.927 141.792 115.262 142.11C115.595 142.43 115.991 142.684 116.428 142.857C116.866 143.031 117.335 143.121 117.81 143.122H117.827C118.785 143.122 119.686 142.771 120.368 142.133C120.706 141.818 120.974 141.443 121.158 141.03C121.341 140.616 121.436 140.172 121.437 139.723C121.441 139.275 121.35 138.83 121.171 138.415C120.991 137.999 120.727 137.622 120.392 137.304C120.059 136.984 119.662 136.73 119.225 136.557C118.788 136.383 118.318 136.293 117.844 136.292H117.826Z" fill="#36275B"/>
<path d="M117.848 141.436H117.839C117.322 141.433 116.828 141.237 116.465 140.89C116.101 140.543 115.898 140.074 115.9 139.585C115.9 139.343 115.952 139.104 116.051 138.881C116.15 138.658 116.295 138.455 116.477 138.285C116.657 138.116 116.871 137.981 117.106 137.89C117.341 137.798 117.593 137.752 117.848 137.752H117.857C118.931 137.757 119.8 138.587 119.795 139.603C119.791 140.616 118.918 141.436 117.848 141.436ZM117.848 138.02C117.406 138.02 116.99 138.181 116.676 138.476C116.52 138.621 116.397 138.794 116.312 138.984C116.227 139.175 116.183 139.38 116.183 139.586C116.181 139.793 116.223 139.998 116.306 140.19C116.389 140.381 116.511 140.556 116.665 140.702C116.819 140.849 117.001 140.967 117.203 141.047C117.405 141.127 117.621 141.168 117.84 141.168H117.848C118.288 141.168 118.709 141.003 119.021 140.709C119.333 140.416 119.51 140.018 119.512 139.602C119.514 139.184 119.34 138.783 119.03 138.487C118.719 138.19 118.297 138.022 117.855 138.02L117.848 138.02ZM103.832 139.63C103.822 141.59 105.494 143.186 107.566 143.195C109.638 143.205 111.326 141.624 111.336 139.664C111.346 137.704 109.674 136.108 107.602 136.098C105.53 136.089 103.842 137.671 103.832 139.63Z" fill="#36275B"/>
<path d="M107.583 143.33H107.565C105.418 143.32 103.679 141.66 103.689 139.63C103.691 139.146 103.793 138.667 103.991 138.221C104.189 137.775 104.479 137.371 104.843 137.031C105.206 136.69 105.636 136.421 106.11 136.238C106.583 136.055 107.09 135.962 107.601 135.965C108.113 135.966 108.619 136.063 109.091 136.25C109.562 136.437 109.99 136.711 110.349 137.055C111.081 137.754 111.481 138.681 111.476 139.664C111.475 140.148 111.373 140.627 111.175 141.073C110.977 141.519 110.687 141.923 110.323 142.263C109.963 142.602 109.535 142.871 109.065 143.054C108.595 143.237 108.091 143.331 107.583 143.33ZM103.972 139.631C103.963 141.514 105.575 143.052 107.565 143.062H107.583C108.054 143.063 108.521 142.976 108.957 142.806C109.393 142.637 109.789 142.388 110.124 142.073C110.461 141.758 110.73 141.383 110.914 140.969C111.097 140.556 111.192 140.112 111.193 139.663C111.196 139.215 111.106 138.77 110.927 138.355C110.747 137.939 110.483 137.562 110.148 137.244C109.815 136.924 109.418 136.67 108.981 136.497C108.544 136.323 108.074 136.233 107.6 136.233C106.623 136.223 105.727 136.579 105.042 137.221C104.704 137.536 104.435 137.911 104.252 138.324C104.068 138.738 103.973 139.182 103.972 139.631Z" fill="#36275B"/>
<path d="M105.797 139.526C105.795 139.979 105.983 140.414 106.32 140.736C106.657 141.058 107.115 141.24 107.594 141.242C108.073 141.244 108.534 141.066 108.874 140.748C109.214 140.429 109.407 139.995 109.409 139.542C109.41 139.318 109.365 139.095 109.275 138.888C109.185 138.68 109.053 138.491 108.886 138.332C108.719 138.173 108.521 138.046 108.302 137.959C108.083 137.872 107.849 137.827 107.611 137.826C107.374 137.825 107.139 137.868 106.92 137.953C106.7 138.038 106.5 138.163 106.332 138.321C106.163 138.478 106.029 138.666 105.938 138.873C105.846 139.08 105.798 139.302 105.797 139.526Z" fill="#F2EFFB"/>
<path d="M107.602 141.376H107.593C107.337 141.376 107.084 141.327 106.848 141.234C106.612 141.14 106.398 141.003 106.219 140.83C106.038 140.659 105.895 140.455 105.798 140.231C105.702 140.007 105.653 139.767 105.655 139.525C105.655 139.283 105.707 139.044 105.806 138.821C105.905 138.598 106.049 138.395 106.232 138.225C106.412 138.056 106.626 137.921 106.861 137.83C107.096 137.738 107.348 137.692 107.602 137.692H107.611C107.867 137.693 108.121 137.741 108.356 137.835C108.592 137.928 108.806 138.065 108.986 138.238C109.166 138.409 109.309 138.613 109.406 138.837C109.503 139.061 109.552 139.301 109.55 139.543C109.547 140.03 109.34 140.496 108.975 140.839C108.61 141.182 108.117 141.376 107.602 141.376ZM107.602 137.96C107.16 137.96 106.745 138.121 106.431 138.416C106.275 138.561 106.151 138.734 106.066 138.924C105.982 139.115 105.938 139.319 105.938 139.526V139.526C105.936 139.733 105.978 139.938 106.06 140.13C106.143 140.321 106.265 140.495 106.419 140.642C106.573 140.789 106.756 140.906 106.957 140.986C107.159 141.066 107.375 141.108 107.594 141.108C108.039 141.104 108.457 140.948 108.773 140.652C108.929 140.507 109.053 140.334 109.137 140.144C109.222 139.953 109.266 139.748 109.266 139.541C109.268 139.335 109.226 139.13 109.144 138.938C109.061 138.747 108.939 138.573 108.784 138.426C108.631 138.279 108.448 138.162 108.247 138.082C108.045 138.002 107.829 137.96 107.61 137.96H107.602ZM93.0118 139.63C93.0019 141.59 94.6738 143.186 96.7459 143.195C98.818 143.205 100.506 141.624 100.516 139.664C100.526 137.704 98.8537 136.108 96.7816 136.098C94.7091 136.089 93.0214 137.671 93.0118 139.63Z" fill="#36275B"/>
<path d="M96.763 143.329H96.7443C96.2328 143.328 95.7265 143.232 95.2548 143.044C94.7831 142.857 94.3554 142.583 93.9963 142.239C93.6354 141.896 93.3499 141.489 93.1564 141.041C92.963 140.593 92.8654 140.113 92.8693 139.63C92.8703 139.146 92.9728 138.667 93.1708 138.221C93.3688 137.775 93.6583 137.371 94.0226 137.031C94.3828 136.692 94.8102 136.423 95.2802 136.24C95.7503 136.057 96.2539 135.964 96.7622 135.965H96.7811C97.2926 135.966 97.7988 136.063 98.2705 136.25C98.7421 136.437 99.1698 136.711 99.5289 137.055C100.261 137.754 100.661 138.681 100.656 139.664C100.655 140.148 100.552 140.627 100.355 141.073C100.157 141.519 99.8671 141.923 99.5028 142.263C99.1426 142.602 98.7153 142.871 98.2452 143.054C97.775 143.237 97.2714 143.331 96.763 143.329ZM96.7622 136.232C95.8044 136.232 94.9029 136.583 94.2219 137.221C93.8839 137.536 93.6154 137.911 93.4318 138.324C93.2482 138.738 93.1532 139.182 93.1523 139.631C93.1427 141.513 94.7546 143.052 96.7455 143.062C97.718 143.064 98.6183 142.715 99.3036 142.073C99.6415 141.758 99.91 141.383 100.094 140.969C100.277 140.556 100.372 140.112 100.373 139.663C100.377 139.215 100.286 138.77 100.107 138.354C99.9271 137.939 99.6624 137.562 99.3276 137.244C98.9948 136.924 98.5983 136.67 98.161 136.497C97.7237 136.323 97.2543 136.233 96.78 136.232H96.7622Z" fill="#36275B"/>
<path d="M96.7839 141.376H96.7745C96.5186 141.376 96.2653 141.327 96.0293 141.234C95.7933 141.14 95.5794 141.003 95.3998 140.83C95.2193 140.659 95.0765 140.455 94.9797 140.231C94.8829 140.007 94.8341 139.767 94.836 139.525C94.8365 139.283 94.8877 139.044 94.9868 138.821C95.0858 138.598 95.2308 138.395 95.4131 138.225C95.5933 138.056 95.8071 137.921 96.0423 137.83C96.2774 137.738 96.5293 137.692 96.7836 137.692H96.7929C97.3092 137.695 97.8033 137.892 98.1667 138.239C98.5301 138.585 98.7332 139.054 98.7315 139.543C98.731 139.785 98.6798 140.024 98.5807 140.247C98.4816 140.471 98.3367 140.673 98.1543 140.843C97.9742 141.012 97.7604 141.147 97.5252 141.238C97.2901 141.33 97.0382 141.377 96.7839 141.376ZM96.7833 137.96C96.5659 137.959 96.3506 137.999 96.1496 138.077C95.9486 138.156 95.7658 138.271 95.6118 138.416C95.4561 138.561 95.3323 138.734 95.2477 138.924C95.163 139.115 95.1192 139.319 95.1187 139.526C95.1171 139.733 95.1589 139.938 95.2416 140.13C95.3243 140.321 95.4464 140.495 95.6008 140.642C95.7543 140.789 95.9371 140.906 96.1387 140.986C96.3403 141.066 96.5567 141.108 96.7754 141.108H96.7836C97.2251 141.108 97.6406 140.947 97.9548 140.652C98.1105 140.507 98.2343 140.334 98.3189 140.144C98.4035 139.953 98.4474 139.748 98.4478 139.541C98.4495 139.124 98.276 138.723 97.9655 138.427C97.655 138.13 97.2328 137.962 96.7915 137.96H96.7833Z" fill="#36275B"/>
<path d="M93.0118 139.63C93.0019 141.59 94.6738 143.186 96.7459 143.195C98.818 143.205 100.506 141.624 100.516 139.664C100.526 137.704 98.8537 136.108 96.7816 136.098C94.7091 136.089 93.0214 137.671 93.0118 139.63Z" fill="#36275B"/>
<path d="M96.763 143.329H96.7443C96.2328 143.328 95.7265 143.232 95.2548 143.044C94.7831 142.857 94.3554 142.583 93.9963 142.239C93.6354 141.896 93.3499 141.489 93.1564 141.041C92.963 140.593 92.8654 140.113 92.8693 139.63C92.8703 139.146 92.9728 138.667 93.1708 138.221C93.3688 137.775 93.6583 137.371 94.0226 137.031C94.3828 136.692 94.8102 136.423 95.2802 136.24C95.7503 136.057 96.2539 135.964 96.7622 135.965H96.7811C97.2926 135.966 97.7988 136.063 98.2705 136.25C98.7421 136.437 99.1698 136.711 99.5289 137.055C100.261 137.754 100.661 138.681 100.656 139.664C100.655 140.148 100.552 140.627 100.355 141.073C100.157 141.519 99.8671 141.923 99.5028 142.263C99.1426 142.602 98.7153 142.871 98.2452 143.054C97.775 143.237 97.2714 143.331 96.763 143.329ZM96.7622 136.232C95.8044 136.232 94.9029 136.583 94.2219 137.221C93.8839 137.536 93.6154 137.911 93.4318 138.324C93.2482 138.738 93.1532 139.182 93.1523 139.631C93.1427 141.513 94.7546 143.052 96.7455 143.062C97.718 143.064 98.6183 142.715 99.3036 142.073C99.6415 141.758 99.91 141.383 100.094 140.969C100.277 140.556 100.372 140.112 100.373 139.663C100.377 139.215 100.286 138.77 100.107 138.354C99.9271 137.939 99.6624 137.562 99.3276 137.244C98.9948 136.924 98.5983 136.67 98.161 136.497C97.7237 136.323 97.2543 136.233 96.78 136.232H96.7622Z" fill="#36275B"/>
<path d="M94.9766 139.526C94.9743 139.979 95.1625 140.414 95.4996 140.736C95.8367 141.058 96.2952 141.24 96.7742 141.242C97.2532 141.244 97.7134 141.066 98.0537 140.748C98.394 140.429 98.5865 139.995 98.5887 139.542C98.5898 139.318 98.5442 139.095 98.4545 138.888C98.3648 138.68 98.2327 138.491 98.0657 138.332C97.8988 138.173 97.7003 138.046 97.4816 137.959C97.263 137.872 97.0283 137.827 96.7911 137.826C96.554 137.825 96.3189 137.868 96.0993 137.953C95.8798 138.038 95.6801 138.163 95.5116 138.321C95.3431 138.478 95.2091 138.666 95.1173 138.873C95.0255 139.08 94.9777 139.302 94.9766 139.526Z" fill="#F2EFFB"/>
<path d="M96.7839 141.376H96.7745C96.5186 141.376 96.2653 141.327 96.0293 141.234C95.7933 141.14 95.5794 141.003 95.3998 140.83C95.2193 140.659 95.0765 140.455 94.9797 140.231C94.8829 140.007 94.8341 139.767 94.836 139.525C94.8365 139.283 94.8877 139.044 94.9868 138.821C95.0858 138.598 95.2308 138.395 95.4131 138.225C95.5933 138.056 95.8071 137.921 96.0423 137.83C96.2774 137.738 96.5293 137.692 96.7836 137.692H96.7929C97.3092 137.695 97.8033 137.892 98.1667 138.239C98.5301 138.585 98.7332 139.054 98.7315 139.543C98.731 139.785 98.6798 140.024 98.5807 140.247C98.4816 140.471 98.3367 140.673 98.1543 140.843C97.9742 141.012 97.7604 141.147 97.5252 141.238C97.2901 141.33 97.0382 141.377 96.7839 141.376ZM96.7833 137.96C96.5659 137.959 96.3506 137.999 96.1496 138.077C95.9486 138.156 95.7658 138.271 95.6118 138.416C95.4561 138.561 95.3323 138.734 95.2477 138.924C95.163 139.115 95.1192 139.319 95.1187 139.526C95.1171 139.733 95.1589 139.938 95.2416 140.13C95.3243 140.321 95.4464 140.495 95.6008 140.642C95.7543 140.789 95.9371 140.906 96.1387 140.986C96.3403 141.066 96.5567 141.108 96.7754 141.108H96.7836C97.2251 141.108 97.6406 140.947 97.9548 140.652C98.1105 140.507 98.2343 140.334 98.3189 140.144C98.4035 139.953 98.4474 139.748 98.4478 139.541C98.4495 139.124 98.276 138.723 97.9655 138.427C97.655 138.13 97.2328 137.962 96.7915 137.96H96.7833Z" fill="#36275B"/>
<path d="M92.5293 135.79L122.108 136.141C122.108 136.141 123.5 126.293 110.384 127.219C109.405 127.286 108.336 127.417 107.184 127.613L109.074 121.26L94.5318 120.721L92.5293 135.79Z" fill="url(#paint0_linear_1572_6272)"/>
<path d="M122.231 136.276L122.105 136.274L92.3691 135.922L94.4073 120.582L109.259 121.133L107.381 127.444C108.449 127.269 109.455 127.148 110.374 127.085C114.801 126.772 118.068 127.643 120.091 129.672C122.752 132.34 122.253 136.121 122.247 136.158L122.231 136.276ZM92.689 135.658L121.979 136.005C122.038 135.356 122.192 132.166 119.883 129.853C117.922 127.888 114.729 127.045 110.394 127.353C109.422 127.419 108.349 127.551 107.208 127.745L106.986 127.782L108.889 121.387L94.6555 120.859L92.689 135.658Z" fill="#36275B"/>
<path d="M100.48 126.16C100.478 126.645 102.784 127.051 105.634 127.064C106.134 127.066 106.62 127.055 107.079 127.038L107.406 126.176L107.717 125.32C107.231 125.292 106.177 125.298 105.643 125.295C102.793 125.282 100.483 125.674 100.48 126.16Z" fill="url(#paint1_linear_1572_6272)"/>
<path d="M105.775 127.198L105.634 127.197C104.248 127.191 102.944 127.093 101.963 126.92C100.337 126.635 100.339 126.277 100.34 126.159C100.344 125.409 103.52 125.147 105.644 125.161L106.027 125.162C106.579 125.162 107.335 125.163 107.727 125.186L107.912 125.196L107.181 127.168L107.085 127.172C106.62 127.189 106.19 127.198 105.775 127.198ZM105.501 125.428C102.346 125.428 100.624 125.908 100.623 126.16C100.623 126.23 100.872 126.456 102.014 126.657C102.98 126.826 104.266 126.923 105.635 126.929C106.063 126.932 106.502 126.924 106.979 126.907L107.523 125.444C107.115 125.43 106.497 125.43 106.027 125.429L105.643 125.428H105.501Z" fill="#36275B"/>
<path d="M100.893 122.93C100.89 123.415 103.309 124.018 106.159 124.031C106.734 124.033 107.494 124.077 108.008 124.047L108.633 122.293C108.092 122.258 106.777 122.265 106.168 122.262C103.318 122.249 100.895 122.437 100.893 122.93Z" fill="url(#paint2_linear_1572_6272)"/>
<path d="M107.574 124.191C107.331 124.191 107.068 124.184 106.81 124.177C106.581 124.171 106.358 124.165 106.157 124.165C104.837 124.159 103.475 124.021 102.422 123.788C101.311 123.541 100.748 123.252 100.75 122.929C100.753 122.382 102.581 122.11 106.167 122.128L106.594 122.129C107.273 122.13 108.201 122.131 108.641 122.159L108.824 122.171L108.111 124.175L108.016 124.18C107.881 124.188 107.732 124.191 107.574 124.191ZM105.879 122.396C101.914 122.396 101.034 122.779 101.033 122.93C101.032 123.001 101.299 123.264 102.487 123.527C103.52 123.756 104.858 123.891 106.158 123.897C106.361 123.898 106.587 123.904 106.817 123.91C107.198 123.92 107.59 123.93 107.904 123.918L108.438 122.417C107.963 122.398 107.183 122.397 106.594 122.397L106.165 122.396C106.068 122.396 105.972 122.396 105.879 122.396Z" fill="#36275B"/>
<path d="M115.977 129.011C116.185 128.678 116.574 128.645 116.915 128.783C119.003 129.628 120.651 131.398 120.923 133.564C120.966 133.902 120.574 134.225 120.235 134.209C119.826 134.19 119.599 133.92 119.553 133.558C119.57 133.69 119.541 133.492 119.54 133.483C119.511 133.321 119.471 133.16 119.422 133.002C119.385 132.884 119.343 132.768 119.297 132.653C119.29 132.635 119.289 132.631 119.286 132.624C119.285 132.622 119.285 132.622 119.279 132.611C119.135 132.302 118.958 132.009 118.751 131.735L118.684 131.649C118.616 131.567 118.545 131.487 118.473 131.41C118.24 131.162 117.987 130.933 117.714 130.725C117.698 130.714 117.635 130.666 117.623 130.658C117.187 130.354 116.716 130.099 116.218 129.898C115.878 129.761 115.806 129.284 115.977 129.011ZM97.1313 122.425L95.8372 133.301C95.7387 134.13 94.3773 133.986 94.4758 133.156L95.7699 122.28C95.8684 121.451 97.2298 121.595 97.1313 122.425Z" fill="#F2EFFB"/>
<path d="M55.9289 98.5898C56.2238 102.197 56.3368 105.783 55.5621 109.144C54.8933 112.046 53.6278 114.593 51.0674 116.111C47.6928 118.113 43.5644 118.396 39.6859 118.083C35.1499 117.717 30.5854 116.402 26.5685 114.383C23.5414 112.862 20.7141 117.151 23.7539 118.679C31.9932 122.819 42.8848 125.119 51.7626 121.471C60.0064 118.083 61.6412 109.414 61.3981 101.782C61.3573 100.503 61.2679 99.2263 61.1634 97.951C59.4182 98.1588 57.6727 98.3697 55.9289 98.5898ZM9.74354 134.448C9.46956 134.448 9.1936 134.42 8.91933 134.365C6.82032 133.939 5.47872 131.978 5.92875 129.993C6.03467 129.519 6.23877 129.07 6.52925 128.672C6.81973 128.274 7.19081 127.934 7.62103 127.672C8.04985 127.409 8.52963 127.228 9.03267 127.141C9.53572 127.054 10.0521 127.061 10.5519 127.164C11.0523 127.264 11.5268 127.457 11.9478 127.732C12.3689 128.007 12.7282 128.358 13.005 128.764C13.284 129.17 13.4751 129.624 13.5675 130.099C13.6598 130.575 13.6514 131.064 13.5428 131.536C13.437 132.01 13.2329 132.459 12.9425 132.857C12.652 133.255 12.2808 133.595 11.8505 133.856C11.2234 134.242 10.4916 134.448 9.74354 134.448ZM9.72854 127.349C9.04047 127.349 8.36627 127.535 7.77472 127.897C7.37578 128.14 7.03167 128.455 6.76233 128.824C6.49298 129.194 6.30374 129.61 6.20556 130.048C5.78836 131.89 7.03231 133.709 8.97905 134.103C9.44256 134.198 9.92149 134.206 10.3881 134.125C10.8546 134.044 11.2996 133.876 11.6971 133.631C12.096 133.389 12.4402 133.074 12.7095 132.704C12.9789 132.335 13.1681 131.919 13.2662 131.48C13.3669 131.042 13.3746 130.589 13.289 130.148C13.2034 129.706 13.0262 129.286 12.7675 128.909C12.511 128.532 12.1778 128.207 11.7873 127.952C11.3969 127.697 10.9568 127.518 10.4927 127.425C10.2416 127.374 9.98542 127.349 9.72854 127.349Z" fill="#36275B"/>
<path d="M9.8484 132.649C9.71368 132.649 9.57697 132.635 9.43998 132.608C8.39019 132.395 7.71882 131.413 7.94384 130.42C8.16885 129.427 9.20478 128.793 10.2565 129.005C11.3063 129.218 11.9777 130.2 11.7524 131.193C11.5568 132.056 10.7468 132.649 9.8484 132.649ZM9.84812 129.232C9.46739 129.232 9.09834 129.356 8.80225 129.583C8.50617 129.809 8.30084 130.124 8.22037 130.476C8.12839 130.884 8.21136 131.31 8.45109 131.661C8.69082 132.011 9.06773 132.258 9.49914 132.345C10.3955 132.527 11.2831 131.985 11.4756 131.136C11.5677 130.728 11.4847 130.302 11.245 129.951C11.0052 129.601 10.6283 129.355 10.1968 129.267C10.0822 129.244 9.96534 129.232 9.84812 129.232ZM12.6842 117.825C10.6582 117.414 8.66332 118.634 8.22886 120.55C7.79439 122.467 9.08477 124.353 11.1108 124.764C13.137 125.175 15.1316 123.955 15.5661 122.039C16.0008 120.122 14.7104 118.235 12.6842 117.825Z" fill="#36275B"/>
<path d="M11.9002 124.977C11.6305 124.977 11.3574 124.95 11.0834 124.895C8.98438 124.469 7.64278 122.507 8.09281 120.522C8.54284 118.537 10.6167 117.269 12.716 117.694C13.2164 117.794 13.6909 117.987 14.1119 118.262C14.5329 118.536 14.8922 118.887 15.1688 119.294C15.4478 119.7 15.639 120.154 15.7314 120.629C15.8237 121.105 15.8152 121.594 15.7065 122.066C15.3154 123.792 13.6961 124.977 11.9002 124.977ZM11.8988 117.879C10.2337 117.879 8.73248 118.978 8.36934 120.578C7.95214 122.419 9.19609 124.238 11.1425 124.633C13.089 125.028 15.0123 123.851 15.4297 122.01C15.5304 121.572 15.5381 121.119 15.4525 120.677C15.3669 120.236 15.1897 119.815 14.931 119.439C14.6744 119.062 14.3412 118.736 13.9508 118.482C13.5603 118.227 13.1203 118.048 12.6562 117.955C12.4073 117.905 12.1534 117.879 11.8988 117.879Z" fill="#36275B"/>
<path d="M12.0146 123.179C11.8777 123.179 11.7395 123.165 11.6023 123.137C10.5525 122.924 9.88138 121.943 10.1061 120.95C10.1591 120.713 10.2612 120.489 10.4065 120.29C10.5518 120.09 10.7374 119.92 10.9527 119.789C11.1672 119.658 11.4072 119.567 11.6589 119.524C11.9105 119.48 12.1688 119.484 12.4188 119.535C12.6692 119.585 12.9065 119.682 13.1171 119.819C13.3277 119.957 13.5074 120.132 13.6458 120.336C13.7854 120.539 13.8811 120.766 13.9273 121.004C13.9735 121.242 13.9693 121.486 13.915 121.722C13.8621 121.959 13.7601 122.184 13.6148 122.383C13.4695 122.582 13.2839 122.752 13.0687 122.883C12.755 123.076 12.3889 123.179 12.0146 123.179ZM12.007 119.762C11.6873 119.762 11.3744 119.849 11.1064 120.014C10.9224 120.126 10.7637 120.271 10.6395 120.442C10.5153 120.612 10.428 120.804 10.3826 121.006C10.2907 121.414 10.3736 121.84 10.6134 122.191C10.8531 122.541 11.23 122.787 11.6614 122.875C11.8751 122.919 12.0959 122.923 12.3109 122.885C12.526 122.848 12.7312 122.771 12.9144 122.658C13.0983 122.546 13.257 122.401 13.3812 122.231C13.5053 122.061 13.5926 121.869 13.6379 121.666C13.6843 121.464 13.6879 121.256 13.6484 121.052C13.609 120.849 13.5273 120.655 13.408 120.481C13.2897 120.307 13.1361 120.157 12.9561 120.04C12.7761 119.922 12.5733 119.84 12.3594 119.797C12.2436 119.773 12.1255 119.762 12.007 119.762ZM10.5219 127.295C8.49591 126.884 6.50105 128.104 6.06659 130.021C5.63213 131.937 6.9225 133.823 8.94849 134.234C10.9745 134.645 12.9693 133.425 13.4038 131.508C13.8385 129.592 12.5482 127.706 10.5219 127.295Z" fill="#36275B"/>
<path d="M9.74354 134.448C9.46956 134.448 9.1936 134.421 8.91933 134.365C6.82032 133.94 5.47872 131.978 5.92875 129.993C6.03467 129.519 6.23877 129.071 6.52925 128.672C6.81973 128.274 7.19081 127.934 7.62103 127.673C8.04985 127.409 8.52963 127.228 9.03267 127.141C9.53572 127.054 10.0521 127.062 10.5519 127.164C11.0523 127.264 11.5268 127.457 11.9478 127.732C12.3689 128.007 12.7282 128.358 13.005 128.765C13.284 129.17 13.4751 129.624 13.5675 130.1C13.6598 130.575 13.6514 131.064 13.5428 131.536C13.437 132.01 13.2329 132.459 12.9425 132.857C12.652 133.255 12.2808 133.595 11.8505 133.857C11.2234 134.242 10.4916 134.448 9.74354 134.448ZM9.72854 127.349C9.04047 127.349 8.36627 127.536 7.77472 127.897C7.37578 128.14 7.03167 128.455 6.76233 128.824C6.49298 129.194 6.30374 129.61 6.20556 130.049C5.78836 131.89 7.03231 133.709 8.97905 134.103C9.44256 134.199 9.92149 134.206 10.3881 134.125C10.8546 134.044 11.2996 133.876 11.6971 133.631C12.096 133.389 12.4402 133.074 12.7095 132.704C12.9789 132.335 13.1681 131.919 13.2662 131.48C13.3669 131.042 13.3746 130.589 13.289 130.148C13.2034 129.706 13.0262 129.286 12.7675 128.91C12.511 128.532 12.1778 128.207 11.7873 127.952C11.3969 127.697 10.9568 127.518 10.4927 127.426C10.2416 127.375 9.98542 127.349 9.72854 127.349Z" fill="#36275B"/>
<path d="M10.227 129.136C9.99434 129.087 9.75378 129.082 9.51917 129.122C9.28455 129.161 9.06052 129.244 8.85997 129.366C8.65942 129.488 8.48633 129.646 8.35065 129.831C8.21498 130.016 8.1194 130.225 8.06944 130.446C8.01948 130.666 8.01612 130.894 8.05954 131.115C8.10297 131.337 8.19233 131.548 8.32248 131.737C8.45262 131.926 8.62098 132.088 8.81785 132.215C9.01472 132.342 9.23621 132.431 9.46956 132.477C9.93651 132.568 10.4227 132.481 10.8222 132.235C11.2216 131.989 11.5019 131.603 11.6019 131.162C11.7018 130.721 11.6134 130.261 11.3558 129.881C11.0983 129.502 10.6925 129.234 10.227 129.136Z" fill="#F2EFFB"/>
<path d="M9.8484 132.649C9.71368 132.649 9.57697 132.635 9.43998 132.608C8.39019 132.395 7.71882 131.413 7.94384 130.42C8.16885 129.427 9.20478 128.793 10.2565 129.005C11.3063 129.218 11.9777 130.2 11.7524 131.193C11.5568 132.056 10.7468 132.649 9.8484 132.649ZM9.84812 129.232C9.46739 129.232 9.09834 129.356 8.80225 129.583C8.50617 129.809 8.30084 130.124 8.22037 130.476C8.12839 130.884 8.21136 131.31 8.45109 131.661C8.69082 132.011 9.06773 132.258 9.49914 132.345C10.3955 132.527 11.2831 131.985 11.4756 131.136C11.5677 130.728 11.4847 130.302 11.245 129.951C11.0052 129.601 10.6283 129.355 10.1968 129.267C10.0822 129.244 9.96534 129.232 9.84812 129.232ZM12.6842 117.825C10.6582 117.414 8.66332 118.634 8.22886 120.55C7.79439 122.467 9.08477 124.353 11.1108 124.764C13.137 125.175 15.1316 123.955 15.5661 122.039C16.0008 120.122 14.7104 118.235 12.6842 117.825Z" fill="#36275B"/>
<path d="M11.9002 124.977C11.6305 124.977 11.3574 124.95 11.0834 124.895C8.98438 124.469 7.64278 122.507 8.09281 120.522C8.54284 118.537 10.6167 117.269 12.716 117.694C13.2164 117.794 13.6909 117.987 14.1119 118.262C14.5329 118.536 14.8922 118.887 15.1688 119.294C15.4478 119.7 15.639 120.154 15.7314 120.629C15.8237 121.105 15.8152 121.594 15.7065 122.066C15.3154 123.792 13.6961 124.977 11.9002 124.977ZM11.8988 117.879C10.2337 117.879 8.73248 118.978 8.36934 120.578C7.95214 122.419 9.19609 124.238 11.1425 124.633C13.089 125.028 15.0123 123.851 15.4297 122.01C15.5304 121.572 15.5381 121.119 15.4525 120.677C15.3669 120.236 15.1897 119.815 14.931 119.439C14.6744 119.062 14.3412 118.736 13.9508 118.482C13.5603 118.227 13.1203 118.048 12.6562 117.955C12.4073 117.905 12.1534 117.879 11.8988 117.879Z" fill="#36275B"/>
<path d="M12.3898 119.666C12.1579 119.619 11.9184 119.616 11.6851 119.656C11.4518 119.697 11.2293 119.78 11.0301 119.902C10.831 120.024 10.6592 120.182 10.5245 120.366C10.3898 120.551 10.2949 120.759 10.2452 120.978C10.1955 121.197 10.1919 121.424 10.2348 121.645C10.2776 121.865 10.3659 122.076 10.4948 122.264C10.6236 122.452 10.7904 122.615 10.9856 122.742C11.1809 122.87 11.4007 122.959 11.6327 123.006C12.101 123.101 12.5901 123.016 12.9923 122.77C13.3945 122.524 13.6768 122.137 13.7772 121.694C13.8776 121.251 13.7879 120.789 13.5277 120.408C13.2675 120.028 12.8582 119.761 12.3898 119.666Z" fill="#F2EFFB"/>
<path d="M12.0163 123.179C11.8794 123.179 11.7412 123.165 11.604 123.137C10.5542 122.924 9.88308 121.943 10.1078 120.95C10.1608 120.713 10.2629 120.489 10.4082 120.29C10.5535 120.09 10.7391 119.92 10.9544 119.789C11.1689 119.658 11.4089 119.567 11.6606 119.524C11.9122 119.48 12.1705 119.484 12.4205 119.535C12.6709 119.585 12.9082 119.682 13.1188 119.819C13.3294 119.957 13.5091 120.132 13.6475 120.336C13.7871 120.539 13.8828 120.766 13.929 121.004C13.9752 121.242 13.971 121.486 13.9167 121.722C13.8638 121.959 13.7618 122.184 13.6165 122.383C13.4712 122.582 13.2856 122.752 13.0704 122.883C12.7567 123.076 12.3906 123.179 12.0163 123.179ZM12.0087 119.762C11.689 119.762 11.3761 119.849 11.1081 120.014C10.9241 120.126 10.7654 120.271 10.6412 120.442C10.517 120.612 10.4297 120.804 10.3843 121.006C10.2924 121.414 10.3753 121.84 10.6151 122.191C10.8548 122.541 11.2317 122.787 11.6631 122.875C11.8768 122.919 12.0976 122.923 12.3126 122.885C12.5277 122.848 12.7329 122.771 12.9161 122.658C13.1 122.546 13.2587 122.401 13.3829 122.231C13.507 122.061 13.5943 121.869 13.6396 121.667C13.686 121.464 13.6896 121.256 13.6501 121.052C13.6107 120.849 13.529 120.655 13.4097 120.481C13.2914 120.307 13.1378 120.157 12.9578 120.04C12.7778 119.922 12.575 119.84 12.3611 119.797C12.2453 119.773 12.1272 119.762 12.0087 119.762ZM14.9039 107.81C12.8779 107.399 10.8831 108.62 10.4486 110.536C10.0141 112.452 11.3045 114.339 13.3305 114.75C15.3565 115.161 17.3513 113.94 17.7858 112.024C18.2205 110.108 16.9302 108.221 14.9039 107.81Z" fill="#36275B"/>
<path d="M14.1173 114.963C13.8476 114.963 13.5742 114.936 13.3002 114.881C11.2012 114.455 9.85957 112.493 10.3096 110.508C10.4154 110.035 10.6195 109.586 10.91 109.188C11.2005 108.789 11.5716 108.45 12.0019 108.188C12.4307 107.924 12.9104 107.744 13.4135 107.656C13.9166 107.569 14.4329 107.577 14.9328 107.679C15.4331 107.78 15.9076 107.973 16.3286 108.247C16.7496 108.522 17.1089 108.873 17.3856 109.28C17.6646 109.685 17.8558 110.139 17.9481 110.615C18.0404 111.09 18.032 111.579 17.9233 112.052C17.5322 113.778 15.9132 114.963 14.1173 114.963ZM14.1091 107.864C13.421 107.864 12.7469 108.051 12.1556 108.413C11.7566 108.655 11.4125 108.97 11.1431 109.34C10.8737 109.709 10.6844 110.125 10.5861 110.564C10.1689 112.405 11.4129 114.224 13.3593 114.618C15.305 115.013 17.229 113.837 17.6465 111.996C17.7472 111.557 17.7549 111.104 17.6693 110.663C17.5836 110.222 17.4063 109.801 17.1475 109.425C16.8909 109.047 16.5578 108.722 16.1674 108.467C15.777 108.213 15.337 108.034 14.873 107.941C14.622 107.89 14.3659 107.864 14.1091 107.864Z" fill="#36275B"/>
<path d="M14.2332 113.164C14.0962 113.164 13.9581 113.15 13.8209 113.123C12.7708 112.91 12.0997 111.929 12.3247 110.935C12.3777 110.699 12.4798 110.474 12.6251 110.275C12.7704 110.076 12.956 109.906 13.1713 109.775C13.3859 109.643 13.6259 109.553 13.8776 109.509C14.1293 109.465 14.3876 109.469 14.6377 109.52C14.888 109.571 15.1254 109.667 15.336 109.805C15.5466 109.942 15.7263 110.118 15.8647 110.321C16.0042 110.524 16.0999 110.751 16.146 110.989C16.1922 111.227 16.1879 111.471 16.1336 111.708C16.0807 111.945 15.9787 112.169 15.8334 112.368C15.6881 112.567 15.5025 112.737 15.2873 112.868C14.9736 113.061 14.6075 113.164 14.2332 113.164ZM14.2259 109.747C13.9061 109.747 13.5933 109.835 13.3253 109.999C13.1413 110.111 12.9826 110.257 12.8584 110.427C12.7342 110.597 12.6469 110.789 12.6015 110.991C12.5095 111.399 12.5924 111.825 12.8321 112.176C13.0719 112.526 13.4488 112.773 13.8803 112.86C14.094 112.904 14.3147 112.908 14.5298 112.871C14.7449 112.833 14.95 112.756 15.1333 112.643C15.3172 112.531 15.4759 112.386 15.6 112.216C15.7242 112.046 15.8115 111.854 15.8567 111.652C15.9032 111.449 15.9069 111.241 15.8674 111.037C15.828 110.834 15.7462 110.64 15.6269 110.466C15.5087 110.292 15.3551 110.142 15.1751 110.025C14.9951 109.907 14.7922 109.825 14.5783 109.782C14.4624 109.759 14.3443 109.747 14.2259 109.747Z" fill="#36275B"/>
<path d="M14.9028 107.81C12.8768 107.399 10.8819 108.62 10.4474 110.536C10.013 112.452 11.3034 114.339 13.3293 114.75C15.3553 115.161 17.3502 113.94 17.7847 112.024C18.2194 110.108 16.929 108.221 14.9028 107.81Z" fill="#36275B"/>
<path d="M14.1173 114.963C13.8476 114.963 13.5742 114.936 13.3002 114.881C11.2012 114.455 9.85957 112.493 10.3096 110.508C10.4154 110.035 10.6195 109.586 10.91 109.188C11.2005 108.789 11.5716 108.45 12.0019 108.188C12.4307 107.924 12.9104 107.744 13.4135 107.656C13.9166 107.569 14.4329 107.577 14.9328 107.679C15.4331 107.78 15.9076 107.973 16.3286 108.247C16.7496 108.522 17.1089 108.873 17.3856 109.28C17.6646 109.685 17.8558 110.139 17.9481 110.615C18.0404 111.09 18.032 111.579 17.9233 112.052C17.5322 113.778 15.9132 114.963 14.1173 114.963ZM14.1091 107.864C13.421 107.864 12.7469 108.051 12.1556 108.413C11.7566 108.655 11.4125 108.97 11.1431 109.34C10.8737 109.709 10.6844 110.125 10.5861 110.564C10.1689 112.405 11.4129 114.224 13.3593 114.618C15.305 115.013 17.229 113.837 17.6465 111.996C17.7472 111.557 17.7549 111.104 17.6693 110.663C17.5836 110.222 17.4063 109.801 17.1475 109.425C16.8909 109.047 16.5578 108.722 16.1674 108.467C15.777 108.213 15.337 108.034 14.873 107.941C14.622 107.89 14.3659 107.864 14.1091 107.864Z" fill="#36275B"/>
<path d="M14.6085 109.651C14.1402 109.556 13.6511 109.641 13.2489 109.887C12.8467 110.133 12.5644 110.521 12.464 110.964C12.3636 111.407 12.4533 111.869 12.7135 112.249C12.9737 112.63 13.383 112.897 13.8514 112.992C14.0833 113.039 14.3228 113.042 14.5561 113.002C14.7893 112.961 15.0119 112.878 15.2111 112.756C15.4102 112.634 15.582 112.476 15.7167 112.292C15.8514 112.107 15.9463 111.899 15.996 111.68C16.0457 111.46 16.0493 111.234 16.0064 111.013C15.9636 110.793 15.8753 110.582 15.7464 110.394C15.6176 110.205 15.4508 110.043 15.2555 109.916C15.0603 109.788 14.8405 109.698 14.6085 109.651Z" fill="#F2EFFB"/>
<path d="M14.2332 113.164C14.0962 113.164 13.9581 113.15 13.8209 113.123C12.7708 112.91 12.0997 111.929 12.3247 110.935C12.3777 110.699 12.4798 110.474 12.6251 110.275C12.7704 110.076 12.956 109.906 13.1713 109.775C13.3859 109.643 13.6259 109.553 13.8776 109.509C14.1293 109.465 14.3876 109.469 14.6377 109.52C14.888 109.571 15.1254 109.667 15.336 109.805C15.5466 109.942 15.7263 110.118 15.8647 110.321C16.0042 110.524 16.0999 110.751 16.146 110.989C16.1922 111.227 16.1879 111.471 16.1336 111.708C16.0807 111.945 15.9787 112.169 15.8334 112.368C15.6881 112.567 15.5025 112.737 15.2873 112.868C14.9736 113.061 14.6075 113.164 14.2332 113.164ZM14.2259 109.747C13.9061 109.747 13.5933 109.835 13.3253 109.999C13.1413 110.111 12.9826 110.257 12.8584 110.427C12.7342 110.597 12.6469 110.789 12.6015 110.991C12.5095 111.399 12.5924 111.825 12.8321 112.176C13.0719 112.526 13.4488 112.773 13.8803 112.86C14.094 112.904 14.3147 112.908 14.5298 112.871C14.7449 112.833 14.95 112.756 15.1333 112.643C15.3172 112.531 15.4759 112.386 15.6 112.216C15.7242 112.046 15.8115 111.854 15.8567 111.652C15.9032 111.449 15.9069 111.241 15.8674 111.037C15.828 110.834 15.7462 110.64 15.6269 110.466C15.5087 110.292 15.3551 110.142 15.1751 110.025C14.9951 109.907 14.7922 109.825 14.5783 109.782C14.4624 109.759 14.3443 109.747 14.2259 109.747Z" fill="#36275B"/>
<path d="M18.9749 108.15L12.5488 135.458C12.5488 135.458 22.4543 138.765 24.1848 126.435C24.3167 125.514 24.3996 124.498 24.4336 123.391L30.6206 126.443L34.1597 113.092L18.9749 108.15Z" fill="url(#paint3_linear_1572_6272)"/>
<path d="M15.4051 135.989C13.7484 135.989 12.5246 135.591 12.5031 135.584L12.3848 135.545L18.8729 107.974L34.3299 113.006L30.7158 126.64L24.5693 123.609C24.5316 124.633 24.4501 125.589 24.3267 126.453C23.7428 130.613 22.1722 133.461 19.6583 134.918C18.2185 135.752 16.683 135.989 15.4051 135.989ZM12.7165 135.367C13.3762 135.554 16.6459 136.351 19.5128 134.688C21.9489 133.275 23.4739 130.492 24.0459 126.417C24.1767 125.503 24.2599 124.484 24.2933 123.387L24.2998 123.174L30.5281 126.246L33.9919 113.179L19.0803 108.325L12.7165 135.367Z" fill="#36275B"/>
<path d="M27.3106 117.484C26.8082 117.382 25.9158 119.434 25.3183 122.069C25.218 122.515 25.1282 122.963 25.0488 123.412L25.8739 123.892L26.6964 124.355C26.8252 123.911 27.0349 122.934 27.1467 122.44C27.7442 119.805 27.8127 117.586 27.3106 117.484Z" fill="url(#paint4_linear_1572_6272)"/>
<path d="M26.7849 124.56L24.8945 123.479L24.9104 123.39C24.9959 122.909 25.0844 122.468 25.181 122.041C25.5653 120.347 26.5101 117.193 27.3411 117.353C28.1158 117.51 27.7328 120.498 27.2862 122.468L27.2064 122.825C27.0929 123.335 26.9375 124.034 26.8342 124.391L26.7849 124.56ZM25.2053 123.346L26.6078 124.149C26.7057 123.775 26.8328 123.204 26.9293 122.771L27.0094 122.412C27.6898 119.411 27.5463 117.669 27.282 117.615C27.0162 117.554 26.1484 119.052 25.4578 122.097C25.3681 122.493 25.2854 122.903 25.2053 123.346Z" fill="#36275B"/>
<path d="M30.5698 118.527C30.0674 118.425 28.948 120.541 28.3508 123.176C28.2302 123.708 28.0292 124.403 27.9551 124.885L29.6426 125.823C29.7894 125.329 30.0515 124.111 30.1795 123.547C30.7764 120.912 31.079 118.631 30.5698 118.527Z" fill="url(#paint5_linear_1572_6272)"/>
<path d="M29.7305 126.026L27.8027 124.955L27.8166 124.866C27.8659 124.547 27.9686 124.14 28.0677 123.747C28.1188 123.548 28.1677 123.348 28.2143 123.148C28.4911 121.928 28.912 120.696 29.3696 119.769C29.8525 118.791 30.268 118.333 30.6017 118.397C31.1675 118.511 31.0727 120.254 30.3195 123.575L30.2312 123.971C30.0914 124.599 29.9 125.458 29.7809 125.86L29.7305 126.026ZM28.1112 124.816L29.555 125.618C29.6716 125.183 29.8321 124.461 29.9538 123.916L30.0424 123.519C30.9246 119.628 30.7022 118.691 30.542 118.659C30.4707 118.641 30.1426 118.835 29.6261 119.882C29.1772 120.792 28.7634 122.003 28.4911 123.204C28.4486 123.391 28.3965 123.598 28.3433 123.809C28.2542 124.16 28.1628 124.522 28.1112 124.816Z" fill="#36275B"/>
<path d="M21.1854 131.247C21.4874 131.507 21.4421 131.874 21.2293 132.162C19.9267 133.922 17.7569 135.084 15.4589 134.892C15.1006 134.862 14.847 134.433 14.9328 134.123C15.0364 133.748 15.3621 133.593 15.7462 133.625C15.6058 133.613 15.8173 133.628 15.8266 133.628C16.0008 133.634 16.1751 133.63 16.3488 133.617C16.4892 133.606 16.6291 133.59 16.7683 133.569C16.77 133.569 16.7703 133.568 16.7833 133.565C17.1318 133.495 17.4718 133.392 17.798 133.256C17.8011 133.255 17.8775 133.221 17.901 133.211C17.9994 133.165 18.0965 133.116 18.192 133.065C18.4963 132.901 18.7854 132.713 19.0564 132.503L19.1444 132.433C19.5482 132.092 19.9086 131.708 20.2182 131.288C20.4297 131.002 20.9374 131.032 21.1854 131.247ZM31.8647 115.152L20.8743 111.724C20.0374 111.463 20.4648 110.232 21.3034 110.494L32.2935 113.921C33.131 114.182 32.7033 115.413 31.8647 115.152Z" fill="#F2EFFB"/>
<path d="M107.895 96.7654C126.629 79.0467 126.629 50.3196 107.894 32.6016C89.1595 14.8836 58.7854 14.8841 40.0515 32.6027C21.3177 50.3214 21.3182 79.0485 40.0527 96.7665C58.7872 114.485 89.1614 114.484 107.895 96.7654Z" fill="url(#paint6_linear_1572_6272)"/>
<path d="M73.9748 110.188H73.966C47.4362 110.184 25.8565 89.7667 25.8613 64.6756C25.8661 39.5873 47.4492 19.1794 73.9748 19.1794H73.9832C86.8349 19.1815 98.9164 23.9167 108.002 32.5133C117.088 41.1094 122.09 52.5377 122.088 64.6921C122.086 76.8466 117.079 88.273 107.99 96.8662C98.9028 105.457 86.8224 110.188 73.9748 110.188ZM73.9745 19.4471C47.6029 19.4471 26.1489 39.7335 26.1441 64.6756C26.1393 89.6192 47.5922 109.916 73.9657 109.921H73.9745C86.7477 109.921 98.7553 105.218 107.789 96.6766C116.825 88.1341 121.802 76.7749 121.805 64.6921C121.807 52.6089 116.834 41.2481 107.802 32.7023C98.7692 24.1568 86.7588 19.4492 73.983 19.4471H73.9745Z" fill="#36275B"/>
<path d="M98.1965 103.848C90.2287 109.335 80.3835 112.576 69.724 112.575C43.2285 112.57 21.7572 92.5515 21.7617 67.8627C21.7643 53.9275 28.6121 41.4794 39.3449 33.2867C31.083 41.4368 26.0022 52.4916 25.9999 64.6756C25.9951 89.7343 47.4732 110.049 73.9684 110.053C82.8094 110.055 91.0832 107.8 98.1965 103.848Z" fill="url(#paint7_linear_1572_6272)"/>
<path d="M69.734 112.708H69.7249C56.8733 112.706 44.7923 108.04 35.7068 99.5706C26.6213 91.1003 21.6188 79.8397 21.6211 67.8629C21.6236 54.3767 28.0517 41.7361 39.2569 33.1828L39.448 33.3793C30.8699 41.841 26.1446 52.9558 26.1424 64.6755C26.1401 76.7591 31.1139 88.1196 40.1477 96.6651C49.1808 105.21 61.1924 109.917 73.9693 109.92H73.9784C82.4897 109.92 90.8387 107.781 98.1258 103.733L98.2807 103.957C89.9656 109.682 80.0943 112.708 69.734 112.708ZM37.741 34.7456C27.6507 43.1982 21.9064 55.1524 21.9041 67.8629C21.9019 79.7677 26.8743 90.9606 35.9055 99.38C44.9375 107.8 56.9483 112.439 69.7249 112.441H69.734C79.0756 112.441 88.0157 109.966 95.7659 105.26C89.0547 108.491 81.5805 110.187 73.9784 110.187H73.9693C61.1169 110.185 49.0342 105.45 39.9473 96.8544C30.86 88.2586 25.8568 76.8303 25.8593 64.6755C25.8613 53.5891 30.0644 43.0421 37.741 34.7456Z" fill="#36275B"/>
<path d="M57.0137 72.1503L63.0713 88.0164C63.0713 88.0164 63.8287 89.5007 64.6404 89.5007C65.4522 89.501 77.5212 77.6297 77.5212 77.6297L90.9457 53.1178L57.231 68.056L57.0137 72.1503Z" fill="#D8CDF3"/>
<path d="M64.6385 89.635C63.7481 89.6347 62.9746 88.1383 62.942 88.0749L56.8691 72.1703L57.0922 67.9692L57.1694 67.9349L91.2614 52.8294L77.6218 77.7225C75.5989 79.7117 65.4684 89.635 64.6385 89.635ZM57.1547 72.1302L63.2027 87.971C63.3974 88.3501 64.0464 89.367 64.6385 89.3673C65.3028 89.2541 72.6313 82.2443 77.4033 77.5512L90.6266 53.4063L57.3664 68.1435L57.1547 72.1302Z" fill="#36275B"/>
<path d="M65.0473 76.2206L63.8818 87.9144C63.8818 87.9144 63.3941 91.4966 67.1826 87.9149C70.971 84.3332 74.597 81.5701 74.597 81.5701L65.0473 76.2206Z" fill="#D8CDF3"/>
<path d="M64.6443 89.6415C64.511 89.6415 64.3901 89.6158 64.2806 89.5652C63.5673 89.2338 63.7332 87.9519 63.7405 87.8975L64.9267 75.9979L74.8441 81.5538L74.6851 81.6748C74.6488 81.7021 71.0211 84.4746 67.2819 88.0097C66.126 89.1027 65.2568 89.6415 64.6443 89.6415ZM65.1668 76.443L64.0219 87.9267C63.9786 88.2493 63.9638 89.1198 64.4057 89.3248C64.6777 89.452 65.3858 89.4236 67.0821 87.8202C70.39 84.6927 73.6107 82.1606 74.3502 81.5878L65.1668 76.443Z" fill="#36275B"/>
<path d="M57.1217 72.7165L44.6573 68.873C44.6573 68.873 43.1694 68.3012 43.6474 67.0048C43.7462 66.7374 43.9452 66.5101 44.5404 66.118C47.3031 64.2977 95.671 47.8647 95.671 47.8647C95.671 47.8647 97.037 47.4302 97.8436 47.7196C98.2124 47.8518 98.4479 48.0012 98.6463 48.547C98.7185 48.7456 98.7598 49.1678 98.7544 49.5875C98.7505 49.8903 98.7111 50.1708 98.6823 50.6112C98.3868 55.1062 89.567 88.6524 89.567 88.6524C89.567 88.6524 89.0394 90.6154 87.1496 90.6821C86.4607 90.7064 85.6243 90.5742 84.6246 89.7604C80.9173 86.743 68.1022 78.5945 65.2704 76.8026C65.1111 76.7016 65.0655 76.5705 65.0383 76.4423C64.9984 76.2535 65.2155 76.0193 65.2155 76.0193C65.2155 76.0193 87.5362 57.2614 88.1303 55.2928C88.1764 55.1402 88.0038 55.0648 87.7697 55.1306C86.2871 55.6462 60.5892 70.9873 57.7532 72.6815C57.587 72.7805 57.1217 72.7165 57.1217 72.7165Z" fill="#F2EFFB"/>
<path d="M87.0007 90.8183C86.4049 90.8183 85.5462 90.6863 84.5329 89.8618C80.816 86.8364 67.7699 78.5449 65.1926 76.9133C64.9913 76.7862 64.9322 76.6173 64.9005 76.4687C64.8484 76.2216 65.083 75.9601 65.1102 75.9309C72.8324 69.4402 87.5342 56.7833 87.9953 55.2558C87.9905 55.2443 87.9234 55.2272 87.811 55.259C86.35 55.7671 60.7446 71.0533 57.8296 72.7946C57.6295 72.914 57.1888 72.8608 57.1028 72.8492L57.0793 72.8439L44.6148 69.0004C44.5894 68.991 42.9987 68.3611 43.5152 66.9606C43.6338 66.6394 43.8812 66.3901 44.4611 66.0081C47.2078 64.1983 93.649 48.4099 95.6249 47.7385C95.6852 47.7195 97.0511 47.2915 97.8954 47.5942C98.3194 47.7463 98.5727 47.9289 98.7813 48.5033C98.8577 48.7132 98.903 49.1394 98.8971 49.5891C98.8945 49.777 98.879 49.9564 98.8606 50.1641C98.8467 50.3157 98.8346 50.4675 98.8243 50.6194C98.5314 55.0751 89.7934 88.3491 89.7051 88.6848C89.6992 88.7059 89.1286 90.746 87.1555 90.8158C87.106 90.8175 87.0545 90.8183 87.0007 90.8183ZM87.931 54.9737C88.0434 54.9737 88.1374 55.0045 88.2005 55.0639C88.2732 55.1319 88.2976 55.2285 88.267 55.3292C87.6687 57.3125 66.2231 75.3524 65.3103 76.1194C65.2673 76.1681 65.1583 76.3233 65.1779 76.416C65.2036 76.5375 65.2401 76.6215 65.3497 76.6906C67.9296 78.3238 80.9884 86.6233 84.7174 89.6586C85.7347 90.4866 86.5481 90.5704 87.1448 90.5476C88.9084 90.4855 89.4255 88.6374 89.4303 88.6189C89.5183 88.2843 98.2501 55.0339 98.5413 50.602C98.5529 50.4272 98.5659 50.2773 98.5781 50.1411C98.5956 49.9384 98.6112 49.7636 98.6135 49.5853C98.6191 49.1768 98.5775 48.7673 98.5133 48.5895C98.3236 48.0678 98.1057 47.9556 97.7944 47.844C97.044 47.5739 95.7302 47.9864 95.7171 47.9907C95.2365 48.154 47.3385 64.4373 44.6225 66.2271C44.0287 66.6185 43.8648 66.8243 43.7821 67.0481C43.3531 68.2112 44.6559 68.7268 44.7116 68.7485L57.1549 72.585C57.3527 72.611 57.6072 72.6099 57.6782 72.5676C60.5958 70.8247 86.2246 55.5249 87.7216 55.0045C87.796 54.9838 87.8668 54.9737 87.931 54.9737Z" fill="#36275B"/>
<path d="M54.1208 31.9212C54.6968 33.6856 55.0755 35.4304 55.2731 37.1184C55.3948 38.1659 55.4522 39.1877 55.4372 40.1765C55.3928 43.7432 54.4769 46.8514 52.8296 49.0106C51.7189 50.458 50.2865 51.48 48.5563 51.922C42.4095 53.4944 34.9249 47.0958 31.8479 37.6262C28.771 28.1567 31.2621 19.2035 37.4139 17.6295C37.8531 17.5189 38.3019 17.4458 38.7549 17.4113C39.9808 17.3243 41.236 17.5229 42.4862 17.9689C43.3755 18.288 44.26 18.7334 45.1244 19.291C45.1363 19.2926 45.144 19.2999 45.1522 19.3074C48.8925 21.7361 52.289 26.2871 54.1208 31.9212Z" fill="#F2EFFB"/>
<path d="M46.6569 52.2922C40.8827 52.2922 34.4934 46.2164 31.7151 37.6658C29.742 31.5935 29.9684 25.5619 32.3205 21.531C33.548 19.4272 35.2975 18.0336 37.3795 17.5009C37.8271 17.3882 38.2846 17.3137 38.7463 17.2785C39.9685 17.1912 41.2441 17.3823 42.539 17.8441C43.4246 18.1621 44.3165 18.6081 45.1908 19.1705C45.2141 19.1802 45.2353 19.194 45.2531 19.2112C49.1239 21.7221 52.4972 26.464 54.2588 31.8815C54.824 33.6135 55.2138 35.3704 55.4164 37.1039C55.5404 38.1723 55.5959 39.2066 55.5811 40.1783C55.5367 43.7558 54.6013 46.9207 52.9466 49.089C51.7746 50.6164 50.3107 51.613 48.5955 52.0512C47.9612 52.2137 47.313 52.2922 46.6569 52.2922ZM39.3237 17.5258C39.1372 17.5258 38.9521 17.5323 38.7681 17.5454C38.3238 17.5794 37.8836 17.6511 37.4528 17.7595C35.4469 18.2724 33.7577 19.6213 32.5681 21.66C30.2526 25.6288 30.0347 31.5828 31.9856 37.5874C35.0351 46.9731 42.4535 53.3439 48.5216 51.7929C50.1728 51.371 51.5844 50.4084 52.7174 48.9318C54.3378 46.808 55.2545 43.6979 55.2981 40.1749C55.3125 39.2136 55.2576 38.1905 55.1348 37.1331C54.9338 35.4167 54.5481 33.6761 53.9879 31.9605C52.245 26.6003 48.9142 21.9122 45.0779 19.42L45.0476 19.4021C44.1866 18.8466 43.3089 18.4065 42.4388 18.0944C41.3786 17.7162 40.3333 17.5258 39.3237 17.5258Z" fill="#36275B"/>
<path d="M54.1233 31.9212C54.6993 33.6856 55.078 35.4304 55.2756 37.1184C55.3973 38.1659 55.4547 39.1877 55.4397 40.1765C51.8298 45.0702 42.7457 43.429 39.7036 36.1336L44.517 29.9395L37.1699 32.9773C37.0932 32.8431 37.0063 32.712 36.9347 32.5768C33.9214 27.2738 34.7476 21.3207 38.4996 17.5002C39.874 17.4035 41.2838 17.6281 42.6852 18.1244C43.5045 18.4192 44.322 18.8121 45.1275 19.2916C45.1394 19.2932 45.147 19.3004 45.1552 19.3079C48.895 21.7361 52.2915 26.2871 54.1233 31.9212Z" fill="#36275B"/>
<path d="M49.4913 43.1065C49.1505 43.1065 48.8049 43.0875 48.4553 43.0487C44.5599 42.6166 41.1549 39.9858 39.5691 36.183L39.5405 36.1142L44.0881 30.2622L37.1044 33.1498L37.0424 33.0416C37.012 32.9888 36.9808 32.9364 36.9487 32.8845C36.8989 32.8023 36.8491 32.7204 36.8049 32.6369C33.8296 27.4006 34.452 21.422 38.3928 17.4093L38.4307 17.3705L38.4862 17.3664C39.8484 17.2717 41.2766 17.4837 42.7317 17.999C43.5435 18.2908 44.3683 18.6843 45.1846 19.1691C45.218 19.1817 45.2395 19.2012 45.2502 19.2111C49.121 21.722 52.4943 26.4639 54.2559 31.8814C54.8212 33.6134 55.2109 35.3703 55.4136 37.1038C55.5375 38.1722 55.593 39.2065 55.5783 40.1782L55.5777 40.2192L55.5531 40.2529C54.207 42.0783 51.9902 43.1065 49.4913 43.1065ZM39.8614 36.153C41.421 39.8273 44.7201 42.3647 48.4882 42.7829C51.2815 43.0918 53.8232 42.1029 55.2961 40.1338C55.3086 39.1851 55.2534 38.1759 55.1322 37.1335C54.9313 35.4171 54.5455 33.6766 53.9853 31.9609C52.2424 26.6004 48.9116 21.9126 45.0753 19.4204L45.0493 19.4049C44.244 18.9255 43.4306 18.5368 42.6318 18.2498C41.2359 17.7554 39.866 17.5477 38.5626 17.6301C34.7396 21.5577 34.1469 27.3936 37.0565 32.514C37.1001 32.5964 37.1474 32.6738 37.1944 32.7512L37.2281 32.8068L44.9406 29.6178L39.8614 36.153ZM26.253 36.6991C23.8047 36.6991 21.4232 35.2249 20.1914 32.8906L20.4447 32.771C21.7246 35.1968 24.289 36.6573 26.8238 36.403C29.0052 36.1854 30.4102 34.7779 30.9129 34.1825L31.134 34.3498C30.6092 34.9709 29.1414 36.4407 26.8536 36.6691C26.6532 36.6892 26.4528 36.6991 26.253 36.6991ZM27.3036 42.7435C25.21 42.7435 23.086 41.7169 21.6723 39.9282L21.899 39.7676C23.6156 41.9391 26.4134 42.9435 28.8603 42.2676C30.9661 41.6853 32.0833 40.0639 32.4657 39.3939L32.7147 39.5211C32.3154 40.2208 31.1481 41.9142 28.9396 42.5246C28.4055 42.6721 27.8555 42.7435 27.3036 42.7435ZM28.5433 49.8529C26.615 49.8529 24.6187 49.1759 22.9757 47.8735L23.1577 47.6685C25.7681 49.7372 29.2942 50.1776 31.931 48.7644C34.201 47.5475 35.0257 45.3835 35.2745 44.5097L35.5479 44.5793C35.2895 45.4857 34.4333 47.7303 32.0705 48.997C30.9978 49.5723 29.7844 49.8529 28.5433 49.8529Z" fill="#36275B"/>
<path d="M89.3204 21.4791C89.8995 23.2397 90.2816 24.9832 90.4828 26.6723C90.6068 27.7203 90.6665 28.7434 90.6538 29.7347C90.6181 33.3089 89.7113 36.435 88.0725 38.6193C86.9675 40.0836 85.5404 41.1257 83.8147 41.5907C77.6841 43.2439 70.1995 36.927 67.1064 27.477C64.0134 18.027 66.4778 9.02452 72.6135 7.36965C73.051 7.25336 73.4987 7.17452 73.9511 7.13408C75.1744 7.03156 76.4274 7.21466 77.6765 7.64591C78.5647 7.95429 79.4486 8.38955 80.3124 8.93725C80.324 8.93885 80.3319 8.94608 80.3402 8.95304C84.0782 11.3395 87.4787 15.8565 89.3204 21.4791Z" fill="#F2EFFB"/>
<path d="M81.8172 41.9859C76.0811 41.9864 69.7498 35.9993 66.9735 27.5167C64.9928 21.4655 65.2011 15.4243 67.5311 11.3559C68.7513 9.22537 70.4962 7.8026 72.5768 7.24152C73.0226 7.1231 73.4787 7.04265 73.9397 7.00113C75.1601 6.89861 76.4335 7.07394 77.7273 7.52045C78.6118 7.82776 79.5031 8.26356 80.3771 8.81634C80.3997 8.82558 80.4204 8.83875 80.4379 8.85516C84.3088 11.3243 87.6865 16.0333 89.4575 21.4398C90.0259 23.1675 90.4187 24.9233 90.6253 26.6579C90.7519 27.7268 90.8096 28.7625 90.7971 29.7366C90.7615 33.3215 89.8354 36.5036 88.1898 38.6973C87.024 40.2424 85.5655 41.2591 83.8553 41.7198C83.1923 41.8975 82.5063 41.9871 81.8172 41.9859ZM74.6212 7.24045C74.401 7.24045 74.1822 7.24955 73.9657 7.26775C73.5196 7.30791 73.0778 7.3858 72.6541 7.49904C70.6488 8.04004 68.963 9.41784 67.7799 11.4836C65.4856 15.4899 65.2852 21.454 67.2438 27.438C69.9828 35.8057 76.1969 41.7195 81.8059 41.7203C82.4744 41.7203 83.1336 41.6366 83.7784 41.4626C85.4251 41.019 86.8318 40.0363 87.9594 38.5423C89.5716 36.3933 90.4793 33.2648 90.5144 29.734C90.5268 28.7705 90.4697 27.7458 90.344 26.6879C90.1394 24.9701 89.7502 23.2312 89.1872 21.5193C87.4352 16.1706 84.0999 11.5155 80.2653 9.06637L80.2356 9.04897C79.3748 8.50341 78.4983 8.07377 77.6296 7.77235C76.6064 7.41846 75.5974 7.24045 74.6212 7.24045Z" fill="#36275B"/>
<path d="M89.3195 21.4791C89.8986 23.2397 90.2807 24.9832 90.4819 26.6723C90.6059 27.7203 90.6656 28.7434 90.6529 29.7347C87.6535 34.0654 79.5903 35.1273 74.9394 25.8821L79.7282 19.6146L72.4031 22.7514C72.3264 22.6181 72.2393 22.4877 72.1676 22.3528C69.1479 17.0772 69.9583 11.1018 73.6932 7.22589C75.0646 7.11186 76.4721 7.31905 77.8717 7.79848C78.6903 8.08331 79.5068 8.46664 80.3121 8.93697C80.3237 8.93858 80.3316 8.94581 80.3398 8.95277C84.0773 11.3395 87.4778 15.8565 89.3195 21.4791Z" fill="#36275B"/>
<path d="M84.3501 33.0878C84.1762 33.0877 84.0024 33.0821 83.829 33.0712C81.7339 32.9362 77.7765 31.8307 74.8131 25.9396L74.7768 25.8679L79.3029 19.9439L72.3427 22.9246L72.2799 22.8154C72.2494 22.7629 72.2181 22.7108 72.1862 22.6591C72.1364 22.5774 72.0866 22.496 72.0424 22.4131C69.0606 17.2041 69.6672 11.2062 73.5898 7.13595L73.6269 7.09713L73.6818 7.09258C75.0415 6.97988 76.4677 7.17476 77.9208 7.67293C78.732 7.95535 79.5562 8.33922 80.3722 8.81463C80.4045 8.82668 80.4254 8.84515 80.4365 8.85452C84.3073 11.3237 87.6851 16.0326 89.4561 21.4392C90.0244 23.1669 90.4173 24.9227 90.6239 26.6573C90.7504 27.7262 90.8081 28.7619 90.7957 29.736L90.7951 29.7751L90.7725 29.8077C89.3513 31.8607 86.9251 33.0878 84.3501 33.0878ZM75.1049 25.896C78.0021 31.6013 81.8234 32.6736 83.8485 32.804C86.4952 32.9785 89.0488 31.7836 90.5138 29.694C90.524 28.7421 90.4665 27.731 90.3428 26.6875C90.1382 24.9698 89.749 23.2308 89.186 21.519C87.434 16.1702 84.0987 11.5151 80.2641 9.066H80.2638L80.2386 9.05127C79.434 8.58121 78.6216 8.20216 77.824 7.9243C76.4304 7.44674 75.0636 7.2556 73.7619 7.35492C69.955 11.3392 69.3773 17.195 72.2935 22.2891C72.337 22.3713 72.384 22.4479 72.431 22.5247L72.4641 22.5788L80.1554 19.2854L75.1049 25.896Z" fill="#36275B"/>
<path d="M87.7855 15.4569C87.1269 15.4561 86.4716 15.3698 85.8379 15.2004L85.9157 14.9432C86.6896 15.1533 88.696 15.5326 90.6088 14.5154C92.8318 13.3335 94.0287 10.7399 93.588 8.06137L93.8677 8.02014C94.3262 10.8087 93.0724 13.5126 90.7472 14.7488C89.7223 15.2938 88.6736 15.4569 87.7855 15.4569ZM90.7339 20.963C89.3637 20.963 88.2392 20.528 87.7136 20.2825L87.839 20.0427C88.5607 20.38 90.4636 21.0909 92.5377 20.4123C94.9472 19.6243 96.6137 17.2734 96.6845 14.563L96.9675 14.5697C96.8937 17.3909 95.1504 19.8403 92.63 20.665C92.02 20.8641 91.3791 20.9648 90.7339 20.963ZM93.3582 27.6903C90.992 27.6903 89.1995 26.5053 88.4993 25.9589L88.6796 25.7525C89.4178 26.3286 91.4126 27.6424 94.0101 27.3913C97.0253 27.1003 99.6306 24.811 100.494 21.6949L100.767 21.7628C99.8749 24.9864 97.1708 27.3554 94.0389 27.6577C93.8128 27.6794 93.5856 27.6903 93.3582 27.6903Z" fill="#36275B"/>
<path d="M62.9872 36.1321C64.548 35.5253 65.2931 33.8368 64.6515 32.3607C64.0099 30.8846 62.2245 30.1799 60.6638 30.7867C59.1031 31.3935 58.358 33.082 58.9996 34.5581C59.6412 36.0342 61.4265 36.7389 62.9872 36.1321Z" fill="url(#paint8_linear_1572_6272)"/>
<path d="M61.8278 36.4846C60.065 36.4846 58.6309 35.1285 58.6309 33.4611C58.6309 31.7936 60.065 30.4375 61.8278 30.4375C63.5905 30.4375 65.0247 31.7936 65.0247 33.4611C65.0247 35.1285 63.5905 36.4846 61.8278 36.4846ZM61.8278 30.7052C60.221 30.7052 58.9139 31.9414 58.9139 33.4611C58.9139 34.9807 60.221 36.2169 61.8278 36.2169C63.4346 36.2169 64.7417 34.9807 64.7417 33.4611C64.7417 31.9414 63.4346 30.7052 61.8278 30.7052Z" fill="#36275B"/>
<path d="M58.8225 49.3527C63.8107 52.3404 71.5683 50.2219 74.2087 46.0282C76.323 42.6701 74.9438 38.7532 72.4185 38.2393C67.4427 37.2263 65.3128 42.3938 65.3128 42.3938C65.3128 42.3938 58.6651 38.6643 55.97 43.1032C55.0753 44.5763 55.6929 47.4781 58.8225 49.3527Z" fill="#F2EFFB"/>
<path d="M64.2831 50.885C62.2376 50.885 60.3115 50.4018 58.7489 49.466C55.6671 47.62 54.8443 44.6912 55.8491 43.0361C56.5041 41.9573 57.4449 41.2589 58.645 40.9604C61.3587 40.2858 64.5393 41.8312 65.2474 42.2033C65.6442 41.3691 67.8873 37.1798 72.4499 38.1081C73.4841 38.3188 74.3777 39.0914 74.9016 40.228C75.7162 41.9963 75.4979 44.2452 74.3324 46.0966C73.0185 48.1829 70.3939 49.8445 67.3113 50.5413C66.3196 50.7674 65.3032 50.8828 64.2831 50.885ZM58.9006 49.2395C61.1558 50.5906 64.1976 50.9704 67.246 50.2808C70.2558 49.6006 72.8142 47.9854 74.0895 45.9595C75.2092 44.1807 75.4212 42.0258 74.6423 40.3348C74.1555 39.2782 73.335 38.5621 72.3907 38.3699C67.5884 37.3926 65.4679 42.3915 65.4467 42.4421L65.3861 42.589L65.2426 42.5084C65.2067 42.4884 61.6107 40.4989 58.7163 41.2195C57.5924 41.4992 56.7104 42.1551 56.0945 43.1694C54.8194 45.2697 56.9049 48.0443 58.9006 49.2395Z" fill="#36275B"/>
<path d="M65.1056 42.3061L65.3787 42.2357L67.6928 50.2669L67.4197 50.3373L65.1056 42.3061ZM58.793 41.053L59.0684 40.9915L61.4063 50.3462L61.1306 50.4077L58.793 41.053ZM69.3707 38.4773L69.643 38.4045L72.4864 47.919L72.2144 47.9918L69.3707 38.4773ZM129.447 57.576C126.583 57.6697 123.682 56.7756 120.984 55.6004C120.455 53.1403 119.716 50.7525 118.785 48.4557C119.716 48.9777 120.662 49.473 121.63 49.9361C124.067 51.1005 130.353 54.187 132.179 50.707C133.172 48.8144 132.948 46.4293 132.878 44.3788C132.784 41.718 132.399 39.0678 131.927 36.4471C130.984 31.2058 129.566 26.0581 128.111 20.9291C127.166 17.5883 132.671 16.3275 133.611 19.6495C135.085 24.8615 136.529 30.0922 137.471 35.4192C138.771 42.77 141.227 57.1905 129.447 57.576Z" fill="#36275B"/>
<path d="M131.81 28.2212L131.613 28.0288C132.089 27.5938 132.33 27.109 132.328 26.5873C132.325 25.5786 131.42 24.7482 131.411 24.7399L131.287 24.6275L131.428 24.5335C131.475 24.5019 136.197 21.3352 136.283 18.9436C136.304 18.3756 136.065 17.909 135.553 17.5166C134.63 16.8098 133.391 17.1806 132.301 17.6357C129.544 18.7854 124.788 21.1537 123.906 24.0956L123.634 24.0225C124.548 20.9751 129.385 18.5597 132.187 17.3913C133.287 16.9319 134.685 16.5074 135.731 17.3088C136.309 17.7513 136.59 18.3049 136.566 18.953C136.483 21.2712 132.524 24.1114 131.725 24.662C131.99 24.9396 132.608 25.6833 132.612 26.5851C132.613 27.1826 132.344 27.733 131.81 28.2212ZM40.4554 91.1176C39.0852 91.8974 37.7012 92.6629 36.3018 93.3961C32.343 95.4753 28.2514 97.3248 23.9367 98.6496C19.9631 99.8711 14.2814 101.461 10.4083 99.11C5.84631 96.341 7.25415 90.2668 8.90086 86.3358C12.631 77.4525 19.3781 70.1432 26.0575 63.1099C26.0486 63.2783 26.041 63.4468 26.0349 63.6153C25.9386 66.0684 26.0479 68.483 26.3547 70.8456C24.6208 72.7377 22.9308 74.6661 21.3364 76.6807C18.6603 80.0665 16.1897 83.698 14.4309 87.5982C13.7391 89.1356 12.8461 91.1751 12.9356 92.8658C12.9656 93.4026 13.1003 94.2244 13.3757 94.5689C13.3955 94.5697 14.034 94.8224 14.4991 94.8842C15.8209 95.054 17.7846 94.6647 19.2612 94.3547C21.4117 93.8997 23.5441 93.1844 25.5885 92.4094C28.156 91.4388 30.6348 90.2639 33.0554 88.9934C34.5968 88.185 36.117 87.3356 37.6233 86.4801C40.7551 84.6991 43.5725 89.3438 40.4554 91.1176Z" fill="#36275B"/>
<path d="M51.4852 93.7848C50.6542 94.3199 49.7337 94.749 48.8051 95.1184C47.4598 95.6591 46.0729 96.0395 44.6917 96.4866C44.5278 96.5366 44.371 96.5896 44.213 96.6258C39.848 97.8344 37.4445 95.5213 37.4445 95.5213L36.1354 96.3722C35.4963 96.7714 34.6947 96.8206 34.0163 96.4997C32.6784 95.8727 31.5924 94.9083 30.758 93.7666C29.8658 92.5229 29.2788 91.0739 29.0006 89.5898C28.9405 89.2811 28.8959 88.9698 28.8667 88.6571C28.7801 87.7906 29.1237 87.039 29.7939 86.4672C30.0354 86.2538 31.6362 85.6258 31.7121 85.4462L31.7149 85.4392C31.7356 85.3509 31.7633 85.2652 31.7811 85.1839C34.491 75.4924 42.5561 78.9076 42.5561 78.9076C42.5561 78.9076 52.9864 72.2763 55.4856 74.5616C58.297 77.1414 49.4535 81.5119 47.1612 82.5838C48.55 82.0596 49.9511 82.478 50.9256 83.3684C51.2216 83.6409 51.4379 83.923 51.5904 84.1971C52.3719 85.5832 51.7968 87.3778 50.3649 88.182C50.2487 88.2545 50.1228 88.312 49.9904 88.3528C50.698 88.2679 51.5746 88.6162 52.1472 88.9693C53.0954 89.5448 53.6229 90.6587 53.3088 91.7179C53.0402 92.6101 52.2666 93.2874 51.4852 93.7848Z" fill="#F2EFFB"/>
<path d="M41.7784 97.1069C39.3126 97.1069 37.8032 95.9976 37.4346 95.6924L36.2184 96.4832C35.5289 96.9136 34.6838 96.9642 33.9558 96.62C32.662 96.0134 31.5477 95.0791 30.6443 93.8432C29.7694 92.6236 29.1541 91.1612 28.8642 89.6134C28.8034 89.3011 28.7581 88.9862 28.7287 88.6698C28.6404 87.7832 28.9766 86.9871 29.702 86.3685C29.8169 86.267 30.1317 86.1163 30.6363 85.8805C30.9791 85.7199 31.4922 85.48 31.5848 85.3903C31.5936 85.3539 31.6035 85.3181 31.6134 85.283C31.6253 85.2402 31.6369 85.1981 31.6459 85.1572C32.5437 81.946 34.1166 79.8159 36.3223 78.8193C39.1145 77.5574 42.0459 78.568 42.544 78.757C43.5035 78.1528 53.1113 72.202 55.5876 74.4659C56.0569 74.8963 56.2474 75.4004 56.154 75.9642C55.7849 78.1879 51.0697 80.8235 48.2266 82.2249C49.2226 82.1716 50.2195 82.5344 51.0278 83.2726C51.316 83.5377 51.5486 83.8278 51.7196 84.1357C52.5115 85.5405 51.9879 87.349 50.5569 88.23C51.1583 88.3095 51.781 88.5818 52.2285 88.858C53.2658 89.4876 53.7679 90.6794 53.449 91.7547C53.2157 92.5299 52.5829 93.2503 51.5679 93.8967C50.8294 94.3719 49.9449 94.8122 48.8635 95.2427C47.8923 95.633 46.8836 95.9451 45.9082 96.2473C45.5194 96.3675 45.1302 96.488 44.741 96.6138L44.6295 96.6486C44.501 96.6888 44.3759 96.7278 44.2499 96.7568C43.3431 97.0073 42.5177 97.1069 41.7784 97.1069ZM37.4646 95.3476L37.5481 95.4277C37.5716 95.4502 39.95 97.6669 44.1761 96.4976C44.3012 96.4687 44.4189 96.4318 44.54 96.3938L44.6513 96.3592C45.0393 96.2337 45.4299 96.1127 45.8197 95.992C46.7896 95.6919 47.7924 95.3814 48.7528 94.9954C49.8173 94.5716 50.6859 94.1395 51.4085 93.674L51.4091 93.6735C52.3669 93.0637 52.9613 92.3931 53.1758 91.6811C53.4614 90.7179 53.0085 89.649 52.074 89.0818C51.5455 88.7557 50.6896 88.404 50.0115 88.4857L49.9506 88.2252C50.0709 88.1881 50.1853 88.1359 50.2908 88.0699C51.6859 87.2861 52.2121 85.5783 51.4688 84.2602C51.3114 83.9767 51.0966 83.709 50.8303 83.464C49.8023 82.5247 48.4511 82.2418 47.217 82.7081L47.1018 82.4637C49.0568 81.5501 55.4665 78.3776 55.874 75.9219C55.9536 75.4427 55.7953 75.0291 55.3906 74.6573C53.0012 72.4729 42.7416 78.9526 42.6383 79.0185L42.5732 79.0597L42.5016 79.0295C42.4705 79.0164 39.3703 77.7368 36.4415 79.0616C34.3156 80.0231 32.7945 82.0945 31.9213 85.218C31.9131 85.2562 31.9004 85.3023 31.8874 85.3499C31.8766 85.3887 31.8659 85.4281 31.8565 85.468L31.8472 85.4947C31.7934 85.6224 31.5548 85.749 30.762 86.1195C30.3994 86.2892 29.9885 86.4814 29.8936 86.565C29.2356 87.1263 28.931 87.8448 29.0106 88.6447C29.0406 88.9619 29.0853 89.2713 29.143 89.565C29.4264 91.0772 30.0264 92.5037 30.8781 93.6914C31.7535 94.8888 32.8316 95.7936 34.0823 96.3796C34.7195 96.6813 35.4585 96.6368 36.0605 96.2607L37.4646 95.3476Z" fill="#36275B"/>
<path d="M37.4343 95.5062C37.4343 95.5062 36.491 95.0926 34.7695 93.0443Z" fill="#F2EFFB"/>
<path d="M37.3762 95.6279C37.3366 95.6103 36.3824 95.1771 34.6602 93.1277L34.8818 92.9609C36.5514 94.9483 37.4866 95.3809 37.4956 95.3851L37.3762 95.6279Z" fill="#36275B"/>
<path d="M32.4808 89.426C32.4808 89.426 31.5159 88.0161 31.7197 85.4398Z" fill="#F2EFFB"/>
<path d="M32.363 89.4988C32.3225 89.4397 31.3746 88.0215 31.5798 85.4302L31.862 85.45C31.6645 87.9446 32.5914 89.3398 32.6007 89.3535L32.363 89.4988ZM45.1427 83.4817L46.9666 82.5207L47.1042 82.7544L45.2803 83.7154L45.1427 83.4817ZM47.8356 89.0938L50.0455 88.1692L50.1599 88.4139L47.9499 89.3385L47.8356 89.0938ZM38.7591 80.7935L42.5077 78.7944L42.6466 79.0273L38.8981 81.0267L38.7591 80.7935Z" fill="#36275B"/>
<defs>
<linearGradient id="paint0_linear_1572_6272" x1="107.34" y1="120.721" x2="107.34" y2="136.141" gradientUnits="userSpaceOnUse">
<stop stop-color="#D1AFFF"/>
<stop offset="1" stop-color="#906CFF"/>
</linearGradient>
<linearGradient id="paint1_linear_1572_6272" x1="104.099" y1="125.295" x2="104.099" y2="127.064" gradientUnits="userSpaceOnUse">
<stop stop-color="#D1AFFF"/>
<stop offset="1" stop-color="#906CFF"/>
</linearGradient>
<linearGradient id="paint2_linear_1572_6272" x1="104.763" y1="122.262" x2="104.763" y2="124.057" gradientUnits="userSpaceOnUse">
<stop stop-color="#D1AFFF"/>
<stop offset="1" stop-color="#906CFF"/>
</linearGradient>
<linearGradient id="paint3_linear_1572_6272" x1="23.3542" y1="108.15" x2="23.3542" y2="135.861" gradientUnits="userSpaceOnUse">
<stop stop-color="#D1AFFF"/>
<stop offset="1" stop-color="#906CFF"/>
</linearGradient>
<linearGradient id="paint4_linear_1572_6272" x1="26.3472" y1="117.48" x2="26.3472" y2="124.355" gradientUnits="userSpaceOnUse">
<stop stop-color="#D1AFFF"/>
<stop offset="1" stop-color="#906CFF"/>
</linearGradient>
<linearGradient id="paint5_linear_1572_6272" x1="29.3917" y1="118.524" x2="29.3917" y2="125.823" gradientUnits="userSpaceOnUse">
<stop stop-color="#D1AFFF"/>
<stop offset="1" stop-color="#906CFF"/>
</linearGradient>
<linearGradient id="paint6_linear_1572_6272" x1="40.0515" y1="32.6027" x2="104.117" y2="100.339" gradientUnits="userSpaceOnUse">
<stop stop-color="#D1AFFF"/>
<stop offset="1" stop-color="#906CFF"/>
</linearGradient>
<linearGradient id="paint7_linear_1572_6272" x1="59.9791" y1="33.2867" x2="59.9791" y2="112.575" gradientUnits="userSpaceOnUse">
<stop stop-color="#D1AFFF"/>
<stop offset="1" stop-color="#906CFF"/>
</linearGradient>
<linearGradient id="paint8_linear_1572_6272" x1="60.6638" y1="30.7867" x2="62.7743" y2="36.2149" gradientUnits="userSpaceOnUse">
<stop stop-color="#D1AFFF"/>
<stop offset="1" stop-color="#906CFF"/>
</linearGradient>
</defs>
</svg>
