<svg width="271" height="500" viewBox="0 0 271 500" fill="none" xmlns="http://www.w3.org/2000/svg">
<g opacity="0.5" filter="url(#filter0_d_890_86745)">
<path d="M324.958 15.9999C411.952 15.9999 486.833 30.7556 547.502 59.8743C589.655 80.0973 639.902 114.985 639.902 166.366C639.902 217.746 589.655 252.65 547.502 272.873C486.818 301.976 411.952 316.671 324.958 316.671C237.965 316.671 163.084 301.901 102.4 272.873C60.2473 252.65 9.99946 217.746 9.99946 166.366C9.99947 114.985 60.2473 80.0972 102.4 59.8743C163.054 30.7556 237.95 15.9999 324.958 15.9999ZM324.958 315.237C411.725 315.237 486.38 300.526 546.852 271.513C588.612 251.472 638.392 216.961 638.392 166.366C638.392 115.771 588.552 81.2602 546.852 61.2336C486.44 32.2206 411.726 17.5102 324.958 17.5102C238.191 17.5102 163.522 32.2206 103.064 61.2335C61.2894 81.2602 11.5098 115.771 11.5098 166.366C11.5098 216.961 61.3498 251.472 103.064 271.513C163.522 300.526 238.191 315.237 324.958 315.237Z" fill="url(#paint0_linear_890_86745)"/>
<path d="M324.957 23.1286C407.45 23.1286 478.766 37.1744 536.913 64.9036C609.664 99.6407 624.934 139.226 624.934 166.366C624.934 193.506 609.664 233.136 536.913 267.828C478.766 295.557 407.45 309.618 324.957 309.618C241.799 309.618 170.483 295.557 112.986 267.828C72.8265 248.466 24.965 215.149 24.965 166.366C24.965 117.583 72.8266 84.2657 112.986 64.9036C170.483 37.1744 241.799 23.1286 324.957 23.1286ZM324.957 308.108C407.223 308.108 478.328 294.092 536.264 266.469C608.305 232.125 623.423 193.068 623.423 166.366C623.423 139.664 608.32 100.622 536.264 66.2629C478.328 38.6394 407.223 24.6389 324.957 24.6389C242.026 24.6389 170.906 38.6394 113.635 66.2629C73.8687 85.4437 26.4753 118.368 26.4753 166.366C26.4753 214.363 73.8687 247.288 113.635 266.469C170.936 294.092 242.041 308.108 324.957 308.108Z" fill="url(#paint1_linear_890_86745)"/>
<path d="M324.96 30.2421C403.39 30.2421 471.112 43.6235 526.238 69.9934C564.449 88.2681 609.984 119.833 609.984 166.366C609.984 212.898 564.449 244.479 526.238 262.754C471.112 289.123 403.39 302.49 324.96 302.49C246.53 302.49 178.792 289.123 123.666 262.754C85.4706 244.479 39.9349 212.913 39.9349 166.366C39.935 119.818 85.4707 88.268 123.666 69.9934C178.792 43.6234 246.514 30.2421 324.96 30.2421ZM324.96 300.979C403.163 300.979 470.659 287.659 525.589 261.379C563.346 243.256 608.474 212.128 608.474 166.366C608.474 120.604 563.407 89.431 525.528 71.3073C470.598 45.028 403.103 31.7071 324.899 31.7071C246.696 31.7071 179.185 45.028 124.255 71.3073C86.4976 89.431 41.3848 120.558 41.3848 166.321C41.3848 212.083 86.4523 243.256 124.255 261.334C179.245 287.658 246.756 300.979 324.96 300.979Z" fill="url(#paint2_linear_890_86745)"/>
<path d="M324.958 37.3706C399.808 37.3706 463.996 50.027 515.754 74.9924C551.911 92.4515 595 122.431 595 166.366C595 210.301 551.896 240.371 515.739 257.754C463.981 282.705 399.793 295.361 324.942 295.361C250.59 295.361 186.402 282.705 134.13 257.754C68.6286 226.461 54.8697 190.787 54.8697 166.366C54.8697 141.944 68.6286 106.271 134.131 74.9923C186.417 50.027 250.651 37.3706 324.958 37.3706ZM324.957 293.851C399.582 293.851 463.558 281.255 515.105 256.395C550.869 239.147 593.49 209.515 593.49 166.366C593.49 123.216 550.854 93.5993 515.09 76.3516C463.528 51.492 399.567 38.881 324.942 38.881C250.817 38.881 186.84 51.492 134.78 76.3516C69.9879 107.298 56.38 142.382 56.38 166.366C56.38 190.349 69.9727 225.449 134.78 256.395C186.855 281.24 250.832 293.851 324.957 293.851Z" fill="url(#paint3_linear_890_86745)"/>
<path d="M324.96 44.4993C365.24 44.4993 426.71 50.3895 478.438 66.9424C508.9 76.6839 532.914 89.1439 549.845 103.96C569.886 121.525 580.051 142.518 580.051 166.366C580.051 190.214 569.886 211.222 549.845 228.772C532.914 243.588 508.9 256.048 478.437 265.789C426.71 282.403 365.24 288.247 324.96 288.247C284.68 288.247 223.015 282.508 171.951 266.393C104.199 245.038 69.8547 211.373 69.8547 166.366C69.8547 121.359 104.199 87.7091 171.951 66.3383C223 50.1629 284.469 44.4993 324.96 44.4993ZM324.96 286.737C365.119 286.737 426.423 280.847 477.984 264.354C544.71 242.999 578.54 209.983 578.54 166.366C578.54 122.748 544.71 89.7329 477.984 68.3772C426.423 51.8847 365.119 46.0096 324.96 46.0096C284.575 46.0096 223.302 51.7186 172.42 67.7731C105.377 88.9173 71.3801 122.144 71.3801 166.366C71.3801 210.587 105.377 243.814 172.42 264.958C223.302 281.013 284.575 286.737 324.96 286.737Z" fill="url(#paint4_linear_890_86745)"/>
<path d="M324.959 51.6732C362.943 51.6732 420.879 57.2463 469.586 72.8175C533.019 93.1462 565.098 124.621 565.098 166.456C565.098 208.292 532.958 239.721 469.586 260.095C420.879 275.712 362.943 281.24 324.959 281.24C286.975 281.24 228.859 275.833 180.816 260.669C117.111 240.552 84.8056 208.866 84.8056 166.487C84.8056 124.107 117.111 92.4817 180.816 72.304C228.859 57.0197 286.779 51.6732 324.959 51.6732ZM324.959 279.729C362.823 279.729 420.592 274.186 469.118 258.585C531.795 238.483 563.587 207.491 563.587 166.456C563.587 125.421 531.871 94.4149 469.118 74.3278C420.592 58.7717 362.823 53.1835 324.959 53.1835C287.096 53.1835 229.161 58.5753 181.269 73.6934C118.274 93.5842 86.3159 124.787 86.3159 166.426C86.3159 208.065 118.274 239.283 181.269 259.174C229.161 274.217 286.9 279.608 324.959 279.608L324.959 279.729Z" fill="url(#paint5_linear_890_86745)"/>
<path d="M324.958 58.7414C360.51 58.7414 414.79 63.9671 460.507 78.6322C519.983 97.7073 550.129 127.188 550.129 166.366C550.129 205.543 519.923 235.039 460.507 254.099C414.79 268.764 360.51 273.99 324.958 273.99C289.405 273.99 234.928 268.931 189.861 254.703C130.083 235.84 99.7711 206.117 99.7711 166.366C99.7711 126.615 130.083 96.8917 189.861 78.028C234.928 63.7556 289.194 58.7414 324.958 58.7414ZM324.958 272.48C360.389 272.48 414.488 267.284 460.054 252.665C518.82 233.816 548.619 204.788 548.619 166.366C548.619 127.944 518.82 98.9155 460.054 80.0669C414.488 65.4623 360.374 60.2517 324.958 60.2517C289.541 60.2517 235.23 65.2659 190.238 79.4779C131.17 98.1151 101.206 127.355 101.206 166.366C101.206 205.377 131.246 234.616 190.238 253.269C235.23 267.435 289.314 272.48 324.958 272.48Z" fill="url(#paint6_linear_890_86745)"/>
<path d="M324.96 65.8701C358.187 65.8701 408.933 70.7333 451.539 84.3865C507.043 102.178 535.18 129.696 535.18 166.366C535.18 203.036 507.013 230.357 451.464 248.209C408.631 261.968 358.036 266.861 324.96 266.861C291.885 266.861 241.154 261.968 198.367 248.209C142.878 230.372 114.741 202.9 114.741 166.366C114.741 129.831 142.848 102.163 198.291 84.3864C240.851 70.7333 291.628 65.8701 324.96 65.8701ZM324.96 265.351C357.915 265.351 408.344 260.473 450.995 246.759C505.85 229.134 533.669 202.085 533.669 166.366C533.669 88.0716 397.138 67.3804 324.96 67.3804C252.783 67.3804 116.236 88.0716 116.236 166.366C116.236 202.115 144.011 229.164 198.82 246.774C241.44 260.473 291.93 265.351 324.96 265.351Z" fill="url(#paint7_linear_890_86745)"/>
<path d="M324.957 72.9989C356.145 72.9989 403.569 77.5298 443.139 90.3372C494.277 106.86 520.164 132.444 520.164 166.366C520.164 242.969 379.222 259.748 324.912 259.748C295.687 259.748 247.343 255.142 207.259 242.153C155.758 225.54 129.645 199.985 129.645 166.366C129.645 132.127 155.652 106.452 206.927 90.02C246.119 77.4694 293.633 72.9989 324.957 72.9989ZM324.957 258.238C378.845 258.238 518.699 241.73 518.699 166.366C518.699 93.7052 391.969 74.5092 324.957 74.5092C293.739 74.5092 246.421 78.9646 207.44 91.4699C156.86 107.66 131.2 132.867 131.2 166.366C131.2 199.26 156.966 224.271 207.758 240.718C247.63 253.646 295.838 258.238 324.957 258.238Z" fill="url(#paint8_linear_890_86745)"/>
<path d="M324.957 80.1124C353.532 80.1124 396.923 84.1752 433.019 95.5629C480.941 110.666 505.242 134.499 505.242 166.366C505.242 198.233 480.956 222.126 433.035 237.214C397.014 248.572 353.577 252.619 324.957 252.619C296.337 252.619 252.885 248.572 216.865 237.214C168.958 222.111 144.657 198.279 144.657 166.366C144.657 134.453 168.958 110.681 216.895 95.5628C252.976 84.1751 296.367 80.1124 324.957 80.1124ZM324.957 251.109C353.472 251.109 396.727 247.077 432.581 235.78C479.794 220.903 503.732 197.554 503.732 166.306C503.732 135.057 479.794 111.844 432.566 96.9372C396.636 85.61 353.411 81.5623 324.957 81.5623C296.503 81.5623 253.263 85.6099 217.348 96.9372C170.121 111.844 146.167 135.178 146.167 166.306C146.167 197.433 170.106 220.843 217.318 235.78C253.172 247.077 296.427 251.034 324.957 251.034L324.957 251.109Z" fill="url(#paint9_linear_890_86745)"/>
<path d="M324.96 87.2408C361.419 87.2408 490.293 106.195 490.293 166.366C490.293 218.879 434.668 245.491 324.96 245.491C215.251 245.491 159.627 218.879 159.627 166.366C159.627 106.195 288.501 87.2408 324.96 87.2408ZM324.96 243.98C433.702 243.98 488.783 217.867 488.783 166.366C488.783 107.343 361.086 88.7511 324.96 88.7511C288.833 88.7511 161.137 107.343 161.137 166.366C161.137 217.807 216.248 243.98 324.96 243.98Z" fill="url(#paint10_linear_890_86745)"/>
<path d="M324.959 96.8013C355.24 96.8013 386.7 111.904 417.087 126.494C421.618 128.699 426.285 130.904 430.861 133.049C433.535 134.302 436.736 135.571 440.12 136.915C455.056 142.835 475.506 150.946 475.279 168.631C475.023 188.462 468.891 204.35 457.05 215.859C429.865 242.319 377.683 241.534 339.609 240.99C334.398 240.99 329.49 240.839 324.913 240.839C320.7 240.839 316.184 240.839 311.426 240.96C272.461 241.413 219.102 242.062 191.856 215.073C180.302 203.625 174.487 188.009 174.532 168.616C174.532 151.233 194.166 143.319 209.858 136.9C213.166 135.571 216.292 134.302 218.92 133.064C223.451 130.919 227.982 128.714 232.634 126.524C263.187 111.904 294.707 96.8013 324.959 96.8013ZM357.657 239.616C392.59 239.616 433.323 236.822 456.038 214.726C467.577 203.504 473.558 187.978 473.814 168.571C474.026 151.958 454.951 144.406 439.606 138.365C436.193 137.021 432.976 135.737 430.272 134.468C425.741 132.309 421.075 130.104 416.483 127.899C386.202 113.369 354.893 98.357 324.959 98.357C295.025 98.3569 263.686 113.384 233.359 127.929C228.778 130.134 224.206 132.314 219.645 134.468C216.942 135.737 213.8 137.006 210.478 138.35C195.178 144.542 176.133 152.245 176.088 168.556C176.088 187.525 181.706 202.795 192.958 213.941C219.766 240.492 272.763 239.857 311.457 239.389C316.214 239.389 320.73 239.268 324.959 239.268C329.49 239.268 334.459 239.344 339.669 239.419C345.393 239.525 351.434 239.616 357.657 239.616Z" fill="url(#paint11_linear_890_86745)"/>
<path d="M324.957 119.41C346.78 119.41 372.863 132.535 398.086 145.237C405.501 148.967 413.189 152.788 420.514 156.232C423.096 157.44 426.328 158.663 429.757 159.962C443.062 164.991 459.63 171.259 460.355 183.719C461.352 200.71 456.897 214.529 447.11 224.8C422.945 250.112 370.689 249.584 336.072 249.236C332.146 249.236 328.43 249.161 324.957 249.161C321.483 249.161 318.175 249.161 314.49 249.161C279.542 249.463 226.726 249.931 202.546 224.407C192.865 214.167 188.485 200.468 189.543 183.629C190.328 171.078 206.715 164.916 219.87 159.962C223.404 158.648 226.726 157.395 229.4 156.141C236.468 152.849 243.929 149.103 251.133 145.478C276.717 132.701 303.163 119.41 324.957 119.41ZM349.499 247.786C382.801 247.786 425.256 245.506 446.008 223.727C455.492 213.759 459.812 200.333 458.845 183.78C458.181 172.301 442.126 166.215 429.228 161.337C425.769 160.038 422.507 158.799 419.864 157.576C412.509 154.163 404.837 150.296 397.406 146.551C372.35 133.94 346.433 120.875 324.911 120.875C303.389 120.875 277.186 134.091 251.767 146.868C244.548 150.508 237.087 154.253 229.989 157.561C227.255 158.829 223.947 160.083 220.368 161.427C207.606 166.215 191.672 172.196 191.008 183.765C189.966 200.136 194.209 213.457 203.604 223.38C227.315 248.436 279.738 247.968 314.43 247.666C318.115 247.666 321.619 247.666 324.911 247.666C328.204 247.666 332.115 247.666 336.042 247.741C340.331 247.771 344.817 247.817 349.499 247.817L349.499 247.786Z" fill="url(#paint12_linear_890_86745)"/>
<path d="M324.958 153.649C344.44 153.649 369.028 165.731 392.8 177.467C398.751 180.397 404.369 183.16 409.927 185.758C412.117 186.77 414.685 187.827 417.403 188.93C429.259 193.763 444.015 199.774 445.389 210.633C447.126 224.226 444.045 235.628 436.237 244.479C414.322 269.323 361.054 269.157 329.186 269.157L321.439 269.157C289.722 269.157 236.62 269.263 214.403 244.66C206.399 235.81 203.061 224.361 204.481 210.663C205.598 199.759 220.278 193.853 232.074 189.096C234.928 187.933 237.632 186.846 239.943 185.773C245.531 183.16 251.179 180.381 257.16 177.436C280.857 165.731 305.444 153.649 324.958 153.649ZM334.352 267.647C366.249 267.647 414.76 266.544 435.104 243.482C442.656 234.964 445.57 223.984 443.894 210.814C442.625 200.846 428.323 195.016 416.844 190.334C414.096 189.217 411.498 188.159 409.293 187.132C403.72 184.535 398.086 181.756 392.136 178.826C368.515 167.181 344.078 155.159 324.958 155.159C305.837 155.159 281.431 167.242 257.87 178.78C251.829 181.726 246.225 184.52 240.622 187.132C238.266 188.22 235.548 189.322 232.663 190.47C221.245 195.001 206.988 200.816 206.006 210.799C204.647 224.059 207.849 235.1 215.551 243.633C237.315 267.737 289.918 267.647 321.469 267.647L334.352 267.647Z" fill="url(#paint13_linear_890_86745)"/>
<path d="M324.957 196.376C344.41 196.376 428.791 219.393 430.437 246.216C431.147 257.785 427.839 267.541 420.635 275.214C399.491 297.596 349.168 297.596 324.957 297.596C298.905 297.596 250.409 297.596 229.385 275.319C222.136 267.632 218.813 257.845 219.463 246.216C221.094 218.185 304.191 196.376 324.957 196.376ZM324.957 296.056C348.956 296.056 398.962 296.056 419.533 274.156C426.45 266.801 429.606 257.422 428.927 246.276C427.416 220.178 344.138 197.826 324.957 197.826C305.127 197.826 222.513 219.589 220.973 246.276L220.218 246.276L220.973 246.276C220.324 257.468 223.525 266.892 230.473 274.247C251.058 296.116 300.974 296.116 324.957 296.116L324.957 296.056Z" fill="url(#paint14_linear_890_86745)"/>
<path d="M324.958 244.494C345.453 244.494 413.749 257.83 415.47 287.281C415.808 291.475 415.252 295.692 413.838 299.655C412.424 303.617 410.185 307.235 407.269 310.268C398.208 319.964 376.444 331.503 324.958 331.503C273.472 331.503 251.769 319.949 242.631 310.268C239.715 307.235 237.476 303.617 236.063 299.655C234.649 295.692 234.092 291.474 234.43 287.281C236.167 257.83 304.448 244.494 324.958 244.494ZM324.958 329.992C347.975 329.992 389.146 327.289 406.167 309.241C408.942 306.355 411.073 302.914 412.419 299.144C413.765 295.374 414.295 291.362 413.975 287.371C412.374 260.186 347.205 246.004 324.958 246.004C302.711 246.004 237.526 260.231 235.941 287.371C235.619 291.36 236.147 295.372 237.49 299.142C238.834 302.912 240.962 306.354 243.734 309.241C260.77 327.289 301.926 329.992 324.958 329.992Z" fill="url(#paint15_linear_890_86745)"/>
<path d="M324.96 294.832C338.734 294.832 377.972 298.367 393.785 314.542C395.957 316.619 397.677 319.123 398.836 321.896C399.996 324.669 400.569 327.652 400.521 330.657C399.856 360.954 345.742 367.584 325.005 367.584C304.269 367.584 250.094 360.954 249.49 330.657C249.445 327.652 250.021 324.67 251.179 321.898C252.338 319.125 254.056 316.621 256.226 314.542C271.933 298.412 311.171 294.832 324.96 294.832ZM324.96 366.074C340.042 365.953 355.026 363.633 369.439 359.187C388.786 352.783 398.738 343.177 399.01 330.627C399.053 327.823 398.515 325.041 397.432 322.455C396.348 319.869 394.741 317.535 392.712 315.599C377.247 299.847 338.553 296.343 324.96 296.343C311.367 296.343 272.658 299.801 257.193 315.599C255.167 317.537 253.562 319.871 252.479 322.457C251.395 325.043 250.856 327.824 250.895 330.627C251.182 343.177 261.135 352.783 280.482 359.187C294.891 363.651 309.875 365.986 324.96 366.119L324.96 366.074Z" fill="url(#paint16_linear_890_86745)"/>
<path d="M324.096 344.385L324.957 344.385C335.937 344.537 369.934 348.01 381.714 361.543C383.177 363.103 384.279 364.965 384.941 366.998C385.604 369.031 385.812 371.185 385.55 373.308C384.267 383.638 371.293 390.827 360.645 395.041C347.234 400.357 332.75 402.834 324.957 402.895C310.186 403.031 266.493 393.002 264.348 373.293C264.089 370.955 264.35 368.59 265.113 366.365C265.875 364.14 267.12 362.112 268.758 360.425C280.78 347.225 312.572 344.385 324.096 344.385ZM324.655 401.384L324.912 401.384C332.569 401.384 346.826 398.877 360.056 393.637C374.586 387.897 383.089 380.603 384.025 373.111C384.248 371.203 384.054 369.268 383.454 367.442C382.854 365.617 381.863 363.944 380.551 362.539C369.979 350.457 338.504 346.107 324.912 345.926C311.712 345.76 280.932 349.309 269.846 361.482C268.358 363.012 267.227 364.852 266.532 366.87C265.838 368.889 265.598 371.035 265.828 373.157C266.674 380.95 275.283 388.381 290.069 394.074C302.65 398.892 316.907 401.384 324.655 401.384Z" fill="url(#paint17_linear_890_86745)"/>
<g filter="url(#filter1_d_890_86745)">
<path d="M228.48 23.6421C233.011 30.2724 237.935 36.8875 243.145 43.8802C256.225 61.4148 269.757 79.5536 277.112 98.6741C290.705 133.834 293.242 175.911 295.749 216.599C296.625 230.841 297.456 244.298 298.77 257.256C300.628 276.135 301.67 295.98 302.772 316.989C305.566 370.68 308.466 426.199 325.684 471.855L324.279 472.384C306.971 426.516 304.071 370.876 301.262 317.079C300.159 296.086 299.132 276.301 297.26 257.407C295.976 244.419 295.145 230.947 294.239 216.629C291.732 176.062 289.149 134.091 275.708 99.1574C268.413 80.2182 254.956 62.17 241.937 44.7864C236.712 37.7786 231.773 31.1937 227.242 24.503L228.48 23.6421Z" fill="url(#paint18_linear_890_86745)"/>
</g>
<path d="M140.686 44.6958C147.844 49.3777 155.789 54.0144 164.231 58.9078C190.39 74.1316 220.113 91.3793 233.282 115.952C253.188 152.924 261.495 197.055 269.53 239.721C271.176 248.436 272.716 256.667 274.378 264.898C277.882 282.267 281.295 299.968 284.587 317.079C287.955 334.614 291.444 352.738 295.039 370.529C296.292 376.736 297.425 383.276 298.618 390.163C303.512 418.375 309.009 450.394 325.547 471.659L324.354 472.58C307.589 450.968 302.031 418.813 297.168 390.45C295.975 383.548 294.857 377.008 293.604 370.816C290.009 353.009 286.521 334.886 283.138 317.351C279.845 300.239 276.447 282.614 272.943 265.185C271.282 256.939 269.741 248.708 268.095 239.993C260.06 197.433 251.769 153.423 231.984 116.647C218.965 92.4818 189.499 75.3248 163.491 60.2066C155.049 55.2981 147.074 50.6464 139.885 45.9493L140.686 44.6958Z" fill="url(#paint19_linear_890_86745)"/>
<path d="M71.0144 77.711C80.4236 80.9732 91.328 83.9787 102.867 87.1655C138.132 96.907 178.11 107.947 198.439 131.825C226.002 164.206 239.217 213.82 250.771 257.603C253.036 266.137 255.181 274.217 257.371 281.904C261.252 295.588 265.058 309.543 268.744 323.045C273.924 341.984 279.316 361.573 284.919 380.723C286.429 385.707 287.804 391.114 289.314 396.838C296.216 423.072 304.81 455.74 325.41 471.523L324.489 472.716C303.481 456.601 294.811 423.677 287.849 397.201C286.339 391.492 284.934 386.1 283.469 381.146C277.82 361.981 272.459 342.377 267.294 323.422C263.608 309.935 259.742 295.98 255.906 282.297C253.731 274.594 251.586 266.529 249.306 257.966C237.737 214.348 224.628 164.916 197.276 132.792C177.264 109.261 137.528 98.2964 102.474 88.6154C90.9052 85.4135 79.9706 82.3929 70.5161 79.1307L71.0144 77.711Z" fill="url(#paint20_linear_890_86745)"/>
<path d="M26.2508 119.395L109.318 132.233C114.468 133.033 120.207 133.592 126.263 134.196C143.602 135.903 163.251 137.851 176.013 146.143C207.412 166.517 222.832 217.671 235.111 258.766C237.769 267.602 240.276 275.954 242.738 283.263C247.269 296.539 251.618 310.086 255.893 323.181C262.387 343.087 269.093 363.687 276.146 383.789C277.656 387.852 279.031 392.323 280.571 397.05C289.633 424.824 300.809 459.395 325.352 471.447L324.687 472.807C299.571 460.468 288.228 425.564 279.121 397.503C277.611 392.791 276.101 388.335 274.726 384.288C267.658 364.17 260.952 343.51 254.458 323.649C250.184 310.555 245.774 297.007 241.303 283.747C238.826 276.407 236.319 268.055 233.661 259.204C221.397 218.335 206.128 167.483 175.197 147.442C162.737 139.362 143.284 137.444 126.112 135.737C120.071 135.148 114.286 134.574 109.076 133.773L26.0092 120.921L26.2508 119.395Z" fill="url(#paint21_linear_890_86745)"/>
<path d="M146.44 163.149C153.705 162.976 160.958 163.815 167.992 165.641C204.149 176.213 222.167 238.241 234.083 279.322C236.726 288.459 239.022 296.373 241.181 302.61C242.994 307.821 244.776 313.032 246.573 318.242C256.33 346.651 266.434 376.042 277.987 404.33C279.181 407.35 280.404 410.371 281.657 413.693C290.417 436.348 301.291 464.47 325.094 471.402L324.671 472.912C300.174 465.784 289.133 437.224 280.253 414.298C278.999 411.05 277.791 407.909 276.583 404.964C265.014 376.631 254.91 347.225 245.138 318.876C243.356 313.661 241.564 308.45 239.762 303.245C237.587 296.962 235.231 289.048 232.633 279.88C220.807 239.102 202.925 177.512 167.569 167.242C154.762 163.511 138.088 164.825 121.973 166.109C114.421 166.698 107.323 167.257 100.98 167.257L10.6785 167.257L10.6785 165.747L101.055 165.747C107.338 165.747 114.421 165.188 121.928 164.599C130.174 163.813 138.556 163.149 146.44 163.149Z" fill="url(#paint22_linear_890_86745)"/>
<path d="M162.284 189.7C166.868 189.59 171.438 190.254 175.801 191.663C208.137 203.247 226.26 258.63 238.252 295.27C240.79 303.018 243.176 310.373 245.351 316.158C249.172 326.398 252.902 336.879 256.542 347.029C264.803 370.197 273.367 394.15 283.395 416.925C284.452 419.352 285.53 421.869 286.627 424.477C294.481 443.175 304.268 466.448 325.125 471.296L324.778 472.807C303.18 467.747 293.227 444.111 285.238 425.051C284.135 422.453 283.063 419.916 282.006 417.499C271.962 394.664 263.399 370.68 255.107 347.482C251.498 337.347 247.752 326.866 243.946 316.641C241.756 310.781 239.415 303.456 236.817 295.693C224.916 259.34 206.929 204.38 175.288 192.993C162.344 188.341 141.019 193.264 123.937 197.206C117.579 198.717 111.568 200.046 106.614 200.816L26.2508 213.276L26.0242 211.766L106.327 199.336C111.221 198.581 117.201 197.206 123.53 195.741C135.793 193.023 150.171 189.7 162.284 189.7Z" fill="url(#paint23_linear_890_86745)"/>
<path d="M181.056 216.719C186.969 216.527 192.843 217.738 198.198 220.253C228.011 235.583 243.265 284.019 254.396 319.375C256.481 326.005 258.459 332.258 260.317 337.619C262.733 344.582 265.271 354.233 268.231 365.424C278.803 405.432 294.722 465.905 325.094 471.387L324.822 472.897C293.513 467.249 277.413 406.217 266.766 365.832C263.821 354.686 261.283 345.05 258.882 338.148C257.024 332.771 255.046 326.503 252.962 319.873C241.906 284.759 226.773 236.671 197.518 221.628C175.468 210.316 130.385 229.889 97.4607 244.192C87.0395 248.723 78.0532 252.619 71.0152 255.051L70.5168 253.631C77.4944 251.215 86.4656 247.318 96.8565 242.802C123.03 231.4 156.816 216.719 181.056 216.719Z" fill="url(#paint24_linear_890_86745)"/>
<path d="M225.657 235.931C228.139 235.892 230.604 236.349 232.907 237.275C256.301 247.092 267.825 299.65 274.712 331.05C276.222 337.967 277.536 343.917 278.714 348.312C280.557 355.245 282.263 364.306 284.227 374.879C290.948 410.884 300.145 460.165 325.262 471.538L324.643 472.912C298.801 461.298 289.528 411.564 282.747 375.241C280.783 364.669 279.092 355.607 277.249 348.796C276.071 344.37 274.757 338.39 273.232 331.472C266.42 300.345 254.987 248.27 232.318 238.77C215.145 231.566 180.514 258.102 157.603 275.667C150.867 280.832 145.037 285.302 140.687 288.142L139.857 286.888C144.161 284.064 149.976 279.609 156.682 274.458C178.249 257.815 206.854 235.931 225.657 235.931Z" fill="url(#paint25_linear_890_86745)"/>
<path d="M275.994 242.591C276.185 242.568 276.378 242.568 276.568 242.591C290.161 245.476 296.489 299.484 300.507 346.213C300.929 351.091 301.231 354.61 301.443 356.105C302.681 365.092 303.437 374.879 304.252 385.224C306.608 415.43 309.266 449.759 325.563 471.614L324.354 472.52C307.741 450.303 305.113 415.793 302.742 385.345C301.941 375.014 301.232 365.258 299.948 356.317C299.736 354.807 299.419 351.242 298.996 346.334C296.897 321.791 290.463 247.092 276.251 244.071C269.273 242.561 244.671 282.75 234.174 299.952C231.455 304.393 229.507 307.504 228.48 309.014L227.242 308.153C228.238 306.643 230.262 303.351 232.875 299.091C250.923 269.716 268.579 242.591 275.994 242.591Z" fill="url(#paint26_linear_890_86745)"/>
</g>
<defs>
<filter id="filter0_d_890_86745" x="0" y="5.99994" width="653.902" height="480.913" filterUnits="userSpaceOnUse" color-interpolation-filters="sRGB">
<feFlood flood-opacity="0" result="BackgroundImageFix"/>
<feColorMatrix in="SourceAlpha" type="matrix" values="0 0 0 0 0 0 0 0 0 0 0 0 0 0 0 0 0 0 127 0" result="hardAlpha"/>
<feOffset dx="2" dy="2"/>
<feGaussianBlur stdDeviation="6"/>
<feComposite in2="hardAlpha" operator="out"/>
<feColorMatrix type="matrix" values="0 0 0 0 0.68206 0 0 0 0 0.597096 0 0 0 0 0.904466 0 0 0 1 0"/>
<feBlend mode="normal" in2="BackgroundImageFix" result="effect1_dropShadow_890_86745"/>
<feBlend mode="normal" in="SourceGraphic" in2="effect1_dropShadow_890_86745" result="shape"/>
</filter>
<filter id="filter1_d_890_86745" x="204.042" y="0.442135" width="148.841" height="499.142" filterUnits="userSpaceOnUse" color-interpolation-filters="sRGB">
<feFlood flood-opacity="0" result="BackgroundImageFix"/>
<feColorMatrix in="SourceAlpha" type="matrix" values="0 0 0 0 0 0 0 0 0 0 0 0 0 0 0 0 0 0 127 0" result="hardAlpha"/>
<feOffset dx="2" dy="2"/>
<feGaussianBlur stdDeviation="12.6"/>
<feComposite in2="hardAlpha" operator="out"/>
<feColorMatrix type="matrix" values="0 0 0 0 0.572549 0 0 0 0 0.458824 0 0 0 0 0.878431 0 0 0 1 0"/>
<feBlend mode="normal" in2="BackgroundImageFix" result="effect1_dropShadow_890_86745"/>
<feBlend mode="normal" in="SourceGraphic" in2="effect1_dropShadow_890_86745" result="shape"/>
</filter>
<linearGradient id="paint0_linear_890_86745" x1="324.951" y1="316.671" x2="324.951" y2="15.9999" gradientUnits="userSpaceOnUse">
<stop stop-color="#D1AFFF"/>
<stop offset="1" stop-color="#906CFF"/>
</linearGradient>
<linearGradient id="paint1_linear_890_86745" x1="324.949" y1="309.618" x2="324.949" y2="23.1286" gradientUnits="userSpaceOnUse">
<stop stop-color="#D1AFFF"/>
<stop offset="1" stop-color="#906CFF"/>
</linearGradient>
<linearGradient id="paint2_linear_890_86745" x1="324.96" y1="302.49" x2="324.96" y2="30.2421" gradientUnits="userSpaceOnUse">
<stop stop-color="#D1AFFF"/>
<stop offset="1" stop-color="#906CFF"/>
</linearGradient>
<linearGradient id="paint3_linear_890_86745" x1="324.935" y1="295.361" x2="324.935" y2="37.3706" gradientUnits="userSpaceOnUse">
<stop stop-color="#D1AFFF"/>
<stop offset="1" stop-color="#906CFF"/>
</linearGradient>
<linearGradient id="paint4_linear_890_86745" x1="324.953" y1="288.247" x2="324.953" y2="44.4993" gradientUnits="userSpaceOnUse">
<stop stop-color="#D1AFFF"/>
<stop offset="1" stop-color="#906CFF"/>
</linearGradient>
<linearGradient id="paint5_linear_890_86745" x1="324.952" y1="281.24" x2="324.952" y2="51.6732" gradientUnits="userSpaceOnUse">
<stop stop-color="#D1AFFF"/>
<stop offset="1" stop-color="#906CFF"/>
</linearGradient>
<linearGradient id="paint6_linear_890_86745" x1="324.95" y1="273.99" x2="324.95" y2="58.7414" gradientUnits="userSpaceOnUse">
<stop stop-color="#D1AFFF"/>
<stop offset="1" stop-color="#906CFF"/>
</linearGradient>
<linearGradient id="paint7_linear_890_86745" x1="324.96" y1="266.861" x2="324.96" y2="65.8701" gradientUnits="userSpaceOnUse">
<stop stop-color="#D1AFFF"/>
<stop offset="1" stop-color="#906CFF"/>
</linearGradient>
<linearGradient id="paint8_linear_890_86745" x1="324.904" y1="259.748" x2="324.904" y2="72.9989" gradientUnits="userSpaceOnUse">
<stop stop-color="#D1AFFF"/>
<stop offset="1" stop-color="#906CFF"/>
</linearGradient>
<linearGradient id="paint9_linear_890_86745" x1="324.95" y1="252.619" x2="324.95" y2="80.1124" gradientUnits="userSpaceOnUse">
<stop stop-color="#D1AFFF"/>
<stop offset="1" stop-color="#906CFF"/>
</linearGradient>
<linearGradient id="paint10_linear_890_86745" x1="324.96" y1="245.491" x2="324.96" y2="87.2408" gradientUnits="userSpaceOnUse">
<stop stop-color="#D1AFFF"/>
<stop offset="1" stop-color="#906CFF"/>
</linearGradient>
<linearGradient id="paint11_linear_890_86745" x1="324.907" y1="241.158" x2="324.907" y2="96.8013" gradientUnits="userSpaceOnUse">
<stop stop-color="#D1AFFF"/>
<stop offset="1" stop-color="#906CFF"/>
</linearGradient>
<linearGradient id="paint12_linear_890_86745" x1="324.94" y1="249.324" x2="324.94" y2="119.41" gradientUnits="userSpaceOnUse">
<stop stop-color="#D1AFFF"/>
<stop offset="1" stop-color="#906CFF"/>
</linearGradient>
<linearGradient id="paint13_linear_890_86745" x1="325.011" y1="269.157" x2="325.011" y2="153.649" gradientUnits="userSpaceOnUse">
<stop stop-color="#D1AFFF"/>
<stop offset="1" stop-color="#906CFF"/>
</linearGradient>
<linearGradient id="paint14_linear_890_86745" x1="324.957" y1="297.596" x2="324.957" y2="196.376" gradientUnits="userSpaceOnUse">
<stop stop-color="#D1AFFF"/>
<stop offset="1" stop-color="#906CFF"/>
</linearGradient>
<linearGradient id="paint15_linear_890_86745" x1="324.95" y1="331.503" x2="324.95" y2="244.494" gradientUnits="userSpaceOnUse">
<stop stop-color="#D1AFFF"/>
<stop offset="1" stop-color="#906CFF"/>
</linearGradient>
<linearGradient id="paint16_linear_890_86745" x1="325.006" y1="367.584" x2="325.006" y2="294.832" gradientUnits="userSpaceOnUse">
<stop stop-color="#D1AFFF"/>
<stop offset="1" stop-color="#906CFF"/>
</linearGradient>
<linearGradient id="paint17_linear_890_86745" x1="324.956" y1="402.896" x2="324.956" y2="344.385" gradientUnits="userSpaceOnUse">
<stop stop-color="#D1AFFF"/>
<stop offset="1" stop-color="#906CFF"/>
</linearGradient>
<linearGradient id="paint18_linear_890_86745" x1="276.463" y1="472.384" x2="276.463" y2="23.6421" gradientUnits="userSpaceOnUse">
<stop stop-color="#D1AFFF"/>
<stop offset="1" stop-color="#906CFF"/>
</linearGradient>
<linearGradient id="paint19_linear_890_86745" x1="232.716" y1="472.58" x2="232.716" y2="44.6958" gradientUnits="userSpaceOnUse">
<stop stop-color="#D1AFFF"/>
<stop offset="1" stop-color="#906CFF"/>
</linearGradient>
<linearGradient id="paint20_linear_890_86745" x1="197.963" y1="472.716" x2="197.963" y2="77.711" gradientUnits="userSpaceOnUse">
<stop stop-color="#D1AFFF"/>
<stop offset="1" stop-color="#906CFF"/>
</linearGradient>
<linearGradient id="paint21_linear_890_86745" x1="175.68" y1="472.807" x2="175.68" y2="119.395" gradientUnits="userSpaceOnUse">
<stop stop-color="#D1AFFF"/>
<stop offset="1" stop-color="#906CFF"/>
</linearGradient>
<linearGradient id="paint22_linear_890_86745" x1="167.886" y1="472.912" x2="167.886" y2="163.127" gradientUnits="userSpaceOnUse">
<stop stop-color="#D1AFFF"/>
<stop offset="1" stop-color="#906CFF"/>
</linearGradient>
<linearGradient id="paint23_linear_890_86745" x1="175.575" y1="472.807" x2="175.575" y2="189.688" gradientUnits="userSpaceOnUse">
<stop stop-color="#D1AFFF"/>
<stop offset="1" stop-color="#906CFF"/>
</linearGradient>
<linearGradient id="paint24_linear_890_86745" x1="197.805" y1="472.897" x2="197.805" y2="216.699" gradientUnits="userSpaceOnUse">
<stop stop-color="#D1AFFF"/>
<stop offset="1" stop-color="#906CFF"/>
</linearGradient>
<linearGradient id="paint25_linear_890_86745" x1="232.559" y1="472.912" x2="232.559" y2="235.928" gradientUnits="userSpaceOnUse">
<stop stop-color="#D1AFFF"/>
<stop offset="1" stop-color="#906CFF"/>
</linearGradient>
<linearGradient id="paint26_linear_890_86745" x1="276.402" y1="472.52" x2="276.402" y2="242.574" gradientUnits="userSpaceOnUse">
<stop stop-color="#D1AFFF"/>
<stop offset="1" stop-color="#906CFF"/>
</linearGradient>
</defs>
</svg>
