<svg width="515" height="507" viewBox="0 0 515 507" fill="none" xmlns="http://www.w3.org/2000/svg">
<g filter="url(#filter0_d_890_84352)">
<path d="M141.598 492.793C131.026 492.793 121.964 489.621 114.986 483.308C102.693 472.283 96.1378 451.879 95.4582 422.639C95.3374 416.764 97.2403 405.271 99.6719 390.726C106.121 352.002 115.878 293.478 95.4431 283.132C87.1515 278.949 69.7679 285.488 53.0639 291.832C36.36 298.175 20.6679 304.065 13.796 299.549C12.6532 298.734 11.7278 297.651 11.1011 296.395C10.4744 295.139 10.1655 293.748 10.2015 292.345C9.53694 279.689 9.15936 236.101 32.403 207.089C41.0268 196.365 52.7619 189.161 64.1496 182.229C73.5134 176.535 83.1945 170.645 91.1236 162.791C112.887 141.239 130.618 111.683 145.087 85.6147C147.941 80.4797 150.886 73.9853 153.998 67.1286C165.657 41.4534 180.156 9.38961 206.239 10.0088C233.047 10.6583 257.242 28.2835 280.652 45.3198C295.09 55.8919 310.012 66.7057 325.251 73.3057C330.728 75.5406 336.387 77.2991 342.166 78.5616C354.642 81.5822 365.41 84.2403 371.285 101.216C376.314 115.836 377.1 130.471 377.87 144.622C378.942 164.362 379.954 183.029 391.463 202.014C398.35 213.417 410.176 223.717 422.711 234.621C442.345 251.688 462.583 269.358 463.746 292.239C464.456 306.21 473.639 316.404 482.519 326.387C492.653 337.715 503.135 349.42 500.416 366.441C496.157 393.083 455.726 419.211 428.964 436.504C422.922 440.431 417.667 443.814 413.453 446.774C409.239 449.734 404.285 453.646 399.105 457.708C377.145 474.956 349.809 496.433 326.414 491.132C312.519 487.99 301.071 477.418 290.001 467.193C276.861 455.111 264.446 443.587 248.996 444.946C233.243 446.336 217.748 456.606 201.346 467.465C183.947 478.989 165.959 490.905 146.552 492.566C144.83 492.732 143.184 492.793 141.598 492.793ZM88.7373 280.323C91.2635 280.246 93.7725 280.764 96.0623 281.833C117.494 292.677 107.631 351.866 101.092 391.013C98.7506 405.437 96.9081 416.87 96.9081 422.609C97.5726 451.41 103.976 471.452 115.923 482.175C123.686 489.153 133.911 492.143 146.31 491.071C165.325 489.455 183.146 477.645 200.394 466.227C217.008 455.247 232.609 444.886 248.724 443.466C264.839 442.047 277.51 453.721 290.892 466.121C301.811 476.21 313.108 486.646 326.61 489.712C349.265 494.847 376.33 473.627 398.033 456.561C403.228 452.483 408.137 448.632 412.441 445.596C416.745 442.56 421.926 439.207 428.012 435.28C454.533 418.138 494.632 392.237 498.785 366.244C501.383 349.933 491.611 339.059 481.25 327.445C472.189 317.326 462.825 306.874 462.1 292.375C460.967 270.098 440.956 252.654 421.578 235.799C408.952 224.819 397.036 214.444 390.028 202.845C378.384 183.558 377.311 163.833 376.284 144.773C375.529 130.727 374.774 116.198 369.775 101.79C364.232 85.509 354.355 83.0925 341.819 80.0719C335.951 78.7918 330.205 77.0029 324.647 74.7254C309.272 67.9894 294.26 57.1152 279.761 46.5431C256.547 29.6428 232.533 12.1082 206.194 11.5191C181.153 10.8697 166.85 42.42 155.372 67.7478C152.246 74.6499 149.331 81.1593 146.416 86.3547C131.887 112.513 114.08 142.236 92.1959 163.864C84.1309 171.853 74.3743 177.773 65.0104 183.498C53.7285 190.354 42.0538 197.453 33.5961 208.025C10.6093 236.63 10.9868 279.734 11.6514 292.27C11.5972 293.438 11.8337 294.601 12.3398 295.656C12.8459 296.71 13.6057 297.622 14.5512 298.311C20.8491 302.419 36.949 296.332 52.5202 290.442C65.7052 285.473 79.2375 280.323 88.7977 280.323H88.7373Z" fill="url(#paint0_linear_890_84352)"/>
<path d="M143.53 484.833C132.762 484.833 123.761 481.556 116.753 475.047C102.556 461.907 99.0671 438.105 98.6291 420.464C98.4327 412.233 100.381 399.682 102.646 385.153C108.204 349.404 115.831 300.471 92.7842 289.868C86.5164 286.999 72.6669 291.379 59.2705 295.622C44.0467 300.576 28.1734 305.515 21.1353 300.758C19.9841 299.931 19.0428 298.846 18.387 297.589C17.7313 296.333 17.3794 294.94 17.3596 293.523C15.6227 270.627 20.3802 238.412 39.1382 216.664C47.8677 206.499 59.5122 200.141 70.764 194.009C80.7471 188.572 91.0474 182.939 99.4598 174.662C120.891 153.442 135.526 124.565 147.548 99.1469C149.874 94.2233 152.351 87.8649 154.979 81.129C165.551 53.9435 180.05 16.7447 206.737 18.104C230.494 19.3122 252.801 34.2038 274.383 48.597C286.466 56.6167 298.865 64.9234 311.34 70.6626C317.938 73.4281 324.822 75.4542 331.865 76.7038C345.911 79.7244 359.187 82.5789 364.639 99.3584C369.291 113.601 370.982 127.767 372.613 141.466C375.136 162.701 377.522 182.742 390.012 203.041C396.431 213.462 406.626 223.49 417.59 234.108C435.835 251.929 454.714 270.355 456.435 292.285C457.417 304.79 465.195 314.728 472.716 324.333C481.476 335.51 490.523 347.063 488.439 362.469C484.648 390.636 448.778 414.272 422.605 431.52C416.941 435.25 411.61 438.769 407.139 441.956C403.227 444.765 398.817 448.269 394.166 451.969C372.674 469.036 345.926 490.286 322.018 482.039C309.513 477.735 298.88 468.552 288.595 459.672C276.165 448.934 264.43 438.799 250.551 437.969C234.813 437.063 218.834 447.952 201.994 459.491C184.505 471.392 166.457 483.746 146.43 484.833C145.449 484.833 144.482 484.833 143.53 484.833ZM87.5132 287.467C89.541 287.393 91.5607 287.759 93.4336 288.539C117.508 299.595 110.047 347.184 104.157 385.41C101.906 399.864 99.9582 412.354 100.154 420.449C100.577 437.818 103.976 461.227 117.765 473.974C125.105 480.771 134.725 483.882 146.34 483.293C165.974 482.251 183.825 470.033 201.103 458.192C218.381 446.351 234.345 435.447 250.596 436.504C264.989 437.35 276.921 447.65 289.532 458.554C299.711 467.344 310.238 476.436 322.456 480.65C345.594 488.609 371.979 467.661 393.184 450.806C397.851 447.106 402.246 443.587 406.218 440.763C410.749 437.546 416.065 434.027 421.729 430.281C447.661 413.2 483.198 389.79 486.898 362.318C488.892 347.547 480.434 336.748 471.493 325.315C463.821 315.528 455.907 305.409 454.88 292.451C453.203 271.08 434.536 252.866 416.488 235.24C405.538 224.548 395.193 214.459 388.683 203.871C376.012 183.301 373.505 162.142 371.073 141.692C369.442 128.099 367.765 113.963 363.159 99.8719C357.964 83.9835 345.7 81.3404 331.443 78.2896C324.288 77.0076 317.298 74.9359 310.6 72.1125C298.035 66.328 285.529 57.976 273.432 49.9261C252.031 35.6386 229.89 20.8829 206.555 19.72C180.986 18.4362 166.683 55.046 156.277 81.7935C153.649 88.5446 151.157 94.9181 148.801 99.9172C136.719 125.441 122.024 154.469 100.472 175.855C91.9686 184.283 81.5626 189.962 71.4889 195.489C60.358 201.53 48.8343 207.859 40.286 217.812C21.8905 239.213 17.1632 270.974 18.8699 293.568C18.8804 294.749 19.1673 295.91 19.7076 296.959C20.2479 298.008 21.0266 298.916 21.9811 299.61C28.415 303.959 43.8654 299.066 58.8174 294.324C69.7218 290.774 80.1581 287.467 87.5132 287.467Z" fill="url(#paint1_linear_890_84352)"/>
<path d="M145.962 476.754C135.39 476.754 126.675 473.733 119.803 467.782C108.974 458.388 102.903 441.82 101.68 418.546C101.287 410.602 102.827 398.912 104.61 385.32C109.141 351.157 114.683 308.642 93.1313 298.085C85.8667 294.535 73.0594 298.085 60.6749 301.452C47.6711 305.032 35.3773 308.415 28.8376 304.126C27.5825 303.25 26.5355 302.108 25.7707 300.782C25.006 299.456 24.5423 297.978 24.4124 296.453C21.3918 275.49 28.3845 244.121 47.5654 224.699C56.295 215.864 67.1994 210.562 77.7715 205.427C88.3436 200.292 98.9158 195.172 107.645 186.579C128.533 165.963 141.34 137.328 152.048 109.463C153.559 105.49 155.25 100.506 157.017 95.2355C166.321 67.4911 180.367 25.5651 207.673 27.3472C229.164 28.7216 249.599 41.0457 269.354 52.8865C282.372 60.725 295.844 68.8353 309.634 73.9099C315.932 76.0618 322.461 77.4709 329.086 78.1086C341.003 79.6189 351.318 80.9933 358.386 96.2322C362.011 104.056 362.736 113.827 363.446 123.297C363.793 127.949 364.11 132.359 364.76 136.421C369.049 163.199 376.6 184.751 388.547 204.219C394.588 214.096 403.514 223.702 412.953 233.866C429.718 251.884 447.041 270.521 449.095 292.179C450.167 303.416 456.647 313.203 462.945 322.657C471.448 335.434 480.238 348.665 475.027 365.248C466.75 391.618 437.133 411.931 413.346 428.258C408.589 431.52 404.088 434.601 399.95 437.591C396.536 440.053 392.7 443.089 388.653 446.306C370.529 460.669 345.684 480.348 324.495 474.684C316.52 472.54 309.634 465.623 302.973 458.917C300.164 455.966 297.189 453.177 294.062 450.565C280.772 440.129 269.444 432.064 254.689 431.233C238.951 430.342 222.746 440.869 205.589 452.03C188.432 463.191 170.746 474.684 151.414 476.452C149.541 476.663 147.729 476.754 145.962 476.754ZM85.4439 295.079C88.3306 294.977 91.2024 295.535 93.8412 296.71C116.375 307.735 110.711 350.839 106.15 385.486C104.383 398.988 102.843 410.663 103.235 418.471C104.383 441.322 110.288 457.527 120.8 466.65C128.488 473.325 138.743 476.119 151.278 474.987C170.232 473.265 187.782 461.847 204.758 450.822C222.126 439.525 238.559 428.832 254.779 429.783C269.973 430.644 281.497 438.845 294.984 449.417C298.171 452.058 301.197 454.887 304.045 457.89C310.57 464.445 317.306 471.226 324.888 473.25C345.337 478.732 369.834 459.325 387.716 445.158C391.779 441.926 395.615 438.89 399.059 436.398C403.227 433.378 407.728 430.357 412.485 427.034C436.091 410.829 465.421 390.711 473.592 364.84C478.576 348.936 470.375 336.597 461.691 323.533C455.302 313.928 448.702 303.99 447.6 292.376C445.591 271.231 428.434 252.775 411.851 234.984C402.351 224.759 393.38 215.108 387.248 205.095C375.166 185.461 367.614 163.728 363.28 136.754C362.615 132.6 362.283 128.175 361.935 123.493C361.241 114.175 360.531 104.524 357.012 96.9572C350.291 82.4583 340.852 81.2349 328.89 79.6793C322.156 79.0303 315.521 77.5959 309.12 75.4052C295.195 70.2701 281.663 62.1296 268.568 54.2609C248.058 41.9368 228.696 30.2772 207.688 28.9029C181.545 27.166 167.725 68.4577 158.573 95.7641C156.791 101.05 155.129 106.049 153.589 110.052C142.805 138.068 129.922 166.884 108.823 187.696C99.9428 196.471 89.0686 201.742 78.6173 206.832C68.166 211.922 57.322 217.147 48.7736 225.816C29.9401 244.876 23.0985 275.656 26.1191 296.287C26.2154 297.592 26.5999 298.86 27.2449 299.999C27.89 301.137 28.7796 302.119 29.8495 302.872C35.8908 306.784 48.3659 303.355 60.4785 300.018C69.1326 297.556 78.1491 295.079 85.4439 295.079Z" fill="url(#paint2_linear_890_84352)"/>
<path d="M334.615 466.71C330.335 466.715 326.104 465.793 322.215 464.006C312.217 459.476 303.91 452.045 295.875 444.856C284.85 435.009 274.444 425.705 261.002 424.965C247.304 424.225 227.897 433.498 207.341 443.33C177.543 457.648 146.748 472.313 126.147 460.865C114.322 454.28 107.344 439.842 104.807 416.704C104.021 409.515 105.033 398.58 106.181 386.014C109.096 354.222 112.721 314.637 90.927 305.545C84.4327 302.842 74.1022 305.47 64.104 308.037C52.9127 310.907 42.3405 313.61 36.2238 309.472C34.8507 308.456 33.7161 307.153 32.8995 305.653C32.083 304.153 31.6041 302.492 31.4965 300.788C28.4759 278.133 37.7039 251.144 54.0001 235.21C63.0619 226.36 74.2684 221.452 85.1124 216.709C95.9563 211.967 107.087 207.089 116.059 198.299C138.456 176.339 148.998 144.335 158.347 116.108C159.344 113.087 160.461 109.372 161.624 105.445C169.402 79.4074 182.421 35.8351 209.501 37.6172C228.048 38.8557 245.371 48.0081 263.706 57.7194C277.888 65.2709 292.568 72.9886 307.822 76.6888C313.158 77.8429 318.598 78.4501 324.058 78.5012C335.657 78.9694 345.7 79.3772 352.361 93.9063C359.399 109.296 362.676 125.879 365.848 141.919C369.503 160.45 373.279 179.676 382.884 197.362C388.638 207.934 397.504 218.778 406.898 230.181C423.209 249.996 440.125 270.491 441.861 292.24C442.768 303.144 448.175 312.704 453.4 321.947C460.091 333.758 466.993 345.961 464.365 360.928C459.97 385.999 428.254 408.171 405.086 424.361C400.675 427.457 396.507 430.402 392.928 433.03C389.348 435.658 385.89 438.528 382.068 441.654C368.098 453.117 351.47 466.71 334.615 466.71ZM259.417 423.394C259.991 423.394 260.534 423.394 261.093 423.394C275.048 424.15 285.651 433.634 296.872 443.663C304.831 450.761 313.048 458.116 322.834 462.557C342.906 471.618 363.175 455.081 381.042 440.446C384.878 437.304 388.502 434.404 391.961 431.761C395.42 429.118 399.739 426.173 404.164 423.077C427.106 407.038 458.535 385.078 462.824 360.611C465.362 346.188 458.883 334.755 452.026 322.642C446.725 313.263 441.227 303.552 440.306 292.315C438.554 271.08 421.835 250.736 405.675 231.102C396.235 219.654 387.324 208.825 381.51 198.057C371.798 180.099 367.992 160.828 364.307 142.176C361.166 126.227 357.919 109.734 350.941 94.5104C344.598 80.8421 335.536 80.4797 323.922 80.0719C318.371 80.0032 312.841 79.3809 307.414 78.2142C291.964 74.4687 277.208 66.6604 262.936 59.1089C244.812 49.4882 227.564 40.3962 209.335 39.1879C183.448 37.5115 170.656 80.3438 163.014 105.943C161.836 109.87 160.733 113.586 159.721 116.651C150.373 145.045 139.77 177.215 117.116 199.446C107.948 208.418 96.6511 213.371 85.7165 218.144C74.7819 222.917 63.9077 227.704 55.0573 236.358C39.0783 251.914 30.0013 278.36 32.9917 300.576C33.475 304.186 34.8041 306.693 37.0696 308.203C42.6275 311.964 53.3506 309.215 63.7415 306.557C74.1324 303.899 84.5384 301.226 91.516 304.141C114.322 313.671 110.652 353.845 107.691 386.135C106.544 398.671 105.547 409.484 106.317 416.522C108.779 439.177 115.515 453.208 126.887 459.536C146.763 470.607 177.241 456.032 206.692 441.926C226.613 432.411 245.477 423.394 259.417 423.394Z" fill="url(#paint3_linear_890_84352)"/>
<path d="M335.203 458.887C332.017 458.897 328.864 458.244 325.945 456.968C320.009 454.371 314.587 448.058 309.332 441.956C306.624 438.595 303.649 435.458 300.436 432.577C290.136 424.225 279.292 419.498 269.052 418.879C256.048 418.093 236.55 426.974 215.919 436.368C185.532 450.217 151.082 465.909 128.926 454.069C117.523 448.027 110.409 435.462 107.208 415.828C106.06 408.76 106.588 398.384 107.208 386.377C108.718 358.708 110.424 324.288 91.0171 315.544C85.3836 313.006 76.5786 314.637 68.0604 316.223C58.0169 318.096 48.5322 319.848 42.929 315.634C40.301 313.671 38.8209 310.62 38.398 306.316C36.1477 283.661 45.5569 259.36 62.3666 244.393C71.4284 236.373 82.2573 232.054 92.7388 227.87C103.794 223.46 115.197 218.914 124.289 210.034C145.026 189.765 153.272 161.07 161.231 133.325C161.85 131.15 162.485 128.991 163.104 126.846C163.889 124.127 164.765 120.805 165.687 117.361C172.664 91.0669 184.294 47.0566 211.509 48.6878C227.534 49.6393 242.969 56.3903 259.31 63.5341C272.556 69.3185 286.254 75.3144 300.224 77.882C306.076 78.7799 312.013 78.9726 317.91 78.4559C329.086 77.8669 338.752 77.3533 346.606 90.8555C355.426 106.094 359.428 124.762 363.31 142.795C366.753 158.864 370.303 175.478 377.25 189.811C382.899 201.5 391.598 213.387 400.796 225.982C416.442 247.383 432.633 269.509 434.521 292.209C435.352 302.162 439.52 311.39 443.583 320.316C449.699 333.909 456.028 347.834 450.288 364.115C442.148 387.253 416.065 406.298 395.102 421.612C391.583 424.18 388.275 426.596 385.194 428.922C382.37 431.067 379.274 433.664 375.997 436.474C363.869 446.668 349.355 458.887 335.203 458.887ZM267.436 417.323C268.03 417.323 268.604 417.323 269.158 417.323C279.73 417.957 290.845 422.805 301.403 431.354C304.679 434.293 307.71 437.496 310.464 440.929C315.599 446.97 320.901 453.012 326.534 455.534C342.573 462.557 360.531 447.438 374.954 435.28C378.247 432.502 381.358 429.874 384.228 427.729C387.097 425.584 390.631 422.971 394.15 420.404C414.947 405.225 440.819 386.332 448.808 363.632C454.336 347.909 448.416 334.815 442.148 320.95C438.055 311.889 433.826 302.555 432.98 292.33C431.123 270.068 415.068 248.108 399.557 226.874C390.314 214.217 381.57 202.271 375.861 190.475C368.838 175.961 365.288 159.272 361.8 143.112C357.948 125.185 353.976 106.653 345.186 91.6257C337.831 78.909 329.041 79.3772 317.91 79.9662C311.897 80.4939 305.842 80.291 299.877 79.3621C285.726 76.7643 271.952 70.7382 258.631 64.9235C242.41 57.8251 227.096 51.1345 211.343 50.1981C185.396 48.6878 173.918 91.9127 167.076 117.754C166.14 121.243 165.279 124.535 164.478 127.269C163.859 129.414 163.24 131.573 162.606 133.748C154.586 161.674 146.294 190.566 125.271 211.106C115.967 220.168 104.413 224.82 93.2221 229.23C82.8614 233.353 72.0778 237.627 63.303 245.48C46.8406 260.1 37.6278 283.903 39.8177 306.089C40.2104 309.955 41.4942 312.659 43.7596 314.35C48.8342 318.171 58.4398 316.389 67.7131 314.668C76.4577 313.036 85.5045 311.36 91.5608 314.094C111.92 323.261 110.092 358.255 108.642 386.377C108.023 398.293 107.479 408.593 108.642 415.511C111.769 434.646 118.61 446.804 129.575 452.664C151.082 464.158 185.169 448.616 215.24 434.918C235.236 425.932 254.115 417.323 267.436 417.323Z" fill="url(#paint4_linear_890_84352)"/>
<path d="M151.279 452.392C144.068 452.583 136.918 451.029 130.437 447.861C119.865 442.333 112.676 431.459 109.293 415.541C107.782 408.759 107.888 398.55 107.933 387.736C108.039 364.659 108.16 335.933 93.4797 326.931C88.4353 323.835 80.2796 324.56 72.3354 325.24C63.6361 326.01 54.6347 326.75 49.5147 322.43C46.9774 320.21 45.5577 317.19 45.301 312.81C44.603 301.261 46.7432 289.717 51.5347 279.187C56.3262 268.656 63.6233 259.458 72.7885 252.398C81.3973 245.767 91.3955 242.052 101.061 238.457C112.072 234.365 123.444 230.136 132.476 221.618C145.706 209.127 153.62 179.495 162.063 148.126C173.768 104.418 185.91 59.2749 213.987 60.5285C227.58 61.1175 241.006 65.739 255.279 70.6324C268.615 75.1633 282.464 79.9359 296.193 81.0233C301.855 81.3614 307.537 81.037 313.123 80.0567C323.333 78.5464 331.398 77.4288 341.019 88.7561C347.317 96.1565 350.08 110.55 352.27 122.104C353.161 126.801 354.007 131.241 354.974 134.624C360.905 155.95 368.803 176.68 378.565 196.546C383.488 206.469 389.968 216.709 396.824 227.568C410.266 248.863 424.176 270.884 427.227 292.224C428.193 299.066 430.761 306.497 433.464 314.365C438.267 328.29 443.236 342.714 440.14 356.05C434.204 381.725 407.653 401.842 386.328 418.048C383.307 420.359 380.287 422.579 377.613 424.723C374.94 426.868 371.919 429.466 368.884 432.169C356.801 442.892 343.058 455.05 328.106 449.115L327.924 449.039L327.803 448.903C321.762 441.926 315.721 434.968 309.68 428.031C300.98 418.365 289.306 412.747 278.522 413.049C266.183 413.366 247.38 421.325 227.459 429.753C202.01 440.521 173.934 452.392 151.279 452.392ZM82.4092 323.125C86.9401 323.125 91.0481 323.699 94.2046 325.632C109.625 335.072 109.489 364.266 109.383 387.721C109.383 398.459 109.293 408.593 110.712 415.208C114.08 430.885 120.741 441.125 131.101 446.502C154.828 458.841 193.13 442.636 226.93 428.378C246.987 419.89 265.926 411.886 278.537 411.553V412.309V411.553C289.804 411.267 301.872 417.051 310.873 427.034C316.914 433.951 322.91 440.869 328.861 447.786C342.861 453.223 356.152 441.442 367.887 431.052C370.908 428.333 373.838 425.765 376.677 423.5C379.516 421.235 382.356 419.12 385.376 416.87C406.521 400.83 432.83 380.849 438.645 355.748C441.665 342.82 436.742 328.562 432.015 314.879C429.281 306.95 426.698 299.459 425.701 292.466C422.681 271.458 408.877 249.573 395.495 228.399C388.623 217.525 382.129 207.255 377.16 197.241C367.352 177.283 359.419 156.457 353.464 135.032C352.482 131.588 351.636 127.118 350.73 122.391C348.57 111.003 345.867 96.8362 339.826 89.7378C330.764 79.0448 323.424 80.102 313.289 81.5519C307.593 82.5475 301.8 82.8769 296.027 82.5336C282.041 81.4311 268.162 76.6736 254.735 72.0672C240.583 67.204 227.202 62.6127 213.881 62.0388H212.854C186.666 62.0388 174.885 106.049 163.467 148.625C155.01 180.205 147.005 210.049 133.473 222.811C124.214 231.555 112.691 235.83 101.545 239.968C91.9845 243.532 82.092 247.202 73.6645 253.696C64.724 260.594 57.6041 269.571 52.9241 279.847C48.244 290.123 46.1456 301.387 46.8113 312.659C47.0831 316.57 48.3216 319.364 50.4813 321.237C55.118 325.194 63.8022 324.439 72.1995 323.699C75.6279 323.427 79.1167 323.125 82.4092 323.125Z" fill="url(#paint5_linear_890_84352)"/>
<path d="M156.489 445.354C148.972 445.523 141.506 444.086 134.589 441.14C124.108 436.413 116.466 427.472 111.769 414.559C109.11 407.204 108.748 396.798 108.219 385.773C107.434 366.984 106.558 345.674 93.6298 337.443C89.2197 334.619 82.4687 334.664 75.9593 334.694C64.5565 334.77 52.7761 334.83 52.1267 320.029C50.3596 279.1 75.6119 267.35 102.344 254.814C115.62 248.607 129.364 242.188 140.102 231.873C153.332 219.111 160.219 189.901 167.514 158.97C177.557 116.349 187.994 72.2485 216.735 72.6865C228.122 72.8526 239.601 75.6165 251.774 78.5313C265.91 81.9295 280.47 85.4485 294.833 84.4366C299.678 83.9957 304.463 83.0388 309.105 81.5822C318.575 78.924 326.066 76.8247 335.641 88.001C341.682 95.039 344.401 105.989 346.802 115.655C347.618 118.962 348.403 122.089 349.264 124.958C357.284 151.298 364.533 171.143 372.749 189.312C377.582 199.99 383.835 210.864 390.45 222.373C403.575 245.224 417.137 268.83 419.931 292.209C420.91 299.046 422.312 305.815 424.13 312.478C427.996 328.064 432.014 344.194 426.577 359.418C418.829 381.136 398.258 397.629 380.104 412.188C376.706 414.906 373.489 417.474 370.408 420.057C368.294 421.809 365.877 424.134 363.4 426.596C354.233 435.552 342.83 446.713 332.303 442.213H332.107L331.971 442.016C327.44 435.401 322.819 428.786 318.076 422.382C310.434 412.626 299.847 407.174 289.033 407.446C276.09 407.793 256.682 415.45 236.172 423.56C209.667 433.861 180.533 445.354 156.489 445.354ZM78.2096 333.139C84.2508 333.139 90.1863 333.41 94.4303 336.159C108.023 344.858 108.929 366.577 109.73 385.742C110.183 396.647 110.606 406.887 113.188 414.076C117.719 426.762 124.969 435.22 135.209 439.751C161.035 451.41 200.635 435.794 235.583 422.005C256.244 413.834 275.773 406.132 288.988 405.784C300.3 405.482 311.34 411.161 319.194 421.325C323.921 427.744 328.573 434.329 333.028 440.959C342.588 444.81 353.493 434.148 362.268 425.554C364.805 423.077 367.206 420.736 369.366 418.939C372.462 416.356 375.679 413.774 379.077 411.055C397.08 396.617 417.469 380.275 425.081 358.95C430.352 344.149 426.41 328.26 422.589 312.885C420.764 306.161 419.352 299.332 418.36 292.436C415.597 269.373 402.11 245.888 389.061 223.173C382.43 211.635 376.163 200.73 371.299 189.947C363.053 171.717 355.789 151.811 347.754 125.411C346.863 122.496 346.077 119.37 345.262 116.032C342.891 106.532 340.217 95.7639 334.418 88.9978C325.477 78.5465 318.741 80.4494 309.437 83.0623C304.686 84.5445 299.79 85.5166 294.833 85.962C280.288 86.9739 265.563 83.4398 251.306 80.0114C239.223 77.1117 227.82 74.378 216.569 74.2119H216.191C188.9 74.2119 178.705 117.482 168.843 159.333C161.503 190.49 154.571 219.911 141.008 232.975C130.134 243.457 116.269 249.936 102.873 256.204C76.6087 268.467 51.8095 280.066 53.5312 319.923C54.1052 333.29 64.6773 333.229 75.8535 333.154L78.2096 333.139Z" fill="url(#paint6_linear_890_84352)"/>
<path d="M160.945 438.346C141.16 438.346 124.411 431.776 114.7 412.988C110.939 405.709 109.897 396.088 108.809 385.893C107.178 370.79 105.502 355.113 94.2502 347.668C90.2932 345.04 84.7201 344.421 79.3435 343.831C69.3452 342.729 59.0299 341.596 58.9392 327.581C58.6976 289.687 83.7233 277.438 110.29 264.48C123.414 258.061 136.992 251.416 147.337 241.357C160.084 228.943 166.095 200.579 172.469 170.524C181.334 128.673 190.593 85.3881 219.651 85.2069C228.754 85.3785 237.835 86.1504 246.836 87.5176C260.686 89.2847 275.003 91.1122 288.566 88.8014C293.408 87.8851 298.155 86.5251 302.748 84.7387C312.051 81.4009 319.361 78.6975 330.492 87.3515C337.847 93.0605 341.064 106.155 343.798 116.667C344.749 120.472 345.655 124.082 346.652 126.922L348.933 133.522C354.491 149.591 360.245 166.22 366.951 182.184C371.618 193.299 377.523 204.581 383.851 216.528C396.885 241.282 410.357 266.881 412.728 292.224C413.272 298.024 414.238 303.975 415.19 309.729C418.059 327.384 421.035 345.629 412.607 363.073C403.923 381.015 386.086 396.299 370.319 409.741C367.857 411.856 365.44 413.91 363.145 415.918C363.009 416.039 362.601 416.477 361.967 417.127C348.374 431.55 340.082 437.259 336.08 435.145L335.854 435.009L335.748 434.767C333.085 428.511 330.034 422.427 326.611 416.553C320.418 406.826 310.752 401.45 300.165 401.706C286.799 402.084 266.712 409.379 245.447 417.096C218.035 427.034 186.877 438.346 160.945 438.346ZM220.179 86.7172H219.575C191.665 86.8833 182.618 129.565 173.873 170.841C167.455 201.047 161.398 229.743 148.304 242.43C137.732 252.669 124.139 259.36 110.879 265.839C84.8259 278.586 60.2079 290.623 60.4495 327.565C60.4495 340.252 69.315 341.158 79.4945 342.336C85.0675 342.94 90.8218 343.575 95.0808 346.399C106.922 354.237 108.674 370.247 110.305 385.667C111.392 395.726 112.404 405.21 116.044 412.233C125.423 430.357 141.719 436.745 161.036 436.745C186.711 436.745 217.672 425.494 244.873 415.601C266.244 407.838 286.452 400.498 300.074 400.121C311.205 399.834 321.34 405.482 327.849 415.692C331.237 421.542 334.263 427.595 336.911 433.815C339.282 434.737 345.384 432.305 360.774 415.994C361.453 415.284 361.891 414.816 362.042 414.695C364.353 412.671 366.754 410.617 369.231 408.503C384.863 395.137 402.564 379.988 411.112 362.333C419.343 345.312 416.398 327.294 413.559 309.88C412.622 304.095 411.641 298.115 411.097 292.285C408.756 267.229 395.345 241.765 382.401 217.147C376.088 205.17 370.138 193.858 365.44 182.682C358.704 166.673 352.95 150.029 347.392 133.929L345.097 127.314C344.1 124.414 343.179 120.79 342.212 116.953C339.614 106.653 336.382 93.8307 329.45 88.454C319.014 80.3739 312.353 82.7602 303.14 86.0678C298.465 87.884 293.631 89.2643 288.702 90.1909C274.898 92.547 260.474 90.7044 246.534 88.9222C237.804 87.6345 229.002 86.898 220.179 86.7172Z" fill="url(#paint7_linear_890_84352)"/>
<path d="M166.382 431.399C147.05 431.399 130.135 425.841 118.37 410.406C113.114 403.534 111.256 394.683 109.444 386.135C107.073 374.808 104.807 364.115 95.4583 357.439C91.8185 354.826 87.2121 353.784 82.7416 352.757C74.2537 350.779 65.4184 348.785 65.7204 335.313C66.536 300.199 92.7398 286.349 118.083 272.953C130.815 266.232 143.969 259.285 153.907 249.709C166.337 237.733 171.593 210.441 177.166 181.398C184.974 140.756 193.054 98.7392 222.475 97.8028C228.38 97.6064 234.361 97.8028 240.704 97.9236C254.886 98.271 269.566 98.6335 282.993 94.903C287.601 93.5126 292.066 91.687 296.329 89.4508C305.829 84.8293 314.045 80.827 325.206 89.6471C340.113 101.428 349.205 133.114 356.53 158.577C359.656 169.467 362.571 179.722 365.591 186.865C369.367 196.003 373.913 205.367 378.746 215.289C390.965 240.466 403.621 266.504 405.343 292.179C405.509 294.731 405.69 297.223 405.871 299.655C407.971 329.046 409.511 350.296 390.768 376.197C380.876 389.79 367.751 401.872 355.08 413.502C350.035 418.108 344.84 422.881 339.977 427.593L338.799 428.741L338.693 427.095C337.726 411.523 329.178 396.043 312.293 396.043H311.402C296.435 396.511 275.351 403.594 253.028 411.146C224.121 420.917 192.918 431.399 166.382 431.399ZM228.456 99.2678C226.477 99.2678 224.529 99.2678 222.581 99.3584C194.338 100.249 186.333 141.647 178.676 181.715C173.058 210.94 167.757 238.533 154.979 250.842C144.891 260.553 131.645 267.561 118.823 274.342C92.7096 288.131 68.0463 301.165 67.2609 335.389C66.9891 347.577 74.45 349.284 83.0738 351.247C87.6954 352.289 92.4528 353.377 96.3343 356.171C106.166 363.239 108.583 374.717 110.924 385.818C112.691 394.215 114.518 402.884 119.563 409.484C146.899 445.279 203.068 426.4 252.621 409.756C275.064 402.205 296.253 395.106 311.432 394.653C324.451 394.2 338.179 403.715 340.128 425.494C344.659 421.129 349.416 416.749 354.053 412.49C366.679 400.906 379.728 388.944 389.545 375.412C407.986 349.948 406.475 328.955 404.391 299.897C404.21 297.45 404.029 294.958 403.863 292.345C402.156 266.972 389.575 240.995 377.417 216.029C372.584 206.077 368.023 196.698 364.217 187.515C361.196 180.326 358.282 169.995 355.155 159.061C347.891 133.824 338.859 102.394 324.345 90.9158C313.924 82.6695 306.493 86.2943 297.069 90.9158C292.722 93.1889 288.171 95.0497 283.476 96.4737C269.883 100.234 255.037 99.8568 240.735 99.4943C236.475 99.3735 232.413 99.2678 228.426 99.2678H228.456Z" fill="url(#paint8_linear_890_84352)"/>
<path d="M172.755 423.757C153.665 423.757 136.402 419.09 122.915 406.298C117.236 400.891 114.14 393.868 111.15 387.072C107.646 379.127 104.338 371.621 97.255 366.35C94.0052 364.142 90.4411 362.436 86.6829 361.291C79.1314 358.602 71.9272 356.05 72.5162 343.046C74.0265 310.65 99.4601 295.668 124.138 281.124C136.855 273.663 149.995 265.93 159.54 255.947C170.475 244.484 175.428 219.247 180.684 192.514C188.477 152.854 196.542 111.849 225.404 110.354H225.676C244.117 109.387 265.035 108.3 282.554 100.537C286.135 98.8779 289.592 96.965 292.9 94.8125C301.554 89.466 308.396 85.2523 320.085 92.8189C336.034 103.134 344.749 133.34 351.802 157.611C354.384 166.552 356.831 174.995 359.278 181.142C362.872 190.203 367.101 199.462 371.587 209.294C384.062 236.615 396.96 264.888 398.078 292.209L398.229 295.562C399.376 322.914 400.373 346.535 383.609 370.866C378.338 378.538 371.526 385.214 364.987 391.678C356.423 400.136 347.558 408.865 342.332 419.634L340.958 418.984C342.513 415.811 343.22 412.289 343.011 408.761C342.802 405.233 341.684 401.82 339.765 398.852C337.898 396.075 335.331 393.838 332.324 392.369C329.317 390.9 325.976 390.25 322.638 390.485C305.632 391.104 283.521 397.931 260.111 405.165C231.325 414.136 200.152 423.757 172.755 423.757ZM308.26 90.2967C303.215 90.2967 298.896 92.9548 293.715 96.1567C290.33 98.3361 286.797 100.279 283.143 101.971C265.382 109.855 244.313 110.958 225.752 111.924H225.48C197.796 113.435 189.852 153.775 182.164 192.861C176.863 219.805 171.864 245.254 160.627 257.034C150.961 267.199 137.686 274.901 124.909 282.453C100.593 296.74 75.4462 311.511 74.0416 343.092C73.4979 354.963 79.5542 357.122 87.1964 359.841C91.1087 361.027 94.8165 362.805 98.1914 365.112C105.592 370.624 109.126 378.704 112.554 386.422C115.575 393.083 118.596 400.015 123.987 405.165C156.112 435.749 211.132 418.758 259.688 403.76C283.189 396.496 305.39 389.639 322.608 389.005C326.205 388.775 329.799 389.491 333.034 391.081C336.269 392.67 339.032 395.079 341.048 398.067C343.958 402.483 345.126 407.821 344.326 413.049C349.642 404.712 356.876 397.583 363.96 390.651C370.424 384.247 377.16 377.602 382.355 370.05C398.833 346.112 397.836 322.733 396.703 295.653L396.552 292.3C395.45 265.296 382.612 237.144 370.273 209.958C365.742 200.111 361.543 190.823 357.934 181.746C355.457 175.523 353.01 167.05 350.382 158.064C343.45 134.05 334.811 104.146 319.345 94.1329C316.106 91.795 312.251 90.461 308.26 90.2967Z" fill="url(#paint9_linear_890_84352)"/>
<path d="M180.474 414.453C162.486 414.453 145.193 410.98 129.123 401.631C122.539 397.78 117.766 392.343 113.144 387.072C109.267 382.268 104.802 377.971 99.8538 374.279C97.3938 372.656 94.8196 371.212 92.1512 369.96C84.7658 366.29 78.3923 363.118 79.2683 350.401C81.3223 321.102 105.638 304.654 129.108 288.766C141.795 280.187 154.92 271.322 163.845 260.659C172.771 249.996 177.997 227.297 183.343 203.403C191.952 164.876 200.863 125.049 228.033 122.768C247.139 121.167 263.828 116.531 277.632 108.994C281.137 107.014 284.507 104.804 287.721 102.379C296.556 95.9906 302.929 91.3842 315.389 99.9778C332.833 112.06 342.439 142.659 350.126 167.292C352.588 175.176 354.914 182.607 357.21 188.436C360.23 195.988 363.478 203.539 366.981 211.559C378.52 238.02 390.467 265.386 390.587 292.315C390.693 318.942 389.651 341.219 375.484 365.036C373.008 369.205 368.008 374.34 362.707 379.777C358.216 384.231 353.951 388.909 349.93 393.793L350.021 394.049C352.075 400.725 349.266 407.642 342.847 411.674L341.941 412.233L341.699 411.221C340.415 405.86 343.481 399.743 348.239 393.536C346.426 389.005 341.623 384.565 333.135 384.897C311.87 385.697 288.536 392.116 263.843 398.912C236.068 406.6 207.493 414.453 180.474 414.453ZM303.201 96.8062C298.157 96.8062 294.003 99.8268 288.763 103.603C285.49 106.057 282.065 108.302 278.508 110.323C264.507 117.966 247.622 122.663 228.32 124.279C202.252 126.453 193.462 165.736 184.975 203.736C179.583 227.81 174.493 250.555 165.159 261.641C156.098 272.455 142.837 281.381 130.06 290.019C106.846 305.712 82.8477 321.947 80.8541 350.507C80.0386 362.212 85.3851 364.9 92.9366 368.631C95.6694 369.911 98.3045 371.39 100.82 373.056C105.886 376.812 110.454 381.197 114.413 386.105C118.944 391.27 123.626 396.677 130.015 400.347C169.464 423.379 217.371 410.21 263.707 397.447C288.491 390.636 311.916 384.187 333.362 383.386C342.137 383.054 347.317 387.434 349.552 392.192C353.207 387.661 357.663 383.13 361.892 378.72C367.117 373.358 372.056 368.283 374.442 364.266C388.428 340.72 389.424 319.591 389.319 292.315C389.198 265.704 377.327 238.488 365.834 212.163C362.33 204.128 359.007 196.532 356.047 188.995C353.736 183.12 351.395 175.659 348.918 167.76C341.276 143.354 331.746 112.966 314.725 101.231C310.118 98.0748 306.479 96.8062 303.201 96.8062ZM349.009 395.273C345.188 400.423 342.696 405.407 343.194 409.756C345.518 408.217 347.318 406.007 348.357 403.42C349.395 400.833 349.623 397.992 349.009 395.273Z" fill="url(#paint10_linear_890_84352)"/>
<path d="M181.923 403.398C166.752 403.496 151.642 401.463 137.037 397.357C125.769 394.096 114.968 389.401 104.897 383.386C91.4555 374.989 85.1727 366.154 86.2148 357.092C89.4619 328.804 111.784 312.055 133.366 295.834C145.842 286.47 158.755 276.774 167.771 264.979C175.489 254.905 180.624 234.667 186.061 213.236C195.123 177.592 205.333 137.192 230.736 134.7C246.277 133.189 261.652 126.982 277.767 115.866C280.651 113.873 283.113 111.849 285.318 110.067C293.398 103.406 298.745 98.9961 311.492 108.073C327.924 119.763 337.348 147.054 344.93 168.984C346.878 174.632 348.721 179.964 350.503 184.494C353.116 191.14 355.985 197.906 359.021 205.08C370.711 232.703 383.956 263.982 383.518 292.315C383.186 313.112 381.827 337.111 369.85 358.768C366.971 363.37 363.729 367.734 360.154 371.818C357.904 374.566 355.623 377.406 353.388 380.29C354.546 381.136 355.5 382.23 356.182 383.492C357.104 385.698 357.441 388.104 357.161 390.478C356.88 392.852 355.991 395.113 354.579 397.042C353.168 398.972 351.282 400.504 349.105 401.49C346.927 402.477 344.532 402.884 342.151 402.673L341.471 402.582V401.918C341.638 395.137 345.912 387.797 351.183 380.683C348.698 379.504 345.952 378.984 343.208 379.173C317.397 379.762 291.133 385.592 265.745 391.255C238.348 397.236 210.332 403.398 181.923 403.398ZM298.987 104.433C294.456 104.433 291.012 107.303 286.255 111.23C284.05 113.027 281.558 115.081 278.628 117.105C262.301 128.387 246.685 134.624 230.887 136.21C206.541 138.642 196.437 178.499 187.511 213.643C182.044 235.226 176.939 255.615 168.964 265.945C159.827 277.907 146.838 287.663 134.227 297.088C112.947 313.112 90.8665 329.68 87.71 357.319C85.5653 376.016 119.306 390.772 137.459 395.952C180.926 408.367 223.864 398.852 265.412 389.654C290.861 384.006 317.201 378.176 343.163 377.572C346.243 377.395 349.316 378.03 352.074 379.414C354.309 376.469 356.605 373.585 358.946 370.806C362.457 366.784 365.654 362.497 368.506 357.983C380.316 336.688 381.646 312.901 381.978 292.285C382.416 264.299 369.231 233.156 357.601 205.669C354.581 198.495 351.681 191.699 349.068 185.053C347.271 180.522 345.428 175.146 343.465 169.482C335.913 147.749 326.625 120.714 310.586 109.296C305.722 105.838 302.113 104.433 298.987 104.433ZM342.997 401.193C345.056 401.313 347.111 400.885 348.952 399.954C350.793 399.023 352.354 397.622 353.478 395.892C354.742 394.24 355.534 392.276 355.771 390.21C356.007 388.144 355.68 386.052 354.822 384.157C354.243 383.082 353.433 382.149 352.451 381.423C347.482 388.174 343.42 394.97 342.997 401.193Z" fill="url(#paint11_linear_890_84352)"/>
<path d="M163.649 394.396C134.138 394.396 109.867 390.696 99.0534 380.26C96.7381 378.09 94.9883 375.387 93.9564 372.386C92.9246 369.385 92.6419 366.178 93.133 363.042C96.3953 336.552 117.464 318.745 137.838 301.528C149.92 291.303 162.456 280.731 170.914 268.513C177.333 259.239 182.422 241.508 187.799 222.735C197.722 187.998 208.943 148.73 232.972 146.042C246.142 144.532 259.191 138.339 274.052 126.514C276.68 124.429 278.916 122.391 280.894 120.593C289.458 112.815 294.185 108.511 308.155 118.781C325.297 131.332 335.144 158.744 343.058 180.779C344.78 185.582 346.411 190.128 348.012 194.175C349.356 197.619 350.731 201.077 352.12 204.581C363.81 233.957 375.877 264.329 376.194 292.285C376.421 312.402 372.328 331.175 363.311 351.413C360.723 356.862 357.761 362.126 354.446 367.166C353.51 368.676 352.588 370.186 351.697 371.576H351.773C359.324 371.697 362.058 374.445 362.949 376.711C364.248 380.049 362.526 384.64 358.554 388.431C354.582 392.222 347.846 395.529 341.533 392.735L340.974 392.478L341.11 391.874C342.71 385.271 345.361 378.968 348.964 373.207C342.681 373.705 330.281 375.669 314.06 378.221C273.614 384.61 211.692 394.396 163.649 394.396ZM294.562 114.25C290.137 114.25 286.784 117.271 281.906 121.711C279.912 123.523 277.647 125.577 275.004 127.752C259.901 139.835 246.595 146.087 233.138 147.613C210.151 150.21 199.051 188.995 189.249 223.128C183.842 242.037 178.677 259.889 172.152 269.373C163.574 281.743 151.008 292.375 138.805 302.6C118.657 319.621 97.815 337.231 94.6282 363.148C94.1646 366.053 94.4206 369.028 95.3738 371.811C96.327 374.594 97.9483 377.101 100.096 379.112C127.961 406.041 248.876 386.936 313.834 376.665C330.976 373.962 343.874 371.923 349.9 371.576C350.972 369.794 352.075 368.042 353.162 366.305C356.443 361.326 359.37 356.123 361.922 350.734C370.848 330.707 374.911 312.13 374.684 292.255C374.367 264.571 362.345 234.334 350.715 205.08L346.592 194.674C345.007 190.596 343.375 186.05 341.639 181.232C333.8 159.393 324.028 132.208 307.264 119.929C301.721 115.942 297.779 114.25 294.562 114.25ZM342.726 391.587C348.178 393.641 354.053 390.636 357.512 387.343C360.97 384.051 362.617 380.018 361.529 377.27C360.442 374.521 357.119 373.177 351.743 373.086H350.776C347.13 378.788 344.413 385.033 342.726 391.587Z" fill="url(#paint12_linear_890_84352)"/>
<path d="M127.885 390.138C118.445 390.138 109.399 388.718 104.248 383.432C100.669 379.762 99.2796 374.521 100.11 367.845C103.131 342.82 123.157 323.473 142.399 304.76C153.696 293.81 165.371 282.483 173.073 270.385C178.586 261.747 183.298 246.628 188.282 230.634C198.627 197.408 210.362 159.861 234.724 156.629C246.504 155.119 255.943 147.25 265.081 139.684C277.662 129.278 289.533 119.461 304.983 129.504C320.872 139.835 331.232 167.639 338.784 187.953C340.173 191.699 341.502 195.233 342.711 198.253C353.736 225.877 367.449 260.251 368.854 292.27C369.428 305.379 366.755 320.845 360.91 338.243C356.681 346.993 352.452 355.693 348.223 364.342C351.768 364.399 355.303 364.738 358.795 365.353C361.244 365.996 363.607 366.929 365.833 368.132C367.042 368.706 368.265 369.31 369.413 369.779L370.062 370.066L369.836 370.73C366.815 379.429 356.968 386.724 349.431 385.743C346.683 385.38 342.001 383.507 341.427 374.989V374.793L341.578 374.581C343.008 371.651 344.437 368.721 345.867 365.791C330.099 365.958 311.372 370.171 291.738 374.581C276.801 377.934 261.335 381.408 247.244 382.903C220.889 385.712 193.976 386.77 167.953 387.781C163.694 387.932 159.44 388.099 155.191 388.28C152.608 388.386 149.391 388.688 146.008 389.02C140.42 389.533 134.062 390.138 127.885 390.138ZM292.13 126.801C283.069 126.801 275.004 133.476 266.093 140.862C256.789 148.549 247.184 156.493 234.965 158.124C211.571 161.236 199.987 198.344 189.777 231.087C184.748 247.187 180.02 262.381 174.402 271.201C166.594 283.434 154.844 294.837 143.486 305.847C124.396 324.379 104.641 343.53 101.605 368.027C100.85 374.219 102.089 379.052 105.321 382.375C113.341 390.606 132.114 388.808 145.812 387.494C149.225 387.162 152.457 386.86 155.085 386.754C159.329 386.573 163.588 386.422 167.847 386.256C193.84 385.244 220.708 384.187 247.048 381.393C261.048 379.883 276.453 376.439 291.36 373.101C311.326 368.57 330.432 364.326 346.486 364.326H346.592C350.932 355.446 355.256 346.56 359.566 337.67C365.32 320.543 367.963 305.258 367.389 292.36C365.999 260.644 352.286 226.36 341.351 198.842C340.128 195.822 338.814 192.257 337.409 188.512C329.933 168.395 319.678 140.862 304.183 130.803C300.648 128.309 296.455 126.916 292.13 126.801ZM343.088 375.11C343.496 380.577 345.807 383.734 349.764 384.262C356.333 385.108 365.335 378.584 368.31 370.911C367.328 370.473 366.301 369.99 365.29 369.507C363.179 368.368 360.944 367.476 358.629 366.849C354.98 366.198 351.281 365.865 347.574 365.852C346.053 368.933 344.558 372.019 343.088 375.11Z" fill="url(#paint13_linear_890_84352)"/>
<path d="M124.999 389.835C119.396 389.835 114.427 388.778 111.21 385.863C107.993 382.948 106.377 377.874 107.177 371.259C110.092 347.411 129.031 326.221 147.351 305.711C157.924 293.78 168.058 282.528 174.99 270.974C179.521 263.423 183.81 250.948 188.386 237.748C198.959 207.149 212.144 169.074 236.082 166.325C247.062 165.072 255.716 157.264 264.249 149.712C275.909 139.291 286.904 129.444 301.931 139.291C314.27 147.371 325.356 174.738 331.986 191.094C332.938 193.451 333.783 195.535 334.508 197.256C346.848 226.451 360.184 260.297 361.618 292.406C362.434 310.242 356.74 328.653 351.817 340.992L351.711 341.158C347.914 346.186 345.11 351.891 343.449 357.968C350.26 357.388 357.117 357.723 363.839 358.965C366.12 359.652 368.303 360.632 370.333 361.88C371.435 362.484 372.583 363.103 373.625 363.617L374.471 364.009L373.897 364.749C367.524 373.116 357.797 377.859 350.231 376.318C346.787 375.608 342.317 373.298 340.535 366.184V366.063V365.942C340.73 363.83 341.058 361.731 341.516 359.66C327.923 360.747 312.639 363.904 297.612 367C283.581 369.884 269.097 372.875 256.018 374.219C243.558 375.518 230.841 376.545 218.547 377.526C200.801 378.961 182.451 380.441 164.509 382.752C161.488 383.13 157.425 384.142 152.668 385.305C144.134 387.268 133.728 389.82 124.999 389.835ZM289.698 136.663C281.029 136.663 273.537 143.354 265.246 150.769C256.622 158.472 247.711 166.431 236.248 167.76C213.261 170.388 200.257 207.965 189.821 238.156C185.2 251.492 180.85 264.087 176.228 271.714C169.221 283.419 159.117 294.732 148.409 306.708C130.285 327.052 111.482 348.076 108.627 371.44C107.872 377.481 109.065 382.012 112.146 384.746C119.939 391.648 138.592 387.056 152.215 383.704C157.017 382.526 161.156 381.514 164.297 381.121C182.285 378.81 200.65 377.33 218.411 375.895C230.705 374.899 243.407 373.872 255.852 372.588C268.855 371.244 283.309 368.268 297.279 365.384C313.138 362.121 328.437 358.965 341.879 357.938C343.55 351.523 346.465 345.499 350.457 340.207C355.32 328.019 360.924 309.865 360.123 292.33C358.613 260.614 345.413 226.843 333.134 197.755C332.409 196.048 331.624 193.949 330.597 191.578C324.465 176.475 313.062 148.308 301.116 140.469C297.771 138.096 293.797 136.771 289.698 136.663ZM342.03 365.806C343.298 370.745 346.243 373.826 350.533 374.702C357.223 376.077 366.18 371.772 372.13 364.417C371.299 363.994 370.454 363.526 369.608 363.073C367.718 361.903 365.688 360.974 363.567 360.309C356.809 359.112 349.92 358.832 343.087 359.478C342.592 361.561 342.239 363.676 342.03 365.806Z" fill="url(#paint14_linear_890_84352)"/>
<path d="M127.689 388.174C123.656 388.174 120.228 387.389 117.796 385.425C114.776 382.933 113.598 378.78 114.368 373.071C117.509 349.676 135.301 326.523 152.488 304.11C161.64 292.194 170.294 280.927 176.547 269.932C180.398 263.166 184.295 252.821 188.418 241.856C199.323 212.873 212.885 176.822 236.748 174.798C248.589 173.801 256.548 166.235 264.251 158.91C274.158 149.485 283.522 140.59 299.063 150.18C332.29 170.66 353.993 260.07 354.295 292.345C354.295 298.22 350.912 308.551 347.272 319.531C343.783 329.982 339.977 341.445 339.071 349.737C348.23 349.667 357.377 350.4 366.408 351.927C368.589 352.503 370.694 353.339 372.675 354.419C373.748 354.932 374.82 355.461 375.832 355.929L376.995 356.427L376.028 357.213C369.594 362.454 355.654 368.857 346.139 365.988C344.186 365.438 342.409 364.39 340.982 362.947C339.555 361.505 338.527 359.716 337.999 357.756C337.428 355.611 337.239 353.382 337.44 351.172C298.172 351.172 248.045 361.155 202.736 370.171C192.511 372.21 182.845 374.128 173.511 375.895C169.365 376.945 165.285 378.241 161.293 379.777C150.766 383.447 137.491 388.174 127.689 388.174ZM286.422 147.567C278.402 147.567 272.18 153.473 265.278 160.012C257.726 167.156 249.238 175.266 236.854 176.308C213.912 178.257 200.531 213.809 189.793 242.384C185.639 253.41 181.727 263.816 177.816 270.687C171.503 281.758 162.834 293.07 153.651 305.032C136.584 327.279 118.914 350.341 115.893 373.267C115.199 378.433 116.165 382.118 118.793 384.247C126.45 390.485 147.126 383.19 160.81 378.357C164.876 376.796 169.031 375.48 173.255 374.415C182.588 372.648 192.254 370.73 202.479 368.691C247.879 359.629 298.081 349.661 337.591 349.661C338.452 341.309 342.212 330.027 345.883 319.002C349.553 307.977 352.875 297.979 352.83 292.345C352.543 261.248 330.508 171.324 298.323 151.464C294.806 149.057 290.681 147.69 286.422 147.522V147.567ZM338.965 351.187C338.768 353.212 338.926 355.257 339.433 357.228C339.899 358.947 340.802 360.517 342.054 361.785C343.306 363.052 344.864 363.975 346.577 364.462C354.37 366.818 366.604 362.378 374.095 356.729C373.4 356.427 372.706 356.08 372.011 355.748C370.149 354.737 368.178 353.942 366.136 353.377C357.161 351.844 348.07 351.096 338.965 351.141V351.187Z" fill="url(#paint15_linear_890_84352)"/>
<path d="M132.174 383.537C129.427 383.717 126.696 382.996 124.396 381.483C121.994 379.626 121.043 376.575 121.571 372.421C124.592 348.332 141.674 322.748 158.166 298.009C165.431 287.104 172.287 276.789 177.634 267.078C180.655 261.671 183.675 254.225 187.27 245.586C198.159 219.352 213.081 183.437 236.778 181.67C247.35 180.885 254.72 173.847 261.849 167.05C271.53 157.807 280.682 149.093 295.997 159C327.35 179.284 347.347 263.211 346.939 291.801C346.939 293.735 345.263 299.353 342.952 307.01C339.705 317.869 335.219 332.942 334.54 341.506C345.148 341.336 355.745 342.298 366.15 344.375C367.867 344.877 369.519 345.576 371.074 346.459C371.904 346.882 372.75 347.32 373.536 347.668L374.895 348.272L373.611 349.012C367.379 352.396 360.514 354.453 353.449 355.053C347.226 355.506 338.814 354.736 334.071 348.393C333.159 346.773 332.773 344.91 332.969 343.061C289.321 343.484 233.017 356.291 189.354 366.229L182.225 367.86C178.34 369.062 174.527 370.49 170.807 372.135C159.103 376.862 142.791 383.537 132.174 383.537ZM283.204 156.116C275.487 156.116 269.506 161.825 262.906 168.198C255.581 175.191 248.014 182.41 236.898 183.301C214.138 184.993 199.428 220.424 188.689 246.296C185.08 254.965 181.969 262.441 178.978 267.923C173.601 277.695 166.714 288.026 159.435 298.975C143.048 323.563 126.102 348.997 123.082 372.724C122.614 376.378 123.354 378.901 125.332 380.411C132.778 386.135 156.233 376.545 170.249 370.821C174.045 369.136 177.939 367.678 181.908 366.456L189.037 364.84C232.836 354.887 289.2 342.049 333.059 341.626C333.618 333.833 337.243 321.041 341.532 306.693C343.616 299.685 345.429 293.629 345.444 291.892C345.791 263.559 326.127 180.401 295.196 160.39C291.701 157.815 287.525 156.328 283.189 156.116H283.204ZM334.555 343.001C334.367 344.529 334.652 346.079 335.37 347.441C342.922 357.59 362.223 353.21 371.618 348.393L370.439 347.788C369.006 346.973 367.486 346.319 365.909 345.84C355.556 343.788 345.016 342.836 334.464 343.001H334.555Z" fill="url(#paint16_linear_890_84352)"/>
<path d="M137.294 375.427C134.97 375.579 132.658 374.987 130.694 373.735C128.806 372.316 128.036 370.035 128.414 366.984C131.434 341.838 148.38 313.731 163.332 288.947C168.935 279.659 174.221 270.823 178.692 262.502C180.761 258.635 183.102 253.545 185.82 247.655C197.042 223.294 213.987 186.503 236.219 185.476C244.707 185.098 251.579 179.118 258.239 173.394C267.92 164.981 277.873 156.297 292.569 165.721C322.412 184.947 339.524 260.342 339.071 288.358C338.474 292.313 337.554 296.212 336.322 300.018C333.664 309.638 329.526 324.575 330.447 332.414C341.158 332.253 351.86 333.123 362.405 335.011C363.89 335.33 365.349 335.759 366.77 336.295L368.945 337.035L370.802 337.609L369.05 338.44C359.989 342.684 338.844 346.912 330.734 337.443C329.957 336.458 329.438 335.295 329.224 334.06C285.923 334.558 233.319 346.731 189.521 358.225C187.633 358.723 183.691 360.384 178.707 362.484C165.93 367.845 147.972 375.427 137.294 375.427ZM280.184 163.139C272.346 163.139 265.912 168.727 259.221 174.526C252.53 180.326 245.296 186.609 236.28 187.032C214.969 188.013 198.25 224.306 187.195 248.335C184.461 254.255 182.12 259.36 180.021 263.272C175.49 271.684 170.234 280.459 164.631 289.763C149.754 314.426 132.914 342.382 129.894 367.211C129.592 369.733 130.135 371.485 131.585 372.573C138.533 377.813 163.302 367.362 178.088 361.109C181.681 359.482 185.356 358.041 189.098 356.79C259.04 338.409 301.208 332.806 328.922 332.429C328.015 324.318 331.867 310.393 334.857 299.61C336.039 295.928 336.937 292.161 337.545 288.343C337.983 261.354 320.66 185.642 291.738 166.99C288.343 164.611 284.328 163.273 280.184 163.139ZM330.749 334.045C330.934 334.927 331.322 335.755 331.882 336.461C338.98 344.753 357.21 341.626 366.619 337.851L366.287 337.73C364.934 337.217 363.546 336.803 362.133 336.491C351.771 334.698 341.265 333.864 330.749 333.999V334.045Z" fill="url(#paint17_linear_890_84352)"/>
<path d="M143.546 365.036C141.341 365.192 139.142 364.665 137.248 363.526C136.306 362.787 135.586 361.802 135.168 360.68C134.75 359.558 134.649 358.343 134.877 357.167C137.354 330.933 153.423 302.796 167.605 277.846C171.879 270.295 175.927 263.242 179.536 256.355C180.941 253.681 182.557 250.51 184.309 246.855C195.183 224.759 213.412 187.787 235.146 186.443C242.697 186.005 249.025 181.383 255.203 176.928C264.899 169.905 274.942 162.64 289.003 172.397C317.035 191.94 330.96 258.031 330.733 281.924C330.733 285.277 330.522 288.766 330.325 292.496C329.766 303.582 329.177 314.97 332.621 322.053C340.313 322.136 347.991 322.716 355.608 323.79C356.982 323.971 358.432 324.288 359.852 324.575L361.936 325.013L364.413 325.481L362.087 326.448C349.853 331.492 341.245 332.066 335.762 328.185C334.102 326.997 332.733 325.448 331.76 323.654C288.49 323.367 237.653 335.615 196.316 347.064C194.806 347.501 191.12 349.072 186.544 351.066C174.024 356.594 154.662 365.036 143.546 365.036ZM275.562 169.18C268.463 169.18 262.392 173.575 256.079 178.136C249.766 182.697 243.181 187.47 235.236 187.938C214.379 189.161 196.391 225.695 185.653 247.444C183.841 251.114 182.285 254.285 180.881 256.974C177.241 263.891 173.193 271.005 168.919 278.526C154.813 303.28 138.834 331.387 136.372 357.228C136.173 358.142 136.232 359.093 136.541 359.975C136.851 360.857 137.398 361.637 138.124 362.227C145.343 367.438 171.743 355.899 185.94 349.707C190.743 347.607 194.217 346.082 195.908 345.614C264.249 326.689 304.454 321.841 330.96 322.053C327.682 314.592 328.256 303.37 328.815 292.436C329.011 288.751 329.192 285.277 329.223 281.954C329.495 258.288 315.751 192.952 288.142 173.711C284.53 170.915 280.127 169.329 275.562 169.18ZM333.542 323.699C334.351 324.983 335.403 326.096 336.638 326.976C341.32 330.284 348.721 329.997 359.172 325.995C357.903 325.723 356.605 325.466 355.411 325.3C348.162 324.321 340.857 323.796 333.542 323.729V323.699Z" fill="url(#paint18_linear_890_84352)"/>
<path d="M150.177 351.715C147.9 351.85 145.636 351.292 143.683 350.114C142.686 349.356 141.912 348.342 141.444 347.18C140.976 346.019 140.831 344.752 141.024 343.514C142.701 317.175 157.879 289.687 171.231 265.432C174.508 259.511 177.589 253.923 180.443 248.441L182.346 244.755C192.752 224.608 212.13 187.077 233.697 185.053C239.481 184.509 245.009 181.504 250.869 178.317C261.366 172.623 272.225 166.733 284.926 175.659C310.481 193.647 321.853 249.015 322.004 273.285C322.004 275.279 322.004 277.257 322.004 279.236C322.004 292.104 321.883 304.292 327.759 310.363C334.026 310.363 340.219 310.665 346.275 311.254C347.695 311.39 349.16 311.571 350.625 311.753L352.83 312.024L356.409 312.447L352.95 313.489C341.578 316.948 333.528 316.752 328.332 312.885C327.914 312.573 327.516 312.235 327.139 311.873H326.988C284.7 311.873 238.439 323.609 201.421 334.377C199.519 334.936 195.803 336.552 191.091 338.591C178.465 344.043 160.825 351.715 150.177 351.715ZM271.424 172.563C264.613 172.563 258.209 176.052 251.564 179.646C245.84 182.757 239.919 185.99 233.818 186.563C213.126 188.512 193.991 225.544 183.721 245.465L181.818 249.15C178.948 254.648 175.867 260.251 172.59 266.172C159.284 290.336 144.196 317.628 142.535 343.635C142.358 344.611 142.452 345.617 142.806 346.543C143.16 347.47 143.761 348.281 144.543 348.891C151.808 354.011 176.018 343.499 190.472 337.216C195.229 335.162 198.99 333.531 201.044 332.942C237.805 322.249 283.673 310.62 325.795 310.393C320.434 303.597 320.434 291.741 320.434 279.236C320.434 277.257 320.434 275.279 320.434 273.3C320.283 249.286 309.106 194.568 283.99 176.897C280.364 174.162 275.965 172.645 271.424 172.563ZM329.495 311.889C333.724 314.909 340.067 315.226 348.827 313.051L346.094 312.749C340.687 312.236 335.144 311.964 329.495 311.889Z" fill="url(#paint19_linear_890_84352)"/>
<path d="M157.2 335.525C154.683 335.666 152.18 335.057 150.011 333.773C148.954 332.992 148.12 331.948 147.59 330.746C147.06 329.543 146.854 328.223 146.99 326.916C147.428 302.117 161.595 276.049 174.085 253.062C176.698 248.244 179.175 243.698 181.486 239.243L181.652 238.941C190.94 220.999 210.347 183.694 231.975 181.715C237.278 180.988 242.463 179.567 247.395 177.487C257.68 173.681 268.298 169.754 280.516 178.71C303.261 195.399 312.338 243.336 312.988 262.638C312.988 264.057 313.078 265.507 313.109 266.957C313.411 278.889 313.728 291.228 320.524 296.816C325.397 296.816 330.2 297.042 334.932 297.495C336.367 297.631 337.847 297.843 339.343 298.039L341.563 298.341L345.354 298.825L341.668 299.821C331.957 302.449 324.889 301.966 320.071 298.311H319.996H319.663C283.748 298.311 243.937 309.004 205.862 320.165C203.808 320.769 200.334 322.189 195.939 323.986C184.159 328.804 167.727 335.525 157.2 335.525ZM264.839 174.753C259.085 174.753 253.557 176.792 247.863 178.906C242.806 181.034 237.489 182.481 232.05 183.211C211.193 185.114 192.058 221.935 182.996 239.636L182.83 239.938C180.504 244.469 178.042 249 175.414 253.772C162.999 276.623 148.923 302.51 148.5 326.946C148.374 328.01 148.533 329.088 148.96 330.07C149.387 331.051 150.068 331.902 150.932 332.535C158.484 337.7 181.576 328.245 195.365 322.612C199.806 320.799 203.309 319.365 205.439 318.73C243.197 307.675 282.57 297.073 318.319 296.816C312.202 290.427 311.9 278.526 311.598 266.987C311.598 265.552 311.523 264.103 311.477 262.683C310.843 243.608 301.932 196.23 279.625 179.933C275.409 176.612 270.206 174.79 264.839 174.753ZM322.85 298.356C326.445 300.138 331.187 300.456 337.228 299.293C336.382 299.187 335.552 299.081 334.721 299.006C330.824 298.643 326.867 298.417 322.85 298.356Z" fill="url(#paint20_linear_890_84352)"/>
<path d="M164.207 317.809C161.358 317.973 158.526 317.273 156.082 315.8C154.88 314.902 153.931 313.709 153.327 312.335C152.724 310.961 152.486 309.454 152.638 307.962C153.273 278.314 195.848 179.586 229.891 176.898C234.203 176.457 238.479 175.705 242.683 174.647C253.708 172.155 264.129 169.799 275.532 178.816C294.939 194.19 302.325 231.117 303.624 250.51C303.624 251.658 303.76 252.851 303.835 254.074C304.469 264.888 305.194 277.167 312.278 282.377C315.525 282.377 318.742 282.574 321.898 282.86C323.409 282.996 324.919 283.253 326.505 283.51C327.29 283.646 328.015 283.782 328.816 283.887L332.531 284.446L328.891 285.368C321.566 287.225 315.963 286.742 311.779 283.857H310.707C280.501 283.857 246.111 293.765 215.407 302.63L208.746 304.548C207.236 304.986 204.487 306.059 201.059 307.433C190.668 311.571 174.915 317.809 164.207 317.809ZM257.559 173.922C252.646 174.12 247.769 174.854 243.015 176.112C238.742 177.19 234.396 177.958 230.011 178.408C215.875 179.541 197.706 199.446 180.171 233.036C165.657 260.78 154.496 293.01 154.164 307.992C154.012 309.236 154.191 310.498 154.681 311.651C155.172 312.804 155.957 313.808 156.958 314.562C164.963 320.12 188.085 310.982 200.515 306.059C203.989 304.684 206.738 303.582 208.339 303.129L215.014 301.211C245.552 292.391 279.685 282.543 309.952 282.377C303.639 276.336 302.959 264.571 302.4 254.15C302.4 252.941 302.264 251.763 302.189 250.6C300.905 231.465 293.671 195.051 274.671 180.009C269.874 176.007 263.806 173.849 257.559 173.922ZM315.132 283.963C318.126 285.015 321.342 285.275 324.466 284.718C323.545 284.582 322.623 284.446 321.762 284.371C319.588 284.159 317.413 283.963 315.132 283.963Z" fill="url(#paint21_linear_890_84352)"/>
<path d="M171.185 297.767C167.965 297.958 164.764 297.168 162.002 295.502C160.752 294.58 159.751 293.361 159.09 291.956C158.428 290.551 158.126 289.003 158.211 287.452C158.015 273.074 167.273 244.68 180.141 219.911C189.309 202.301 207.689 172.563 227.716 171.068C246.338 169.678 261.441 173.922 272.602 183.694C285.455 194.946 292.704 213.009 294.139 237.385V238.518C294.683 248.048 295.438 261.173 302.461 266.489C302.942 266.844 303.447 267.167 303.971 267.455C305.25 267.455 306.518 267.501 307.777 267.591C309.499 267.682 311.371 267.924 313.169 268.165C314.075 268.286 314.996 268.407 315.887 268.498L320.584 269.026L315.948 269.993C311.833 271.08 307.468 270.712 303.593 268.951C278.492 268.513 250.989 276.306 224.317 283.857C219.545 285.217 214.833 286.546 210.211 287.814C208.565 288.267 206.088 289.113 203.234 290.095C194.323 293.176 181.017 297.767 171.185 297.767ZM234.436 172.321C232.277 172.321 230.087 172.412 227.821 172.578C195.229 175.01 159.359 260.719 159.722 287.361C159.631 288.677 159.873 289.995 160.424 291.193C160.976 292.391 161.82 293.431 162.878 294.218C170.656 299.685 190.758 292.708 202.765 288.615C205.65 287.618 208.157 286.757 209.849 286.304C214.455 285.035 219.167 283.706 223.94 282.347C249.887 275.007 276.634 267.425 301.283 267.365C294.033 261.429 293.263 248.229 292.704 238.548V237.415C291.299 213.462 284.216 195.746 271.681 184.766C262.105 176.52 249.615 172.321 234.436 172.321Z" fill="url(#paint22_linear_890_84352)"/>
<path d="M180.79 274.146C174.175 274.146 169.1 273.24 166.276 271.05C165.486 270.472 164.843 269.718 164.397 268.847C163.951 267.977 163.715 267.014 163.708 266.036C163.195 240.164 190.697 168.304 225.404 164.649C239.888 163.139 252.257 166.476 262.165 174.572C274.519 184.645 282.464 202.089 284.563 223.656L284.729 225.303C285.877 237.385 287.176 251.235 301.916 252.987L301.735 254.497C300.753 254.391 299.757 254.24 298.714 254.104C296.796 253.832 294.803 253.561 293.036 253.485C287.87 253.243 273.115 256.747 256.033 260.78C230.086 266.912 199.412 274.146 180.79 274.146ZM232.034 165.827C229.875 165.832 227.718 165.948 225.57 166.174C192.918 169.603 164.69 239.862 165.158 266.005C165.162 266.758 165.343 267.498 165.687 268.168C166.031 268.837 166.527 269.415 167.137 269.857C177.361 277.786 222.625 267.108 255.671 259.285C273.568 255.071 287.689 251.733 293.081 251.96H293.927C285.197 246.809 284.08 235.135 283.158 225.393L283.007 223.747C280.953 202.603 273.19 185.521 261.153 175.689C252.913 169.072 242.6 165.579 232.034 165.827Z" fill="url(#paint23_linear_890_84352)"/>
<path d="M188.055 254.24C181.365 254.24 175.973 253.258 172.696 250.857C171.671 250.127 170.824 249.174 170.22 248.07C169.616 246.967 169.27 245.74 169.207 244.484C168.406 232.658 174.734 211.786 184.567 193.707C190.079 183.558 204.895 159.786 223.125 158.185C240.297 156.674 252.032 165.283 258.858 172.759C267.951 183.192 273.582 196.189 274.973 209.958C276.378 222.614 277.299 230.966 288.476 237.325L291.496 239.016L288.068 238.729C286.98 238.639 285.863 238.518 284.73 238.397C282.621 238.123 280.498 237.962 278.372 237.914C273.176 237.914 261.622 240.663 248.165 243.849C227.927 248.592 204.14 254.24 188.055 254.24ZM226.477 159.544C225.405 159.544 224.333 159.544 223.261 159.695C195.652 162.112 169.116 220.651 170.717 244.393C170.761 245.428 171.043 246.439 171.541 247.348C172.038 248.257 172.738 249.039 173.587 249.634C184.159 257.442 220.98 248.697 247.833 242.294C261.305 239.092 272.934 236.328 278.311 236.328C280.35 236.328 282.631 236.585 284.836 236.811H284.972C275.668 230.272 274.717 221.708 273.448 210.034C269.793 176.58 247.138 159.544 226.477 159.544Z" fill="url(#paint24_linear_890_84352)"/>
<path d="M195.349 234.334C188.054 234.334 182.013 233.277 178.418 230.544C177.305 229.72 176.395 228.651 175.759 227.421C175.122 226.19 174.777 224.83 174.748 223.445C174.31 213.054 179.989 195.776 188.87 180.477C199.049 162.912 210.739 152.536 220.918 152.038C230.63 151.555 241.202 155.934 249.916 164.03C259.491 172.91 265.155 184.751 265.457 196.531C265.399 203.828 268.095 210.877 273.009 216.271C274.277 217.781 275.108 218.763 274.7 219.79C274.187 221.104 272.238 221.451 264.128 222.388C261.485 222.69 256.199 223.898 249.523 225.484C234.088 229.079 211.69 234.334 195.349 234.334ZM222.368 153.518H220.994C198.838 154.605 175.443 203.766 176.259 223.354C176.26 224.514 176.534 225.657 177.058 226.69C177.583 227.724 178.344 228.62 179.279 229.305C190.335 237.717 227.08 229.124 249.025 223.989C255.761 222.403 261.107 221.165 263.811 220.847C267.994 220.379 272.752 219.835 273.175 219.186C272.767 218.459 272.259 217.792 271.665 217.208C266.556 211.541 263.764 204.161 263.841 196.531C263.554 185.174 258.057 173.711 248.738 165.102C240.885 157.702 231.324 153.518 222.368 153.518Z" fill="url(#paint25_linear_890_84352)"/>
<path d="M201.406 214.806C194.292 214.806 188.16 213.779 184.415 210.985C183.253 210.146 182.289 209.061 181.592 207.809C180.896 206.556 180.482 205.166 180.382 203.736C179.416 192.363 188.628 171.038 200.122 158.094C206.556 150.845 213.035 146.903 218.835 146.722C236.158 146.117 254.629 164.543 256.064 183.875C256.407 189.228 257.69 194.478 259.854 199.386C260.806 201.682 261.365 203.086 260.7 204.294C259.839 205.805 257.378 206.318 250.551 207.315C248.134 207.678 244.661 208.402 240.643 209.233C229.679 211.589 214.017 214.806 201.406 214.806ZM219.529 148.217H218.85C213.473 148.383 207.371 152.144 201.224 159.076C189.958 171.778 180.911 192.559 181.862 203.585C181.939 204.803 182.284 205.989 182.875 207.057C183.465 208.125 184.285 209.049 185.276 209.762C195.153 217.117 223.411 211.272 240.311 207.844C244.344 207.013 247.863 206.333 250.294 205.91C255.565 205.11 258.812 204.551 259.356 203.6C259.673 203.026 259.145 201.757 258.42 200.005C256.203 194.924 254.885 189.497 254.523 183.966C253.058 163.879 234.345 148.217 219.56 148.217H219.529Z" fill="url(#paint26_linear_890_84352)"/>
<path d="M207.84 196.864C200.621 196.864 194.051 195.852 190.079 192.846C188.976 192.047 188.058 191.02 187.389 189.834C186.719 188.648 186.313 187.332 186.198 185.974C185.367 177.532 191.031 164.015 199.67 153.835C205.484 146.978 211.616 143.006 216.917 142.659C222.732 142.281 229.861 145.589 236.008 151.494C242.426 157.656 246.399 165.328 246.882 172.533C247.154 176.58 247.652 179.661 248.045 182.123C249.313 189.946 249.208 191.306 238.409 193.239L237.246 193.45C230.057 194.734 218.277 196.864 207.84 196.864ZM217.824 144.139H217.008C212.13 144.456 206.436 148.232 200.818 154.787C192.556 164.513 186.923 177.849 187.708 185.793C187.799 186.944 188.14 188.061 188.709 189.066C189.278 190.07 190.06 190.938 191.001 191.608C200.183 198.555 225.964 193.919 236.974 191.925L238.152 191.713C247.788 189.992 247.728 189.554 246.55 182.335C246.157 179.843 245.643 176.731 245.372 172.593C244.39 158.019 228.804 144.139 217.824 144.139Z" fill="url(#paint27_linear_890_84352)"/>
<path d="M211.117 181.821C205.438 181.821 199.88 180.975 196.286 178.242C195.133 177.375 194.177 176.274 193.48 175.011C192.782 173.749 192.359 172.354 192.238 170.917C190.728 157.082 202.131 141.934 215.27 140.333C217.609 140.011 219.988 140.164 222.266 140.781C224.545 141.399 226.675 142.469 228.531 143.927C233.56 147.869 237.004 154.771 237.985 162.867C239.496 175.765 239.496 178.257 228.093 180.099C222.489 181.122 216.812 181.698 211.117 181.821ZM217.732 141.692C216.98 141.693 216.229 141.739 215.482 141.828C203.309 143.338 192.359 157.913 193.764 170.75C193.854 171.985 194.209 173.186 194.806 174.27C195.403 175.354 196.227 176.297 197.222 177.033C204.321 182.425 220.224 179.843 227.882 178.544C237.895 176.928 238.046 175.704 236.505 162.988C235.584 155.285 232.352 148.76 227.64 145.06C224.819 142.838 221.323 141.649 217.732 141.692Z" fill="url(#paint28_linear_890_84352)"/>
<path d="M214.334 168.681C210.271 168.681 205.272 168.062 201.889 165.434C200.932 164.696 200.14 163.764 199.565 162.7C198.99 161.636 198.644 160.463 198.552 159.257C198.265 154.715 199.699 150.231 202.567 146.697C205.435 143.162 209.528 140.837 214.032 140.182C215.985 139.955 217.963 140.199 219.802 140.893C221.641 141.586 223.288 142.71 224.604 144.169C227.355 147.321 229.027 151.268 229.377 155.436C230.283 164.06 228.018 167.186 220.028 168.289C218.141 168.551 216.239 168.682 214.334 168.681ZM215.497 141.617C215.063 141.612 214.629 141.638 214.198 141.692C206.798 142.478 199.186 150.09 200.047 159.121C200.129 160.123 200.418 161.097 200.896 161.981C201.375 162.865 202.032 163.64 202.826 164.256C206.722 167.277 214.198 167.594 219.892 166.794C226.311 165.903 228.848 164.151 227.942 155.602C227.64 151.755 226.11 148.108 223.577 145.196C222.558 144.064 221.312 143.16 219.92 142.543C218.527 141.927 217.02 141.611 215.497 141.617Z" fill="url(#paint29_linear_890_84352)"/>
<path d="M213.971 158.139C211.569 158.201 209.22 157.427 207.325 155.95C206.702 155.427 206.193 154.782 205.829 154.055C205.465 153.327 205.255 152.533 205.211 151.721C205.114 149.461 205.9 147.252 207.403 145.561C208.905 143.87 211.006 142.829 213.261 142.659C217.55 142.372 221.039 145.8 221.356 150.648C221.658 154.998 219.317 157.717 214.922 158.079C214.62 158.119 214.303 158.139 213.971 158.139ZM213.759 144.169H213.367C211.508 144.301 209.774 145.153 208.533 146.543C207.292 147.934 206.642 149.753 206.721 151.615C206.747 152.22 206.894 152.814 207.154 153.361C207.413 153.909 207.78 154.398 208.232 154.802C210.091 156.186 212.406 156.817 214.711 156.569C218.321 156.267 220.027 154.318 219.786 150.754C219.589 146.933 217.007 144.169 213.759 144.169Z" fill="url(#paint30_linear_890_84352)"/>
<path d="M249.6 444.403L248.09 444.025C254.342 419.588 281.694 408.352 308.124 397.493C336.624 385.788 363.552 374.732 364.64 348.574C365.576 325.798 335.823 296.831 316.129 277.589C311.19 272.787 306.931 268.633 303.593 265.069C297.235 258.273 290.469 251.355 283.959 244.665C255.883 215.969 226.855 186.261 212.311 149.229L213.715 148.685C228.139 185.416 257.076 215.002 285.047 243.608C291.586 250.298 298.353 257.2 304.681 264.042C307.988 267.576 312.232 271.714 317.171 276.502C338.24 297.027 367.102 325.134 366.135 348.574C365.002 375.759 337.651 386.936 308.743 398.837C282.676 409.605 255.671 420.691 249.6 444.403Z" fill="url(#paint31_linear_890_84352)"/>
<path d="M292.901 467.042H291.39C292.176 440.838 313.516 424.044 334.162 407.793C354.808 391.542 374.563 375.971 373.279 352.108C371.769 324.379 336.141 289.234 312.55 266.021C307.309 260.855 302.778 256.385 299.168 252.564C292.855 245.873 286.225 239.122 279.821 232.583C254.901 207.194 229.135 180.93 212.371 149.516L213.7 148.806C230.314 180.084 255.989 206.273 280.894 231.586C287.312 238.125 293.943 244.892 300.271 251.582C303.865 255.388 308.381 259.844 313.607 264.994C337.364 288.283 373.294 323.669 374.804 351.927C376.118 376.59 356.197 392.282 335.098 408.88C314.724 424.965 293.656 441.548 292.901 467.042Z" fill="url(#paint32_linear_890_84352)"/>
<path d="M329.102 491.977C322.124 463.281 333.633 440.219 344.869 417.852C354.656 398.308 363.884 379.837 361.981 357.832C358.96 322.853 330.265 288.871 307.217 261.565L300.647 253.757C290.377 241.433 279.337 229.32 268.659 217.615C249.025 196.154 228.817 173.967 212.4 149.44L213.669 148.594C230.011 173.031 250.218 195.187 269.777 216.558C280.455 228.278 291.51 240.391 301.81 252.805C303.925 255.328 306.115 257.94 308.38 260.614C331.548 288.086 360.395 322.264 363.476 357.711C365.424 380.154 355.668 399.667 346.228 418.546C335.158 440.672 323.725 463.538 330.567 491.63L329.102 491.977Z" fill="url(#paint33_linear_890_84352)"/>
<path d="M370.637 475.077C368.507 472.343 366.378 469.73 364.324 467.178C352.709 452.845 342.681 440.461 340.959 420.268C340.068 409.907 341.699 399.682 343.27 389.805C344.841 379.928 346.426 369.945 345.596 359.795C340.189 294.203 288.854 236.388 243.56 185.385C232.459 172.88 221.977 161.069 212.447 149.501L213.625 148.534C223.125 160.088 233.607 171.883 244.692 184.373C290.137 235.558 341.654 293.584 347.106 359.675C347.952 370.005 346.336 380.184 344.765 390.032C343.194 399.879 341.593 409.968 342.469 420.132C344.146 439.872 354.038 452.09 365.502 466.227C367.571 468.779 369.685 471.407 371.815 474.141L370.637 475.077Z" fill="url(#paint34_linear_890_84352)"/>
<path d="M428.707 435.25C419.313 429.768 408.651 425.494 398.335 421.355C384.531 415.813 370.259 410.073 358.524 401.344C343.692 390.304 341.004 377.874 337.606 362.076C337.123 359.871 336.639 357.545 336.096 355.219C315.903 267.908 257.756 195.172 212.492 149.546L213.565 148.489C258.964 194.251 317.413 267.214 337.561 354.947C338.104 357.318 338.603 359.614 339.071 361.834C342.529 377.859 345.037 389.443 359.415 400.151C370.999 408.759 385.18 414.453 398.894 419.966C409.255 424.119 420.038 428.424 429.463 433.951L428.707 435.25Z" fill="url(#paint35_linear_890_84352)"/>
<path d="M488.984 385.154C479.333 383.794 467.749 383.009 455.485 382.133C412.623 379.248 359.294 375.669 336.836 344.013C320.706 321.268 308.457 294.671 296.616 268.966C276.091 224.427 254.872 178.347 212.613 149.516L213.459 148.277C256.065 177.351 277.375 223.611 298.036 268.331C309.862 294.007 322.08 320.512 338.135 343.137C360.17 374.204 413.106 377.768 455.636 380.623C467.93 381.453 479.56 382.224 489.256 383.643L488.984 385.154Z" fill="url(#paint36_linear_890_84352)"/>
<path d="M496.535 346.384C485.419 345.599 472.476 345.568 458.777 345.538C418.362 345.538 372.554 345.372 343.496 326.569C323.726 313.761 310.465 288.041 298.776 265.356C294.985 258.001 291.405 251.054 287.811 244.907C286.512 242.702 285.213 240.481 283.914 238.246C264.567 205.125 244.571 170.887 212.598 149.652L213.443 148.383C245.704 169.814 265.791 204.264 285.213 237.491L289.11 244.136C292.734 250.329 296.314 257.291 300.12 264.661C311.719 287.18 324.874 312.719 344.311 325.3C373.007 343.877 418.573 343.952 458.777 344.028C472.491 344.028 485.449 344.028 496.626 344.874L496.535 346.384Z" fill="url(#paint37_linear_890_84352)"/>
<path d="M469.485 313.777C456.677 312.568 442.707 312.629 427.936 312.689C400.479 312.81 372.055 312.931 348.947 304.745C324.858 296.212 308.879 270.521 294.773 247.852C291.843 243.14 289.079 238.684 286.33 234.546C282.992 229.517 279.654 224.291 276.422 219.231C259.28 192.333 241.565 164.513 212.688 149.757L213.382 148.428C242.622 163.441 260.458 191.427 277.706 218.491C280.923 223.551 284.261 228.777 287.584 233.791C290.347 237.944 293.111 242.4 296.056 247.127C310.027 269.585 325.855 295.034 349.446 303.386C372.342 311.496 400.6 311.375 427.981 311.254C442.798 311.254 456.798 311.133 469.681 312.342L469.485 313.777Z" fill="url(#paint38_linear_890_84352)"/>
<path d="M353.993 278.843C352.064 278.856 350.136 278.735 348.224 278.48C324.92 275.128 307.173 250.827 292.916 231.299C290.439 227.9 288.098 224.698 285.863 221.784C282.072 216.86 278.312 211.77 274.762 206.847C257.318 182.939 240.841 160.359 212.84 149.727L213.384 148.307C241.868 159.106 258.481 181.866 276.061 205.956C279.641 210.864 283.356 215.954 287.132 220.862C289.382 223.792 291.663 226.994 294.215 230.407C308.291 249.709 325.841 273.723 348.586 276.985C356.938 278.178 367.601 276.185 377.931 274.252C384.804 272.778 391.775 271.804 398.789 271.337C405.132 271.14 411.551 271.186 417.758 271.216C429.976 271.306 442.603 271.397 455.002 269.6L455.214 271.11C442.693 272.923 430.022 272.832 417.758 272.741C411.551 272.741 405.147 272.666 398.834 272.862C391.896 273.327 385.001 274.297 378.203 275.762C369.836 277.272 361.393 278.843 353.993 278.843Z" fill="url(#paint39_linear_890_84352)"/>
<path d="M329.857 236.827C310.344 236.827 295.362 220.53 281.981 205.956C280.349 204.189 278.764 202.452 277.178 200.776C274.006 197.408 270.97 194.07 268.04 190.838C251.835 173.001 237.834 157.611 212.809 149.742L213.262 148.232C238.68 156.237 252.801 171.763 269.143 189.765C272.073 192.982 275.109 196.32 278.205 199.673C279.715 201.349 281.392 203.101 283.023 204.884C297.763 220.923 314.467 239.107 336.789 234.531C343.042 233.247 348.328 230 353.403 226.889C359.444 223.143 365.848 219.337 373.988 218.537C382.96 217.736 391.025 220.832 398.833 223.838C403.312 225.684 407.921 227.198 412.622 228.369L412.305 229.879C407.525 228.693 402.841 227.153 398.289 225.273C390.3 222.252 382.748 219.231 374.124 220.077C366.331 220.787 360.154 224.608 354.188 228.203C348.963 231.405 343.616 234.712 337.046 236.041C334.682 236.541 332.274 236.804 329.857 236.827Z" fill="url(#paint40_linear_890_84352)"/>
<path d="M299.711 201.289C294.123 201.289 288.157 199.039 280.832 194.598C271.55 188.786 262.886 182.041 254.976 174.466C243.316 163.894 233.258 154.832 212.854 149.757L213.216 148.247C233.998 153.412 244.177 162.64 255.988 173.318C263.837 180.834 272.441 187.52 281.663 193.269C297.295 202.739 306.039 201.999 319.073 190.113C325.097 184.421 330.573 178.176 335.43 171.46C341.667 163.275 346.591 156.826 353.418 156.539C359.927 156.297 367.781 161.704 378.987 174.149L377.824 175.221C366.965 163.139 359.429 157.898 353.448 158.109C347.467 158.321 342.876 164.271 336.593 172.442C331.687 179.228 326.155 185.539 320.07 191.291C312.654 197.997 306.462 201.289 299.711 201.289Z" fill="url(#paint41_linear_890_84352)"/>
<path d="M278.779 181.444C276.506 181.421 274.242 181.147 272.028 180.628L271.787 180.537C261.91 174.31 252.469 167.417 243.529 159.907C235.766 150.679 225.571 147.296 213.187 149.757L212.885 148.247C225.858 145.664 236.536 149.229 244.601 158.819C253.425 166.227 262.739 173.028 272.481 179.178C288.415 182.637 292.901 173.484 299.108 160.828L300.482 158.034C303.11 152.763 305.013 145.438 307.128 137.69C310.919 123.493 315.223 107.484 324.949 100.718C337.862 91.807 351.576 99.872 363.674 106.986C366.694 108.768 369.594 110.459 372.388 111.849L371.724 113.208C368.869 111.773 365.984 110.082 362.918 108.284C350.625 101.065 337.923 93.6043 325.795 101.956C316.537 108.345 312.308 124.143 308.593 138.083C306.493 145.906 304.53 153.307 301.842 158.714L300.467 161.492C295.091 172.457 290.696 181.444 278.779 181.444Z" fill="url(#paint42_linear_890_84352)"/>
<path d="M269.31 170.917C265.565 170.756 261.849 170.194 258.224 169.24H258.058C248.154 164.219 239.155 157.584 231.431 149.606L213.051 149.818V148.307L232.096 148.081L232.322 148.323C239.958 156.257 248.872 162.853 258.692 167.836C275.593 171.687 277.314 170.358 284.654 148.066C286.584 141.676 288.098 135.168 289.185 128.583C291.511 116.123 293.913 103.255 300.8 93.5136C314.634 73.8796 333.422 77.5043 353.313 81.2801L359.143 82.3524L358.871 83.8627L353.041 82.7904C333.634 79.1204 315.283 75.6466 302.038 94.4197C295.347 103.889 292.976 116.591 290.68 128.885C289.595 135.52 288.081 142.079 286.15 148.519C280.531 165.268 278.009 170.917 269.31 170.917Z" fill="url(#paint43_linear_890_84352)"/>
<path d="M257.272 170.554C252.514 170.554 248.21 166.159 243.196 161.13C235.372 153.231 226.507 144.275 213.322 149.712L212.748 148.323C226.869 142.493 236.52 152.234 244.268 160.073C249.403 165.253 253.828 169.754 258.344 168.953C262.316 168.259 266.349 163.395 270.653 154.092C276.03 142.493 278.628 131.664 280.938 122.104C286.194 100.25 290.363 82.9868 323.076 72.5204L323.529 74.0307C291.631 84.2404 287.765 100.295 282.403 122.527C280.077 132.162 277.45 143.067 272.028 154.802C267.497 164.724 263.162 169.709 258.616 170.509C258.17 170.561 257.72 170.576 257.272 170.554Z" fill="url(#paint44_linear_890_84352)"/>
<path d="M249.449 180.658L248.966 180.099C246.397 176.922 244.036 173.583 241.898 170.101C234.044 158.019 224.273 142.916 213.504 149.652L212.719 148.383C224.801 140.831 234.95 156.629 243.167 169.27C245.151 172.474 247.303 175.569 249.616 178.544C261.426 168.077 259.795 150.935 258.209 134.337C257.741 129.338 257.288 124.626 257.227 120.17C256.605 92.1245 258.929 64.0906 264.16 36.5298L265.67 36.8167C260.463 64.2787 258.149 92.2109 258.768 120.155C258.768 124.535 259.281 129.217 259.75 134.201C261.26 150.633 263.087 169.255 250.038 180.19L249.449 180.658Z" fill="url(#paint45_linear_890_84352)"/>
<path d="M233.621 187.439L233.032 186.065C227.444 172.971 222.173 159.529 217.325 146.117L213.549 149.576L212.522 148.458L217.989 143.474L218.367 144.532C223.124 157.792 228.32 171.083 233.817 184.056C240.387 171.324 235.327 153.503 230.902 137.705C229.603 133.174 228.38 128.809 227.534 124.883L226.19 118.675C218.231 82.0503 210.725 47.4643 205.469 10.8696L206.979 10.6582C212.22 47.1925 219.726 81.7634 227.67 118.358L229.029 124.565C229.86 128.447 231.084 132.751 232.367 137.297C237.064 153.911 242.396 172.805 234.391 186.156L233.621 187.439Z" fill="url(#paint46_linear_890_84352)"/>
<path d="M217.446 193.586C210.227 159.907 199.111 126.453 188.373 94.0875C182.166 75.4352 175.762 56.1486 170.174 37.0432L171.684 36.6204C177.257 55.6955 183.661 74.967 189.808 93.6193C197.918 118.011 206.225 143.021 212.931 168.289C211.959 161.882 211.746 155.383 212.296 148.927L213.807 149.108C212.417 160.707 215.725 177.985 218.942 193.284L217.446 193.586Z" fill="url(#paint47_linear_890_84352)"/>
<path d="M205.075 214.021L203.792 213.024C194.639 205.835 189.278 195.625 187.873 182.697C173.253 151.207 158.664 119.264 144.527 87.5477L145.902 86.9285C160.053 118.645 174.598 150.694 189.293 182.198V182.44C190.577 194.387 195.334 203.902 203.354 210.789C203.188 208.357 202.886 205.367 202.553 202.014C200.605 182.923 197.66 154.077 212.703 148.337L213.246 149.757C199.276 155.073 202.266 184.358 204.048 201.848C204.471 206.061 204.849 209.686 204.955 212.42L205.075 214.021Z" fill="url(#paint48_linear_890_84352)"/>
<path d="M190.546 246.372L189.565 245.843C164.237 232.25 146.43 196.214 130.663 164.468C125.135 153.292 119.894 142.719 114.805 134.126L116.088 133.355C121.223 141.994 126.479 152.582 132.022 163.803C147.427 194.916 164.856 230.136 189.248 243.955C189.58 240.21 189.655 234.47 189.746 227.342C190.063 202.12 190.546 164 203.233 151.978C204.51 150.709 206.037 149.721 207.716 149.076C209.396 148.431 211.192 148.144 212.99 148.232V149.742C211.393 149.653 209.795 149.904 208.303 150.479C206.811 151.055 205.459 151.941 204.336 153.08C192.102 164.649 191.604 203.902 191.317 227.357C191.211 235.256 191.136 241.493 190.698 245.224L190.546 246.372Z" fill="url(#paint49_linear_890_84352)"/>
<path d="M171.259 278.088C156.519 278.088 122.643 230.936 91.0321 184.056C87.0297 178.136 84.1451 173.847 82.6348 171.808L83.843 170.917C85.3533 172.971 88.2682 177.275 92.2856 183.211C110.575 210.396 159.147 282.347 172.966 276.245C178.615 273.738 181.167 233.489 182.028 220.258C182.254 216.785 182.39 214.701 182.481 214.081C183.025 210.744 183.478 206.847 183.991 202.739C186.544 180.779 190.033 150.724 213.019 148.262L213.17 149.773C191.377 152.098 187.979 181.489 185.502 202.905C185.018 207.043 184.565 210.94 183.991 214.308C183.901 214.867 183.75 217.162 183.553 220.349C181.847 247.248 179.324 275.098 173.616 277.62C172.873 277.943 172.069 278.102 171.259 278.088Z" fill="url(#paint50_linear_890_84352)"/>
<path d="M151.718 306.95C139.288 306.95 99.3554 258.514 62.5191 212.571C54.9675 203.132 49.47 196.305 47.416 194.085L48.5185 193.043C50.6632 195.308 56.0701 202.105 63.7424 211.635C87.4995 241.267 143.154 310.635 152.85 305.273C164.344 298.749 167.606 273.466 169.977 255.01C170.702 249.347 171.337 244.438 172.107 240.783C173.255 235.271 174.236 229.577 175.278 223.551C180.232 194.764 185.851 162.142 212.809 148.398L213.504 149.757C187.225 163.139 181.667 195.369 176.759 223.762C175.716 229.803 174.735 235.497 173.572 241.04C172.817 244.665 172.197 249.528 171.472 255.161C169.056 273.935 165.748 299.64 153.59 306.512C153.02 306.832 152.371 306.984 151.718 306.95Z" fill="url(#paint51_linear_890_84352)"/>
<path d="M130.708 334.347C115.469 334.347 100.925 313.837 90.1262 298.628C87.5285 294.973 85.2932 291.817 83.345 289.37C61.5664 262.184 42.748 242.399 22.3438 225.409L23.3103 224.261C43.7901 241.312 62.6689 261.097 84.523 288.494C86.5015 290.971 88.7519 294.143 91.3647 297.813C101.937 312.749 117.961 335.313 133.276 332.685C150.387 329.756 157.289 294.067 161.428 272.757C162.409 267.652 163.27 263.227 164.101 259.964C165.959 252.654 167.62 244.952 169.236 237.491C176.531 203.736 184.082 168.833 212.597 148.458L213.473 149.697C185.442 169.724 177.95 204.34 170.716 237.808C169.1 245.284 167.424 253.002 165.566 260.327C164.735 263.559 163.89 267.954 162.908 273.044C158.377 296.151 151.671 331.069 133.532 334.181C132.597 334.31 131.652 334.366 130.708 334.347Z" fill="url(#paint52_linear_890_84352)"/>
<path d="M117.902 362.272C104.762 362.272 91.0332 346.097 81.7448 335.087C80.4006 333.501 79.1622 332.066 78.0597 330.798C74.2084 326.433 70.5082 322.083 66.9438 317.884C50.8893 299.066 35.7258 281.199 11.7422 269.434L12.4067 268.075C36.6773 279.991 51.9314 297.948 68.0917 316.963C71.656 321.162 75.3562 325.511 79.1924 329.861C80.2949 331.1 81.5334 332.565 82.8926 334.165C92.0451 344.964 107.375 363.043 120.499 360.52C139.167 356.956 150.328 312.765 155.1 293.886C155.795 291.167 156.339 289.023 156.762 287.527C159.948 276.472 162.501 264.873 165.219 252.7C173.873 213.734 182.814 173.454 212.552 148.489L213.519 149.636C184.174 174.33 175.293 214.353 166.699 253.077C163.981 265.326 161.413 276.895 158.212 287.995C157.789 289.506 157.26 291.59 156.565 294.309C151.732 313.459 140.39 358.3 120.771 362.061C119.823 362.221 118.863 362.292 117.902 362.272Z" fill="url(#paint53_linear_890_84352)"/>
<path d="M112.329 382.269C92.8003 382.269 75.8396 360.822 59.3772 339.98C46.3735 323.578 34.0947 308.128 20.9551 302.766L21.5139 301.377C35.1066 306.799 47.4307 322.521 60.5553 339.134C78.6789 361.985 97.3161 385.606 118.838 379.913C140.36 374.219 150.554 329 156.762 301.936C157.94 296.755 158.952 292.27 159.858 288.992C162.878 278.012 165.355 266.776 167.998 254.859C176.547 216.286 185.382 176.324 212.492 148.489L213.579 149.546C186.756 177.139 177.966 216.815 169.478 255.192C166.941 266.594 164.343 278.375 161.308 289.4C160.417 292.647 159.405 297.103 158.287 302.268C152.05 329.68 141.674 375.533 119.291 381.378C117.018 381.971 114.678 382.27 112.329 382.269Z" fill="url(#paint54_linear_890_84352)"/>
<path d="M116.435 387.963C112.66 387.967 108.957 386.922 105.742 384.942C87.4828 373.947 81.5775 334.89 77.2278 306.406C76.2072 298.491 74.7857 290.632 72.9688 282.86L74.4791 282.453C76.3168 290.298 77.7535 298.233 78.7834 306.225C83.0123 334.437 88.8723 373.071 106.528 383.643C111.829 386.845 117.991 387.253 124.863 384.866C147.155 377.088 156.73 335.525 163.058 308.022C164.297 302.63 165.384 297.963 166.411 294.112C170.051 280.625 173.057 266.776 175.972 253.334C183.765 217.51 191.815 180.462 212.4 148.519L213.669 149.334C193.219 181.051 185.199 217.963 177.421 253.651C174.507 267.078 171.486 280.957 167.846 294.429C166.819 298.266 165.747 302.902 164.508 308.294C158.09 336.114 148.408 378.161 125.331 386.211C122.486 387.292 119.478 387.884 116.435 387.963Z" fill="url(#paint55_linear_890_84352)"/>
<path d="M121.859 387.676C119.166 387.724 116.516 387.007 114.216 385.606C99.8383 376.65 102.844 341.128 104.822 317.643C105.26 312.387 105.653 307.826 105.759 304.412H107.269C107.163 307.871 106.771 312.447 106.333 317.733C104.369 340.856 101.424 375.835 115.017 384.292C120.545 387.736 128.61 386.346 138.925 380.124C164.51 364.764 173.164 326.297 179.492 298.22C179.96 296.106 180.428 294.052 180.881 292.058C184.763 275.173 187.3 257.895 189.762 241.176C194.293 210.275 199.02 178.317 212.416 148.67L213.806 149.304C200.56 178.74 195.863 210.592 191.333 241.433C188.871 258.182 186.318 275.49 182.437 292.436C181.969 294.414 181.516 296.468 181.032 298.583C174.659 326.931 165.929 365.746 139.786 381.453C132.823 385.591 126.843 387.676 121.859 387.676Z" fill="url(#paint56_linear_890_84352)"/>
<path d="M97.0446 401.012L96.9238 399.501C136.569 396.481 155.373 383.643 167.334 372.844C205.968 337.926 205.258 286.47 204.563 236.706C204.155 206.5 203.717 175.357 212.311 148.791L213.821 149.244C205.288 175.584 205.726 206.635 206.134 236.691C206.829 286.787 207.554 338.576 168.376 373.962C145.238 394.85 118.053 399.396 97.0446 401.012Z" fill="url(#paint57_linear_890_84352)"/>
<path d="M106.378 472.978L105.154 472.087C117.358 455.473 130.633 437.863 146.884 422.398C155.358 414.645 164.236 407.345 173.48 400.528C187.677 389.654 202.358 378.418 212.854 364.795C232.171 339.693 232.488 309.14 230.162 282.543C228.969 268.618 224.816 252.79 220.421 236.041C212.401 205.458 204.125 173.847 212.31 148.776L213.821 149.259C205.771 173.907 214.002 205.291 221.961 235.648C226.371 252.473 230.525 268.362 231.733 282.468C234.044 309.336 233.757 340.252 214.123 365.746C203.551 379.55 188.75 390.847 174.477 401.767C165.278 408.554 156.441 415.819 148.002 423.53C131.766 438.875 118.536 456.38 106.378 472.978Z" fill="url(#paint58_linear_890_84352)"/>
<path d="M146.642 492.159L145.328 491.434C159.314 466.03 177.905 444.221 205.604 420.736C210.875 416.205 216.781 411.81 223.048 407.143C241.278 393.385 261.939 377.798 270.548 358.179C287.916 318.519 265.654 280.036 244.117 242.807C226.477 212.299 208.232 180.764 212.28 148.987L213.79 149.168C209.803 180.447 227.912 211.755 245.507 242.052C267.225 279.598 289.683 318.428 271.997 358.784C263.238 378.765 242.411 394.472 224.03 408.352C217.793 413.049 211.948 417.504 206.662 421.944C179.023 445.248 160.537 466.921 146.642 492.159Z" fill="url(#paint59_linear_890_84352)"/>
<path d="M198.809 467.405L197.51 466.634C213.292 440.083 235.418 424.467 262.695 406.811C266.455 404.38 270.941 401.767 275.683 398.988C296.269 386.905 321.868 371.968 326.324 351.7C331.715 327.052 308.955 297.812 292.342 276.457C289.457 272.756 286.723 269.253 284.398 266.096C278.356 257.85 271.605 249.483 265.096 241.327C242.532 213.19 219.198 184.086 212.235 149.198L213.746 148.896C220.572 183.452 243.785 212.42 266.244 240.421C272.768 248.546 279.504 256.959 285.591 265.22C287.901 268.361 290.62 271.865 293.505 275.566C310.299 297.148 333.316 326.705 327.758 352.047C323.228 372.965 297.25 388.129 276.408 400.377C271.666 403.141 267.21 405.754 263.465 408.17C236.4 425.629 214.425 441.14 198.809 467.405Z" fill="url(#paint60_linear_890_84352)"/>
</g>
<defs>
<filter id="filter0_d_890_84352" x="0" y="0" width="514.852" height="506.793" filterUnits="userSpaceOnUse" color-interpolation-filters="sRGB">
<feFlood flood-opacity="0" result="BackgroundImageFix"/>
<feColorMatrix in="SourceAlpha" type="matrix" values="0 0 0 0 0 0 0 0 0 0 0 0 0 0 0 0 0 0 127 0" result="hardAlpha"/>
<feOffset dx="2" dy="2"/>
<feGaussianBlur stdDeviation="6"/>
<feComposite in2="hardAlpha" operator="out"/>
<feColorMatrix type="matrix" values="0 0 0 0 0.68206 0 0 0 0 0.597096 0 0 0 0 0.904466 0 0 0 1 0"/>
<feBlend mode="normal" in2="BackgroundImageFix" result="effect1_dropShadow_890_84352"/>
<feBlend mode="normal" in="SourceGraphic" in2="effect1_dropShadow_890_84352" result="shape"/>
</filter>
<linearGradient id="paint0_linear_890_84352" x1="255.426" y1="10" x2="255.426" y2="492.793" gradientUnits="userSpaceOnUse">
<stop stop-color="#D1AFFF"/>
<stop offset="1" stop-color="#906CFF"/>
</linearGradient>
<linearGradient id="paint1_linear_890_84352" x1="252.884" y1="18.0677" x2="252.884" y2="484.833" gradientUnits="userSpaceOnUse">
<stop stop-color="#D1AFFF"/>
<stop offset="1" stop-color="#906CFF"/>
</linearGradient>
<linearGradient id="paint2_linear_890_84352" x1="250.163" y1="27.2922" x2="250.163" y2="476.754" gradientUnits="userSpaceOnUse">
<stop stop-color="#D1AFFF"/>
<stop offset="1" stop-color="#906CFF"/>
</linearGradient>
<linearGradient id="paint3_linear_890_84352" x1="247.932" y1="37.5642" x2="247.932" y2="466.71" gradientUnits="userSpaceOnUse">
<stop stop-color="#D1AFFF"/>
<stop offset="1" stop-color="#906CFF"/>
</linearGradient>
<linearGradient id="paint4_linear_890_84352" x1="245.305" y1="48.6437" x2="245.305" y2="458.887" gradientUnits="userSpaceOnUse">
<stop stop-color="#D1AFFF"/>
<stop offset="1" stop-color="#906CFF"/>
</linearGradient>
<linearGradient id="paint5_linear_890_84352" x1="243.136" y1="60.5029" x2="243.136" y2="452.408" gradientUnits="userSpaceOnUse">
<stop stop-color="#D1AFFF"/>
<stop offset="1" stop-color="#906CFF"/>
</linearGradient>
<linearGradient id="paint6_linear_890_84352" x1="240.631" y1="72.6832" x2="240.631" y2="445.367" gradientUnits="userSpaceOnUse">
<stop stop-color="#D1AFFF"/>
<stop offset="1" stop-color="#906CFF"/>
</linearGradient>
<linearGradient id="paint7_linear_890_84352" x1="238.537" y1="81.5481" x2="238.537" y2="438.346" gradientUnits="userSpaceOnUse">
<stop stop-color="#D1AFFF"/>
<stop offset="1" stop-color="#906CFF"/>
</linearGradient>
<linearGradient id="paint8_linear_890_84352" x1="236.395" y1="84.4113" x2="236.395" y2="431.399" gradientUnits="userSpaceOnUse">
<stop stop-color="#D1AFFF"/>
<stop offset="1" stop-color="#906CFF"/>
</linearGradient>
<linearGradient id="paint9_linear_890_84352" x1="235.634" y1="88.7097" x2="235.634" y2="423.757" gradientUnits="userSpaceOnUse">
<stop stop-color="#D1AFFF"/>
<stop offset="1" stop-color="#906CFF"/>
</linearGradient>
<linearGradient id="paint10_linear_890_84352" x1="234.891" y1="95.269" x2="234.891" y2="414.453" gradientUnits="userSpaceOnUse">
<stop stop-color="#D1AFFF"/>
<stop offset="1" stop-color="#906CFF"/>
</linearGradient>
<linearGradient id="paint11_linear_890_84352" x1="234.816" y1="102.935" x2="234.816" y2="403.401" gradientUnits="userSpaceOnUse">
<stop stop-color="#D1AFFF"/>
<stop offset="1" stop-color="#906CFF"/>
</linearGradient>
<linearGradient id="paint12_linear_890_84352" x1="234.551" y1="112.731" x2="234.551" y2="394.396" gradientUnits="userSpaceOnUse">
<stop stop-color="#D1AFFF"/>
<stop offset="1" stop-color="#906CFF"/>
</linearGradient>
<linearGradient id="paint13_linear_890_84352" x1="234.97" y1="125.306" x2="234.97" y2="390.138" gradientUnits="userSpaceOnUse">
<stop stop-color="#D1AFFF"/>
<stop offset="1" stop-color="#906CFF"/>
</linearGradient>
<linearGradient id="paint14_linear_890_84352" x1="240.723" y1="135.226" x2="240.723" y2="389.835" gradientUnits="userSpaceOnUse">
<stop stop-color="#D1AFFF"/>
<stop offset="1" stop-color="#906CFF"/>
</linearGradient>
<linearGradient id="paint15_linear_890_84352" x1="245.567" y1="146.054" x2="245.567" y2="388.174" gradientUnits="userSpaceOnUse">
<stop stop-color="#D1AFFF"/>
<stop offset="1" stop-color="#906CFF"/>
</linearGradient>
<linearGradient id="paint16_linear_890_84352" x1="248.162" y1="154.615" x2="248.162" y2="383.564" gradientUnits="userSpaceOnUse">
<stop stop-color="#D1AFFF"/>
<stop offset="1" stop-color="#906CFF"/>
</linearGradient>
<linearGradient id="paint17_linear_890_84352" x1="249.561" y1="161.63" x2="249.561" y2="375.45" gradientUnits="userSpaceOnUse">
<stop stop-color="#D1AFFF"/>
<stop offset="1" stop-color="#906CFF"/>
</linearGradient>
<linearGradient id="paint18_linear_890_84352" x1="249.585" y1="167.667" x2="249.585" y2="365.063" gradientUnits="userSpaceOnUse">
<stop stop-color="#D1AFFF"/>
<stop offset="1" stop-color="#906CFF"/>
</linearGradient>
<linearGradient id="paint19_linear_890_84352" x1="248.675" y1="171.076" x2="248.675" y2="351.735" gradientUnits="userSpaceOnUse">
<stop stop-color="#D1AFFF"/>
<stop offset="1" stop-color="#906CFF"/>
</linearGradient>
<linearGradient id="paint20_linear_890_84352" x1="246.151" y1="173.261" x2="246.151" y2="335.545" gradientUnits="userSpaceOnUse">
<stop stop-color="#D1AFFF"/>
<stop offset="1" stop-color="#906CFF"/>
</linearGradient>
<linearGradient id="paint21_linear_890_84352" x1="242.562" y1="172.388" x2="242.562" y2="317.832" gradientUnits="userSpaceOnUse">
<stop stop-color="#D1AFFF"/>
<stop offset="1" stop-color="#906CFF"/>
</linearGradient>
<linearGradient id="paint22_linear_890_84352" x1="239.391" y1="170.811" x2="239.391" y2="297.795" gradientUnits="userSpaceOnUse">
<stop stop-color="#D1AFFF"/>
<stop offset="1" stop-color="#906CFF"/>
</linearGradient>
<linearGradient id="paint23_linear_890_84352" x1="232.809" y1="164.296" x2="232.809" y2="274.146" gradientUnits="userSpaceOnUse">
<stop stop-color="#D1AFFF"/>
<stop offset="1" stop-color="#906CFF"/>
</linearGradient>
<linearGradient id="paint24_linear_890_84352" x1="230.317" y1="158.011" x2="230.317" y2="254.24" gradientUnits="userSpaceOnUse">
<stop stop-color="#D1AFFF"/>
<stop offset="1" stop-color="#906CFF"/>
</linearGradient>
<linearGradient id="paint25_linear_890_84352" x1="224.765" y1="152.002" x2="224.765" y2="234.334" gradientUnits="userSpaceOnUse">
<stop stop-color="#D1AFFF"/>
<stop offset="1" stop-color="#906CFF"/>
</linearGradient>
<linearGradient id="paint26_linear_890_84352" x1="220.651" y1="146.707" x2="220.651" y2="214.806" gradientUnits="userSpaceOnUse">
<stop stop-color="#D1AFFF"/>
<stop offset="1" stop-color="#906CFF"/>
</linearGradient>
<linearGradient id="paint27_linear_890_84352" x1="217.355" y1="142.63" x2="217.355" y2="196.864" gradientUnits="userSpaceOnUse">
<stop stop-color="#D1AFFF"/>
<stop offset="1" stop-color="#906CFF"/>
</linearGradient>
<linearGradient id="paint28_linear_890_84352" x1="215.394" y1="140.169" x2="215.394" y2="181.821" gradientUnits="userSpaceOnUse">
<stop stop-color="#D1AFFF"/>
<stop offset="1" stop-color="#906CFF"/>
</linearGradient>
<linearGradient id="paint29_linear_890_84352" x1="214.04" y1="140.1" x2="214.04" y2="168.681" gradientUnits="userSpaceOnUse">
<stop stop-color="#D1AFFF"/>
<stop offset="1" stop-color="#906CFF"/>
</linearGradient>
<linearGradient id="paint30_linear_890_84352" x1="213.293" y1="142.642" x2="213.293" y2="158.143" gradientUnits="userSpaceOnUse">
<stop stop-color="#D1AFFF"/>
<stop offset="1" stop-color="#906CFF"/>
</linearGradient>
<linearGradient id="paint31_linear_890_84352" x1="289.235" y1="148.685" x2="289.235" y2="444.403" gradientUnits="userSpaceOnUse">
<stop stop-color="#D1AFFF"/>
<stop offset="1" stop-color="#906CFF"/>
</linearGradient>
<linearGradient id="paint32_linear_890_84352" x1="293.619" y1="148.806" x2="293.619" y2="467.042" gradientUnits="userSpaceOnUse">
<stop stop-color="#D1AFFF"/>
<stop offset="1" stop-color="#906CFF"/>
</linearGradient>
<linearGradient id="paint33_linear_890_84352" x1="288.064" y1="148.594" x2="288.064" y2="491.977" gradientUnits="userSpaceOnUse">
<stop stop-color="#D1AFFF"/>
<stop offset="1" stop-color="#906CFF"/>
</linearGradient>
<linearGradient id="paint34_linear_890_84352" x1="292.131" y1="148.534" x2="292.131" y2="475.077" gradientUnits="userSpaceOnUse">
<stop stop-color="#D1AFFF"/>
<stop offset="1" stop-color="#906CFF"/>
</linearGradient>
<linearGradient id="paint35_linear_890_84352" x1="320.977" y1="148.489" x2="320.977" y2="435.25" gradientUnits="userSpaceOnUse">
<stop stop-color="#D1AFFF"/>
<stop offset="1" stop-color="#906CFF"/>
</linearGradient>
<linearGradient id="paint36_linear_890_84352" x1="350.935" y1="148.277" x2="350.935" y2="385.154" gradientUnits="userSpaceOnUse">
<stop stop-color="#D1AFFF"/>
<stop offset="1" stop-color="#906CFF"/>
</linearGradient>
<linearGradient id="paint37_linear_890_84352" x1="354.612" y1="148.383" x2="354.612" y2="346.384" gradientUnits="userSpaceOnUse">
<stop stop-color="#D1AFFF"/>
<stop offset="1" stop-color="#906CFF"/>
</linearGradient>
<linearGradient id="paint38_linear_890_84352" x1="341.184" y1="148.428" x2="341.184" y2="313.777" gradientUnits="userSpaceOnUse">
<stop stop-color="#D1AFFF"/>
<stop offset="1" stop-color="#906CFF"/>
</linearGradient>
<linearGradient id="paint39_linear_890_84352" x1="334.027" y1="148.307" x2="334.027" y2="278.844" gradientUnits="userSpaceOnUse">
<stop stop-color="#D1AFFF"/>
<stop offset="1" stop-color="#906CFF"/>
</linearGradient>
<linearGradient id="paint40_linear_890_84352" x1="312.715" y1="148.232" x2="312.715" y2="236.827" gradientUnits="userSpaceOnUse">
<stop stop-color="#D1AFFF"/>
<stop offset="1" stop-color="#906CFF"/>
</linearGradient>
<linearGradient id="paint41_linear_890_84352" x1="295.92" y1="148.247" x2="295.92" y2="201.289" gradientUnits="userSpaceOnUse">
<stop stop-color="#D1AFFF"/>
<stop offset="1" stop-color="#906CFF"/>
</linearGradient>
<linearGradient id="paint42_linear_890_84352" x1="292.636" y1="96.79" x2="292.636" y2="181.444" gradientUnits="userSpaceOnUse">
<stop stop-color="#D1AFFF"/>
<stop offset="1" stop-color="#906CFF"/>
</linearGradient>
<linearGradient id="paint43_linear_890_84352" x1="286.097" y1="78.3004" x2="286.097" y2="170.917" gradientUnits="userSpaceOnUse">
<stop stop-color="#D1AFFF"/>
<stop offset="1" stop-color="#906CFF"/>
</linearGradient>
<linearGradient id="paint44_linear_890_84352" x1="268.138" y1="72.5204" x2="268.138" y2="170.564" gradientUnits="userSpaceOnUse">
<stop stop-color="#D1AFFF"/>
<stop offset="1" stop-color="#906CFF"/>
</linearGradient>
<linearGradient id="paint45_linear_890_84352" x1="239.194" y1="36.5298" x2="239.194" y2="180.658" gradientUnits="userSpaceOnUse">
<stop stop-color="#D1AFFF"/>
<stop offset="1" stop-color="#906CFF"/>
</linearGradient>
<linearGradient id="paint46_linear_890_84352" x1="221.988" y1="10.6582" x2="221.988" y2="187.439" gradientUnits="userSpaceOnUse">
<stop stop-color="#D1AFFF"/>
<stop offset="1" stop-color="#906CFF"/>
</linearGradient>
<linearGradient id="paint47_linear_890_84352" x1="194.558" y1="36.6204" x2="194.558" y2="193.586" gradientUnits="userSpaceOnUse">
<stop stop-color="#D1AFFF"/>
<stop offset="1" stop-color="#906CFF"/>
</linearGradient>
<linearGradient id="paint48_linear_890_84352" x1="178.887" y1="86.9285" x2="178.887" y2="214.021" gradientUnits="userSpaceOnUse">
<stop stop-color="#D1AFFF"/>
<stop offset="1" stop-color="#906CFF"/>
</linearGradient>
<linearGradient id="paint49_linear_890_84352" x1="163.897" y1="133.355" x2="163.897" y2="246.372" gradientUnits="userSpaceOnUse">
<stop stop-color="#D1AFFF"/>
<stop offset="1" stop-color="#906CFF"/>
</linearGradient>
<linearGradient id="paint50_linear_890_84352" x1="147.903" y1="148.262" x2="147.903" y2="278.089" gradientUnits="userSpaceOnUse">
<stop stop-color="#D1AFFF"/>
<stop offset="1" stop-color="#906CFF"/>
</linearGradient>
<linearGradient id="paint51_linear_890_84352" x1="130.46" y1="148.398" x2="130.46" y2="306.955" gradientUnits="userSpaceOnUse">
<stop stop-color="#D1AFFF"/>
<stop offset="1" stop-color="#906CFF"/>
</linearGradient>
<linearGradient id="paint52_linear_890_84352" x1="117.908" y1="148.458" x2="117.908" y2="334.35" gradientUnits="userSpaceOnUse">
<stop stop-color="#D1AFFF"/>
<stop offset="1" stop-color="#906CFF"/>
</linearGradient>
<linearGradient id="paint53_linear_890_84352" x1="112.631" y1="148.489" x2="112.631" y2="362.275" gradientUnits="userSpaceOnUse">
<stop stop-color="#D1AFFF"/>
<stop offset="1" stop-color="#906CFF"/>
</linearGradient>
<linearGradient id="paint54_linear_890_84352" x1="117.267" y1="148.489" x2="117.267" y2="382.269" gradientUnits="userSpaceOnUse">
<stop stop-color="#D1AFFF"/>
<stop offset="1" stop-color="#906CFF"/>
</linearGradient>
<linearGradient id="paint55_linear_890_84352" x1="143.319" y1="148.519" x2="143.319" y2="387.963" gradientUnits="userSpaceOnUse">
<stop stop-color="#D1AFFF"/>
<stop offset="1" stop-color="#906CFF"/>
</linearGradient>
<linearGradient id="paint56_linear_890_84352" x1="158.468" y1="148.67" x2="158.468" y2="387.678" gradientUnits="userSpaceOnUse">
<stop stop-color="#D1AFFF"/>
<stop offset="1" stop-color="#906CFF"/>
</linearGradient>
<linearGradient id="paint57_linear_890_84352" x1="155.373" y1="148.791" x2="155.373" y2="401.012" gradientUnits="userSpaceOnUse">
<stop stop-color="#D1AFFF"/>
<stop offset="1" stop-color="#906CFF"/>
</linearGradient>
<linearGradient id="paint58_linear_890_84352" x1="168.936" y1="148.776" x2="168.936" y2="472.978" gradientUnits="userSpaceOnUse">
<stop stop-color="#D1AFFF"/>
<stop offset="1" stop-color="#906CFF"/>
</linearGradient>
<linearGradient id="paint59_linear_890_84352" x1="211.851" y1="148.987" x2="211.851" y2="492.159" gradientUnits="userSpaceOnUse">
<stop stop-color="#D1AFFF"/>
<stop offset="1" stop-color="#906CFF"/>
</linearGradient>
<linearGradient id="paint60_linear_890_84352" x1="263.057" y1="148.896" x2="263.057" y2="467.405" gradientUnits="userSpaceOnUse">
<stop stop-color="#D1AFFF"/>
<stop offset="1" stop-color="#906CFF"/>
</linearGradient>
</defs>
</svg>
